<?xml version="1.0" encoding="UTF-8"?>
<svg width="45px" height="17px" viewBox="0 0 45 17" version="1.1" xmlns="http://www.w3.org/2000/svg" xmlns:xlink="http://www.w3.org/1999/xlink">
    <title>amex</title>
    <defs>
        <polygon id="path-1" points="-1.0493602e-16 0 39 0 39 11 -1.0493602e-16 11"></polygon>
    </defs>
    <g id="Page-1" stroke="none" stroke-width="1" fill="none" fill-rule="evenodd">
        <g id="amex">
            <g id="Group-8" transform="translate(3.000000, 3.000000)">
                <g id="Fill-1-Clipped">
                    <mask id="mask-2" fill="white">
                        <use xlink:href="#path-1"></use>
                    </mask>
                    <g id="path-1"></g>
                    <path d="M11.5297123,10.9488116 C10.6703471,10.9481116 9.81098189,10.9473116 8.95165606,10.9492116 C9.81098189,10.9473116 10.6703471,10.9481116 11.5297123,10.9485116 C12.4316894,10.9488116 13.3337452,10.9488116 14.2357223,10.9487116 C13.3337452,10.9488116 12.4316894,10.9488116 11.5297123,10.9488116 M33.6651895,9.26383256 C33.5660638,9.11834509 33.4428754,8.98529986 33.3087386,8.86682306 C33.2806983,8.84205673 33.2575808,8.81587292 33.2450965,8.78161741 C33.2361173,8.75692983 33.2309976,8.7306279 33.2090222,8.71350015 C33.1176548,8.64242982 33.0241608,8.5739188 32.9865505,8.4555995 C32.9817852,8.4406767 32.957565,8.43103004 32.9410243,8.42110775 C32.9272405,8.41276043 32.9030202,8.41146109 32.8980187,8.40043633 C32.8429226,8.27845523 32.7261929,8.20809363 32.6519963,8.10264967 C32.6352981,8.07894644 32.6291151,8.04484843 32.6081242,8.0276813 C32.3968765,7.85538005 32.256793,7.61901706 32.064764,7.42919432 C31.9844632,7.34985542 31.9358652,7.24027717 31.8335101,7.18003473 C31.794679,7.15715835 31.8077933,7.10845254 31.7859361,7.07553575 C31.7072498,6.95717708 31.577012,6.95359403 31.4617788,6.95119221 C31.3723018,6.94930225 31.3361881,7.05297437 31.2779414,7.11447678 C31.1915756,7.20570667 31.1210416,7.31296184 31.0245151,7.39289135 C30.9762322,7.43285611 30.9216086,7.45994552 30.9115661,7.52936214 C30.9098333,7.54137125 30.9029413,7.55763277 30.8934896,7.56271204 C30.7803831,7.62338759 30.7289889,7.74151003 30.643844,7.82584944 C30.5114007,7.95696534 30.3915204,8.09934225 30.2733729,8.24069542 C30.1904334,8.33999701 30.0679539,8.41252419 30.0320371,8.55427111 C30.021325,8.59651956 29.928855,8.59679518 29.9121174,8.64680035 C29.8641889,8.78953162 29.6870071,8.82414149 29.648491,8.97230639 C29.6453404,8.98451238 29.625216,8.99837208 29.6111958,9.00073453 C29.5151026,9.01672043 29.4639053,9.07778973 29.4377948,9.16590906 C29.4289731,9.19559716 29.4036895,9.2007158 29.3789573,9.21103183 C29.3140156,9.23804249 29.2567535,9.27521168 29.2424182,9.35183377 C29.2359201,9.38648301 29.2151262,9.40140582 29.181336,9.40372889 C29.0967424,9.40955626 29.0122276,9.4216835 28.9277128,9.42176225 C27.225523,9.42282535 25.5232939,9.4239672 23.8211435,9.42109289 C23.5488136,9.42065977 23.5399131,9.40573697 23.5382591,9.13346477 C23.5308946,7.92097737 23.5350691,6.70845061 23.5350691,5.49592384 L23.5350691,1.89767832 C23.5350691,1.87145514 23.5342027,1.84523196 23.5353054,1.81904815 C23.5434576,1.62505175 23.573979,1.59520614 23.7643933,1.59520614 C25.6174968,1.59516677 27.4705609,1.59544239 29.3236249,1.59426116 C29.396837,1.59422179 29.4591401,1.59874982 29.4952538,1.67596251 C29.5065566,1.70013824 29.5350301,1.72088841 29.5605106,1.73297627 C29.6174183,1.75998694 29.6616842,1.79266748 29.664244,1.86232034 C29.6646379,1.87436882 29.6715298,1.89240218 29.6807453,1.89696958 C29.8630862,1.98760886 29.8499325,2.22920861 30.0184895,2.33244762 C30.0508619,2.35225281 30.0736644,2.39946241 30.085361,2.43863968 C30.1058792,2.50746569 30.1610935,2.53719317 30.2065409,2.58290655 C30.2914495,2.66823032 30.3565487,2.76946124 30.4497671,2.85324942 C30.5094709,2.90695575 30.5156934,3.02342447 30.6327775,3.03405549 C30.6621962,3.03673293 30.6611723,3.06614542 30.6612904,3.08902179 C30.6617236,3.17993669 30.7139842,3.22616194 30.7968843,3.24269908 C30.8322892,3.24974705 30.861511,3.25699189 30.8578878,3.30168155 C30.8482785,3.4199221 30.9448837,3.47689649 31.0045875,3.55513291 C31.0064385,3.55753473 31.0117158,3.5578891 31.0127397,3.5603303 C31.075988,3.71495256 31.245569,3.78980281 31.3045639,3.94643315 C31.3258699,4.0028563 31.3704114,4.03565496 31.4184581,4.04289981 C31.4837936,4.05282209 31.5309738,4.0790059 31.5756336,4.12440429 C31.6273822,4.17704752 31.6806667,4.18157554 31.7300129,4.11475762 C31.7753815,4.05329458 31.8569033,4.01935407 31.8667095,3.92969914 C31.8683242,3.91477634 31.8902996,3.89792421 31.9067221,3.88953752 C32.0050602,3.83933548 32.0624405,3.76476085 32.0581872,3.65022147 C32.0579509,3.64419722 32.0605895,3.63392057 32.0645278,3.63242436 C32.1692852,3.59289271 32.1965772,3.48508631 32.2634881,3.41385848 C32.3201201,3.35345855 32.3785243,3.29034179 32.440276,3.23632047 C32.5690568,3.12367104 32.6492001,2.97192309 32.7729793,2.85730496 C32.7969238,2.83517669 32.8231526,2.81249718 32.8385117,2.78469903 C32.8819112,2.70626574 32.9220814,2.63755786 33.0000981,2.57487422 C33.0800051,2.51065499 33.1158038,2.38642957 33.2283983,2.34047994 C33.2409613,2.17632914 33.4056195,2.12344966 33.4857235,2.00583909 C33.5886299,1.85468175 33.7285165,1.71580915 33.8780912,1.59713548 C33.9071161,1.5741016 33.9394097,1.57768465 33.9717821,1.57768465 C34.5391656,1.5774484 35.1065491,1.57748778 35.6739719,1.57756653 C35.715993,1.5776059 35.7714042,1.56925858 35.7845579,1.61611381 C35.7953093,1.65434611 35.7606921,1.69411399 35.7313128,1.7259283 C35.656683,1.80672405 35.5674423,1.87842436 35.5573604,2.00032671 C35.5558244,2.01902943 35.5398352,2.02651052 35.5256968,2.03477909 C35.508723,2.04462262 35.483597,2.05048937 35.4762324,2.0652153 C35.4059347,2.20511163 35.2524218,2.27681195 35.1869681,2.42001571 C35.1705456,2.45596431 35.1494366,2.48517992 35.1142286,2.50892253 C35.0003739,2.58582023 34.9682772,2.73016585 34.8630865,2.81777332 C34.7706558,2.89478914 34.7003975,3.00220181 34.6361647,3.09630601 C34.5542491,3.2163184 34.4344082,3.30416212 34.3697815,3.43543551 C34.354698,3.4660686 34.3251612,3.4936305 34.2957031,3.51229384 C34.2353691,3.55056551 34.208274,3.61435162 34.1647169,3.66329368 C34.0566514,3.7846448 33.9689466,3.91839876 33.873129,4.04750658 C33.8242947,4.11330078 33.7504526,4.1615341 33.727532,4.24792097 C33.7197736,4.27729409 33.6949233,4.28674388 33.671727,4.29891049 C33.6121019,4.33017356 33.563819,4.3707683 33.5445609,4.43979118 C33.5336914,4.47865346 33.5067931,4.50590037 33.4710732,4.52794989 C33.4173161,4.56114229 33.3747043,4.60610756 33.356037,4.66957868 C33.3515867,4.68481648 33.3456006,4.70513354 33.333904,4.71182714 C33.1938205,4.79187477 33.1480974,4.95413562 33.0323129,5.05485468 C32.9717033,5.10753729 32.9228296,5.16825222 32.9070766,5.24908733 C32.9000272,5.28535092 32.8762795,5.3024393 32.848633,5.32232324 C32.7361567,5.40335523 32.6885432,5.58223197 32.8701359,5.6542079 C32.9021932,5.66692575 32.9175918,5.69464515 32.9239717,5.73055437 C32.9312575,5.7717791 32.9396853,5.81469691 32.9730029,5.84572374 C33.1355738,5.9969992 33.2316277,6.20741463 33.3941198,6.35172086 C33.5167963,6.46066912 33.554761,6.63879775 33.7153234,6.70817499 C33.7399374,6.71880601 33.7442695,6.74837599 33.7506101,6.77499291 C33.7572263,6.80275168 33.7672689,6.84259832 33.7875902,6.85208749 C33.9178281,6.91299929 33.9288946,7.06447162 34.0205376,7.14995289 C34.1319901,7.25390063 34.1917727,7.4021049 34.3213411,7.48809803 C34.3697815,7.52026671 34.3633228,7.58617903 34.3983338,7.61901706 C34.4819822,7.69752911 34.5583055,7.77552929 34.6220657,7.87542149 C34.6684189,7.94802741 34.7317066,8.02043646 34.7908984,8.08682127 C34.920073,8.23167874 35.0235702,8.39634141 35.1567617,8.5396633 C35.2420248,8.63132631 35.362929,8.71629571 35.4017208,8.8524515 C35.403493,8.85859387 35.4064073,8.86623245 35.4112513,8.86934301 C35.5542491,8.96206912 35.5986332,9.13602408 35.7224517,9.24560233 C35.7658119,9.28399212 35.8306354,9.329548 35.8020437,9.39805901 C35.7736884,9.46613691 35.6989404,9.44003185 35.6427416,9.44018935 C35.09501,9.44140995 34.5473178,9.4410162 33.9995862,9.44089808 C33.8569428,9.44089808 33.7528155,9.39246788 33.6651895,9.26383256 M14.4826898,6.44491946 C14.4732774,6.32522207 14.4968675,6.20331972 14.4470881,6.08598477 C14.4251126,6.03416839 14.3958908,5.98778565 14.3480805,5.97101227 C14.2771526,5.94600968 14.2657317,5.90065067 14.2634475,5.83568333 C14.2589973,5.70818985 14.2590761,5.57569586 14.1135578,5.51171288 C14.0835483,5.49848316 14.091031,5.46848007 14.086502,5.44328061 C14.0583435,5.28665027 14.0449929,5.12616126 13.9017588,5.01524429 C13.8492619,4.97461018 13.8578473,4.89546815 13.8524519,4.8318789 C13.8425275,4.71647329 13.8125968,4.61398239 13.7108325,4.54456578 C13.6576268,4.50826282 13.6605804,4.44703602 13.6564453,4.39443216 C13.6467966,4.27260856 13.6274992,4.1615341 13.4998999,4.10243351 C13.449766,4.07920277 13.4595329,4.02596893 13.4573668,3.98025554 C13.4512625,3.84969088 13.4435042,3.72247302 13.3496557,3.61344602 C13.3062956,3.56308649 13.2643533,3.55241609 13.2141406,3.57170943 C13.1587294,3.59301084 13.0896132,3.60813051 13.0858324,3.6888475 C13.0844934,3.71825999 13.0852023,3.74782997 13.0852023,3.77732121 C13.0850448,5.60601395 13.0850054,7.4347067 13.0844934,9.26343881 C13.0844934,9.42093539 13.0992619,9.40384701 12.9402748,9.40392576 C11.7857378,9.40451637 10.6312403,9.4030989 9.47666398,9.40656383 C9.39242484,9.40680007 9.36048564,9.37975004 9.34859213,9.30234047 C9.32740436,9.16460971 9.31169074,9.02798143 9.19870239,8.92009628 C9.1343908,8.85867261 9.14868664,8.75425238 9.13127958,8.66861362 C9.10954045,8.56187032 9.07590781,8.4659549 9.00458612,8.37724496 C8.92960187,8.28400698 8.9392112,8.15576539 8.91475468,8.04232849 C8.89577232,7.95420915 8.86962235,7.87211406 8.80286904,7.80765859 C8.77616771,7.78186852 8.76395914,7.74879424 8.75517685,7.7127669 C8.73969953,7.64965015 8.72193803,7.58779337 8.68751774,7.53034649 C8.6388016,7.44896014 8.57366297,7.41458651 8.47745156,7.414744 C7.35575962,7.41655522 6.23398891,7.41541336 5.11225758,7.41572836 C4.91522701,7.41580711 4.79581931,7.51073817 4.7513171,7.70627017 C4.72335554,7.82919624 4.69921408,7.94802741 4.61005213,8.04973083 C4.53498911,8.13540896 4.55105717,8.25991001 4.52325313,8.36625957 C4.51250171,8.4073268 4.51033568,8.45248894 4.48343744,8.48564197 C4.38332716,8.60915866 4.33756471,8.75314991 4.31696768,8.90722093 C4.30802785,8.97388136 4.27813654,9.0251465 4.23355557,9.07755348 C4.18389426,9.13598471 4.1610918,9.21496924 4.14762299,9.29312692 C4.12411165,9.42940083 4.10969766,9.44089808 3.96859021,9.44085871 C3.48643044,9.44081933 3.00427068,9.44089808 2.52211091,9.44093746 C2.47307972,9.44097683 2.42530876,9.43763003 2.3764351,9.42629027 C2.24131379,9.39486971 2.24229835,9.39872837 2.32027567,9.2942294 C2.37048834,9.22693898 2.37631695,9.14228457 2.39829238,9.06436314 C2.4236547,8.9744326 2.4366903,8.88355707 2.50616101,8.80815559 C2.59626813,8.71031084 2.58941558,8.5707295 2.63269693,8.45205583 C2.64037651,8.43095129 2.63785604,8.40460999 2.65770481,8.39004155 C2.77175649,8.30617463 2.79018749,8.17883864 2.81495907,8.05335325 C2.82956997,7.97944798 2.85611377,7.91381128 2.91077666,7.85431695 C2.97307975,7.78659342 2.99765442,7.69465479 3.00903596,7.60224368 C3.02037811,7.50987194 3.04802462,7.42832808 3.11592002,7.35713963 C3.21410056,7.25429437 3.20803566,7.10971251 3.24340113,6.98214028 C3.25135639,6.95339716 3.25230157,6.92331531 3.27782142,6.90425823 C3.35347517,6.84755946 3.38155489,6.76609436 3.40451488,6.67899875 C3.42865634,6.58737512 3.44397613,6.49898016 3.53754891,6.43133538 C3.60883121,6.37975525 3.62107916,6.26560961 3.635375,6.17260788 C3.64612642,6.10260065 3.66636902,6.05019367 3.72201647,5.99735357 C3.8118873,5.91199042 3.83784036,5.7886706 3.85189991,5.66747699 C3.86052467,5.59353235 3.88537502,5.53451051 3.94515763,5.48359974 C4.03790338,5.40469395 4.03959683,5.2861384 4.04830036,5.17667828 C4.05483785,5.09478006 4.06724334,5.03315953 4.14683534,4.98126441 C4.22997177,4.92704621 4.24462205,4.82144476 4.24580352,4.72568684 C4.24737882,4.59705151 4.26872413,4.48373272 4.37182748,4.38994351 C4.44488199,4.32351933 4.42991664,4.21335048 4.46343114,4.12582175 C4.4738675,4.09861422 4.47367058,4.0604213 4.49273171,4.0445929 C4.61513247,3.94285011 4.6292314,3.79641767 4.65813814,3.65707257 C4.67515138,3.57493811 4.70610601,3.5074902 4.7664006,3.44488531 C4.85753167,3.35022987 4.84559877,3.21438907 4.87741982,3.09614851 C4.88490249,3.06823225 4.8790345,3.0367723 4.90900458,3.01846333 C5.03589494,2.94093564 5.04050269,2.80993786 5.05613754,2.68350748 C5.06157232,2.63980218 5.03943937,2.58889142 5.08331145,2.55463591 C5.22071695,2.44749887 5.24946616,2.28807296 5.28609187,2.1332932 C5.29550429,2.09352531 5.30865804,2.06013604 5.33717095,2.03056605 C5.43562717,1.92850827 5.455791,1.79353371 5.48150776,1.66340216 C5.49434645,1.59823795 5.52179605,1.58036209 5.58543814,1.57681842 C6.29948198,1.53689304 7.01411656,1.56933733 7.72835731,1.56004503 C7.79637086,1.5591788 7.86466009,1.57173915 7.93271302,1.57890525 C7.98229557,1.58414201 7.99485859,1.62414614 8.00245941,1.66249656 C8.02829432,1.79353371 8.04396855,1.92571271 8.15908355,2.02088001 C8.20122281,2.05572613 8.1906683,2.12419777 8.20189231,2.17762848 C8.22556118,2.29039603 8.24986018,2.39930491 8.34552023,2.48041565 C8.39959239,2.52624715 8.40648432,2.60160927 8.41766895,2.66866343 C8.43893549,2.79564505 8.46165918,2.92085482 8.56570771,3.01141536 C8.60453884,3.04519837 8.60146701,3.09480979 8.61213966,3.13760949 C8.64207035,3.25766125 8.66463651,3.37369686 8.76963022,3.46429676 C8.81460502,3.50311967 8.81747994,3.59529454 8.83094875,3.66490802 C8.85426318,3.78578665 8.88506028,3.9006804 8.99119608,3.97868058 C9.02329281,4.00226569 9.02762488,4.03628495 9.02853068,4.07432037 C9.03195695,4.21464982 9.05987913,4.34363952 9.17105589,4.44656353 C9.23335898,4.50424665 9.22256818,4.59803586 9.24190498,4.67536668 C9.26474682,4.76659657 9.29385048,4.84943977 9.36592043,4.91326526 C9.42215862,4.96311293 9.42688451,5.03705757 9.43704519,5.10214303 C9.45673644,5.22814029 9.48591886,5.34464838 9.58847085,5.43162587 C9.63190973,5.46848007 9.62753828,5.52663568 9.6380534,5.57664084 C9.66164351,5.68917214 9.68428844,5.79859289 9.77986973,5.88017612 C9.84339368,5.93431556 9.83224843,6.0244036 9.8539088,6.09819075 C9.88423331,6.20131163 9.9013647,6.30557437 9.98820308,6.38574012 C10.0349895,6.42889419 10.0429841,6.50209072 10.0524753,6.56709743 C10.0696461,6.684708 10.0933937,6.79735743 10.1925588,6.88063374 C10.2681732,6.94414424 10.2479699,7.04427268 10.2662434,7.12802149 C10.2842806,7.21074656 10.312124,7.28768364 10.369268,7.34627237 C10.4284993,7.40702667 10.4517349,7.48030195 10.4638253,7.55656967 C10.4821382,7.67244778 10.5164403,7.77761612 10.6032,7.86069556 C10.6502227,7.90577895 10.6423068,7.97011631 10.6577447,8.02559447 C10.6900777,8.14155133 10.7072485,8.26034312 10.8187797,8.33917016 C10.8597375,8.36811015 10.8447327,8.43662116 10.8589498,8.48619321 C10.8880535,8.58789663 10.884706,8.70027043 10.9635891,8.78520046 C11.0387309,8.86611433 11.1442759,8.90824466 11.2175274,8.99486778 C11.2512388,9.03475379 11.2789246,8.97230639 11.2855803,8.94277579 C11.3012151,8.87328042 11.3153534,8.80347006 11.3153141,8.73039165 C11.3139357,6.42976042 11.3139751,4.12912918 11.3139357,1.82853732 C11.3139357,1.57752715 11.314172,1.57752715 11.5646446,1.57752715 C12.3813586,1.57752715 13.1980332,1.57748778 14.0147865,1.57756653 C14.1541611,1.57756653 14.2925118,1.6858848 14.3248448,1.82168622 C14.3593439,1.96662244 14.3765934,2.11392112 14.5002938,2.22653117 C14.544796,2.26704716 14.5432995,2.35937953 14.5597613,2.42875677 C14.5783893,2.50746569 14.6175748,2.56979496 14.6754277,2.62846243 C14.7484034,2.70244645 14.7491123,2.8113947 14.7721117,2.90675888 C14.7858562,2.96349702 14.7998764,3.01488028 14.8451662,3.05114387 C14.9146369,3.10677953 14.9370062,3.18615781 14.9508688,3.26592982 C14.9663855,3.35467914 14.9849347,3.44098727 15.0527513,3.50371028 C15.1335642,3.5784424 15.1474268,3.67766525 15.1700717,3.77606123 C15.1905112,3.86524367 15.2157948,3.95060681 15.3018061,4.00754183 C15.3701741,4.05278272 15.3464265,4.13999645 15.3629671,4.20756248 C15.3874237,4.30745468 15.4127466,4.39773959 15.4978521,4.47003052 C15.5638966,4.5260993 15.5614549,4.6241803 15.5799646,4.70509416 C15.5987107,4.7874255 15.6229309,4.86140951 15.6886603,4.9183839 C15.7521448,4.97342895 15.7610453,5.05434282 15.7788856,5.12907494 C15.8019243,5.22573847 15.8315006,5.31728335 15.9045157,5.38957428 C15.9535863,5.43816197 15.9683547,5.50198746 15.9763493,5.56774228 C15.9882035,5.66499642 16.0227813,5.75134392 16.097608,5.81772872 C16.1466392,5.86119778 16.1651884,5.91407725 16.1768849,5.97947771 C16.1977577,6.09630079 16.2175671,6.2141476 16.3244511,6.29970762 C16.3817526,6.3455785 16.3637942,6.43921021 16.3878963,6.50917807 C16.3994354,6.54272484 16.4001443,6.57989403 16.410108,6.61414953 C16.4409051,6.71986911 16.5321937,6.7571958 16.6336824,6.72790144 C16.7995614,6.6799831 16.8813195,6.57170421 16.9055791,6.40700216 C16.9184178,6.31986718 16.945316,6.24104015 17.0110848,6.17146603 C17.1020977,6.0751175 17.094615,5.93494555 17.1374238,5.81631125 C17.1450246,5.79516734 17.1425041,5.76839292 17.1625498,5.75445447 C17.2936541,5.66330333 17.3040117,5.51108289 17.3546576,5.37921888 C17.3615495,5.36130365 17.3624159,5.33571045 17.375294,5.32622128 C17.5151018,5.22306103 17.521403,5.06391074 17.5505854,4.9147221 C17.5557445,4.88845955 17.556926,4.86180325 17.5790196,4.84424239 C17.6959462,4.75155565 17.7321387,4.62146348 17.7479704,4.48211838 C17.7510029,4.45526522 17.7527357,4.4283333 17.7789644,4.41400111 C17.8924254,4.35194746 17.9257824,4.24303858 17.941811,4.12763296 C17.9538621,4.04124609 17.9759163,3.96604148 18.0436935,3.90288535 C18.1045001,3.84618658 18.1324616,3.76558771 18.1398262,3.68286263 C18.1435675,3.64018106 18.1561305,3.59812948 18.1864156,3.5787574 C18.342449,3.47906206 18.3571387,3.31837618 18.3758848,3.15938339 C18.3802562,3.1222142 18.3799806,3.08161945 18.4148734,3.06413733 C18.5661022,2.98838148 18.561455,2.84301214 18.5708281,2.7092188 C18.5767355,2.625155 18.5813432,2.55672274 18.6600688,2.49974835 C18.7593914,2.42781179 18.7495458,2.30244452 18.7685282,2.19518935 C18.7766803,2.14900348 18.7930241,2.12073284 18.8307919,2.09305282 C18.9065244,2.03757465 18.9273971,1.95032155 18.9505934,1.86377718 C18.9723719,1.78231208 18.9667402,1.68895598 19.0556659,1.63292657 C19.0942607,1.60859335 19.1288779,1.59536364 19.1727894,1.59536364 C20.084612,1.5958755 20.9964347,1.59567863 21.9082574,1.59611175 C21.9936386,1.5961905 22.0471988,1.6557242 22.058541,1.76136503 C22.0616916,1.7905019 22.0594074,1.82030813 22.0594074,1.84979936 C22.0594468,3.06563355 22.0594468,4.28150712 22.0594468,5.49734131 C22.0594468,6.71975099 22.0587379,7.94220004 22.06122,9.16457034 C22.06122,9.23701876 22.043615,9.30060801 22.0101399,9.35915736 C21.9675674,9.43365324 21.8848642,9.41947855 21.8175595,9.42069915 C21.5683472,9.42530592 21.319056,9.42254973 21.0697649,9.42254973 C20.8008219,9.42254973 20.5318395,9.42388845 20.2629359,9.42160475 C20.1947649,9.42101414 20.1264756,9.41057999 20.0586984,9.4011302 C20.0202217,9.39581469 20.0017907,9.37317455 19.9912362,9.33049298 C19.9629595,9.21583547 19.9913543,9.10365854 19.9915118,8.99045787 C19.993796,7.37147182 19.9939142,5.75252514 19.9911574,4.13357846 C19.9909605,4.02801638 19.9904879,3.91733566 19.9349586,3.81956966 C19.9082179,3.77255693 19.8712377,3.72900913 19.815866,3.72684355 C19.7549019,3.7244811 19.7317056,3.78267609 19.7053981,3.82657826 C19.690669,3.85114773 19.6841316,3.88142644 19.677791,3.9099727 C19.6510109,4.03096944 19.6234825,4.14617819 19.528492,4.2420936 C19.431296,4.34033209 19.4546498,4.48751264 19.4241284,4.6126043 C19.413377,4.65670334 19.4023105,4.68666706 19.3647396,4.71572518 C19.2525783,4.8023483 19.2549806,4.93976406 19.229382,5.06186328 C19.2166615,5.12234197 19.1950011,5.16986656 19.1552248,5.21683991 C19.0559809,5.33401736 19.0412519,5.48430847 19.0088007,5.62676412 C19.0030115,5.65216045 19.0075011,5.68180918 18.9840685,5.69846444 C18.8485534,5.79481297 18.8465055,5.94963211 18.8120458,6.08968594 C18.8055871,6.11598786 18.8014519,6.14095107 18.7802641,6.15878756 C18.6744828,6.24808812 18.6571545,6.37503036 18.6335644,6.49964952 C18.6177326,6.58328021 18.5957178,6.66143788 18.5306973,6.72656272 C18.4425199,6.81480017 18.4279878,6.93638753 18.4192843,7.05344686 C18.4131012,7.13644755 18.3930162,7.20594292 18.3276412,7.26071235 C18.241433,7.33292453 18.2421812,7.44077031 18.2223718,7.53833944 C18.2063432,7.61752085 18.1798781,7.68614998 18.1203712,7.74462058 C18.0270347,7.83636234 18.0396371,7.96842322 18.0071466,8.08268698 C17.9906847,8.14056698 17.9751286,8.18852468 17.9290905,8.23274185 C17.8450483,8.31341947 17.8294922,8.42835259 17.8083438,8.53678899 C17.7968441,8.59561396 17.782115,8.64743033 17.7406059,8.69487617 C17.6391172,8.81095115 17.6198986,8.96045478 17.5933942,9.10428852 C17.582564,9.16291662 17.5608249,9.20827564 17.5193157,9.24855539 C17.4986005,9.26871495 17.4744197,9.29226069 17.467449,9.31844449 C17.4366125,9.43396823 17.3508768,9.45515152 17.2534839,9.43920499 C17.0738998,9.40975313 16.8938431,9.42286472 16.714259,9.42420344 C16.4886761,9.42589653 16.2624631,9.40491011 16.0373528,9.4399531 C15.9543345,9.4529072 15.8738761,9.42719588 15.7981042,9.39742903 C15.6921259,9.35573181 15.6898024,9.24599607 15.6696779,9.15866422 C15.6463635,9.05739392 15.6260815,8.96218724 15.5394794,8.8938731 C15.5011603,8.86359438 15.4950166,8.81524293 15.487022,8.77031703 C15.4636681,8.63794116 15.4334224,8.5131645 15.3340604,8.40807491 C15.2662044,8.33633522 15.2818392,8.22285894 15.2526962,8.1300147 C15.2367463,8.07922206 15.22375,8.02524011 15.1837374,7.99173271 C15.0954419,7.91770932 15.0735452,7.81521842 15.0564532,7.71272753 C15.0430238,7.63224678 15.0180159,7.55617593 14.9633924,7.50081588 C14.8931735,7.42974555 14.8760421,7.34300431 14.857808,7.25390063 C14.8398102,7.16586004 14.8093282,7.08159937 14.7431656,7.02072695 C14.6871637,6.96922556 14.6713319,6.90650255 14.6611319,6.83854278 C14.6438036,6.72345216 14.6174961,6.61375579 14.5112027,6.54378794 C14.4744195,6.51961221 14.4854466,6.47984433 14.4826898,6.44491946 M38.8430017,10.6637409 C38.8048795,10.6446444 38.7775874,10.6262173 38.7693959,10.5817245 C38.7567147,10.5128198 38.719577,10.4624996 38.6491611,10.4404501 C38.6231687,10.432339 38.6084003,10.4108801 38.5949314,10.3869013 C38.4869447,10.1948342 38.3532805,10.0220211 38.1992556,9.8645245 C38.1789343,9.84369558 38.1491217,9.82117356 38.1459711,9.79656472 C38.136283,9.72151761 38.0813445,9.68466341 38.0312499,9.6446199 C37.9308246,9.56425727 37.9105032,9.41676173 37.7868422,9.35671616 C37.7849125,9.35581056 37.7855426,9.3504163 37.7841248,9.34750261 C37.6987436,9.17205143 37.5562972,9.03743123 37.4316122,8.89450309 C37.3396935,8.78913788 37.2361176,8.67920527 37.1631024,8.57033576 C37.0817776,8.44914214 36.949098,8.36803141 36.8995548,8.22029962 C36.8754528,8.14832368 36.7797927,8.11119386 36.7454906,8.03319368 C36.679328,7.88254821 36.5154181,7.80631987 36.4538633,7.65114637 C36.4431118,7.62401758 36.40688,7.61921393 36.3811238,7.60539361 C36.3515476,7.58948646 36.309999,7.57605987 36.3116925,7.53137022 C36.3149612,7.44415649 36.2560057,7.40450673 36.1920879,7.36788877 C36.1694429,7.35497405 36.1475463,7.34481552 36.1351014,7.31768674 C36.0428283,7.11605175 35.9090853,6.94532546 35.7450179,6.79676681 C35.7192618,6.77341795 35.6976014,6.74132802 35.6844083,6.70900185 C35.6280125,6.57142859 35.4903708,6.49925578 35.416883,6.37140794 C35.3888821,6.32270212 35.3226408,6.28356422 35.2962545,6.21899062 C35.2855031,6.19264932 35.2673477,6.16579616 35.2453723,6.14815654 C35.1013112,6.0324753 35.0605109,5.82950159 34.8932141,5.73378305 C34.8856921,5.72945189 34.879509,5.71858463 34.8773036,5.70960732 C34.8581243,5.63302461 34.8177179,5.57297904 34.7469476,5.534668 C34.7100068,5.51466594 34.7002793,5.47159062 34.7308401,5.45509286 C34.8402053,5.39607101 34.8613537,5.26999501 34.9445689,5.19242794 C35.0240034,5.11836518 35.0940648,5.03630946 35.1288789,4.93058988 C35.136716,4.90692602 35.1487277,4.89133386 35.1729873,4.8827503 C35.2440727,4.8576296 35.2816436,4.80250579 35.3006653,4.73285293 C35.3085812,4.70383419 35.3150793,4.66910619 35.3440648,4.65942015 C35.4953723,4.60874563 35.4918673,4.40742563 35.6420721,4.3573811 C35.6737356,4.22752517 35.7884962,4.15952602 35.8663947,4.06550057 C35.9987986,3.90572029 36.1074549,3.72822165 36.2555331,3.57887552 C36.3259096,3.50792331 36.3894335,3.43169497 36.4622911,3.36137275 C36.5399534,3.28640438 36.5937498,3.17820423 36.689213,3.10985072 C36.7034301,3.09961344 36.7125668,3.07697331 36.7162688,3.05850683 C36.7246572,3.01653399 36.7499802,2.98570404 36.7818012,2.96361515 C36.9273983,2.86250234 37.0133308,2.70469077 37.1129291,2.56975558 C37.1792493,2.47998253 37.2299345,2.37162489 37.3114563,2.28527739 C37.3411113,2.25385683 37.3375668,2.1963312 37.3802575,2.1698324 C37.5143942,2.08655609 37.5794541,1.94122612 37.6846447,1.83129351 C37.8373306,1.67178885 37.9446872,1.47468189 38.1051709,1.31734281 C38.1783435,1.24556374 38.2274141,1.14641965 38.3072424,1.07023068 C38.3550921,1.02455667 38.3874645,0.954510072 38.4463413,0.913324718 C38.4875748,0.88446347 38.5184507,0.853161026 38.540111,0.805085196 C38.5593297,0.762482372 38.5943801,0.722202623 38.6321479,0.693813865 C38.6944904,0.646879885 38.7401741,0.588409281 38.7741218,0.521276366 C38.8073212,0.455560919 38.8486334,0.402720818 38.9101095,0.358661151 C38.9796983,0.308813485 39.0117557,0.232782012 38.9961602,0.143560202 C38.9783593,0.0418961622 38.8947503,0.024335294 38.8144494,0.00586882041 C38.7863697,-0.000627913352 38.7556908,0.00354574591 38.7261539,0.00354574591 C36.9286585,0.00346699763 35.1311237,0.00342762348 33.3336283,0.00338824934 C33.3073996,0.00338824934 33.2800682,-0.00102165479 33.2550603,0.00464822195 C33.1651501,0.0249652803 33.0475146,0.00138016799 32.9995467,0.0992249159 C32.9343293,0.232270149 32.8078328,0.305860424 32.721467,0.419139836 C32.6077698,0.568170971 32.519553,0.744173395 32.3572971,0.854420998 C32.3258699,0.875761784 32.3125586,0.91001729 32.3041702,0.945729638 C32.2938913,0.989631809 32.2606131,1.00750767 32.2274925,1.03510895 C32.1159219,1.1280713 32.0388504,1.25654913 31.9262558,1.35077146 C31.9203485,1.3557326 31.9208211,1.36919856 31.9197184,1.3788846 C31.9143623,1.42680293 31.883132,1.45920785 31.84308,1.47294943 C31.7841638,1.49314836 31.7550996,1.53602681 31.7272955,1.58555948 C31.6812574,1.66761519 31.6439228,1.67529315 31.5737038,1.61249139 C31.5055328,1.5514221 31.4430328,1.48499791 31.3914023,1.40778522 C31.316103,1.29521454 31.2240661,1.18524256 31.1260431,1.10397432 C31.0133698,1.01050011 31.0156934,0.820756105 30.8430406,0.79087113 C30.8381178,0.790004899 30.8372907,0.766852902 30.8342189,0.754135053 C30.8086991,0.648100484 30.7366291,0.574510208 30.6668827,0.495250056 C30.5772088,0.39342852 30.4726483,0.296725622 30.4056587,0.184706183 C30.3251609,0.0500859841 30.2232784,0.00964873824 30.086503,0.00417573222 C30.0275475,0.00181328358 29.968395,0.00338824934 29.9093606,0.00338824934 C26.7538784,0.00334887519 23.5983568,0.00334887519 20.4428351,0.00334887519 C19.6949617,0.00334887519 18.9471277,0.00279763718 18.1992543,0.00417573222 C18.0985533,0.0043332288 17.9973797,0.0129167922 17.982887,0.148166977 C17.9817842,0.158640499 17.9709934,0.172657694 17.9611478,0.176949476 C17.8197647,0.238885005 17.8168504,0.375237665 17.7901097,0.497140015 C17.7822726,0.533009861 17.7823513,0.580455704 17.7515542,0.593567294 C17.6328948,0.644202443 17.6366755,0.753977557 17.6084777,0.85225542 C17.5891015,0.919624581 17.6164329,1.00829515 17.5483406,1.05263044 C17.4317685,1.12850441 17.4133768,1.24402815 17.3937644,1.36478865 C17.384155,1.42412549 17.3897867,1.49393585 17.3345331,1.53539682 C17.243087,1.6041047 17.2141015,1.69935075 17.1958674,1.80593656 C17.1830287,1.8811018 17.1976002,1.9848133 17.1330523,2.02355746 C17.0143141,2.09486403 17.0078554,2.20680472 16.982178,2.31567423 C16.9658737,2.38481523 16.964259,2.45868112 16.8774994,2.48643989 C16.8447725,2.49691342 16.8363053,2.53494884 16.8250025,2.56581817 C16.7957413,2.64574768 16.7755381,2.72811839 16.7665983,2.81253655 C16.7629357,2.84679206 16.7609666,2.88585121 16.7282397,2.89687597 C16.6634556,2.91872862 16.6289171,2.96739506 16.59493,3.01944768 C16.5822095,3.03897726 16.5682287,3.06224738 16.5421181,3.05390006 C16.5189218,3.04649772 16.5320362,3.02015642 16.5282161,3.00239868 C16.4993094,2.86726661 16.5035233,2.72024356 16.3888415,2.61605958 C16.3519007,2.58251281 16.3339817,2.54258742 16.3233484,2.49187353 C16.2968834,2.36575814 16.2766802,2.23389413 16.1751521,2.13927807 C16.1341943,2.10108515 16.1202529,2.0582067 16.1110768,2.00312228 C16.08855,1.8672421 16.0851631,1.71864409 15.9375576,1.6395808 C15.9125891,1.6261936 15.923498,1.59154435 15.9170393,1.56697488 C15.8908893,1.46794891 15.9051458,1.34368411 15.8145661,1.2808036 C15.7188273,1.21434005 15.7047283,1.11783402 15.6762942,1.02628914 C15.6493172,0.939587272 15.6165903,0.861665841 15.5475135,0.800635918 C15.5226631,0.778625771 15.5049016,0.746496469 15.5072252,0.713500937 C15.5247898,0.464223231 15.3094069,0.312396532 15.2483641,0.0954449981 C15.2377308,0.0576851939 15.192441,0.0280364635 15.1408893,0.0189804104 C15.0922913,0.0104362211 15.0446385,0.00327012691 14.9952922,0.00327012691 C13.3454024,0.00350637177 11.6954732,0.00334887519 10.0455046,0.00330950105 C10.0258527,0.00330950105 10.0060827,0.00236452159 9.98650963,0.00386073907 C9.74513438,0.0225634575 9.68322511,0.092964427 9.67826292,0.331256747 C9.67113469,0.674599282 9.70138044,1.01853243 9.66124968,1.3613631 C9.65546046,1.41038391 9.65798094,1.48180861 9.60690185,1.48208423 C9.56877961,1.4822811 9.56909467,1.40502903 9.56125755,1.35837067 C9.54160569,1.24162633 9.51734608,1.12755944 9.40853228,1.05357542 C9.37107953,1.0281791 9.37111891,0.981796354 9.36391192,0.938878537 C9.34579598,0.831111505 9.35623234,0.708579169 9.26805495,0.628137793 C9.18503667,0.552342565 9.15975312,0.458750225 9.14974997,0.357755546 C9.12745948,0.131787333 8.99285014,0.00358512006 8.76254137,0.00346699763 C7.40782326,0.00271888889 6.05310515,0.0055932014 4.69842643,-2.0608634e-06 C4.52916051,-0.00070666164 4.32893995,0.180453775 4.32480479,0.337438487 C4.32244184,0.425794066 4.30471972,0.515567115 4.23272854,0.576675786 C4.16231266,0.636445737 4.14207006,0.712555957 4.12545065,0.798430965 C4.10843742,0.88674717 4.12875878,0.996089168 4.05751586,1.05861531 C3.95437313,1.14909709 3.9243243,1.25895095 3.91034352,1.38498759 C3.90171875,1.46283027 3.87828617,1.53799551 3.81062706,1.59126873 C3.74753632,1.6409589 3.7361154,1.71600602 3.71347047,1.78853319 C3.68255522,1.88744104 3.70760248,2.00698094 3.61229687,2.08340616 C3.53479214,2.14553855 3.51285609,2.2333429 3.49993864,2.32504528 C3.48769068,2.41261337 3.47390681,2.49624406 3.39644147,2.55782522 C3.35036396,2.59452192 3.33110592,2.65224441 3.32118154,2.71299872 C3.29885167,2.85029636 3.28857284,2.99153141 3.16262765,3.08921866 C3.12442664,3.11882802 3.11879495,3.18005481 3.10268751,3.23009935 C3.073702,3.32062051 3.09587434,3.42976564 3.0179364,3.50185969 C2.92712039,3.58584474 2.89049468,3.69014685 2.89073097,3.80878115 C2.89084912,3.88599384 2.86729839,3.95296926 2.81165094,4.00242319 C2.73241338,4.07282416 2.71063487,4.16330594 2.68999845,4.26122944 C2.67294583,4.34198581 2.70004098,4.44120865 2.62592314,4.50109672 C2.51187147,4.59319284 2.49698489,4.72214317 2.47579711,4.85077849 C2.46937776,4.88956203 2.46713296,4.93204673 2.43424859,4.95716743 C2.34055765,5.02867088 2.31495904,5.13013805 2.29644927,5.23857444 C2.27687618,5.35335007 2.26285601,5.47186624 2.15380591,5.54809458 C2.11828291,5.5729003 2.11202109,5.61802306 2.09953685,5.65968091 C2.06921233,5.76047872 2.08528039,5.87749867 1.99690609,5.95900315 C1.92613576,6.02432486 1.89892247,6.109688 1.88368144,6.2027291 C1.87166979,6.27608313 1.88793475,6.37034483 1.83409889,6.41814505 C1.68621766,6.54941844 1.67211873,6.72341278 1.64907998,6.8974465 C1.64545679,6.92520527 1.63935251,6.95079847 1.61591993,6.96528815 C1.52033864,7.02430999 1.49655161,7.12124913 1.46996844,7.22047198 C1.44945016,7.29693657 1.4662271,7.38600088 1.3936058,7.44695205 C1.31972426,7.50896633 1.29002986,7.59515633 1.27407996,7.68768557 C1.25572772,7.79395639 1.23280711,7.90010908 1.15238808,7.9794086 C1.10501095,8.02618509 1.09335373,8.08375009 1.0747652,8.14359878 C1.04644919,8.23486805 1.07149645,8.34645437 0.989895942,8.41665847 C0.897228954,8.49643049 0.872693666,8.59974824 0.860524478,8.71239767 C0.852451069,8.7868148 0.846031724,8.86426374 0.784358752,8.91863944 C0.716896554,8.97813377 0.686611423,9.05652769 0.665738706,9.13992212 C0.633720746,9.26729748 0.625568571,9.40380764 0.516912295,9.50035304 C0.501434978,9.51409462 0.495330693,9.53953031 0.487493578,9.56051673 C0.437241527,9.69513693 0.440037683,9.85377536 0.307279326,9.95146261 C0.294716313,9.96067616 0.294007428,9.98685996 0.289084618,10.0055233 C0.259114546,10.1188027 0.256830362,10.2519267 0.192715676,10.340361 C0.117455747,10.44423 0.0722446541,10.5519577 0.0307748971,10.6681508 C-0.0477537784,10.8878191 0.02305593,10.9953499 0.254112971,10.9966099 C0.263958592,10.9966493 0.273804213,10.9966099 0.283649835,10.9966099 C1.81220223,10.9966099 3.34075463,10.9966099 4.86930703,10.9966099 C4.92507263,10.9966099 4.98095638,10.9985392 5.03656444,10.9956255 C5.18338235,10.9879869 5.23950239,10.9308551 5.27640378,10.7874938 C5.29160542,10.7282357 5.26261991,10.6499993 5.31779477,10.611452 C5.43058621,10.5327037 5.44689056,10.4159988 5.47158338,10.297207 C5.49233795,10.1971179 5.48867538,10.0876578 5.56964576,10.0067439 C5.63293342,9.94346966 5.64612655,9.85905149 5.66759001,9.77656266 C5.68791137,9.69875935 5.67948352,9.60827757 5.73383135,9.54520019 C5.80314452,9.46479819 5.84012467,9.3732533 5.86024912,9.27332172 C5.89982852,9.07664788 5.95929607,9.01490922 6.15750812,9.01227115 C6.5510573,9.00707376 6.944764,9.0067194 7.33831318,9.01246802 C7.54644961,9.01549983 7.56109989,9.03577751 7.63675365,9.24776791 C7.64644174,9.27485732 7.66101326,9.30753786 7.68334313,9.32143693 C7.77329272,9.37730884 7.77601012,9.46842061 7.79396853,9.55701243 C7.81574704,9.66450385 7.7985369,9.79302105 7.88328801,9.87153309 C7.98099595,9.9619755 7.98981763,10.07116 8.00860307,10.1864081 C8.02309583,10.2750787 8.02167806,10.3759946 8.09382677,10.4417494 C8.1731431,10.5139616 8.19736333,10.5992067 8.20586994,10.7014613 C8.22071714,10.8796687 8.27727039,10.9576295 8.39313366,10.9747966 C8.47682144,10.9871601 8.56062737,10.9978699 8.64648119,10.9977911 C10.4177478,10.9962555 12.1890145,10.9966493 13.9603205,10.9966099 C14.0816974,10.9966099 14.2039406,11.0057841 14.3241753,10.9939718 C14.4629592,10.9803484 14.620883,10.9945231 14.7018927,10.7982036 C14.7468281,10.9785765 14.8633215,10.9966886 14.9921416,10.9966886 C19.9157006,10.9964918 24.8391807,10.9965705 29.7627396,10.9965705 C29.788929,10.9965705 29.8165755,11.0007835 29.8411108,10.9940899 C29.9061706,10.9762928 29.9829665,10.9702292 30.0084076,10.8921897 C30.0256177,10.8393496 30.0717346,10.8256867 30.1056823,10.7942268 C30.2104791,10.6968939 30.3080295,10.5895206 30.3937258,10.4750993 C30.4212148,10.4383633 30.4441748,10.4051315 30.4788314,10.3715453 C30.592568,10.2613371 30.6921269,10.1364423 30.7959785,10.0161937 C30.8148033,9.99438042 30.8228768,9.956345 30.8453642,9.94559586 C30.9863141,9.87826607 31.0480658,9.73222737 31.1553831,9.63123269 C31.2441906,9.54764139 31.3276815,9.44538673 31.3997908,9.341124 C31.4409455,9.28162967 31.4792253,9.2528078 31.5508226,9.28926825 C31.6030044,9.31580643 31.6783825,9.29773369 31.703863,9.37482827 C31.728477,9.4494029 31.7805406,9.50098303 31.8472152,9.54130215 C31.8745466,9.55779992 31.8966402,9.582645 31.9006178,9.61969607 C31.9115268,9.72214759 32.0103768,9.73596792 32.0681509,9.79156421 C32.1238772,9.84523117 32.1230501,9.95732935 32.2127634,9.98658434 C32.2662448,10.0040271 32.2838882,10.0330852 32.2990898,10.0786805 C32.308069,10.105573 32.3246491,10.1332924 32.345443,10.1524282 C32.5536188,10.3440622 32.6884251,10.6017266 32.9117238,10.7794615 C32.9367317,10.7993848 32.940473,10.8296635 32.9523271,10.8562411 C32.9806431,10.9197122 33.0262874,10.9713317 33.0970184,10.9747966 C33.1949232,10.9795609 33.2909377,10.9982636 33.3898271,10.9981061 C35.0594476,10.9960586 36.7290287,10.9969249 38.3986491,10.996098 C38.525894,10.9960193 38.6527449,10.997673 38.7806199,10.981884 C38.8763587,10.9700717 38.9412216,10.9269964 38.9617005,10.8462007 C38.9837941,10.759105 38.9163319,10.7004769 38.8430017,10.6637409" id="Fill-1" fill="#FEFEFE" fill-rule="nonzero" mask="url(#mask-2)"></path>
                </g>
                <path d="M7.71264764,5.22279328 C7.69468922,5.11711308 7.66255311,5.01989832 7.57528153,4.94933985 C7.54869835,4.92780219 7.53995544,4.89882282 7.53294536,4.86468544 C7.50533823,4.73156146 7.49127869,4.59091702 7.36490029,4.50260081 C7.34170401,4.48641804 7.34249166,4.4581474 7.33650552,4.43235734 C7.3023609,4.2845468 7.29200331,4.12705023 7.15928434,4.01971631 C7.12246171,3.98991008 7.12261924,3.93903869 7.12025629,3.89198659 C7.11289177,3.74543602 7.08705686,3.60585468 6.95886687,3.50911241 C6.92373769,3.48257424 6.90763026,3.44682252 6.90282559,3.40008541 C6.89408268,3.31531287 6.84804456,3.24806184 6.78263025,3.19325303 C6.75088796,3.16667548 6.71631014,3.15541448 6.68547366,3.18411823 C6.55267592,3.30751679 6.43956942,3.44493256 6.39191661,3.62530551 C6.36801144,3.71574792 6.37683312,3.82308184 6.30468441,3.88997851 C6.21867306,3.96975052 6.18248056,4.06783152 6.16735768,4.17418108 C6.15432208,4.26604096 6.12281609,4.33852876 6.05629907,4.4053073 C6.01215131,4.44964259 5.99151488,4.51535804 5.97588004,4.58107348 C5.95284128,4.67809137 5.97040587,4.79365449 5.89573668,4.86811099 C5.80736238,4.95623033 5.78566263,5.0631705 5.7591976,5.17475683 C5.74537435,5.23310931 5.76203314,5.30744769 5.70437718,5.34713683 C5.60533023,5.41521472 5.58103124,5.52191865 5.5512187,5.62429143 C5.50679526,5.77678749 5.61860213,5.89337433 5.75947328,5.88786195 C6.07705364,5.87545909 6.39542165,5.88396391 6.71343522,5.88396391 C7.04129441,5.88396391 7.36919298,5.88317643 7.69705217,5.88463327 C7.75900082,5.88486951 7.81212779,5.87313602 7.85789024,5.82769826 C7.9425232,5.74367383 7.93350461,5.57208131 7.82252477,5.45659695 C7.75683478,5.38824343 7.72749483,5.31028263 7.71264764,5.22279328" id="Fill-4" fill="#FEFEFE" fill-rule="nonzero"></path>
                <path d="M30.2676585,5.19522351 C30.1572694,5.12797247 30.1121765,4.99591159 30.0070253,4.92153383 C29.9871371,4.90747726 29.9939503,4.87932475 29.9894213,4.85715711 C29.9739046,4.78171625 29.9356248,4.72281253 29.8560328,4.70501541 C29.8188557,4.69666809 29.8005823,4.68166655 29.7931784,4.64284364 C29.7717149,4.52968235 29.6967307,4.44979221 29.6246213,4.36446844 C29.5462502,4.27170296 29.5162801,4.13613778 29.3780476,4.09853547 C29.3583957,3.99057157 29.3176742,3.9006804 29.1958642,3.87426035 C29.1855066,3.87201602 29.1776301,3.8478403 29.1727073,3.83256313 C29.12789,3.69278492 28.9520472,3.64364599 28.9328286,3.48626753 C28.9326317,3.4843382 28.9266849,3.48366884 28.9246764,3.48134576 C28.8633973,3.40976357 28.7834114,3.34873365 28.7506846,3.25974808 C28.7031893,3.13064026 28.5963446,3.09709349 28.4839076,3.07425649 C28.3950214,3.05622313 28.303654,3.04996264 28.2114202,3.05048213 C27.7917211,3.05334882 27.3719826,3.05177385 26.9522046,3.05177385 C26.4996999,3.05177385 26.0471951,3.05075013 25.5946904,3.05224634 C25.3980142,3.0529157 25.2073243,3.13772761 25.2227228,3.41716591 C25.243438,3.79283462 25.2278425,4.17051141 25.2278819,4.54728259 C25.2278819,4.74730324 25.3411459,4.86160638 25.5422329,4.86172451 C26.2570644,4.86211825 26.9718959,4.86172451 27.6867668,4.86180325 C27.7324504,4.86184263 27.7771496,4.86337822 27.8228726,4.87448173 C27.8667053,4.88515212 27.8937611,4.90302798 27.9036855,4.94669391 C27.9166029,5.00382579 27.9408626,5.06056393 27.9418077,5.11777456 C27.9460217,5.37327339 27.9483452,5.62900845 27.9421228,5.88438915 C27.9372394,6.08637851 27.8759602,6.13823426 27.6734555,6.13827363 C26.9455096,6.13839175 26.2175244,6.13807676 25.4895391,6.13898236 C25.3110577,6.13917923 25.2090571,6.24230012 25.2089389,6.41834192 C25.2086633,6.82137565 25.2087656,7.22437002 25.2088602,7.62736438 C25.2088996,7.846009 25.3904134,8.02642133 25.6111523,8.02650008 C26.3850181,8.02665758 27.1589233,8.02275954 27.9327498,8.02872048 C28.1968487,8.03071311 28.393958,7.91952053 28.551488,7.72154733 C28.5903191,7.6727234 28.6300954,7.62571067 28.6740069,7.58172975 C28.7317022,7.52400725 28.7947536,7.46931657 28.7915636,7.37635421 C28.7906184,7.34871356 28.8116487,7.33422388 28.8337816,7.32831776 C28.9127435,7.30725259 28.9524411,7.25299502 28.9711477,7.17755416 C28.9816629,7.13506946 29.0174615,7.11868982 29.0525513,7.098924 C29.1726285,7.03123984 29.1936194,6.86362411 29.3350419,6.81609952 C29.337011,6.81546953 29.3381531,6.81042964 29.338547,6.80727971 C29.3481957,6.72833455 29.4030555,6.70057578 29.4646103,6.65584675 C29.5753932,6.57532663 29.656915,6.45409364 29.7470221,6.34778345 C29.7795914,6.30935429 29.8011336,6.25356112 29.8459903,6.22229805 C29.8846639,6.19528739 29.9154216,6.16453618 29.9401932,6.1247683 C30.0006059,6.02775041 30.0441236,5.91695157 30.1571907,5.86218213 C30.1812534,5.85056676 30.1850735,5.82076053 30.1897206,5.79382862 C30.1996844,5.73590925 30.2131138,5.68232104 30.2892795,5.67275312 C30.3287802,5.66779198 30.3603255,5.63404834 30.3702893,5.59400484 C30.4010076,5.47107876 30.4049065,5.27885419 30.2676585,5.19522351" id="Fill-6" fill="#FEFEFE" fill-rule="nonzero"></path>
            </g>
            <rect id="Rectangle" x="0" y="0" width="45" height="17"></rect>
        </g>
    </g>
</svg>