<?xml version="1.0" encoding="utf-8"?>
<!-- Generator: Adobe Illustrator 27.9.0, SVG Export Plug-In . SVG Version: 6.00 Build 0)  -->
<svg version="1.1" id="Capa_1" xmlns="http://www.w3.org/2000/svg" xmlns:xlink="http://www.w3.org/1999/xlink" x="0px" y="0px"
	 viewBox="0 0 135 40.9" style="enable-background:new 0 0 135 40.9;" xml:space="preserve">
<style type="text/css">
	.st0{fill:#B6B6B6;}
	.st1{fill:#FFFFFF;}
	.st2{fill-rule:evenodd;clip-rule:evenodd;fill:#CE0E2D;}
</style>
<g>
	<g>
		<path class="st0" d="M125.2,0.2H9.5c-0.4,0-0.7,0-1.1,0c-0.3,0-0.6,0-0.9,0c-0.7,0-1.3,0.1-2,0.2C4.8,0.5,4.2,0.7,3.6,1
			C3,1.3,2.5,1.7,2,2.2c-0.5,0.5-0.9,1-1.2,1.6C0.5,4.4,0.3,5,0.2,5.7C0.1,6.4,0,7,0,7.7C0,8,0,8.3,0,8.6C0,9,0,9.4,0,9.7v21.4
			c0,0.4,0,0.7,0,1.1c0,0.3,0,0.6,0,0.9c0,0.7,0.1,1.3,0.2,2c0.1,0.7,0.3,1.3,0.6,1.9c0.3,0.6,0.7,1.1,1.2,1.6
			c0.5,0.5,1,0.9,1.6,1.2c0.6,0.3,1.2,0.5,1.9,0.6c0.7,0.1,1.3,0.2,2,0.2c0.3,0,0.6,0,0.9,0c0.4,0,0.7,0,1.1,0h115.7
			c0.4,0,0.7,0,1.1,0c0.3,0,0.6,0,0.9,0c0.7,0,1.3-0.1,2-0.2c0.7-0.1,1.3-0.3,1.9-0.6c0.6-0.3,1.1-0.7,1.6-1.2
			c0.5-0.5,0.9-1,1.2-1.6c0.3-0.6,0.5-1.2,0.6-1.9c0.1-0.7,0.2-1.3,0.2-2c0-0.3,0-0.6,0-0.9c0-0.4,0-0.7,0-1.1V9.7
			c0-0.4,0-0.7,0-1.1c0-0.3,0-0.6,0-0.9c0-0.7-0.1-1.3-0.2-2c-0.1-0.7-0.3-1.3-0.6-1.9c-0.3-0.6-0.7-1.1-1.2-1.6
			c-0.5-0.5-1-0.9-1.6-1.2c-0.6-0.3-1.2-0.5-1.9-0.6c-0.7-0.1-1.3-0.2-2-0.2c-0.3,0-0.6,0-0.9,0C125.9,0.2,125.5,0.2,125.2,0.2
			L125.2,0.2z"/>
		<path d="M8.4,39.7c-0.3,0-0.6,0-0.9,0c-0.6,0-1.2,0-1.9-0.2C5,39.5,4.5,39.3,4,39c-0.5-0.3-1-0.6-1.4-1c-0.4-0.4-0.8-0.9-1-1.4
			c-0.3-0.5-0.4-1-0.5-1.7c-0.1-0.7-0.2-1.4-0.2-1.9c0-0.2,0-0.9,0-0.9V8.6c0,0,0-0.7,0-0.9c0-0.5,0-1.2,0.2-1.9
			c0.1-0.6,0.3-1.2,0.5-1.7c0.3-0.5,0.6-1,1-1.4C3,2.4,3.5,2.1,4,1.8c0.5-0.3,1.1-0.4,1.6-0.5C6.3,1.1,7,1.1,7.5,1.1l0.9,0h117.8
			l0.9,0c0.5,0,1.2,0,1.9,0.2c0.6,0.1,1.1,0.3,1.7,0.5c0.5,0.3,1,0.6,1.4,1c0.4,0.4,0.7,0.9,1,1.4c0.3,0.5,0.4,1,0.5,1.6
			c0.1,0.6,0.2,1.3,0.2,1.9c0,0.3,0,0.6,0,0.9c0,0.4,0,0.7,0,1.1v21.4c0,0.4,0,0.7,0,1.1c0,0.3,0,0.6,0,0.9c0,0.6-0.1,1.2-0.2,1.8
			c-0.1,0.6-0.3,1.2-0.5,1.7c-0.3,0.5-0.6,1-1,1.4c-0.4,0.4-0.9,0.8-1.4,1c-0.5,0.3-1,0.4-1.7,0.5c-0.6,0.1-1.3,0.1-1.9,0.2
			c-0.3,0-0.6,0-0.9,0l-1.1,0L8.4,39.7z"/>
	</g>
	<g>
		<path class="st1" d="M41.9,7.8h3.6l-0.1,1h-2.3v1.5h2.1v0.9h-2.1v1.6h2.4l-0.1,1h-3.5V7.8z"/>
		<path class="st1" d="M47.9,10.7L46,7.8h1.4l1.2,2l1.2-2h1.3l-1.8,2.9l2,3.1h-1.4l-1.3-2.2l-1.3,2.2h-1.3L47.9,10.7z"/>
		<path class="st1" d="M52,7.8h1.7c0.8,0,1.4,0.2,1.8,0.5S56,9.1,56,9.7c0,0.4-0.1,0.7-0.3,1c-0.2,0.3-0.4,0.5-0.7,0.7
			c-0.3,0.2-0.7,0.2-1.1,0.2c-0.2,0-0.5,0-0.8-0.1v2.3H52V7.8z M54.6,10.4c0.2-0.2,0.3-0.4,0.3-0.8c0-0.3-0.1-0.6-0.3-0.7
			c-0.2-0.1-0.5-0.2-0.9-0.2h-0.5v1.9c0.2,0,0.4,0.1,0.5,0.1C54.1,10.7,54.4,10.6,54.6,10.4z"/>
		<path class="st1" d="M57,7.8h1.2v4.9h2.4l-0.1,1H57V7.8z"/>
		<path class="st1" d="M62.2,13.5c-0.4-0.2-0.8-0.6-1-1.1c-0.2-0.5-0.3-1-0.3-1.6c0-0.6,0.1-1.2,0.4-1.6c0.2-0.5,0.6-0.8,1.1-1.1
			c0.5-0.3,1-0.4,1.7-0.4c0.6,0,1.1,0.1,1.6,0.4c0.4,0.2,0.8,0.6,1,1s0.3,1,0.3,1.6c0,0.6-0.1,1.2-0.4,1.7c-0.3,0.5-0.6,0.8-1.1,1.1
			s-1,0.4-1.6,0.4C63.2,13.9,62.6,13.7,62.2,13.5z M64.8,12.7c0.3-0.2,0.5-0.4,0.6-0.8c0.1-0.3,0.2-0.7,0.2-1.1
			c0-0.4-0.1-0.8-0.2-1.1c-0.1-0.3-0.3-0.6-0.6-0.8c-0.3-0.2-0.6-0.3-1-0.3c-0.4,0-0.7,0.1-1,0.3c-0.3,0.2-0.5,0.4-0.6,0.8
			c-0.1,0.3-0.2,0.7-0.2,1.1c0,0.4,0.1,0.8,0.2,1.1c0.1,0.3,0.3,0.6,0.6,0.8c0.3,0.2,0.6,0.3,1,0.3C64.2,12.9,64.6,12.8,64.8,12.7z
			 M63.1,7.4l1.1-1.3l1.2,0.1l-1.5,1.3L63.1,7.4z"/>
		<path class="st1" d="M68,7.8h2c0.7,0,1.2,0.1,1.6,0.4c0.4,0.3,0.5,0.7,0.5,1.2c0,0.3-0.1,0.6-0.2,0.8c-0.1,0.2-0.3,0.4-0.5,0.6
			c-0.2,0.1-0.4,0.3-0.6,0.3l1.8,2.6h-1.4l-1.5-2.3h-0.7v2.3H68V7.8z M69.7,10.6c0.2,0,0.4,0,0.6-0.1c0.2-0.1,0.3-0.2,0.4-0.4
			c0.1-0.2,0.1-0.3,0.1-0.6c0-0.3-0.1-0.5-0.3-0.6c-0.2-0.1-0.4-0.2-0.7-0.2h-0.7v1.9H69.7z"/>
		<path class="st1" d="M76.7,12.3h-2.3l-0.5,1.5h-1.2l2.3-6h1.2l2.4,6h-1.3L76.7,12.3z M74.8,11.3h1.6l-0.6-1.6
			c-0.1-0.2-0.2-0.5-0.2-0.8c-0.1,0.2-0.1,0.5-0.2,0.8L74.8,11.3z"/>
		<path class="st1" d="M79.3,7.8h1.2v4.9h2.4l-0.1,1h-3.5V7.8z"/>
		<path class="st1" d="M84.4,13.5c-0.4-0.2-0.8-0.6-1-1.1c-0.2-0.5-0.3-1-0.3-1.6c0-0.6,0.1-1.2,0.4-1.6c0.2-0.5,0.6-0.8,1.1-1.1
			c0.5-0.3,1-0.4,1.7-0.4c0.6,0,1.1,0.1,1.6,0.4c0.4,0.2,0.8,0.6,1,1c0.2,0.4,0.3,1,0.3,1.6c0,0.6-0.1,1.2-0.4,1.7
			c-0.3,0.5-0.6,0.8-1.1,1.1s-1,0.4-1.6,0.4C85.4,13.9,84.9,13.7,84.4,13.5z M87.1,12.7c0.3-0.2,0.5-0.4,0.6-0.8
			c0.1-0.3,0.2-0.7,0.2-1.1c0-0.4-0.1-0.8-0.2-1.1c-0.1-0.3-0.3-0.6-0.6-0.8c-0.3-0.2-0.6-0.3-1-0.3c-0.4,0-0.7,0.1-1,0.3
			c-0.3,0.2-0.5,0.4-0.6,0.8c-0.1,0.3-0.2,0.7-0.2,1.1c0,0.4,0.1,0.8,0.2,1.1c0.1,0.3,0.3,0.6,0.6,0.8c0.3,0.2,0.6,0.3,1,0.3
			C86.5,12.9,86.8,12.8,87.1,12.7z"/>
		<path class="st1" d="M92.8,7.8h3.6l-0.1,1H94v1.5h2.1v0.9H94v1.6h2.4l-0.1,1h-3.5V7.8z"/>
		<path class="st1" d="M97.6,7.8H99l2.8,4.4c0-0.5,0-0.9,0-1.2V7.8h1.1v6h-1.3l-2.8-4.5c0,0.5,0,1,0,1.4v3.1h-1.1V7.8z"/>
	</g>
	<g>
		<g>
			<path class="st1" d="M50,27.5h-4.7l-1.1,3.1h-2.1L46.7,19h1.9l4.7,11.7h-2.2L50,27.5z M45.9,25.9h3.5l-1.2-3.3
				c-0.2-0.5-0.3-1-0.5-1.5c-0.2,0.5-0.3,1-0.5,1.5L45.9,25.9z"/>
			<path class="st1" d="M54.2,24.1c0-0.6,0-1.4-0.1-2.1H56c0.1,0.4,0.1,0.7,0.1,1.1c0.8-0.8,1.7-1.3,2.7-1.3c0.6,0,1.1,0.1,1.6,0.4
				c0.5,0.3,0.9,0.8,1.2,1.4c0.3,0.6,0.5,1.4,0.5,2.4c0,1-0.2,1.9-0.5,2.6c-0.3,0.7-0.8,1.3-1.5,1.6c-0.6,0.4-1.3,0.6-2.2,0.6
				c-0.6,0-1.2-0.1-1.7-0.3v3.6l-2,0.2V24.1z M59.4,28.5c0.4-0.5,0.6-1.3,0.6-2.4c0-1-0.2-1.7-0.5-2.1c-0.3-0.4-0.8-0.7-1.3-0.7
				c-0.4,0-0.7,0.1-1.1,0.3c-0.3,0.2-0.6,0.4-0.9,0.7V29c0.2,0.1,0.4,0.2,0.7,0.2s0.5,0.1,0.8,0.1C58.4,29.3,59,29.1,59.4,28.5z"/>
			<path class="st1" d="M63.4,24.1c0-0.6,0-1.4-0.1-2.1h1.9c0.1,0.4,0.1,0.7,0.1,1.1c0.8-0.8,1.7-1.3,2.7-1.3c0.6,0,1.1,0.1,1.6,0.4
				c0.5,0.3,0.9,0.8,1.2,1.4c0.3,0.6,0.5,1.4,0.5,2.4c0,1-0.2,1.9-0.5,2.6c-0.3,0.7-0.8,1.3-1.5,1.6c-0.6,0.4-1.3,0.6-2.2,0.6
				c-0.6,0-1.2-0.1-1.7-0.3v3.6l-2,0.2V24.1z M68.6,28.5c0.4-0.5,0.6-1.3,0.6-2.4c0-1-0.2-1.7-0.5-2.1c-0.3-0.4-0.8-0.7-1.3-0.7
				c-0.4,0-0.7,0.1-1.1,0.3c-0.3,0.2-0.6,0.4-0.9,0.7V29c0.2,0.1,0.4,0.2,0.7,0.2s0.5,0.1,0.8,0.1C67.6,29.3,68.2,29.1,68.6,28.5z"
				/>
			<path class="st1" d="M75,30.1c-0.9-0.5-1.5-1.2-2-2c-0.5-0.9-0.7-1.9-0.7-3.1c0-1.3,0.3-2.4,0.8-3.3c0.5-0.9,1.3-1.6,2.2-2.1
				c0.9-0.5,1.9-0.7,3.1-0.7c0.7,0,1.3,0.1,1.9,0.2s1.2,0.4,1.7,0.6l-0.5,1.5c-1.1-0.5-2.1-0.8-3-0.8c-0.8,0-1.5,0.2-2.1,0.5
				c-0.6,0.3-1.1,0.9-1.4,1.5c-0.3,0.7-0.5,1.5-0.5,2.4c0,0.8,0.1,1.6,0.4,2.2c0.3,0.6,0.7,1.2,1.2,1.5c0.6,0.4,1.3,0.6,2.1,0.6
				c0.4,0,0.8,0,1.2-0.1c0.4-0.1,0.7-0.2,1.1-0.3v-2.4h-2.7v-1.5h4.6v4.9c-0.7,0.3-1.4,0.6-2.1,0.7c-0.7,0.2-1.5,0.2-2.2,0.2
				C76.9,30.8,75.8,30.6,75,30.1z"/>
			<path class="st1" d="M89.5,30.6c-0.1-0.3-0.1-0.7-0.1-1.2c-0.3,0.4-0.7,0.7-1.2,0.9c-0.5,0.3-1,0.4-1.7,0.4c-0.5,0-1-0.1-1.4-0.3
				c-0.4-0.2-0.7-0.5-1-0.9c-0.2-0.4-0.4-0.9-0.4-1.4c0-0.8,0.3-1.5,0.9-2c0.6-0.5,1.6-0.8,3-0.8c0.5,0,1.1,0,1.6,0.1v-0.2
				c0-0.8-0.2-1.3-0.5-1.6c-0.3-0.3-0.8-0.5-1.4-0.5c-0.4,0-0.9,0.1-1.4,0.2c-0.5,0.1-0.9,0.3-1.3,0.4l-0.3-1.5
				c0.4-0.2,0.8-0.3,1.4-0.4c0.6-0.1,1.2-0.2,1.8-0.2c0.8,0,1.4,0.1,1.9,0.3c0.5,0.2,0.9,0.6,1.2,1.2c0.3,0.6,0.4,1.3,0.4,2.2V29
				c0,0.4,0,0.9,0.1,1.6H89.5z M88.3,29c0.4-0.2,0.8-0.4,1-0.7v-1.6c-0.5-0.1-1-0.1-1.3-0.1c-0.8,0-1.4,0.1-1.7,0.4
				c-0.3,0.3-0.5,0.6-0.5,1.1c0,0.4,0.1,0.7,0.3,1c0.2,0.2,0.5,0.3,0.9,0.3C87.5,29.3,87.9,29.2,88.3,29z"/>
			<path class="st1" d="M93,28.6V18.3l2-0.2v10.1c0,0.4,0.1,0.6,0.2,0.8c0.1,0.2,0.3,0.2,0.6,0.2c0.1,0,0.3,0,0.5-0.1l0.2,1.4
				c-0.2,0.1-0.4,0.1-0.7,0.2c-0.3,0-0.5,0.1-0.8,0.1C93.7,30.8,93,30.1,93,28.6z"/>
			<path class="st1" d="M98,28.6V18.3l2-0.2v10.1c0,0.4,0.1,0.6,0.2,0.8c0.1,0.2,0.3,0.2,0.6,0.2c0.1,0,0.3,0,0.5-0.1l0.2,1.4
				c-0.2,0.1-0.4,0.1-0.7,0.2c-0.3,0-0.5,0.1-0.8,0.1C98.7,30.8,98,30.1,98,28.6z"/>
			<path class="st1" d="M109.8,26.6h-5.7c0.1,1.8,1,2.7,2.6,2.7c0.4,0,0.8,0,1.3-0.1c0.4-0.1,0.8-0.2,1.2-0.4l0.4,1.4
				c-1,0.5-2.1,0.7-3.3,0.7c-0.9,0-1.7-0.2-2.3-0.5c-0.6-0.3-1.1-0.9-1.4-1.5c-0.3-0.7-0.5-1.4-0.5-2.4c0-1,0.2-1.8,0.5-2.5
				c0.3-0.7,0.8-1.2,1.4-1.6c0.6-0.4,1.3-0.5,2.1-0.5c0.8,0,1.5,0.2,2.1,0.6c0.6,0.4,1,0.9,1.2,1.5c0.3,0.6,0.4,1.3,0.4,2.1V26.6z
				 M107.8,25.3c0-0.7-0.2-1.2-0.5-1.6c-0.3-0.3-0.7-0.5-1.2-0.5c-0.5,0-0.9,0.2-1.3,0.5c-0.3,0.3-0.6,0.9-0.7,1.6H107.8z"/>
			<path class="st1" d="M111.4,24.1c0-0.5,0-1.2-0.1-2.2h1.9c0,0.2,0.1,0.5,0.1,0.9c0,0.3,0,0.6,0.1,0.8c0.2-0.4,0.5-0.7,0.7-1
				c0.2-0.3,0.5-0.5,0.8-0.6c0.3-0.2,0.6-0.2,1-0.2c0.3,0,0.6,0,0.8,0.1l-0.2,1.7c-0.2-0.1-0.4-0.1-0.6-0.1c-0.5,0-0.9,0.1-1.2,0.4
				c-0.3,0.2-0.7,0.6-1.1,1.2v5.6h-2V24.1z"/>
			<path class="st1" d="M117.8,34.2c-0.3-0.1-0.5-0.1-0.7-0.2l0.4-1.5c0.1,0,0.3,0.1,0.5,0.1c0.2,0,0.4,0.1,0.6,0.1
				c0.9,0,1.5-0.6,2-1.7l0.1-0.3l-3.2-8.8h2.1l1.6,4.9c0.3,0.8,0.4,1.5,0.5,1.9c0.2-0.6,0.3-1.3,0.5-1.9l1.6-4.9h2l-3.2,8.8
				c-0.3,0.8-0.6,1.5-1,2c-0.3,0.5-0.8,0.9-1.2,1.1c-0.5,0.2-1,0.4-1.7,0.4C118.4,34.3,118.1,34.3,117.8,34.2z"/>
		</g>
		<g>
			<g id="形状_1_拷贝_25_5_">
				<g>
					<path class="st2" d="M27.3,7.6H16.1c-5.3,0-7.2,1.9-7.2,7.2V26c0,5.3,1.9,7.2,7.2,7.2h11.2c5.3,0,7.2-1.9,7.2-7.2l0-11.2
						C34.5,9.5,32.6,7.6,27.3,7.6z"/>
				</g>
			</g>
			<path class="st1" d="M13.9,20.4h0.7v3.4h-0.7v-1.4h-1.5v1.4h-0.7v-3.4h0.7v1.4h1.5V20.4z M17.8,22.3c0,0.5-0.3,0.8-0.8,0.8
				c-0.5,0-0.8-0.3-0.8-0.9v-1.9h-0.7v1.9c0,0.9,0.5,1.5,1.4,1.5c0.9,0,1.5-0.6,1.5-1.5v-1.9h-0.7V22.3z M25.6,22.7l-0.8-2.3h-0.6
				l-0.8,2.3l-0.7-2.3h-0.7l1.2,3.4h0.6l0.8-2.2l0.8,2.2h0.6l1.2-3.4h-0.7L25.6,22.7z M28.3,22.3h1.2v-0.6h-1.2V21h1.8v-0.6h-2.5
				v3.4h2.5v-0.6h-1.9V22.3z M31,23.8h0.7v-3.4H31V23.8z M19.8,23.1l-0.3,0.7h-0.7l1.5-3.4h0.6l1.5,3.4h-0.7l-0.3-0.7H19.8z
				 M20,22.5h1l-0.5-1.2L20,22.5z"/>
			<path class="st1" d="M21.7,16.1c-2.4,0-4.3-1.9-4.3-4.3H18c0,2,1.6,3.7,3.7,3.7c2,0,3.7-1.6,3.7-3.7H26
				C26,14.2,24,16.1,21.7,16.1z"/>
		</g>
	</g>
</g>
</svg>
