<?xml version="1.0" encoding="UTF-8"?>
<svg width="137px" height="40px" viewBox="0 0 137 40" version="1.1" xmlns="http://www.w3.org/2000/svg" xmlns:xlink="http://www.w3.org/1999/xlink">
    <title>apple-store-badge es</title>
    <defs>
        <linearGradient x1="61.231376%" y1="4.8388%" x2="26.323984%" y2="71.9684%" id="linearGradient-1">
            <stop stop-color="#00A0FF" offset="0%"></stop>
            <stop stop-color="#00A1FF" offset="0.657445%"></stop>
            <stop stop-color="#00BEFF" offset="26.01%"></stop>
            <stop stop-color="#00D2FF" offset="51.22%"></stop>
            <stop stop-color="#00DFFF" offset="76.04%"></stop>
            <stop stop-color="#00E3FF" offset="100%"></stop>
        </linearGradient>
        <linearGradient x1="107.728079%" y1="49.4282353%" x2="-130.665025%" y2="49.4282353%" id="linearGradient-2">
            <stop stop-color="#FFE000" offset="0%"></stop>
            <stop stop-color="#FFBD00" offset="40.87%"></stop>
            <stop stop-color="#FFA500" offset="77.54%"></stop>
            <stop stop-color="#FF9C00" offset="100%"></stop>
        </linearGradient>
        <linearGradient x1="86.3892216%" y1="30.8297553%" x2="-49.888024%" y2="136.004321%" id="linearGradient-3">
            <stop stop-color="#FF3A44" offset="0%"></stop>
            <stop stop-color="#C31162" offset="100%"></stop>
        </linearGradient>
        <linearGradient x1="-18.5790419%" y1="-11.6823797%" x2="42.2748503%" y2="35.0643382%" id="linearGradient-4">
            <stop stop-color="#32A071" offset="0%"></stop>
            <stop stop-color="#2DA771" offset="6.85%"></stop>
            <stop stop-color="#15CF74" offset="47.62%"></stop>
            <stop stop-color="#06E775" offset="80.09%"></stop>
            <stop stop-color="#00F076" offset="100%"></stop>
        </linearGradient>
    </defs>
    <g id="NEW-SITE" stroke="none" stroke-width="1" fill="none" fill-rule="evenodd">
        <g id="descargar-app" transform="translate(-340.000000, -323.000000)" fill-rule="nonzero">
            <g id="Group-29" transform="translate(340.000000, 122.000000)">
                <g id="apple-store-badge-es" transform="translate(0.000000, 201.000000)">
                    <path d="M39.4004,10.2004 C39.4004,11.0004 39.2004,11.7004 38.7004,12.2004 C38.1004,12.8004 37.4004,13.1004 36.5004,13.1004 C35.6004,13.1004 34.9004,12.8004 34.3004,12.2004 C33.7004,11.6004 33.4004,10.9004 33.4004,10.0004 C33.4004,9.1004 33.7004,8.4004 34.3004,7.8004 C34.9004,7.2004 35.6004,6.9004 36.5004,6.9004 C36.9004,6.9004 37.3004,7.0004 37.7004,7.2004 C38.1004,7.4004 38.4004,7.6004 38.6004,7.9004 L38.1004,8.4004 C37.7004,7.9004 37.2004,7.7004 36.5004,7.7004 C35.9004,7.7004 35.3004,7.9004 34.9004,8.4004 C34.4004,8.8004 34.2004,9.4004 34.2004,10.1004 C34.2004,10.8004 34.4004,11.4004 34.9004,11.8004 C35.4004,12.2004 35.9004,12.5004 36.5004,12.5004 C37.2004,12.5004 37.7004,12.3004 38.2004,11.8004 C38.5004,11.5004 38.7004,11.1004 38.7004,10.6004 L36.5004,10.6004 L36.5004,9.9004 L39.4004,9.9004 C39.4004,9.9004 39.4004,10.1004 39.4004,10.2004 Z" id="Path" stroke="#FFFFFF" stroke-width="0.2" fill="#FFFFFF"></path>
                    <polygon id="Path" stroke="#FFFFFF" stroke-width="0.2" fill="#FFFFFF" points="44 7.7 41.3 7.7 41.3 9.6 43.8 9.6 43.8 10.3 41.3 10.3 41.3 12.2 44 12.2 44 13 40.5 13 40.5 7 44 7"></polygon>
                    <polygon id="Path" stroke="#FFFFFF" stroke-width="0.2" fill="#FFFFFF" points="47.3008 13 46.5008 13 46.5008 7.7 44.8008 7.7 44.8008 7 49.0008 7 49.0008 7.7 47.3008 7.7"></polygon>
                    <polygon id="Path" stroke="#FFFFFF" stroke-width="0.2" fill="#FFFFFF" points="51.9004 13 51.9004 7 52.7004 7 52.7004 13"></polygon>
                    <polygon id="Path" stroke="#FFFFFF" stroke-width="0.2" fill="#FFFFFF" points="56.0996 13 55.2996 13 55.2996 7.7 53.5996 7.7 53.5996 7 57.6996 7 57.6996 7.7 55.9996 7.7 55.9996 13"></polygon>
                    <path d="M65.6008,12.2004 C65.0008,12.8004 64.3008,13.1004 63.4008,13.1004 C62.5008,13.1004 61.8008,12.8004 61.2008,12.2004 C60.6008,11.6004 60.3008,10.9004 60.3008,10.0004 C60.3008,9.1004 60.6008,8.4004 61.2008,7.8004 C61.8008,7.2004 62.5008,6.9004 63.4008,6.9004 C64.3008,6.9004 65.0008,7.2004 65.6008,7.8004 C66.2008,8.4004 66.5008,9.1004 66.5008,10.0004 C66.5008,10.9004 66.2008,11.6004 65.6008,12.2004 Z M61.8008,11.7004 C62.2008,12.1004 62.8008,12.4004 63.4008,12.4004 C64.0008,12.4004 64.6008,12.2004 65.0008,11.7004 C65.4008,11.3004 65.7008,10.7004 65.7008,10.0004 C65.7008,9.3004 65.5008,8.7004 65.0008,8.3004 C64.6008,7.9004 64.0008,7.6004 63.4008,7.6004 C62.8008,7.6004 62.2008,7.8004 61.8008,8.3004 C61.4008,8.7004 61.1008,9.3004 61.1008,10.0004 C61.1008,10.7004 61.3008,11.3004 61.8008,11.7004 Z" id="Shape" stroke="#FFFFFF" stroke-width="0.2" fill="#FFFFFF"></path>
                    <polygon id="Path" stroke="#FFFFFF" stroke-width="0.2" fill="#FFFFFF" points="67.5996 13 67.5996 7 68.4996 7 71.3996 11.7 71.3996 10.5 71.3996 7 72.1996 7 72.1996 13 71.3996 13 68.2996 8.1 68.2996 9.3 68.2996 13"></polygon>
                    <path d="M60.0996,21.7996 C57.6996,21.7996 55.7996,23.5996 55.7996,26.0996 C55.7996,28.4996 57.6996,30.3996 60.0996,30.3996 C62.4996,30.3996 64.3996,28.5996 64.3996,26.0996 C64.3996,23.4996 62.4996,21.7996 60.0996,21.7996 Z M60.0996,28.5996 C58.7996,28.5996 57.6996,27.4996 57.6996,25.9996 C57.6996,24.4996 58.7996,23.3996 60.0996,23.3996 C61.3996,23.3996 62.4996,24.3996 62.4996,25.9996 C62.4996,27.4996 61.3996,28.5996 60.0996,28.5996 Z M50.7996,21.7996 C48.3996,21.7996 46.4996,23.5996 46.4996,26.0996 C46.4996,28.4996 48.3996,30.3996 50.7996,30.3996 C53.1996,30.3996 55.0996,28.5996 55.0996,26.0996 C55.0996,23.4996 53.1996,21.7996 50.7996,21.7996 Z M50.7996,28.5996 C49.4996,28.5996 48.3996,27.4996 48.3996,25.9996 C48.3996,24.4996 49.4996,23.3996 50.7996,23.3996 C52.0996,23.3996 53.1996,24.3996 53.1996,25.9996 C53.1996,27.4996 52.0996,28.5996 50.7996,28.5996 Z M39.6996,23.0996 L39.6996,24.8996 L43.9996,24.8996 C43.8996,25.8996 43.4996,26.6996 42.9996,27.1996 C42.3996,27.7996 41.3996,28.4996 39.6996,28.4996 C36.9996,28.4996 34.9996,26.3996 34.9996,23.6996 C34.9996,20.9996 37.0996,18.8996 39.6996,18.8996 C41.0996,18.8996 42.1996,19.4996 42.9996,20.1996 L44.2996,18.8996 C43.1996,17.8996 41.7996,17.0996 39.7996,17.0996 C36.1996,17.0996 33.0996,20.0996 33.0996,23.6996 C33.0996,27.2996 36.1996,30.2996 39.7996,30.2996 C41.7996,30.2996 43.1996,29.6996 44.3996,28.3996 C45.5996,27.1996 45.9996,25.4996 45.9996,24.1996 C45.9996,23.7996 45.9996,23.3996 45.8996,23.0996 L39.6996,23.0996 L39.6996,23.0996 Z M85.1,24.4996 C84.7,23.4996 83.7,21.7996 81.4996,21.7996 C79.2996,21.7996 77.4996,23.4996 77.4996,26.0996 C77.4996,28.4996 79.2996,30.3996 81.6996,30.3996 C83.6,30.3996 84.8,29.1996 85.2,28.4996 L83.8,27.4996 C83.3,28.1996 82.7,28.6996 81.6996,28.6996 C80.6996,28.6996 80.0996,28.2996 79.5996,27.3996 L85.3,24.9996 L85.1,24.4996 Z M79.2996,25.8996 C79.2996,24.2996 80.5996,23.3996 81.4996,23.3996 C82.2,23.3996 82.9,23.7996 83.1,24.2996 L79.2996,25.8996 Z M74.5996,29.9996 L76.4996,29.9996 L76.4996,17.4996 L74.5996,17.4996 L74.5996,29.9996 Z M71.5996,22.6996 C71.0996,22.1996 70.2996,21.6996 69.2996,21.6996 C67.1996,21.6996 65.1996,23.5996 65.1996,25.9996 C65.1996,28.3996 67.0996,30.1996 69.2996,30.1996 C70.2996,30.1996 71.0996,29.6996 71.4996,29.1996 L71.5996,29.1996 L71.5996,29.7996 C71.5996,31.3996 70.6996,32.2996 69.2996,32.2996 C68.1996,32.2996 67.3996,31.4996 67.1996,30.7996 L65.5996,31.4996 C66.0996,32.5996 67.2996,33.9996 69.3996,33.9996 C71.5996,33.9996 73.3996,32.6996 73.3996,29.5996 L73.3996,21.9996 L71.5996,21.9996 L71.5996,22.6996 L71.5996,22.6996 Z M69.3996,28.5996 C68.0996,28.5996 66.9996,27.4996 66.9996,25.9996 C66.9996,24.4996 68.0996,23.3996 69.3996,23.3996 C70.6996,23.3996 71.6996,24.4996 71.6996,25.9996 C71.6996,27.4996 70.6996,28.5996 69.3996,28.5996 Z M93.8,17.4996 L89.3,17.4996 L89.3,29.9996 L91.2,29.9996 L91.2,25.2996 L93.8,25.2996 C95.9,25.2996 97.9,23.7996 97.9,21.3996 C97.9,18.9996 95.9,17.4996 93.8,17.4996 Z M93.9,23.4996 L91.2,23.4996 L91.2,19.1996 L93.9,19.1996 C95.3,19.1996 96.1,20.3996 96.1,21.2996 C96,22.3996 95.2,23.4996 93.9,23.4996 Z M105.4,21.6996 C104,21.6996 102.6,22.2996 102.1,23.5996 L103.8,24.2996 C104.2,23.5996 104.8,23.3996 105.5,23.3996 C106.5,23.3996 107.4,23.9996 107.5,24.9996 L107.5,25.0996 C107.2,24.8996 106.4,24.5996 105.6,24.5996 C103.8,24.5996 102,25.5996 102,27.3996 C102,29.0996 103.5,30.1996 105.1,30.1996 C106.4,30.1996 107,29.5996 107.5,28.9996 L107.6,28.9996 L107.6,29.9996 L109.4,29.9996 L109.4,25.1996 C109.2,22.9996 107.5,21.6996 105.4,21.6996 Z M105.2,28.5996 C104.6,28.5996 103.7,28.2996 103.7,27.4996 C103.7,26.4996 104.8,26.1996 105.7,26.1996 C106.5,26.1996 106.9,26.3996 107.4,26.5996 C107.2,27.7996 106.2,28.5996 105.2,28.5996 Z M115.7,21.9996 L113.6,27.3996 L113.5,27.3996 L111.3,21.9996 L109.3,21.9996 L112.6,29.5996 L110.7,33.7996 L112.6,33.7996 L117.7,21.9996 L115.7,21.9996 Z M98.9,29.9996 L100.8,29.9996 L100.8,17.4996 L98.9,17.4996 L98.9,29.9996 Z" id="Shape" fill="#FFFFFF"></path>
                    <path d="M2.4004,7.5 C2.1004,7.8 1.9004,8.3 1.9004,8.9 L1.9004,31 C1.9004,31.6 2.1004,32.1 2.4004,32.4 L2.5004,32.5 L14.9004,20.1 L14.9004,20 L14.9004,19.9 L2.4004,7.5 Z" id="Path" fill="url(#linearGradient-1)"></path>
                    <path d="M19.0004,24.3008 L14.9004,20.2008 L14.9004,20.0008 L14.9004,19.9008 L19.0004,15.8008 L19.1004,15.9008 L24.0004,18.7008 C25.4004,19.5008 25.4004,20.8008 24.0004,21.6008 L19.0004,24.3008 Z" id="Path" fill="url(#linearGradient-2)"></path>
                    <path d="M19.1004,24.2 L14.9004,20 L2.4004,32.5 C2.9004,33 3.6004,33 4.5004,32.6 L19.1004,24.2 Z" id="Path" fill="url(#linearGradient-3)"></path>
                    <path d="M19.1004,15.8006 L4.5004,7.5006 C3.6004,7.0006 2.9004,7.1006 2.4004,7.6006 L14.9004,20.0006 L19.1004,15.8006 Z" id="Path" fill="url(#linearGradient-4)"></path>
                    <path d="M19.0004,24.0996 L4.5004,32.2996 C3.7004,32.7996 3.0004,32.6996 2.5004,32.2996 L2.4004,32.3996 L2.5004,32.4996 C3.0004,32.8996 3.7004,32.9996 4.5004,32.4996 L19.0004,24.0996 Z" id="Path" fill="#000000" opacity="0.2"></path>
                    <path d="M2.4,32.3004 C2.1,32.0004 2,31.5004 2,30.9004 L2,31.0004 C2,31.6004 2.2,32.1004 2.5,32.4004 L2.5,32.3004 L2.4,32.3004 Z" id="Path" fill="#000000" opacity="0.12"></path>
                    <path d="M24,21.3 L19,24.1 L19.1,24.2 L24,21.4 C24.7,21 25,20.5 25,20 C25,20.5 24.6,20.9 24,21.3 Z" id="Path" fill="#000000" opacity="0.12"></path>
                    <path d="M4.5,7.6004 L24,18.7004 C24.6,19.1004 25,19.5004 25,20.0004 C25,19.5004 24.7,19.0004 24,18.6004 L4.5,7.5004 C3.1,6.7004 2,7.4004 2,9.0004 L2,9.1004 C2,7.5004 3.1,6.8004 4.5,7.6004 Z" id="Path" fill="#FFFFFF" opacity="0.25"></path>
                    <g id="Group">
                        <path d="M126.090512,0 L10.916014,0 C10.4961893,0 10.0814021,0 9.6626078,0.0021 C9.31216239,0.0041 8.96446467,0.0099 8.61058464,0.0148 C7.84180288,0.0227 7.07485292,0.0818 6.31637502,0.1915 C5.5589275,0.3037 4.82529332,0.515 4.14008724,0.8185 C3.45579707,1.1246 2.83046781,1.5223 2.28699692,1.9972 C1.74054937,2.4708 1.28511917,3.0181 0.93810837,3.6183 C0.590067188,4.2172 0.348728105,4.8591 0.222563177,5.5216 C0.0950244017,6.1833 0.0264465503,6.8527 0.0174020591,7.5236 C0.00675474662,7.8302 0.00560987431,8.1378 0,8.4445 L0,31.5587 C0.00560987431,31.8692 0.00675474662,32.17 0.0174020591,32.4806 C0.0264465503,33.1516 0.0950244017,33.8209 0.222563177,34.4825 C0.348384644,35.1455 0.589723726,35.7877 0.93810837,36.3868 C1.28489019,36.985 1.74043488,37.5302 2.28699692,38.0011 C2.82840704,38.4781 3.45419424,38.8761 4.14008724,39.1798 C4.82529332,39.4841 5.5589275,39.6968 6.31637502,39.8106 C7.07496741,39.9195 7.84191737,39.9786 8.61058464,39.9874 C8.96446467,39.9942 9.31216239,39.9981 9.6626078,39.9981 C10.0814021,40.0001 10.4961893,40.0001 10.916014,40.0001 L126.090512,40.0001 C126.501521,40.0001 126.919399,40.0001 127.331553,39.9981 C127.679595,39.9981 128.03794,39.9942 128.387126,39.9874 C129.15419,39.9791 129.918965,39.92 130.67687,39.8106 C131.435921,39.696 132.173218,39.4834 132.861287,39.1798 C133.54592,38.8759 134.171021,38.478 134.712545,38.0011 C135.257504,37.5284 135.714308,36.9836 136.065784,36.3868 C136.411536,35.7872 136.649669,35.1451 136.77446,34.4825 C136.901541,33.8208 136.972523,33.1516 136.986262,32.4806 C136.990841,32.17 136.990841,31.8692 136.990841,31.5587 C137,31.1954 137,30.8341 137,30.4649 L137,9.5363 C137,9.17 137,8.8068 136.990841,8.4445 C136.990841,8.1378 136.990841,7.8302 136.986262,7.5236 C136.972523,6.8526 136.901541,6.1834 136.77446,5.5216 C136.649669,4.8594 136.410391,4.2176 136.065784,3.6182 C135.358253,2.4153 134.238568,1.4362 132.861287,0.8184 C132.173218,0.5157 131.435921,0.3044 130.67687,0.1914 C129.92011,0.0812 129.15419,0.0221 128.387126,0.0147 C128.03794,0.0098 127.679595,0.004 127.331553,0.002 C126.919399,0 126.501521,0 126.090512,0 L126.090512,0 Z" id="Path" fill="#A6A6A6"></path>
                        <path d="M9.54179102,39.125 C9.19295115,39.125 8.85258327,39.1211 8.50649107,39.1143 C7.78957762,39.1061 7.07426698,39.0516 6.36651244,38.9512 C5.70661319,38.8519 5.06732148,38.6673 4.46981728,38.4033 C3.87769394,38.1415 3.33766188,37.7983 2.87044314,37.3867 C2.39635521,36.98 2.00172081,36.5082 1.70211006,35.9902 C1.39917921,35.4688 1.18944024,34.9099 1.08044924,34.333 C0.962642803,33.7131 0.898988399,33.0863 0.889829492,32.458 C0.882502366,32.2471 0.873,31.5449 0.873,31.5449 L0.873,8.4443 C0.873,8.4443 0.883189284,7.7529 0.889829492,7.5498 C0.89864494,6.9225 0.961955885,6.2967 1.07941887,5.6777 C1.18863883,5.0993 1.39849229,4.5387 1.70153763,4.0156 C2.000118,3.4979 2.39257716,3.0259 2.86380293,2.6177 C3.33445627,2.2056 3.87620562,1.8606 4.46924485,1.5952 C5.0654897,1.3321 5.70352206,1.1487 6.36204747,1.0513 C7.07209174,0.9498 7.78980659,0.895 8.50923874,0.8872 L9.54236346,0.875 L127.19837,0.875 L128.24363,0.8877 C128.95688,0.8951 129.66784,0.9494 130.370787,1.0503 C131.035952,1.149 131.681655,1.3336 132.283853,1.5981 C133.472221,2.133 134.439631,2.9792 135.048698,4.0181 C135.347508,4.5376 135.553583,5.0935 135.662345,5.667 C135.780266,6.291 135.846668,6.9217 135.860407,7.5542 C135.863841,7.8374 135.863841,8.1416 135.863841,8.4443 C135.873,8.8193 135.873,9.1763 135.873,9.5361 L135.873,30.4648 C135.873,30.8281 135.873,31.1826 135.863841,31.54 C135.863841,31.8652 135.863841,32.1631 135.859262,32.4697 C135.846668,33.0909 135.781411,33.7104 135.66349,34.3232 C135.557018,34.9043 135.348653,35.4675 135.045264,35.9932 C134.744165,36.5056 134.351477,36.9733 133.883227,37.3789 C133.414978,37.7927 132.874603,38.1379 132.280419,38.4014 C131.679365,38.6674 131.035952,38.8527 130.370787,38.9512 C129.663261,39.0522 128.947721,39.1067 128.231037,39.1143 C127.895592,39.1211 127.545264,39.125 127.204094,39.125 L125.963063,39.127 L9.54179102,39.125 Z" id="Path" fill="#000000"></path>
                        <path d="M24.768,20.3003 C24.7788,19.4657 25.0005,18.6473 25.4125,17.9213 C25.8245,17.1954 26.4135,16.5854 27.1246,16.1483 C26.6728,15.5031 26.0769,14.9722 25.3841,14.5976 C24.6912,14.2231 23.9206,14.0152 23.1334,13.9906 C21.4542,13.8143 19.8262,14.9954 18.9705,14.9954 C18.0982,14.9954 16.7807,14.0081 15.362,14.0373 C14.4443,14.0669 13.55,14.3338 12.7661,14.8118 C11.9822,15.2899 11.3356,15.9629 10.8891,16.7651 C8.9551,20.1136 10.3977,25.0346 12.2503,27.7412 C13.1772,29.0666 14.2605,30.547 15.6779,30.4945 C17.065,30.437 17.583,29.61 19.2573,29.61 C20.9161,29.61 21.4021,30.4945 22.8483,30.4611 C24.3367,30.437 25.2745,29.1299 26.1688,27.792 C26.8348,26.8476 27.3473,25.8039 27.6873,24.6995 C26.8225,24.3338 26.0846,23.7216 25.5655,22.9393 C25.0464,22.157 24.769,21.2392 24.768,20.3003 L24.768,20.3003 Z" id="Path" fill="#FFFFFF"></path>
                        <path d="M22.0356,12.2113 C22.8471,11.2371 23.247,9.9849 23.1501,8.7207 C21.9103,8.8509 20.765,9.4435 19.9426,10.3803 C19.5404,10.838 19.2324,11.3704 19.0362,11.9472 C18.8399,12.524 18.7593,13.1337 18.7988,13.7417 C19.419,13.7481 20.0325,13.6137 20.5932,13.3486 C21.1538,13.0835 21.647,12.6946 22.0356,12.2113 Z" id="Path" fill="#FFFFFF"></path>
                        <path d="M42.3008,27.1397 L37.5674,27.1397 L36.4307,30.4961 L34.4258,30.4961 L38.9092,18.0781 L40.9922,18.0781 L45.4756,30.4961 L43.4365,30.4961 L42.3008,27.1397 Z M38.0576,25.5908 L41.8096,25.5908 L39.96,20.1436 L39.9082,20.1436 L38.0576,25.5908 Z" id="Shape" fill="#FFFFFF"></path>
                        <path d="M55.1573,25.9695 C55.1573,28.7829 53.6514,30.5905 51.3789,30.5905 C50.8033,30.6207 50.2308,30.4881 49.727,30.2079 C49.2232,29.9278 48.8085,29.5114 48.5303,29.0065 L48.4873,29.0065 L48.4873,33.4909 L46.6289,33.4909 L46.6289,21.4421 L48.4278,21.4421 L48.4278,22.948 L48.4619,22.948 C48.7529,22.4455 49.1746,22.0313 49.6823,21.7495 C50.1899,21.4676 50.7644,21.3287 51.3448,21.3474 C53.6426,21.3474 55.1573,23.1638 55.1573,25.9695 Z M53.2471,25.9695 C53.2471,24.1365 52.2998,22.9314 50.8545,22.9314 C49.4346,22.9314 48.4795,24.1618 48.4795,25.9695 C48.4795,27.7937 49.4346,29.0154 50.8545,29.0154 C52.2998,29.0154 53.2471,27.8191 53.2471,25.9695 Z" id="Shape" fill="#FFFFFF"></path>
                        <path d="M65.1221,25.9694 C65.1221,28.7829 63.6162,30.5905 61.3438,30.5905 C60.7681,30.6206 60.1956,30.488 59.6918,30.2079 C59.188,29.9278 58.7733,29.5114 58.4952,29.0065 L58.4521,29.0065 L58.4521,33.4909 L56.5938,33.4909 L56.5938,21.4421 L58.3926,21.4421 L58.3926,22.948 L58.4268,22.948 C58.7177,22.4455 59.1394,22.0313 59.6471,21.7495 C60.1547,21.4676 60.7292,21.3287 61.3096,21.3474 C63.6075,21.3474 65.1221,23.1638 65.1221,25.9694 Z M63.2119,25.9694 C63.2119,24.1364 62.2647,22.9314 60.8194,22.9314 C59.3994,22.9314 58.4444,24.1618 58.4444,25.9694 C58.4444,27.7937 59.3994,29.0153 60.8194,29.0153 C62.2647,29.0153 63.2119,27.8191 63.2119,25.9694 L63.2119,25.9694 Z" id="Shape" fill="#FFFFFF"></path>
                        <path d="M71.709,27.0362 C71.8467,28.2676 73.043,29.0762 74.6778,29.0762 C76.2442,29.0762 77.3711,28.2676 77.3711,27.1572 C77.3711,26.1934 76.6914,25.6162 75.0821,25.2207 L73.4727,24.833 C71.1924,24.2822 70.1338,23.2158 70.1338,21.4854 C70.1338,19.3428 72.001,17.8711 74.6524,17.8711 C77.2764,17.8711 79.0752,19.3428 79.1358,21.4854 L77.2598,21.4854 C77.1475,20.2461 76.1231,19.4981 74.626,19.4981 C73.1289,19.4981 72.1045,20.2549 72.1045,21.3565 C72.1045,22.2344 72.7588,22.751 74.3594,23.1465 L75.7275,23.4824 C78.2754,24.0849 79.334,25.1084 79.334,26.9248 C79.334,29.248 77.4834,30.7031 74.54,30.7031 C71.7861,30.7031 69.9268,29.2822 69.8066,27.0361 L71.709,27.0362 Z" id="Path" fill="#FFFFFF"></path>
                        <path d="M83.344,19.3008 L83.344,21.4434 L85.065,21.4434 L85.065,22.915 L83.344,22.915 L83.344,27.9062 C83.344,28.6816 83.688,29.043 84.445,29.043 C84.65,29.0394 84.854,29.0251 85.057,29 L85.057,30.4629 C84.716,30.5264 84.371,30.5552 84.024,30.5488 C82.191,30.5488 81.4766,29.8603 81.4766,28.1045 L81.4766,22.915 L80.1602,22.915 L80.1602,21.4434 L81.4765,21.4434 L81.4765,19.3008 L83.344,19.3008 Z" id="Path" fill="#FFFFFF"></path>
                        <path d="M86.064,25.9707 C86.064,23.1221 87.742,21.332 90.358,21.332 C92.983,21.332 94.653,23.122 94.653,25.9707 C94.653,28.8272 92.992,30.6094 90.358,30.6094 C87.726,30.6094 86.064,28.8271 86.064,25.9707 Z M92.76,25.9707 C92.76,24.0166 91.864,22.8633 90.358,22.8633 C88.853,22.8633 87.958,24.0254 87.958,25.9707 C87.958,27.9326 88.853,29.0772 90.358,29.0772 C91.864,29.0772 92.76,27.9326 92.76,25.9707 L92.76,25.9707 Z" id="Shape" fill="#FFFFFF"></path>
                        <path d="M96.184,21.442 L97.956,21.442 L97.956,22.983 L97.999,22.983 C98.119,22.5017 98.401,22.0764 98.798,21.7785 C99.194,21.4806 99.681,21.3284 100.177,21.3473 C100.391,21.3465 100.605,21.3698 100.814,21.4166 L100.814,23.1549 C100.543,23.0723 100.261,23.0343 99.979,23.0426 C99.709,23.0316 99.439,23.0792 99.19,23.1821 C98.94,23.285 98.715,23.4408 98.531,23.6386 C98.347,23.8365 98.208,24.0719 98.124,24.3286 C98.039,24.5852 98.011,24.8571 98.042,25.1256 L98.042,30.4957 L96.184,30.4957 L96.184,21.442 Z" id="Path" fill="#FFFFFF"></path>
                        <path d="M109.382,27.8379 C109.132,29.4814 107.531,30.6094 105.483,30.6094 C102.85,30.6094 101.215,28.8447 101.215,26.0137 C101.215,23.1738 102.858,21.332 105.405,21.332 C107.91,21.332 109.485,23.0527 109.485,25.7978 L109.485,26.4346 L103.091,26.4346 L103.091,26.5469 C103.061,26.8801 103.103,27.2157 103.213,27.5316 C103.323,27.8474 103.5,28.1362 103.73,28.3787 C103.96,28.6213 104.24,28.8121 104.549,28.9384 C104.859,29.0647 105.192,29.1236 105.526,29.1113 C105.966,29.1525 106.406,29.0508 106.783,28.8213 C107.16,28.5919 107.452,28.247 107.617,27.8379 L109.382,27.8379 Z M103.099987,25.1357 L107.626,25.1357 C107.643,24.8361 107.597,24.5363 107.493,24.2551 C107.388,23.9739 107.226,23.7174 107.018,23.5016 C106.809,23.2858 106.558,23.1155 106.281,23.0013 C106.003,22.8871 105.705,22.8314 105.405,22.8379 C105.103,22.8361 104.803,22.8942 104.523,23.009 C104.243,23.1237 103.988,23.2928 103.774,23.5064 C103.559,23.72 103.389,23.974 103.274,24.2537 C103.158,24.5333 103.099,24.8331 103.099987,25.1357 L103.099987,25.1357 Z" id="Shape" fill="#FFFFFF"></path>
                        <path d="M37.8271,8.7314 C38.2168,8.7034 38.6077,8.7623 38.9718,8.9037 C39.3359,9.0451 39.6641,9.2656 39.9327,9.5493 C40.2013,9.8329 40.4036,10.1726 40.525,10.5438 C40.6464,10.9151 40.6839,11.3087 40.6348,11.6962 C40.6348,13.6025 39.6045,14.6982 37.8271,14.6982 L35.6719,14.6982 L35.6719,8.7314 L37.8271,8.7314 Z M36.5986,13.8544 L37.7236,13.8544 C38.002,13.871 38.2806,13.8254 38.5392,13.7208 C38.7977,13.6161 39.0297,13.4552 39.2182,13.2496 C39.4067,13.0441 39.5469,12.7991 39.6288,12.5324 C39.7107,12.2658 39.7321,11.9843 39.6914,11.7084 C39.7291,11.4335 39.7056,11.1538 39.6224,10.8891 C39.5393,10.6244 39.3987,10.3814 39.2106,10.1775 C39.0226,9.9736 38.7917,9.8138 38.5346,9.7095 C38.2776,9.6053 38.0006,9.5592 37.7236,9.5746 L36.5986,9.5746 L36.5986,13.8544 Z" id="Shape" fill="#FFFFFF"></path>
                        <path d="M45.7126,13.4815 C45.5918,13.8931 45.3302,14.2491 44.9735,14.4872 C44.6168,14.7254 44.1878,14.8305 43.7614,14.7843 C43.4647,14.7921 43.1699,14.7353 42.8974,14.6177 C42.6249,14.5002 42.3812,14.3248 42.1833,14.1036 C41.9854,13.8825 41.838,13.621 41.7513,13.3371 C41.6646,13.0533 41.6407,12.754 41.6813,12.46 C41.6418,12.1652 41.6661,11.8652 41.7526,11.5805 C41.8391,11.2959 41.9857,11.0331 42.1826,10.81 C42.3795,10.587 42.622,10.4088 42.8937,10.2876 C43.1654,10.1664 43.46,10.105 43.7575,10.1075 C45.0104,10.1075 45.7663,10.9635 45.7663,12.3775 L45.7663,12.6876 L42.5866,12.6876 L42.5866,12.7374 C42.5727,12.9026 42.5935,13.069 42.6476,13.2257 C42.7017,13.3825 42.788,13.5262 42.9009,13.6476 C43.0138,13.7691 43.1509,13.8656 43.3033,13.931 C43.4557,13.9964 43.62,14.0292 43.7859,14.0274 C43.9984,14.0529 44.2138,14.0146 44.4046,13.9174 C44.5953,13.8202 44.7529,13.6685 44.8571,13.4815 L45.7126,13.4815 Z M42.5866,12.0304 L44.861,12.0304 C44.8722,11.8792 44.8516,11.7274 44.8007,11.5847 C44.7497,11.442 44.6695,11.3115 44.5651,11.2017 C44.4607,11.0918 44.3345,11.005 44.1946,10.9468 C44.0546,10.8886 43.9041,10.8604 43.7526,10.8639 C43.5989,10.8619 43.4464,10.8908 43.304,10.9487 C43.1616,11.0067 43.0323,11.0926 42.9236,11.2013 C42.815,11.31 42.7292,11.4393 42.6713,11.5817 C42.6134,11.7241 42.5846,11.8767 42.5866,12.0304 L42.5866,12.0304 Z" id="Shape" fill="#FFFFFF"></path>
                        <path d="M48.6055,10.1074 C49.6182,10.1074 50.2803,10.5786 50.3672,11.3726 L49.5146,11.3726 C49.4326,11.042 49.1094,10.8311 48.6055,10.8311 C48.1094,10.8311 47.7325,11.0664 47.7325,11.418 C47.7325,11.687 47.96,11.8565 48.4483,11.9683 L49.1963,12.1416 C50.0527,12.3403 50.4541,12.7085 50.4541,13.3701 C50.4541,14.2178 49.6641,14.7842 48.5889,14.7842 C47.5176,14.7842 46.8193,14.3003 46.7402,13.5024 L47.6299,13.5024 C47.7065,13.6923 47.8448,13.851 48.0224,13.9529 C48.2,14.0548 48.4067,14.0941 48.6094,14.0644 C49.1631,14.0644 49.5566,13.8164 49.5566,13.4565 C49.5566,13.188 49.3457,13.0142 48.8945,12.9067 L48.1094,12.7246 C47.2529,12.522 46.8564,12.1377 46.8564,11.4678 C46.8564,10.6694 47.5879,10.1074 48.6055,10.1074 Z" id="Path" fill="#FFFFFF"></path>
                        <path d="M54.6,11.6657 C54.5433,11.4322 54.4049,11.2267 54.2098,11.0864 C54.0147,10.9461 53.7759,10.8804 53.5365,10.901 C52.7923,10.901 52.3373,11.4713 52.3373,12.4308 C52.3373,13.4069 52.7963,13.9899 53.5365,13.9899 C53.7735,14.0173 54.0124,13.9573 54.2083,13.821 C54.4041,13.6846 54.5434,13.4815 54.6,13.2497 L55.4642,13.2497 C55.4071,13.7056 55.174,14.1212 54.8148,14.4078 C54.4556,14.6944 53.9986,14.8294 53.5414,14.7838 C53.2403,14.7933 52.9408,14.737 52.6637,14.6186 C52.3867,14.5003 52.1389,14.3228 51.9376,14.0987 C51.7363,13.8746 51.5864,13.6092 51.4984,13.3211 C51.4104,13.033 51.3864,12.7292 51.4281,12.4308 C51.3885,12.1347 51.414,11.8335 51.5029,11.5482 C51.5918,11.263 51.7418,11.0005 51.9426,10.7793 C52.1433,10.558 52.39,10.3832 52.6653,10.2671 C52.9406,10.151 53.2379,10.0964 53.5365,10.1071 C53.9975,10.0646 54.4569,10.2038 54.8169,10.4948 C55.177,10.7859 55.4092,11.206 55.4642,11.6657 L54.6,11.6657 Z" id="Path" fill="#FFFFFF"></path>
                        <path d="M56.3457,13.4243 C56.3457,12.6138 56.9492,12.1465 58.0205,12.0801 L59.2402,12.0098 L59.2402,11.6211 C59.2402,11.1455 58.9258,10.877 58.3184,10.877 C57.8223,10.877 57.4785,11.0591 57.3799,11.3775 L56.5195,11.3775 C56.6104,10.604 57.3379,10.1079 58.3594,10.1079 C59.4883,10.1079 60.125,10.6699 60.125,11.6211 L60.125,14.6978 L59.2695,14.6978 L59.2695,14.065 L59.1992,14.065 C59.0565,14.2919 58.8561,14.477 58.6185,14.6012 C58.3809,14.7254 58.1145,14.7843 57.8467,14.772 C57.6577,14.7916 57.4666,14.7714 57.2858,14.7127 C57.1051,14.654 56.9386,14.5581 56.7972,14.4312 C56.6558,14.3042 56.5425,14.149 56.4648,13.9756 C56.387,13.8022 56.3464,13.6144 56.3457,13.4243 L56.3457,13.4243 Z M59.2402,13.0396 L59.2402,12.6631 L58.1406,12.7334 C57.5205,12.7749 57.2393,12.9858 57.2393,13.3828 C57.2393,13.7881 57.5908,14.0239 58.0743,14.0239 C58.2159,14.0383 58.359,14.024 58.495,13.9819 C58.631,13.9398 58.7571,13.8708 58.8659,13.7789 C58.9747,13.6871 59.0639,13.5743 59.1282,13.4473 C59.1925,13.3203 59.2306,13.1816 59.2402,13.0396 L59.2402,13.0396 Z M57.8262,9.4419 L58.8643,8.0195 L59.9063,8.0195 L58.7441,9.4419 L57.8262,9.4419 Z" id="Shape" fill="#FFFFFF"></path>
                        <path d="M61.5176,10.1947 L62.373,10.1947 L62.373,10.8851 L62.4395,10.8851 C62.5352,10.6454 62.7045,10.4423 62.9229,10.3048 C63.1414,10.1673 63.3978,10.1026 63.6553,10.1199 C63.7884,10.1182 63.9213,10.1306 64.0518,10.1571 L64.0518,11.0341 C63.8887,10.9992 63.7224,10.9812 63.5557,10.9803 C63.4091,10.9672 63.2614,10.9848 63.122,11.0322 C62.9827,11.0795 62.8548,11.1554 62.7465,11.2551 C62.6383,11.3548 62.5521,11.476 62.4935,11.611 C62.4349,11.746 62.4052,11.8918 62.4063,12.0389 L62.4063,14.6976 L61.5176,14.6976 L61.5176,10.1947 Z" id="Path" fill="#FFFFFF"></path>
                        <path d="M64.8672,15.1484 L65.7768,15.1484 C65.852,15.4751 66.228,15.686 66.8276,15.686 C67.5679,15.686 68.0063,15.3344 68.0063,14.7392 L68.0063,13.875 L67.9399,13.875 C67.8006,14.1169 67.597,14.3156 67.3518,14.4491 C67.1065,14.5825 66.8291,14.6456 66.5503,14.6313 C65.4009,14.6313 64.6895,13.7426 64.6895,12.3945 C64.6895,11.0215 65.4087,10.1201 66.5591,10.1201 C66.8449,10.1101 67.128,10.1789 67.3774,10.3189 C67.6267,10.459 67.8328,10.6648 67.9731,10.914 L68.0435,10.914 L68.0435,10.1948 L68.895,10.1948 L68.895,14.7348 C68.895,15.7646 68.0884,16.4179 66.8149,16.4179 C65.6899,16.418 64.9619,15.9135 64.8672,15.1484 Z M68.0229,12.3901 C68.0229,11.4931 67.5591,10.9184 66.8022,10.9184 C66.0376,10.9184 65.6079,11.4931 65.6079,12.3901 C65.6079,13.2876 66.0376,13.8623 66.8022,13.8623 C67.5639,13.8623 68.0229,13.292 68.0229,12.3901 L68.0229,12.3901 Z" id="Shape" fill="#FFFFFF"></path>
                        <path d="M70.0547,13.4238 C70.0547,12.6133 70.6582,12.146 71.7295,12.0796 L72.9492,12.0093 L72.9492,11.6206 C72.9492,11.145 72.6348,10.8765 72.0274,10.8765 C71.5313,10.8765 71.1875,11.0586 71.0889,11.377 L70.2285,11.377 C70.3193,10.6035 71.0469,10.1074 72.0684,10.1074 C73.1973,10.1074 73.834,10.6694 73.834,11.6206 L73.834,14.6973 L72.9785,14.6973 L72.9785,14.0645 L72.9082,14.0645 C72.7655,14.2914 72.5651,14.4765 72.3275,14.6007 C72.0898,14.7249 71.8235,14.7838 71.5557,14.7715 C71.3666,14.7911 71.1756,14.7709 70.9948,14.7122 C70.8141,14.6536 70.6476,14.5576 70.5062,14.4307 C70.3648,14.3037 70.2515,14.1485 70.1738,13.9751 C70.096,13.8017 70.0554,13.6139 70.0547,13.4238 L70.0547,13.4238 Z M72.9492,13.0391 L72.9492,12.6626 L71.8496,12.7329 C71.2295,12.7744 70.9482,12.9853 70.9482,13.3823 C70.9482,13.7876 71.2998,14.0234 71.7832,14.0234 C71.9249,14.0378 72.068,14.0235 72.204,13.9814 C72.34,13.9393 72.4661,13.8703 72.5749,13.7784 C72.6837,13.6866 72.7729,13.5738 72.8372,13.4468 C72.9015,13.3198 72.9396,13.1811 72.9492,13.0391 L72.9492,13.0391 Z" id="Shape" fill="#FFFFFF"></path>
                        <polygon id="Path" fill="#FFFFFF" points="75.2656 8.4375 76.1543 8.4375 76.1543 14.6982 75.2656 14.6982"></polygon>
                        <path d="M77.3909,12.4438 C77.3626,12.1479 77.3964,11.8493 77.4903,11.5672 C77.5841,11.2852 77.7359,11.0258 77.9358,10.8059 C78.1358,10.5859 78.3795,10.4101 78.6513,10.2898 C78.9232,10.1696 79.2172,10.1074 79.5144,10.1074 C79.8117,10.1074 80.1057,10.1696 80.3775,10.2898 C80.6494,10.4101 80.8931,10.5859 81.093,10.8059 C81.293,11.0258 81.4447,11.2852 81.5386,11.5672 C81.6324,11.8493 81.6663,12.1479 81.638,12.4438 C81.6668,12.74 81.6334,13.039 81.5398,13.3215 C81.4462,13.6041 81.2945,13.8639 81.0945,14.0843 C80.8945,14.3047 80.6506,14.4808 80.3785,14.6014 C80.1064,14.7219 79.8121,14.7842 79.5144,14.7842 C79.2168,14.7842 78.9225,14.7219 78.6504,14.6014 C78.3782,14.4808 78.1343,14.3047 77.9343,14.0843 C77.7344,13.8639 77.5827,13.6041 77.4891,13.3215 C77.3955,13.039 77.3621,12.74 77.3909,12.4438 Z M80.7239,12.4438 C80.7239,11.4677 80.2854,10.8969 79.5159,10.8969 C78.7434,10.8969 78.3089,11.4677 78.3089,12.4438 C78.3089,13.4277 78.7435,13.9941 79.5159,13.9941 C80.2854,13.9941 80.7239,13.4238 80.7239,12.4438 L80.7239,12.4438 Z" id="Shape" fill="#FFFFFF"></path>
                        <path d="M89.08,13.4815 C88.959,13.8931 88.697,14.2491 88.341,14.4872 C87.984,14.7254 87.555,14.8305 87.129,14.7843 C86.832,14.7921 86.537,14.7353 86.265,14.6177 C85.992,14.5002 85.748,14.3248 85.551,14.1036 C85.353,13.8825 85.205,13.621 85.119,13.3371 C85.032,13.0533 85.008,12.754 85.049,12.46 C85.009,12.1652 85.033,11.8652 85.12,11.5805 C85.206,11.2959 85.353,11.0331 85.55,10.81 C85.747,10.587 85.989,10.4088 86.261,10.2876 C86.533,10.1664 86.827,10.105 87.125,10.1075 C88.378,10.1075 89.133,10.9635 89.133,12.3775 L89.133,12.6876 L85.954,12.6876 L85.954,12.7374 C85.94,12.9026 85.961,13.069 86.015,13.2257 C86.069,13.3825 86.155,13.5262 86.268,13.6476 C86.381,13.7691 86.518,13.8656 86.67,13.931 C86.823,13.9964 86.987,14.0292 87.153,14.0274 C87.366,14.0529 87.581,14.0146 87.772,13.9174 C87.962,13.8202 88.12,13.6685 88.224,13.4815 L89.08,13.4815 Z M85.954,12.0304 L88.228,12.0304 C88.239,11.8792 88.219,11.7274 88.168,11.5847 C88.117,11.442 88.037,11.3115 87.932,11.2017 C87.828,11.0918 87.702,11.005 87.562,10.9468 C87.422,10.8886 87.271,10.8604 87.12,10.8639 C86.966,10.8619 86.814,10.8908 86.671,10.9487 C86.529,11.0067 86.399,11.0925 86.291,11.2013 C86.182,11.31 86.096,11.4393 86.038,11.5817 C85.981,11.7241 85.952,11.8767 85.954,12.0304 L85.954,12.0304 Z" id="Shape" fill="#FFFFFF"></path>
                        <path d="M90.328,10.1949 L91.184,10.1949 L91.184,10.9102 L91.25,10.9102 C91.363,10.6533 91.553,10.4379 91.794,10.2941 C92.034,10.1503 92.314,10.0852 92.594,10.1079 C92.813,10.0915 93.033,10.1245 93.237,10.2046 C93.442,10.2847 93.626,10.4098 93.776,10.5707 C93.925,10.7315 94.037,10.924 94.102,11.1338 C94.167,11.3436 94.185,11.5654 94.152,11.7827 L94.152,14.6977 L93.264,14.6977 L93.264,12.0059 C93.264,11.2823 92.949,10.9224 92.292,10.9224 C92.143,10.9155 91.995,10.9408 91.857,10.9966 C91.719,11.0525 91.594,11.1375 91.492,11.2459 C91.39,11.3543 91.313,11.4834 91.265,11.6246 C91.217,11.7657 91.201,11.9154 91.217,12.0635 L91.217,14.6978 L90.328,14.6978 L90.328,10.1949 Z" id="Path" fill="#FFFFFF"></path>
                        <path d="M101.777,13.4815 C101.656,13.8931 101.395,14.2491 101.038,14.4872 C100.681,14.7254 100.252,14.8305 99.826,14.7843 C99.529,14.7921 99.234,14.7353 98.962,14.6177 C98.689,14.5002 98.446,14.3248 98.248,14.1036 C98.05,13.8825 97.902,13.621 97.816,13.3371 C97.729,13.0533 97.705,12.754 97.746,12.46 C97.706,12.1652 97.731,11.8652 97.817,11.5805 C97.904,11.2959 98.05,11.0331 98.247,10.81 C98.444,10.587 98.686,10.4088 98.958,10.2876 C99.23,10.1664 99.524,10.105 99.822,10.1075 C101.075,10.1075 101.831,10.9635 101.831,12.3775 L101.831,12.6876 L98.651,12.6876 L98.651,12.7374 C98.637,12.9026 98.658,13.069 98.712,13.2257 C98.766,13.3825 98.852,13.5262 98.965,13.6476 C99.078,13.7691 99.215,13.8656 99.368,13.931 C99.52,13.9964 99.684,14.0292 99.85,14.0274 C100.063,14.0529 100.278,14.0146 100.469,13.9174 C100.66,13.8202 100.817,13.6685 100.922,13.4815 L101.777,13.4815 Z M98.651,12.0304 L100.925,12.0304 C100.937,11.8792 100.916,11.7274 100.865,11.5847 C100.814,11.442 100.734,11.3115 100.63,11.2017 C100.525,11.0918 100.399,11.005 100.259,10.9468 C100.119,10.8886 99.969,10.8604 99.817,10.8639 C99.663,10.8619 99.511,10.8908 99.368,10.9487 C99.226,11.0067 99.097,11.0925 98.988,11.2012 C98.879,11.31 98.794,11.4393 98.736,11.5817 C98.678,11.7241 98.649,11.8767 98.651,12.0304 L98.651,12.0304 Z" id="Shape" fill="#FFFFFF"></path>
                        <polygon id="Path" fill="#FFFFFF" points="103.064 8.4375 103.953 8.4375 103.953 14.6982 103.064 14.6982"></polygon>
                    </g>
                </g>
            </g>
        </g>
    </g>
</svg>