<?xml version="1.0" encoding="UTF-8"?>
<svg width="570px" height="400px" viewBox="0 0 570 400" version="1.1" xmlns="http://www.w3.org/2000/svg" xmlns:xlink="http://www.w3.org/1999/xlink">
    <title>Check-in_header</title>
    <defs>
        <rect id="path-1" x="0" y="0" width="570" height="400"></rect>
        <polygon id="path-3" points="0 0 78.6096416 0 78.6096416 7.09524547 0 7.09524547"></polygon>
        <polygon id="path-5" points="0 0 33.4763477 0 33.4763477 14.1907747 0 14.1907747"></polygon>
    </defs>
    <g id="Page-1" stroke="none" stroke-width="1" fill="none" fill-rule="evenodd">
        <g id="Artboard" transform="translate(-5564.000000, -3732.000000)">
            <g id="Check-in_header" transform="translate(5564.000000, 3732.000000)">
                <mask id="mask-2" fill="white">
                    <use xlink:href="#path-1"></use>
                </mask>
                <g id="Mask"></g>
                <g id="Group-99" mask="url(#mask-2)">
                    <g transform="translate(1.008212, 11.000000)">
                        <path d="M70.6737515,158.147249 C99.703541,67.8233452 199.483528,2.72958194 316.713115,0.0804171533 C378.738512,-1.30724059 443.936564,14.9662002 491.36775,72.1124691 C576.23626,174.168389 486.13287,244.812783 423.314309,278.36887 C393.015458,294.642311 365.571996,314.069519 342.094352,336.398194 C313.857726,363.015993 268.1715,354.816197 212.174146,349.517867 C183.93752,346.868702 152.845505,349.517867 120.801694,348.130209 C18.6422162,343.841086 51.4791912,218.194984 70.6737515,158.147249 L70.6737515,158.147249 Z" id="Path" fill="#38AC49" fill-rule="nonzero" opacity="0.0590071905"></path>
                        <g id="Group-98" stroke-width="1" fill="none" fill-rule="evenodd" transform="translate(0.000000, 69.000000)">
                            <g id="Group-8" transform="translate(23.506614, 268.659575)" fill="#E8E9EB">
                                <ellipse id="Oval-Copy-2" cx="261.242587" cy="9.07633698" rx="261.242587" ry="9.07633698"></ellipse>
                            </g>
                            <g id="laptop" transform="translate(63.521890, 0.000000)" fill-rule="nonzero">
                                <path d="M51.2151564,0 L403.407731,0 C411.2833,0 417.622888,6.35803793 417.622888,14.2565279 L417.622888,239.068672 C417.622888,246.967162 411.2833,253.3252 403.407731,253.3252 L51.2151564,253.3252 C43.3395874,253.3252 37,246.967162 37,239.068672 L37,14.2565279 C37,6.35803793 43.3395874,0 51.2151564,0 Z" id="Path" fill="#DADFE1"></path>
                                <polygon id="Path" fill="#389B43" opacity="0.205322992" points="52.1231852 14.8006629 227.089352 14.8006629 227.089352 238.524537 52.1231852 238.524537"></polygon>
                                <polygon id="Path" fill="#389B43" points="52.1231852 14.8006629 401.58313 14.8006629 401.58313 104.353854 52.1231852 104.353854"></polygon>
                                <polygon id="Path" fill="#389B43" points="52.1231852 14.8006629 227.089352 14.8006629 227.089352 104.353854 52.1231852 104.353854"></polygon>
                                <polygon id="Path-Copy" fill="#389B43" opacity="0.284375872" points="227.089352 51.1060108 402.055519 51.1060108 402.055519 238.683642 227.089352 238.683642"></polygon>
                                <path d="M0,253.3252 C0,265.172935 10.5968561,274.710466 23.7590379,274.710466 L429.946332,274.710466 C443.108514,274.710466 453.70537,265.172935 453.70537,253.3252 L0,253.3252 Z" id="Path" fill="#BCBDBF"></path>
                                <path d="M196.689785,253.3252 C196.689785,257.603391 199.909202,261.047368 201.696613,261.047368 L254.075007,261.047368 C255.862417,261.047368 258.289741,257.603391 258.289741,253.3252 L196.689785,253.3252 Z" id="Path" fill="#7C7E7F"></path>
                                <g id="Group" opacity="0.765218826" transform="translate(194.773317, 14.800663)" fill="#FFFFFF">
                                    <polygon id="Path" opacity="0.118406023" points="30.8647617 0 152.683709 223.724822 206.810759 223.724822 206.810759 0"></polygon>
                                    <polygon id="Path" opacity="0.118406023" points="0 0 121.818947 223.724822 183.354628 223.724822 61.534736 0"></polygon>
                                </g>
                            </g>
                            <g id="Group-52-Copy-2" opacity="0.611256917" transform="translate(139.346283, 129.489074)">
                                <rect id="Rectangle" fill="#EDEDED" transform="translate(139.369602, 26.018833) scale(1, -1) translate(-139.369602, -26.018833) " x="0" y="0" width="278.739203" height="52.0376653" rx="4.82572761"></rect>
                                <path d="M73.6064563,26.6239218 C87.6540229,26.6239218 110.186678,26.6239218 141.204421,26.6239218 C172.222164,26.6239218 195.140491,26.6239218 209.9594,26.6239218" id="Path-13" stroke="#494949" stroke-width="2.5854608" opacity="0.39822969" stroke-dasharray="6.032741609548585"></path>
                                <rect id="Rectangle" fill="#B7B7B7" opacity="0.803538005" transform="translate(38.009891, 19.362852) scale(1, -1) translate(-38.009891, -19.362852) " x="12.0666322" y="9.68142611" width="51.8865184" height="19.3628522" rx="2.41286381"></rect>
                                <rect id="Rectangle-Copy-19" fill="#B7B7B7" opacity="0.803538005" transform="translate(239.522649, 19.362852) scale(1, -1) translate(-239.522649, -19.362852) " x="213.57939" y="9.68142611" width="51.8865184" height="19.3628522" rx="2.41286381"></rect>
                                <rect id="Rectangle-Copy-18" fill="#B7B7B7" opacity="0.803538005" transform="translate(38.009891, 38.725704) scale(1, -1) translate(-38.009891, -38.725704) " x="12.0666322" y="35.0951696" width="51.8865184" height="7.26106958" rx="2.41286381"></rect>
                                <rect id="Rectangle-Copy-20" fill="#B7B7B7" opacity="0.803538005" transform="translate(239.522649, 38.725704) scale(1, -1) translate(-239.522649, -38.725704) " x="213.57939" y="35.0951696" width="51.8865184" height="7.26106958" rx="2.41286381"></rect>
                            </g>
                            <g id="Group-9" transform="translate(375.489309, 72.276687)">
                                <path d="M95.4775787,201.915823 L15.4215007,201.915823 C6.90437256,201.915823 0,195.100243 0,186.693135 L0,15.2222939 C0,6.81531696 6.90437256,0 15.4215007,0 L95.4775787,0 C103.994707,0 110.899479,6.81531696 110.899479,15.2222939 L110.899479,186.693135 C110.899479,195.100243 103.994707,201.915823 95.4775787,201.915823" id="Fill-28" fill="#676767"></path>
                                <polygon id="Fill-29" fill="#FFFFFF" points="3.02380017 180.906595 107.875812 180.906595 107.875812 15.2222939 3.02380017 15.2222939"></polygon>
                                <polygon id="Fill-29" fill="#004A23" points="3.02380017 28.4626757 107.875812 28.4626757 107.875812 15.2222939 3.02380017 15.2222939"></polygon>
                                <g id="Group-52-Copy-2" transform="translate(11.432936, 34.417470)" opacity="0.803538005">
                                    <rect id="Rectangle" fill="#004A23" transform="translate(25.724106, 4.015371) scale(1, -1) translate(-25.724106, -4.015371) " x="13.7195232" y="0" width="24.0091655" height="8.03074296" rx="1.56984532"></rect>
                                    <rect id="Rectangle-Copy-50" fill="#00853F" transform="translate(10.861289, 25.813102) scale(1, -1) translate(-10.861289, -25.813102) " x="0" y="22.9449799" width="21.7225783" height="5.73624497" rx="1.56984532"></rect>
                                    <rect id="Rectangle-Copy-51" fill="#00853F" transform="translate(77.172318, 25.813102) scale(1, -1) translate(-77.172318, -25.813102) " x="66.3110286" y="22.9449799" width="21.7225783" height="5.73624497" rx="1.56984532"></rect>
                                    <rect id="Rectangle-Copy-18" fill="#B7B7B7" transform="translate(44.016803, 12.619739) scale(1, -1) translate(-44.016803, -12.619739) " x="0" y="11.4724899" width="88.0336069" height="2.29449799" rx="1.14724899"></rect>
                                    <rect id="Rectangle-Copy-49" fill="#B7B7B7" transform="translate(44.016803, 17.208735) scale(1, -1) translate(-44.016803, -17.208735) " x="0" y="16.0614859" width="88.0336069" height="2.29449799" rx="1.14724899"></rect>
                                </g>
                                <g id="Group-52-Copy-7" transform="translate(11.521124, 74.458340)">
                                    <rect id="Rectangle" fill="#EDEDED" transform="translate(46.346051, 8.275239) scale(1, -1) translate(-46.346051, -8.275239) " x="0" y="0" width="92.6921017" height="16.5504773" rx="3.13969064"></rect>
                                    <path d="M24.4061508,8.41338746 C29.0999586,8.41338746 36.6289458,8.41338746 46.9931126,8.41338746 C57.3572794,8.41338746 65.0151337,8.41338746 69.9666754,8.41338746" id="Path-13" stroke="#494949" stroke-width="1.68213951" opacity="0.39822969" stroke-dasharray="3.924991988168833"></path>
                                    <rect id="Rectangle" fill="#B7B7B7" opacity="0.803538005" transform="translate(12.854066, 6.018355) scale(1, -1) translate(-12.854066, -6.018355) " x="4.21327735" y="3.00917769" width="17.2815783" height="6.01835538" rx="1.56984532"></rect>
                                    <rect id="Rectangle-Copy-19" fill="#B7B7B7" opacity="0.803538005" transform="translate(79.623801, 6.018355) scale(1, -1) translate(-79.623801, -6.018355) " x="70.9830116" y="3.00917769" width="17.2815783" height="6.01835538" rx="1.56984532"></rect>
                                    <rect id="Rectangle-Copy-18" fill="#B7B7B7" opacity="0.803538005" transform="translate(12.854066, 12.412858) scale(1, -1) translate(-12.854066, -12.412858) " x="4.21327735" y="11.2844163" width="17.2815783" height="2.25688327" rx="1.12844163"></rect>
                                    <rect id="Rectangle-Copy-20" fill="#B7B7B7" opacity="0.803538005" transform="translate(79.623801, 12.412858) scale(1, -1) translate(-79.623801, -12.412858) " x="70.9830116" y="11.2844163" width="17.2815783" height="2.25688327" rx="1.12844163"></rect>
                                </g>
                                <g id="Group-52-Copy-8" transform="translate(11.521124, 94.695060)">
                                    <rect id="Rectangle" fill="#EDEDED" transform="translate(46.346051, 36.956463) scale(1, -1) translate(-46.346051, -36.956463) " x="0" y="28.6812249" width="92.6921017" height="16.5504773" rx="3.13969064"></rect>
                                    <rect id="Rectangle-Copy-52" fill="#EDEDED" transform="translate(21.150932, 68.261315) scale(1, -1) translate(-21.150932, -68.261315) " x="0" y="52.7734537" width="42.3018631" height="30.9757228" rx="3.13969064"></rect>
                                    <rect id="Rectangle-Copy-53" fill="#EDEDED" transform="translate(69.740909, 68.261315) scale(1, -1) translate(-69.740909, -68.261315) " x="46.8750375" y="52.7734537" width="45.7317439" height="30.9757228" rx="3.13969064"></rect>
                                    <rect id="Rectangle-Copy-54" fill="#EDEDED" transform="translate(46.303391, 12.046114) scale(1, -1) translate(-46.303391, -12.046114) " x="0" y="0" width="92.6067813" height="24.0922289" rx="3.13969064"></rect>
                                    <path d="M24.4061508,37.0946123 C29.0999586,37.0946123 36.6289458,37.0946123 46.9931126,37.0946123 C57.3572794,37.0946123 65.0151337,37.0946123 69.9666754,37.0946123" id="Path-13" stroke="#494949" stroke-width="1.68213951" opacity="0.39822969" stroke-dasharray="3.924991988168833"></path>
                                    <rect id="Rectangle-Copy-19" fill="#B7B7B7" opacity="0.803538005" transform="translate(79.623801, 34.699580) scale(1, -1) translate(-79.623801, -34.699580) " x="70.9830116" y="31.6904025" width="17.2815783" height="6.01835538" rx="1.56984532"></rect>
                                    <rect id="Rectangle-Copy-20" fill="#B7B7B7" opacity="0.803538005" transform="translate(79.623801, 41.094083) scale(1, -1) translate(-79.623801, -41.094083) " x="70.9830116" y="39.9656412" width="17.2815783" height="2.25688327" rx="1.12844163"></rect>
                                </g>
                                <polygon id="Fill-30" fill="#3C3C3C" points="38.2035203 9.02150937 72.6955592 9.02150937 72.6955592 7.3186658 38.2035203 7.3186658"></polygon>
                                <path d="M86.8712451,8.17002187 C86.8712451,8.99115073 86.1975439,9.65667514 85.365403,9.65667514 C84.5332622,9.65667514 83.8595609,8.99115073 83.8595609,8.17002187 C83.8595609,7.34902443 84.5332622,6.6833686 85.365403,6.6833686 C86.1975439,6.6833686 86.8712451,7.34902443 86.8712451,8.17002187" id="Fill-31" fill="#3C3C3C"></path>
                                <path d="M62.5634121,191.310013 C62.5634121,195.186982 59.3782431,198.330612 55.4496063,198.330612 C51.5209694,198.330612 48.3363331,195.186982 48.3363331,191.310013 C48.3363331,187.43173 51.5209694,184.2881 55.4496063,184.2881 C59.3782431,184.2881 62.5634121,187.43173 62.5634121,191.310013" id="Fill-32" fill="#3C3C3C"></path>
                                <path d="M55.4496063,196.673373 C51.8052287,196.673373 48.8027314,193.968694 48.3871935,190.480736 C48.3548399,190.752781 48.3363331,191.028769 48.3363331,191.310013 C48.3363331,195.186982 51.5209694,198.330612 55.4496063,198.330612 C59.3782431,198.330612 62.5634121,195.186982 62.5634121,191.310013 C62.5634121,191.028769 62.5447721,190.752781 62.5114865,190.480736 C62.0960818,193.968694 59.0939838,196.673373 55.4496063,196.673373" id="Fill-33" fill="#2F2F2F"></path>
                            </g>
                            <g id="passport-(1)" transform="translate(324.126109, 224.777015) rotate(59.000000) translate(-324.126109, -224.777015) translate(262.846983, 141.794819)" fill-rule="nonzero">
                                <path d="M114.123058,17.9670467 C120.192321,19.5850544 123.794201,25.7921336 122.167648,31.8308325 L88.3051381,157.571676 C86.6789412,163.610375 80.4404461,167.194117 74.3711835,165.575756 L8.43519262,147.996991 C2.36593003,146.378983 -1.2359503,140.171904 0.390602115,134.133205 L34.2531125,8.39271454 C35.8793094,2.35401565 42.1178045,-1.22972628 48.1870671,0.388635114 L114.123058,17.9670467 Z" id="Path" fill="#F5F9EC"></path>
                                <path d="M63.0930423,34.6483731 L27.1816092,34.6483731 L0.390602115,134.133559 C-1.23559477,140.171904 2.3666411,146.378983 8.43590368,147.996991 L74.371539,165.574695 C80.4404461,167.192702 86.6789412,163.610022 88.3051381,157.571323 L109.085901,80.4089124 L63.0930423,34.6483731 Z" id="Path" fill="#F1F1F1"></path>
                                <path d="M114.123058,17.9670467 C120.192321,19.5850544 123.794201,25.7921336 122.167648,31.8308325 L107.444772,86.5006724 L19.5309466,63.0629082 L34.2538236,8.39306828 C35.8800204,2.35436939 42.1185156,-1.22937254 48.1877782,0.388988855 L114.123058,17.9670467 Z" id="Path" fill="#38AC49"></path>
                                <g id="Group" transform="translate(33.357859, 82.776419)" fill="#C8BEB2">
                                    <polygon id="Rectangle" transform="translate(7.899752, 41.735220) rotate(104.999329) translate(-7.899752, -41.735220) " points="-11.9188729 38.8669569 27.7112149 38.9170829 27.7183759 44.6034836 -11.9117118 44.5533576"></polygon>
                                    <polygon id="Rectangle" transform="translate(17.470545, 6.207973) rotate(104.999329) translate(-17.470545, -6.207973) " points="11.8055489 3.35761219 23.1283806 3.37193382 23.1355416 9.0583345 11.81271 9.04401286"></polygon>
                                    <polygon id="Rectangle" transform="translate(33.965590, 10.586588) rotate(104.999329) translate(-33.965590, -10.586588) " points="28.3005941 7.73622688 39.6234258 7.75054851 39.6305868 13.4369492 28.3077552 13.4226276"></polygon>
                                    <polygon id="Rectangle" transform="translate(50.435336, 14.987801) rotate(104.999329) translate(-50.435336, -14.987801) " points="44.77034 12.1374402 56.0931717 12.1517619 56.1003327 17.8381625 44.777501 17.8238409"></polygon>
                                    <polygon id="Rectangle" transform="translate(24.371684, 46.133700) rotate(104.999329) translate(-24.371684, -46.133700) " points="4.55305942 43.2654369 44.1831472 43.3155629 44.1903082 49.0019635 4.56022047 48.9518376"></polygon>
                                    <polygon id="Rectangle" transform="translate(40.876297, 50.535338) rotate(104.999329) translate(-40.876297, -50.535338) " points="21.0576728 47.6670745 60.6877606 47.7172005 60.6949216 53.4036012 21.0648338 53.3534752"></polygon>
                                </g>
                                <path d="M94.6936671,24.506288 L89.9839535,23.2505103 L73.162024,38.8554053 C68.7534447,37.6802804 63.8080143,36.3615369 62.9582962,36.1351432 C59.8186057,35.2981939 56.2579669,36.0230075 55.8373742,37.5847705 C55.4167815,39.1468872 58.1358794,41.5459532 61.27557,42.3829025 C62.1249326,42.6092963 67.0707185,43.927686 71.4792977,45.1031646 L78.2055808,66.9862407 L82.9152945,68.2420184 L82.4683925,48.0331947 C85.5622196,48.8581168 88.7196868,49.6996648 90.7899413,50.2514995 L94.4465734,56.6672854 L97.586264,57.5042347 L97.0465685,48.5708798 L102.003376,41.1030705 L98.8636853,40.2661212 L92.4730231,44.0033864 C90.4031241,43.4515517 87.245657,42.60965 84.1514743,41.7850816 L94.6936671,24.506288 Z" id="Path" fill="#F5F9EC"></path>
                                <polygon id="Path" fill="#2B8639" points="19.5309466 63.0625544 107.445838 86.5003186 109.085545 80.4096199 63.0930423 34.6483731 27.1830313 34.6483731"></polygon>
                                <path d="M62.9582962,36.1351432 C59.8182501,35.2978401 56.2572558,36.0230075 55.8380853,37.5847705 C55.4174926,39.1468872 58.1351683,41.546307 61.2766366,42.3832563 C62.1249326,42.6100037 67.0707185,43.9287472 71.4785867,45.1035184 L78.2059364,66.9869482 L82.9152945,68.2423721 L82.6027831,54.0595127 L65.1832066,36.7283655 C64.077862,36.4336999 63.2569419,36.2147347 62.9582962,36.1351432 Z" id="Path" fill="#E4E8DB"></path>
                                <path d="M53.6825033,1.85347327 L13.9306288,149.462182 L8.43590368,147.997344 C2.3666411,146.379337 -1.23523924,140.172257 0.391313176,134.133559 L34.2541791,8.39271454 C35.880376,2.35401565 42.1188711,-1.22972628 48.1881337,0.388635114 L53.6825033,1.85347327 Z" id="Path" fill="#00853F"></path>
                            </g>
                            <g id="Group-77" transform="translate(176.704428, 161.130477) rotate(-13.000000) translate(-176.704428, -161.130477) translate(5.767920, 116.013943)">
                                <path d="M276.140585,51.4452525 L336.192817,51.4452525 C336.761314,51.4452525 337.320749,51.5838463 337.822475,51.8487355 L341.526765,53.8046582 C341.948845,54.0274489 341.994154,54.609732 341.611658,54.8944879 L340.689282,55.5808346 C340.582927,55.6598283 340.454634,55.7052379 340.321572,55.7099681 L263.263563,58.540498 L276.140585,51.4452525 Z" id="Fill-1" fill="#CECECE" fill-rule="nonzero"></path>
                                <g id="Fill-3-Clipped" transform="translate(263.263373, 51.445252)">
                                    <mask id="mask-4" fill="white">
                                        <use xlink:href="#path-3"></use>
                                    </mask>
                                    <g id="path-1"></g>
                                    <path d="M11.2259017,1.32539185 L72.8629605,1.32539185 C73.4462419,1.32539185 74.0209387,1.46776978 74.5355425,1.73928117 L78.1096316,3.62661647 L78.3485719,3.44923532 C78.7310672,3.16447947 78.6857591,2.58219633 78.263679,2.35940562 L74.558912,0.403482959 C74.057185,0.138593795 73.4977499,0 72.9297302,0 L12.8770222,0 L0,7.09524547 L0.808390833,7.06544543 L11.2259017,1.32539185 Z" id="Fill-3" fill="#FFFFFF" fill-rule="nonzero" mask="url(#mask-4)"></path>
                                </g>
                                <path d="M273.76406,65.4559026 C274.076446,67.865921 275.742352,70.1723487 279.894476,69.9618565 C284.0466,69.7508912 298.099247,66.9728661 298.441204,66.6114816 C298.783636,66.2500971 294.268571,52.7161529 294.268571,52.7161529 C294.268571,52.7161529 278.564328,57.6426183 276.887453,58.759883 C275.210579,59.8771476 273.187933,61.0123869 273.76406,65.4559026" id="Fill-6" fill="#CC0000" fill-rule="nonzero"></path>
                                <path d="M294.268667,52.7161529 C294.268667,52.7161529 280.981487,56.884373 277.546661,58.4221493 C276.425406,61.1150314 275.427199,65.8617507 279.621292,69.9656406 C279.71334,69.9632755 279.799663,69.9665866 279.894095,69.9618565 C284.046696,69.7508912 298.099342,66.9728661 298.441298,66.6114816 C298.783255,66.2500971 294.268667,52.7161529 294.268667,52.7161529" id="Fill-8" fill="#FF0000" fill-rule="nonzero"></path>
                                <path d="M300.616514,58.8829146 C301.409166,62.9125409 300.072818,66.5623352 297.63143,67.0348785 C295.190041,67.5074219 292.567898,64.6239141 291.775246,60.5942878 C290.982116,56.5641883 292.318942,52.9143941 294.760331,52.4418506 C297.201719,51.9693073 299.823861,54.8532881 300.616514,58.8829146" id="Fill-10" fill="#FFFFFF" fill-rule="nonzero"></path>
                                <path d="M300.956563,58.8171179 C301.688646,62.5369187 300.454836,65.9057412 298.20088,66.3423353 C295.947401,66.7784564 293.526998,64.1163202 292.795392,60.3965196 C292.06331,56.6767189 293.297119,53.3078964 295.550598,52.8717752 C297.804554,52.4356542 300.224481,55.0973173 300.956563,58.8171179" id="Fill-12" fill="#494949" fill-rule="nonzero"></path>
                                <path d="M84.928444,69.9681476 L71.054645,4.4672066 C70.7885199,3.21229418 71.5315717,1.96305796 72.767289,1.58653694 L76.5350103,0.438053205 C81.2656467,-1.00370067 86.3520704,1.21143496 88.4681943,5.64785544 C95.6511881,20.7072774 112.553949,52.5937835 127.816559,54.7564143 L84.928444,69.9681476 Z" id="Fill-14" fill="#FF0000" fill-rule="nonzero"></path>
                                <path d="M127.816367,54.7563671 C112.554235,52.5937362 95.6509973,20.7072301 88.4680036,5.64780814 C86.3518796,1.21138766 81.2654558,-1.00374797 76.5352964,0.438005903 L72.7675751,1.58648963 C71.531381,1.96301067 70.7888061,3.21224688 71.0544543,4.46763231 L73.1371934,14.2992774 C73.8530604,14.1535884 74.5946815,14.0769598 75.3544258,14.0769598 C81.4128263,14.0769598 86.3237409,18.9476093 86.3237409,24.9563362 C86.3237409,30.184586 82.6046662,34.549581 77.6479665,35.5958932 L84.9282533,69.9681004 L127.816367,54.7563671 Z" id="Fill-16" fill="#E8E8E8" fill-rule="nonzero"></path>
                                <path d="M78.0967546,16.7968038 C76.5820353,16.7968038 75.3544258,18.014348 75.3544258,19.5166479 C75.3544258,21.0189479 76.5820353,22.236492 78.0967546,22.236492 C79.611474,22.236492 80.8390833,21.0189479 80.8390833,19.5166479 C80.8390833,18.014348 79.611474,16.7968038 78.0967546,16.7968038" id="Fill-18" fill="#FFFFFF" fill-rule="nonzero"></path>
                                <path d="M109.216225,53.337318 C109.216225,59.8682549 103.877984,65.162727 97.2930561,65.162727 C90.7081285,65.162727 85.3698875,59.8682549 85.3698875,53.337318 C85.3698875,46.8063811 90.7081285,41.5119088 97.2930561,41.5119088 C103.877984,41.5119088 109.216225,46.8063811 109.216225,53.337318" id="Fill-20" fill="#FFFFFF" fill-rule="nonzero"></path>
                                <path d="M109.216225,53.337318 C109.216225,59.8682549 103.877984,65.162727 97.2930561,65.162727 C90.7081285,65.162727 85.3698875,59.8682549 85.3698875,53.337318 C85.3698875,46.8063811 90.7081285,41.5119088 97.2930561,41.5119088 C103.877984,41.5119088 109.216225,46.8063811 109.216225,53.337318 Z" id="Stroke-22" stroke="#6B6B6B" stroke-width="0.80630428"></path>
                                <path d="M103.25464,47.4246135 C103.25464,49.0574659 101.920199,50.3809657 100.273848,50.3809657 C98.6274971,50.3809657 97.2930561,49.0574659 97.2930561,47.4246135 C97.2930561,45.7917609 98.6274971,44.4682612 100.273848,44.4682612 C101.920199,44.4682612 103.25464,45.7917609 103.25464,47.4246135" id="Fill-24" fill="#6B6B6B" fill-rule="nonzero"></path>
                                <path d="M66.8615527,84.5035148 C64.2422711,83.8015585 63.1482011,80.7023552 64.7654597,78.5425625 C68.4602112,73.6080559 78.0297464,65.5800221 102.755537,58.4024718 C141.863529,47.0500791 263.944854,11.1008354 273.495312,11.1008354 C286.372333,11.1008354 301.633989,19.1421136 307.35711,21.9802118 C313.080232,24.8183099 314.69272,40.659628 304.824629,46.9294598 C294.957016,53.1992918 244.40278,74.9580446 203.387079,81.5802737 C163.781175,87.9749819 108.610766,95.6927168 66.8615527,84.5035148" id="Fill-26" fill="#E8E8E8" fill-rule="nonzero"></path>
                                <path d="M182.875271,69.9980422 C270.629792,49.6583386 303.330752,33.1207404 307.830079,33.1027659 C309.503137,33.0961437 310.15605,33.3544105 311.773785,35.0288885 C312.523515,29.1653777 310.602931,23.3619399 307.353152,21.7503731 C301.63003,18.912275 286.368375,10.8709967 273.491353,10.8709967 C263.940895,10.8709967 141.859571,46.8202404 102.751578,58.1726332 C91.3272748,61.4889508 83.1441657,64.9864338 77.2755821,68.2767357 C91.0516112,75.1562857 122.528777,83.9851361 182.875271,69.9980422" id="Fill-28" fill="#FFFFFF" fill-rule="nonzero"></path>
                                <path d="M86.222537,82.4206345 L90.878296,78.418916 C91.6509173,77.7548011 91.2254986,76.4956315 90.2053524,76.4275171 L32.1457211,72.5308084 C31.1513288,72.4641131 30.5518319,73.6017174 31.1742213,74.3732071 L31.1742213,74.3732071 C31.3544996,74.5969438 31.6134709,74.744998 31.8996269,74.7870965 L85.3034993,82.6855237 C85.6344864,82.7347174 85.9697659,82.637749 86.222537,82.4206345" id="Fill-30" fill="#FFFFFF" fill-rule="nonzero"></path>
                                <path d="M138.308756,78.4071853 C138.308756,82.8095486 136.576082,86.810794 133.75029,89.7761336 C133.75029,89.7761336 125.919631,90.2325943 121.139394,90.2325943 L109.693151,90.2325943 C106.856868,87.2653628 104.923884,82.8190089 104.923884,78.4071853 C104.923884,69.263779 112.397326,61.8516125 121.61632,61.8516125 C130.835314,61.8516125 138.308756,69.263779 138.308756,78.4071853" id="Fill-32" fill="#39B54A" fill-rule="nonzero"></path>
                                <path d="M129.962538,70.1293989 C129.962538,72.415487 128.09394,74.2682921 125.78943,74.2682921 C123.484919,74.2682921 121.61632,72.415487 121.61632,70.1293989 C121.61632,67.8437839 123.484919,65.9905057 125.78943,65.9905057 C128.09394,65.9905057 129.962538,67.8437839 129.962538,70.1293989" id="Fill-34" fill="#FFFFFF" fill-rule="nonzero"></path>
                                <g id="Fill-36-Clipped" transform="translate(104.864316, 76.042292)">
                                    <mask id="mask-6" fill="white">
                                        <use xlink:href="#path-5"></use>
                                    </mask>
                                    <g id="path-3"></g>
                                    <path d="M28.8860221,13.7340301 C28.8860221,13.7340301 33.9214148,9.46032728 33.444488,0.942721614 C33.444488,0.942721614 12.936638,2.41191044 0.0596158432,0 C0.0596158432,0 -0.894237648,8.51429456 4.8288833,14.1904909 C4.8288833,14.1904909 20.9890691,14.223602 28.8860221,13.7340301" id="Fill-36" fill="#2BA037" fill-rule="nonzero" mask="url(#mask-6)"></path>
                                </g>
                                <path d="M200.309233,59.9595471 L198.23031,62.2503653 L191.724552,69.4198744 C191.724552,69.4198744 173.124409,73.6770217 152.139632,71.3119398 C131.154855,68.946858 8.58468142,50.9722361 8.58468142,50.9722361 L0,43.8769907 C0,43.8769907 172.170556,52.3912852 200.309233,59.9595471" id="Fill-39" fill="#F9F9F9" fill-rule="nonzero"></path>
                                <path d="M1.94748267,45.4287682 L8.6545035,50.972047 C8.6545035,50.972047 131.224677,68.9466687 152.209454,71.3117506 C173.194231,73.6768324 191.794373,69.4196851 191.794373,69.4196851 L198.300131,62.2506491 L198.878644,61.6134961 L1.94748267,45.4287682 Z" id="Fill-41" fill="#E8E8E8" fill-rule="nonzero"></path>
                                <path d="M153.207423,74.6329877 C153.637611,77.9502514 155.930198,81.1256103 161.646165,80.8356513 C167.361655,80.5452192 186.70628,76.7213549 187.177008,76.2237417 C187.647734,75.7261286 181.432901,57.096379 181.432901,57.096379 C181.432901,57.096379 159.81572,63.8775416 157.507394,65.4157908 C155.198592,66.953567 152.414294,68.5159401 153.207423,74.6329877" id="Fill-43" fill="#CC0000" fill-rule="nonzero"></path>
                                <path d="M181.432807,57.0962371 C181.432807,57.0962371 163.142188,62.8339256 158.413937,64.9506738 C156.870603,68.6577031 155.496576,75.1919511 161.270251,80.8407126 C161.396636,80.8378744 161.515869,80.8421317 161.64607,80.8355094 C167.36156,80.5450774 186.706186,76.721213 187.176912,76.2235999 C187.647638,75.7259866 181.432807,57.0962371 181.432807,57.0962371" id="Fill-45" fill="#FF0000" fill-rule="nonzero"></path>
                                <path d="M190.170868,65.585036 C191.262076,71.132099 189.422569,76.1564788 186.061666,76.8068763 C182.700764,77.4572738 179.091859,73.4877205 178.000174,67.9406575 C176.908965,62.3931216 178.748472,57.3692149 182.109375,56.7188174 C185.470278,56.0684198 189.079659,60.0379732 190.170868,65.585036" id="Fill-47" fill="#FFFFFF" fill-rule="nonzero"></path>
                                <path d="M190.638971,65.4944535 C191.64624,70.6148556 189.948381,75.252308 186.845972,75.8530388 C183.743564,76.4532966 180.412231,72.7893118 179.404484,67.6689096 C178.397215,62.5485076 180.095551,57.9105821 183.197483,57.3103243 C186.299891,56.7095936 189.631702,60.3740513 190.638971,65.4944535" id="Fill-49" fill="#494949" fill-rule="nonzero"></path>
                                <polygon id="Fill-51" fill="#CECECE" fill-rule="nonzero" points="182.340255 49.6086719 179.635126 50.3248187 178.423256 45.8217029 181.128384 45.1055561"></polygon>
                                <polygon id="Fill-53" fill="#CECECE" fill-rule="nonzero" points="188.33055 48.0227899 185.625422 48.7389367 184.41355 44.2358209 187.118679 43.5196741"></polygon>
                                <polygon id="Fill-55" fill="#CECECE" fill-rule="nonzero" points="194.781652 46.3149171 192.076524 47.0310638 190.864652 42.527948 193.569781 41.8118012"></polygon>
                                <polygon id="Fill-57" fill="#CECECE" fill-rule="nonzero" points="200.771995 44.7289877 198.066867 45.4451346 196.854995 40.9420188 199.560124 40.225872"></polygon>
                                <polygon id="Fill-59" fill="#CECECE" fill-rule="nonzero" points="206.762291 43.1431058 204.057162 43.8592525 202.845291 39.3561368 205.55042 38.63999"></polygon>
                                <polygon id="Fill-61" fill="#CECECE" fill-rule="nonzero" points="212.752586 41.5572239 210.047457 42.2733706 208.835587 37.7702548 211.540715 37.054108"></polygon>
                                <polygon id="Fill-63" fill="#CECECE" fill-rule="nonzero" points="219.203688 39.8493509 216.498559 40.5654978 215.286689 36.062382 217.991817 35.3462351"></polygon>
                                <polygon id="Fill-65" fill="#CECECE" fill-rule="nonzero" points="225.193983 38.263469 222.488855 38.9796157 221.276983 34.4765 223.982112 33.7603532"></polygon>
                                <polygon id="Fill-67" fill="#CECECE" fill-rule="nonzero" points="231.645085 36.5555488 228.939957 37.2716956 227.728085 32.7685798 230.433214 32.0524331"></polygon>
                                <polygon id="Fill-69" fill="#CECECE" fill-rule="nonzero" points="237.63538 34.9696668 234.930251 35.6858137 233.718381 31.1826979 236.42351 30.466551"></polygon>
                                <polygon id="Fill-71" fill="#CECECE" fill-rule="nonzero" points="244.086482 33.261794 241.381353 33.9779407 240.169483 29.4748249 242.874611 28.7586782"></polygon>
                                <path d="M269.827268,20.6629085 L280.030639,17.8631246 C280.217594,17.8120389 280.41838,17.8531913 280.570043,17.9733374 L285.301156,21.7380747 C285.685559,22.0441163 285.559174,22.6528883 285.084155,22.7834408 L274.095763,25.7984472 C273.884007,25.8561552 273.657467,25.7960821 273.50342,25.6409327 L269.557327,21.660973 C269.234448,21.3350647 269.383249,20.7849467 269.827268,20.6629085" id="Fill-73" fill="#CECECE" fill-rule="nonzero"></path>
                                <path d="M283.517737,17.885924 L288.160618,21.6747851 C288.312757,21.7987154 288.516405,21.8417598 288.705745,21.789728 L296.377589,19.6848053 C296.845454,19.5561448 296.977563,18.9601442 296.606037,18.6488994 L288.769654,15.7365377 C288.617514,15.6088232 288.411005,15.5638867 288.218803,15.6168645 L283.740461,16.8452881 C283.268781,16.9748945 283.14001,17.5775174 283.517737,17.885924" id="Fill-75" fill="#CECECE" fill-rule="nonzero"></path>
                            </g>
                            <g id="Group-56" transform="translate(419.270014, 170.798305)" fill-rule="nonzero">
                                <path d="M101.594339,51.5628147 C101.594339,80.0385953 78.8517438,103.123505 50.7982165,103.123505 C22.7425955,103.123505 0,80.0385953 0,51.5628147 C0,23.0849098 22.7425955,0 50.7982165,0 C78.8517438,0 101.594339,23.0849098 101.594339,51.5628147 Z" id="Path" fill="#126D29"></path>
                                <path d="M91.9285863,51.5626115 C91.9285863,74.5908515 73.5367482,93.2595176 50.8499827,93.2595176 C28.1615239,93.2595176 9.76968583,74.5908515 9.76968583,51.5626115 C9.76968583,28.5326536 28.1615239,9.86398744 50.8499827,9.86398744 C73.5367482,9.86398744 91.9285863,28.5326536 91.9285863,51.5626115 Z" id="Path-Copy-6" fill="#38AC49"></path>
                                <path d="M45.4924518,70.5888881 C43.6812854,70.5888881 41.9479821,69.8424028 40.6869358,68.5183826 L28.5758173,55.8091675 C25.9995596,53.1059596 26.0638816,48.7873776 28.7180024,46.165197 C31.3704302,43.5412926 35.6088986,43.6050799 38.1851564,46.3100117 L45.4450568,53.9283001 L63.4670111,34.6524275 C66.0178786,31.9233597 70.256347,31.8181967 72.9341651,34.4162413 C75.6136761,37.0125625 75.7169295,41.3294201 73.1660624,44.058488 L50.3402847,68.4718349 C49.0843171,69.8148191 47.3459355,70.5802683 45.5229203,70.5888881 C45.512764,70.5888881 45.5026081,70.5888881 45.4924518,70.5888881 L45.4924518,70.5888881 Z" id="Path" fill="#FFFFFF"></path>
                            </g>
                        </g>
                        <g id="logo_Viva_blanco-(1)" stroke-width="1" fill="none" fill-rule="evenodd" transform="translate(229.000000, 108.000000)">
                            <path d="M106.420075,0 C109.605657,0 112.259694,0.36311644 114.383907,1.08885629 C116.507628,1.81484266 118.209212,2.85612158 119.488411,4.21047443 C120.766872,5.56605982 121.671629,7.21179326 122.203174,9.14693519 C122.733736,11.0830632 123,13.2373568 123,15.6078441 L123,38.1124355 C121.454537,38.45164 119.307459,38.8509941 116.556062,39.3102513 C113.804911,39.7697551 110.474273,40 106.564394,40 C104.102863,40 101.869735,39.7820808 99.8674675,39.346489 C97.8642167,38.9108972 96.1387852,38.1977296 94.6904359,37.2050141 C93.242578,36.2137777 92.1317918,34.9183419 91.360535,33.3211719 C90.5875573,31.7242484 90.2018061,29.7642085 90.2018061,27.4408056 C90.2018061,25.2155157 90.6473012,23.3279511 91.5414865,21.7786049 C92.433705,20.2299984 93.6280832,18.9961913 95.1251126,18.0761977 C96.6209125,17.1574367 98.3345428,16.4916 100.266003,16.0799201 C102.195743,15.6692263 104.199485,15.4628933 106.275019,15.4628933 C107.674196,15.4628933 108.9175,15.524029 110.003947,15.6443283 C111.089656,15.7656136 111.969827,15.9233831 112.646428,16.1159112 L112.646428,15.0997769 C112.646428,13.2610223 112.091035,11.7853841 110.981478,10.6713833 C109.870446,9.55861503 107.939969,9.00198441 105.18931,9.00198441 C103.354225,9.00198441 101.543973,9.1355955 99.7587981,9.40109203 C97.9723942,9.66757463 96.4281602,10.0430168 95.1251126,10.526186 L93.7497828,1.81484266 C94.3759835,1.62206801 95.1614998,1.41548853 96.1026439,1.19781588 C97.0435424,0.980143223 98.0687704,0.78712206 99.1798026,0.617026783 C100.28936,0.447917566 101.460382,0.302966808 102.691147,0.181434961 C103.921912,0.0613822108 105.164232,0 106.420075,0 Z M11.4395265,1.01638091 C11.9236209,2.90369897 12.4937656,4.94878648 13.1487313,7.15065756 C13.8027135,9.35326813 14.4815275,11.5790512 15.1851731,13.8292391 C15.8875893,16.0799201 16.5902515,18.270205 17.2938971,20.3993541 C17.9975426,22.5294893 18.6886494,24.4643848 19.3674634,26.2069985 C19.996614,24.4643848 20.6754279,22.5294893 21.4014466,20.3993541 C22.127711,18.270205 22.8426661,16.0799201 23.5453282,13.8292391 C24.2479904,11.5790512 24.9265584,9.35326813 25.5802949,7.15065756 C26.2345229,4.94878648 26.8044218,2.90369897 27.288762,1.01638091 L38.4455519,1.01638091 C36.1691527,8.66376597 33.7607278,15.7293759 31.2197855,22.2141968 C28.6788431,28.7000037 26.1733043,34.3624508 23.7048901,39.2015382 L14.7517254,39.2015382 C12.2810985,34.3624508 9.77310107,28.7000037 7.22994597,22.2141968 C4.68679091,15.7293759 2.27615329,8.66376597 0,1.01638091 L11.4395265,1.01638091 Z M51.5220993,1.01640556 L51.5220993,39.2015629 L40.7340964,39.2015629 L40.7340964,1.01640556 L51.5220993,1.01640556 Z M64.1647567,1.01638091 C64.6490968,2.90369897 65.2194872,4.94878648 65.8742074,7.15065756 C66.5281892,9.35326813 67.2067575,11.5790512 67.9108947,13.8292391 C68.6125736,16.0799201 69.3157274,18.270205 70.0193727,20.3993541 C70.7232644,22.5294893 71.4141254,24.4643848 72.0926932,26.2069985 C72.7215981,24.4643848 73.4004119,22.5294893 74.1264308,20.3993541 C74.8534327,18.270205 75.5683878,16.0799201 76.2703122,13.8292391 C76.9732205,11.5790512 77.6520343,9.35326813 78.3057707,7.15065756 C78.959507,4.94878648 79.5298978,2.90369897 80.0142379,1.01638091 L91.1705362,1.01638091 C88.8941369,8.66376597 86.4864494,15.7293759 83.9452615,22.2141968 C81.4043192,28.7000037 78.8982882,34.3624508 76.4303659,39.2015382 L67.4774469,39.2015382 C65.0065743,34.3624508 62.4988226,28.7000037 59.95493,22.2141968 C57.4120208,15.7293759 55.0013832,8.66376597 52.7252298,1.01638091 L64.1647567,1.01638091 Z M108.302118,22.722264 C107.288691,22.722264 106.335254,22.7836462 105.442543,22.9039455 C104.54885,23.0252308 103.765054,23.2554757 103.089436,23.5934477 C102.412835,23.9326521 101.882274,24.3921559 101.496522,24.972945 C101.109542,25.5534876 100.917281,26.279474 100.917281,27.1506576 C100.917281,28.845201 101.48423,30.0181188 102.61911,30.6713833 C103.752515,31.3248943 105.309043,31.6515265 107.288691,31.6515265 C108.349814,31.6515265 109.363241,31.6276146 110.329217,31.5790512 C111.294701,31.5312273 112.067187,31.4587519 112.646428,31.361132 L112.646428,23.1578558 C112.211997,23.0614685 111.560474,22.9650812 110.691366,22.8674613 C109.822749,22.7710739 109.026169,22.722264 108.302118,22.722264 Z" id="Viva" fill="#FFFFFF" fill-rule="nonzero"></path>
                        </g>
                    </g>
                </g>
                <path d="M324.5,27 C326.709139,27 328.5,28.790861 328.5,31 L328.5,37.5 L335,37.5 C337.209139,37.5 339,39.290861 339,41.5 C339,43.709139 337.209139,45.5 335,45.5 L328.5,45.5 L328.5,52 C328.5,54.209139 326.709139,56 324.5,56 C322.290861,56 320.5,54.209139 320.5,52 L320.5,45.5 L314,45.5 C311.790861,45.5 310,43.709139 310,41.5 C310,39.290861 311.790861,37.5 314,37.5 L320.5,37.5 L320.5,31 C320.5,28.790861 322.290861,27 324.5,27 Z" id="Combined-Shape" fill="#FF4D29" mask="url(#mask-2)"></path>
                <path d="M483.5,101 C485.709139,101 487.5,102.790861 487.5,105 L487.5,111.5 L494,111.5 C496.209139,111.5 498,113.290861 498,115.5 C498,117.709139 496.209139,119.5 494,119.5 L487.5,119.5 L487.5,126 C487.5,128.209139 485.709139,130 483.5,130 C481.290861,130 479.5,128.209139 479.5,126 L479.5,119.5 L473,119.5 C470.790861,119.5 469,117.709139 469,115.5 C469,113.290861 470.790861,111.5 473,111.5 L479.5,111.5 L479.5,105 C479.5,102.790861 481.290861,101 483.5,101 Z" id="Combined-Shape-Copy" fill="#FFCA28" mask="url(#mask-2)"></path>
                <path d="M80.5,162 C82.709139,162 84.5,163.790861 84.5,166 L84.5,172.5 L91,172.5 C93.209139,172.5 95,174.290861 95,176.5 C95,178.709139 93.209139,180.5 91,180.5 L84.5,180.5 L84.5,187 C84.5,189.209139 82.709139,191 80.5,191 C78.290861,191 76.5,189.209139 76.5,187 L76.5,180.5 L70,180.5 C67.790861,180.5 66,178.709139 66,176.5 C66,174.290861 67.790861,172.5 70,172.5 L76.5,172.5 L76.5,166 C76.5,163.790861 78.290861,162 80.5,162 Z" id="Combined-Shape-Copy-2" fill="#25999D" mask="url(#mask-2)"></path>
            </g>
        </g>
    </g>
</svg>