<?xml version="1.0" encoding="UTF-8"?>
<svg width="50px" height="50px" viewBox="0 0 50 50" version="1.1" xmlns="http://www.w3.org/2000/svg" xmlns:xlink="http://www.w3.org/1999/xlink">
    <title>es-mx</title>
    <g id="Page-1" stroke="none" stroke-width="1" fill="none" fill-rule="evenodd">
        <g id="es-mx" fill-rule="nonzero">
            <circle id="Oval" fill="#F0F0F0" cx="25" cy="25" r="25"></circle>
            <path d="M50,25 C50,15.0884766 44.2319336,6.52441406 35.8695312,2.48066406 L35.8695312,47.5192383 C44.2319336,43.4755859 50,34.9115234 50,25 Z" id="Path" fill="#D80027"></path>
            <g id="Group" transform="translate(0.000000, 2.480664)" fill="#6DA544">
                <path d="M0,22.5193359 C0,32.4308594 5.76806641,40.9949219 14.1304688,45.0386719 L14.1304688,1.38777878e-15 C5.76806641,4.04375 0,12.6078125 0,22.5193359 Z" id="Path"></path>
                <path d="M18.4782227,22.5193359 C18.4782227,26.1211914 21.3981445,29.0411133 25,29.0411133 C28.6018555,29.0411133 31.5217773,26.1211914 31.5217773,22.5193359 L31.5217773,20.3454102 L18.4782227,20.3454102 L18.4782227,22.5193359 Z" id="Path"></path>
            </g>
            <path d="M33.6956055,20.6521484 L27.1738281,20.6521484 C27.1738281,19.4515625 26.2004883,18.4782227 24.9999023,18.4782227 C23.7993164,18.4782227 22.8259766,19.4515625 22.8259766,20.6521484 L16.3041992,20.6521484 C16.3041992,21.852832 17.35,22.8260742 18.5504883,22.8260742 L18.478125,22.8260742 C18.478125,24.0267578 19.4513672,25 20.6520508,25 C20.6520508,26.2006836 21.625293,27.1739258 22.8259766,27.1739258 L27.1738281,27.1739258 C28.3745117,27.1739258 29.3477539,26.2006836 29.3477539,25 C30.5484375,25 31.5216797,24.0267578 31.5216797,22.8260742 L31.4492188,22.8260742 C32.6499023,22.8260742 33.6956055,21.852832 33.6956055,20.6521484 Z" id="Path" fill="#FF9811"></path>
        </g>
    </g>
</svg>