<?xml version="1.0" encoding="UTF-8"?>
<svg width="135px" height="40px" viewBox="0 0 135 40" version="1.1" xmlns="http://www.w3.org/2000/svg" xmlns:xlink="http://www.w3.org/1999/xlink">
    <title>google-play-badge es</title>
    <defs>
        <linearGradient x1="61.231376%" y1="4.8388%" x2="26.323984%" y2="71.9684%" id="linearGradient-1">
            <stop stop-color="#00A0FF" offset="0%"></stop>
            <stop stop-color="#00A1FF" offset="0.657445%"></stop>
            <stop stop-color="#00BEFF" offset="26.01%"></stop>
            <stop stop-color="#00D2FF" offset="51.22%"></stop>
            <stop stop-color="#00DFFF" offset="76.04%"></stop>
            <stop stop-color="#00E3FF" offset="100%"></stop>
        </linearGradient>
        <linearGradient x1="107.728079%" y1="49.4282353%" x2="-130.665025%" y2="49.4282353%" id="linearGradient-2">
            <stop stop-color="#FFE000" offset="0%"></stop>
            <stop stop-color="#FFBD00" offset="40.87%"></stop>
            <stop stop-color="#FFA500" offset="77.54%"></stop>
            <stop stop-color="#FF9C00" offset="100%"></stop>
        </linearGradient>
        <linearGradient x1="86.3892216%" y1="30.8297553%" x2="-49.888024%" y2="136.004321%" id="linearGradient-3">
            <stop stop-color="#FF3A44" offset="0%"></stop>
            <stop stop-color="#C31162" offset="100%"></stop>
        </linearGradient>
        <linearGradient x1="-18.5790419%" y1="-11.6823797%" x2="42.2748503%" y2="35.0643382%" id="linearGradient-4">
            <stop stop-color="#32A071" offset="0%"></stop>
            <stop stop-color="#2DA771" offset="6.85%"></stop>
            <stop stop-color="#15CF74" offset="47.62%"></stop>
            <stop stop-color="#06E775" offset="80.09%"></stop>
            <stop stop-color="#00F076" offset="100%"></stop>
        </linearGradient>
    </defs>
    <g id="NEW-SITE" stroke="none" stroke-width="1" fill="none" fill-rule="evenodd">
        <g id="descargar-app" transform="translate(-507.000000, -323.000000)" fill-rule="nonzero">
            <g id="Group-29" transform="translate(340.000000, 122.000000)">
                <g id="google-play-badge-es" transform="translate(167.000000, 201.000000)">
                    <path d="M130,40 L5,40 C2.2,40 0,37.8 0,35 L0,5 C0,2.2 2.2,0 5,0 L130,0 C132.8,0 135,2.2 135,5 L135,35 C135,37.7 132.8,40 130,40 Z" id="Path" fill="#000000"></path>
                    <path d="M130,0.8 C132.3,0.8 134.2,2.7 134.2,5 L134.2,35 C134.2,37.3 132.3,39.2 130,39.2 L5,39.2 C2.7,39.2 0.8,37.3 0.8,35 L0.8,5 C0.8,2.7 2.7,0.8 5,0.8 L130,0.8 Z M130,0 L5,0 C2.2,0 0,2.2 0,5 L0,35 C0,37.8 2.2,40 5,40 L130,40 C132.8,40 135,37.8 135,35 L135,5 C135,2.3 132.8,0 130,0 Z" id="Shape" fill="#A6A6A6"></path>
                    <path d="M68.0996,21.7996 C65.6996,21.7996 63.7996,23.5996 63.7996,26.0996 C63.7996,28.4996 65.6996,30.3996 68.0996,30.3996 C70.4996,30.3996 72.3996,28.5996 72.3996,26.0996 C72.3996,23.4996 70.4996,21.7996 68.0996,21.7996 Z M68.0996,28.5996 C66.7996,28.5996 65.6996,27.4996 65.6996,25.9996 C65.6996,24.4996 66.7996,23.3996 68.0996,23.3996 C69.3996,23.3996 70.4996,24.3996 70.4996,25.9996 C70.4996,27.4996 69.3996,28.5996 68.0996,28.5996 Z M58.7996,21.7996 C56.3996,21.7996 54.4996,23.5996 54.4996,26.0996 C54.4996,28.4996 56.3996,30.3996 58.7996,30.3996 C61.1996,30.3996 63.0996,28.5996 63.0996,26.0996 C63.0996,23.4996 61.1996,21.7996 58.7996,21.7996 Z M58.7996,28.5996 C57.4996,28.5996 56.3996,27.4996 56.3996,25.9996 C56.3996,24.4996 57.4996,23.3996 58.7996,23.3996 C60.0996,23.3996 61.1996,24.3996 61.1996,25.9996 C61.1996,27.4996 60.0996,28.5996 58.7996,28.5996 Z M47.6996,23.0996 L47.6996,24.8996 L51.9996,24.8996 C51.8996,25.8996 51.4996,26.6996 50.9996,27.1996 C50.3996,27.7996 49.3996,28.4996 47.6996,28.4996 C44.9996,28.4996 42.9996,26.3996 42.9996,23.6996 C42.9996,20.9996 45.0996,18.8996 47.6996,18.8996 C49.0996,18.8996 50.1996,19.4996 50.9996,20.1996 L52.2996,18.8996 C51.1996,17.8996 49.7996,17.0996 47.7996,17.0996 C44.1996,17.0996 41.0996,20.0996 41.0996,23.6996 C41.0996,27.2996 44.1996,30.2996 47.7996,30.2996 C49.7996,30.2996 51.1996,29.6996 52.3996,28.3996 C53.5996,27.1996 53.9996,25.4996 53.9996,24.1996 C53.9996,23.7996 53.9996,23.3996 53.8996,23.0996 L47.6996,23.0996 L47.6996,23.0996 Z M93.1,24.4996 C92.7,23.4996 91.7,21.7996 89.4996,21.7996 C87.2996,21.7996 85.4996,23.4996 85.4996,26.0996 C85.4996,28.4996 87.2996,30.3996 89.6996,30.3996 C91.6,30.3996 92.8,29.1996 93.2,28.4996 L91.8,27.4996 C91.3,28.1996 90.7,28.6996 89.6996,28.6996 C88.6996,28.6996 88.0996,28.2996 87.5996,27.3996 L93.3,24.9996 L93.1,24.4996 Z M87.2996,25.8996 C87.2996,24.2996 88.5996,23.3996 89.4996,23.3996 C90.2,23.3996 90.9,23.7996 91.1,24.2996 L87.2996,25.8996 Z M82.5996,29.9996 L84.4996,29.9996 L84.4996,17.4996 L82.5996,17.4996 L82.5996,29.9996 Z M79.5996,22.6996 C79.0996,22.1996 78.2996,21.6996 77.2996,21.6996 C75.1996,21.6996 73.1996,23.5996 73.1996,25.9996 C73.1996,28.3996 75.0996,30.1996 77.2996,30.1996 C78.2996,30.1996 79.0996,29.6996 79.4996,29.1996 L79.5996,29.1996 L79.5996,29.7996 C79.5996,31.3996 78.6996,32.2996 77.2996,32.2996 C76.1996,32.2996 75.3996,31.4996 75.1996,30.7996 L73.5996,31.4996 C74.0996,32.5996 75.2996,33.9996 77.3996,33.9996 C79.5996,33.9996 81.3996,32.6996 81.3996,29.5996 L81.3996,21.9996 L79.5996,21.9996 L79.5996,22.6996 L79.5996,22.6996 Z M77.3996,28.5996 C76.0996,28.5996 74.9996,27.4996 74.9996,25.9996 C74.9996,24.4996 76.0996,23.3996 77.3996,23.3996 C78.6996,23.3996 79.6996,24.4996 79.6996,25.9996 C79.6996,27.4996 78.6996,28.5996 77.3996,28.5996 Z M101.8,17.4996 L97.3,17.4996 L97.3,29.9996 L99.2,29.9996 L99.2,25.2996 L101.8,25.2996 C103.9,25.2996 105.9,23.7996 105.9,21.3996 C105.9,18.9996 103.9,17.4996 101.8,17.4996 Z M101.9,23.4996 L99.2,23.4996 L99.2,19.1996 L101.9,19.1996 C103.3,19.1996 104.1,20.3996 104.1,21.2996 C104,22.3996 103.2,23.4996 101.9,23.4996 Z M113.4,21.6996 C112,21.6996 110.6,22.2996 110.1,23.5996 L111.8,24.2996 C112.2,23.5996 112.8,23.3996 113.5,23.3996 C114.5,23.3996 115.4,23.9996 115.5,24.9996 L115.5,25.0996 C115.2,24.8996 114.4,24.5996 113.6,24.5996 C111.8,24.5996 110,25.5996 110,27.3996 C110,29.0996 111.5,30.1996 113.1,30.1996 C114.4,30.1996 115,29.5996 115.5,28.9996 L115.6,28.9996 L115.6,29.9996 L117.4,29.9996 L117.4,25.1996 C117.2,22.9996 115.5,21.6996 113.4,21.6996 Z M113.2,28.5996 C112.6,28.5996 111.7,28.2996 111.7,27.4996 C111.7,26.4996 112.8,26.1996 113.7,26.1996 C114.5,26.1996 114.9,26.3996 115.4,26.5996 C115.2,27.7996 114.2,28.5996 113.2,28.5996 Z M123.7,21.9996 L121.6,27.3996 L121.5,27.3996 L119.3,21.9996 L117.3,21.9996 L120.6,29.5996 L118.7,33.7996 L120.6,33.7996 L125.7,21.9996 L123.7,21.9996 Z M106.9,29.9996 L108.8,29.9996 L108.8,17.4996 L106.9,17.4996 L106.9,29.9996 Z" id="Shape" fill="#FFFFFF"></path>
                    <path d="M10.4004,7.5 C10.1004,7.8 9.9004,8.3 9.9004,8.9 L9.9004,31 C9.9004,31.6 10.1004,32.1 10.4004,32.4 L10.5004,32.5 L22.9004,20.1 L22.9004,20 L22.9004,19.9 L10.4004,7.5 Z" id="Path" fill="url(#linearGradient-1)"></path>
                    <path d="M27.0004,24.3008 L22.9004,20.2008 L22.9004,20.0008 L22.9004,19.9008 L27.0004,15.8008 L27.1004,15.9008 L32.0004,18.7008 C33.4004,19.5008 33.4004,20.8008 32.0004,21.6008 L27.0004,24.3008 Z" id="Path" fill="url(#linearGradient-2)"></path>
                    <path d="M27.1004,24.2 L22.9004,20 L10.4004,32.5 C10.9004,33 11.6004,33 12.5004,32.6 L27.1004,24.2 Z" id="Path" fill="url(#linearGradient-3)"></path>
                    <path d="M27.1004,15.8006 L12.5004,7.5006 C11.6004,7.0006 10.9004,7.1006 10.4004,7.6006 L22.9004,20.0006 L27.1004,15.8006 Z" id="Path" fill="url(#linearGradient-4)"></path>
                    <path d="M27.0004,24.0996 L12.5004,32.2996 C11.7004,32.7996 11.0004,32.6996 10.5004,32.2996 L10.4004,32.3996 L10.5004,32.4996 C11.0004,32.8996 11.7004,32.9996 12.5004,32.4996 L27.0004,24.0996 Z" id="Path" fill="#000000" opacity="0.2"></path>
                    <path d="M10.4,32.3004 C10.1,32.0004 10,31.5004 10,30.9004 L10,31.0004 C10,31.6004 10.2,32.1004 10.5,32.4004 L10.5,32.3004 L10.4,32.3004 Z" id="Path" fill="#000000" opacity="0.12"></path>
                    <path d="M32,21.3 L27,24.1 L27.1,24.2 L32,21.4 C32.7,21 33,20.5 33,20 C33,20.5 32.6,20.9 32,21.3 Z" id="Path" fill="#000000" opacity="0.12"></path>
                    <path d="M12.5,7.6004 L32,18.7004 C32.6,19.1004 33,19.5004 33,20.0004 C33,19.5004 32.7,19.0004 32,18.6004 L12.5,7.5004 C11.1,6.7004 10,7.4004 10,9.0004 L10,9.1004 C10,7.5004 11.1,6.8004 12.5,7.6004 Z" id="Path" fill="#FFFFFF" opacity="0.25"></path>
                    <path d="M41.3008,13 L41.3008,7 L43.1008,7 C44.0008,7 44.8008,7.3 45.3008,7.8 C45.9008,8.4 46.1008,9.1 46.1008,10 C46.1008,10.9 45.8008,11.6 45.3008,12.2 C44.8008,12.7 44.0008,13 43.1008,13 L41.3008,13 Z M42.1008,12.3 L43.2008,12.3 C43.9008,12.3 44.4008,12.1 44.8008,11.7 C45.2008,11.3 45.4008,10.7 45.4008,10 C45.4008,9.3 45.2008,8.7 44.8008,8.3 C44.4008,7.9 43.8008,7.7 43.2008,7.7 L42.1008,7.7 L42.1008,12.3 Z" id="Shape" stroke="#FFFFFF" stroke-width="0.2" fill="#FFFFFF"></path>
                    <polygon id="Path" stroke="#FFFFFF" stroke-width="0.2" fill="#FFFFFF" points="47.2012 13 47.2012 7 48.0012 7 48.0012 13"></polygon>
                    <path d="M51.1,13.1008 C50.7,13.1008 50.2,13.0008 49.8,12.7008 C49.4,12.4008 49.1,12.0008 49,11.5008 L49.7,11.2008 C49.8,11.5008 50,11.8008 50.2,12.0008 C50.5,12.2008 50.8,12.3008 51.1,12.3008 C51.4,12.3008 51.7,12.2008 52,12.0008 C52.2,11.8008 52.4,11.6008 52.4,11.3008 C52.4,11.0008 52.3,10.7008 52,10.5008 C51.8,10.3008 51.4,10.1008 50.9,10.0008 C50.4,9.8008 50,9.6008 49.7,9.4008 C49.4,9.1008 49.3,8.8008 49.3,8.4008 C49.3,8.0008 49.5,7.6008 49.8,7.3008 C50.1,7.0008 50.6,6.8008 51.1,6.8008 C51.6,6.8008 52,6.9008 52.3,7.2008 C52.6,7.5008 52.8,7.7008 52.9,8.0008 L52.2,8.3008 C52.1,8.1008 52,7.9008 51.8,7.8008 C51.6,7.6008 51.3,7.6008 51,7.6008 C50.7,7.6008 50.5,7.7008 50.2,7.8008 C50.1,8.0008 50,8.2008 50,8.5008 C50,8.7008 50.1,8.9008 50.3,9.1008 C50.5,9.3008 50.8,9.4008 51.2,9.5008 C51.5,9.6008 51.7,9.7008 51.9,9.8008 C52.1,9.9008 52.3,10.0008 52.5,10.2008 C52.7,10.3008 52.9,10.5008 53,10.8008 C53.1,11.0008 53.2,11.3008 53.2,11.6008 C53.2,11.9008 53.1,12.2008 53,12.4008 C52.9,12.6008 52.7,12.8008 52.5,12.9008 C52.2,12.9008 52,13.0008 51.8,13.0008 C51.6,13.1008 51.3,13.1008 51.1,13.1008 Z" id="Path" stroke="#FFFFFF" stroke-width="0.2" fill="#FFFFFF"></path>
                    <path d="M55.0012,13 L54.2012,13 L54.2012,7 L56.2012,7 C56.7012,7 57.1012,7.2 57.5012,7.5 C57.9012,7.8 58.1012,8.3 58.1012,8.8 C58.1012,9.3 57.9012,9.7 57.5012,10.1 C57.1012,10.4 56.7012,10.6 56.2012,10.6 L55.0012,10.6 L55.0012,13 Z M55.0012,9.8 L56.3012,9.8 C56.6012,9.8 56.9012,9.7 57.1012,9.5 C57.3012,9.3 57.4012,9 57.4012,8.8 C57.4012,8.5 57.3012,8.3 57.1012,8.1 C56.9012,7.9 56.6012,7.8 56.3012,7.8 L55.0012,7.8 L55.0012,9.8 Z" id="Shape" stroke="#FFFFFF" stroke-width="0.2" fill="#FFFFFF"></path>
                    <path d="M64.0012,12.2004 C63.4012,12.8004 62.7012,13.1004 61.8012,13.1004 C60.9012,13.1004 60.2012,12.8004 59.6012,12.2004 C59.0012,11.6004 58.7012,10.9004 58.7012,10.0004 C58.7012,9.1004 59.0012,8.4004 59.6012,7.8004 C60.2012,7.2004 60.9012,6.9004 61.8012,6.9004 C62.7012,6.9004 63.4012,7.2004 64.0012,7.8004 C64.6012,8.4004 64.9012,9.1004 64.9012,10.0004 C64.9012,10.9004 64.6012,11.6004 64.0012,12.2004 Z M60.2012,11.7004 C60.6012,12.1004 61.2012,12.4004 61.8012,12.4004 C62.4012,12.4004 63.0012,12.2004 63.4012,11.7004 C63.8012,11.3004 64.1012,10.7004 64.1012,10.0004 C64.1012,9.3004 63.9012,8.7004 63.4012,8.3004 C63.0012,7.9004 62.4012,7.6004 61.8012,7.6004 C61.2012,7.6004 60.6012,7.8004 60.2012,8.3004 C59.8012,8.7004 59.5012,9.3004 59.5012,10.0004 C59.5012,10.7004 59.7012,11.3004 60.2012,11.7004 Z" id="Shape" stroke="#FFFFFF" stroke-width="0.2" fill="#FFFFFF"></path>
                    <polygon id="Path" stroke="#FFFFFF" stroke-width="0.2" fill="#FFFFFF" points="66 13 66 7 66.9 7 69.8 11.7 69.8 10.5 69.8 7 70.6 7 70.6 13 69.8 13 66.7 8.1 66.7 9.3 66.7 13"></polygon>
                    <polygon id="Path" stroke="#FFFFFF" stroke-width="0.2" fill="#FFFFFF" points="72 13 72 7 72.8 7 72.8 13"></polygon>
                    <path d="M74.1016,13 L74.1016,7 L76.3016,7 C76.8016,7 77.2016,7.2 77.5016,7.5 C77.8016,7.8 78.0016,8.2 78.0016,8.7 C78.0016,9 77.9016,9.2 77.8016,9.5 C77.7016,9.7 77.5016,9.9 77.2016,10 C77.5016,10.1 77.7016,10.3 77.9016,10.5 C78.1016,10.7 78.2016,11 78.2016,11.4 C78.2016,11.9 78.0016,12.3 77.7016,12.6 C77.3016,12.9 76.9016,13.1 76.4016,13.1 L74.1016,13.1 L74.1016,13 Z M74.9016,9.6 L76.3016,9.6 C76.6016,9.6 76.8016,9.5 77.0016,9.3 C77.2016,9.1 77.3016,8.9 77.3016,8.7 C77.3016,8.5 77.1016,8.2 77.0016,8 C76.8016,7.8 76.6016,7.7 76.3016,7.7 L74.9016,7.7 L74.9016,9.6 L74.9016,9.6 Z M74.9016,12.3 L76.5016,12.3 C76.8016,12.3 77.0016,12.2 77.2016,12 C77.4016,11.8 77.5016,11.6 77.5016,11.3 C77.5016,11.1 77.4016,10.8 77.2016,10.6 C77.0016,10.4 76.8016,10.3 76.5016,10.3 L75.0016,10.3 L75.0016,12.3 L74.9016,12.3 Z" id="Shape" stroke="#FFFFFF" stroke-width="0.2" fill="#FFFFFF"></path>
                    <polygon id="Path" stroke="#FFFFFF" stroke-width="0.2" fill="#FFFFFF" points="79.2012 13 79.2012 7 80.0012 7 80.0012 12.3 82.6012 12.3 82.6012 13"></polygon>
                    <polygon id="Path" stroke="#FFFFFF" stroke-width="0.2" fill="#FFFFFF" points="87.1016 7.7 84.4016 7.7 84.4016 9.6 86.9016 9.6 86.9016 10.3 84.4016 10.3 84.4016 12.2 87.1016 12.2 87.1016 13 83.6016 13 83.6016 7 87.1016 7"></polygon>
                    <polygon id="Path" stroke="#FFFFFF" stroke-width="0.2" fill="#FFFFFF" points="93.801 7.7 91.101 7.7 91.101 9.6 93.601 9.6 93.601 10.3 91.101 10.3 91.101 12.2 93.801 12.2 93.801 13 90.301 13 90.301 7 93.801 7"></polygon>
                    <polygon id="Path" stroke="#FFFFFF" stroke-width="0.2" fill="#FFFFFF" points="95 13 95 7 95.9 7 98.8 11.7 98.8 10.5 98.8 7 99.6 7 99.6 13 98.8 13 95.7 8.1 95.7 9.3 95.7 13"></polygon>
                </g>
            </g>
        </g>
    </g>
</svg>