<svg width="18" height="17" viewBox="0 0 18 17" fill="none" xmlns="http://www.w3.org/2000/svg">
<path d="M8.9984 6.37409C7.8278 6.37409 6.8725 7.3294 6.8725 8.5C6.8725 9.6706 7.8278 10.6259 8.9984 10.6259C10.169 10.6259 11.1243 9.6706 11.1243 8.5C11.1243 7.3294 10.169 6.37409 8.9984 6.37409ZM15.3745 8.5C15.3745 7.61966 15.3825 6.74728 15.3331 5.86853C15.2836 4.84784 15.0508 3.94198 14.3044 3.1956C13.5564 2.44763 12.6522 2.21638 11.6315 2.16694C10.7511 2.1175 9.87875 2.12547 9 2.12547C8.11965 2.12547 7.24728 2.1175 6.36853 2.16694C5.34785 2.21638 4.44198 2.44922 3.6956 3.1956C2.94763 3.94358 2.71638 4.84784 2.66694 5.86853C2.6175 6.74888 2.62547 7.62125 2.62547 8.5C2.62547 9.37875 2.6175 10.2527 2.66694 11.1315C2.71638 12.1522 2.94922 13.058 3.6956 13.8044C4.44358 14.5524 5.34785 14.7836 6.36853 14.8331C7.24888 14.8825 8.12125 14.8745 9 14.8745C9.88034 14.8745 10.7527 14.8825 11.6315 14.8331C12.6522 14.7836 13.558 14.5508 14.3044 13.8044C15.0524 13.0564 15.2836 12.1522 15.3331 11.1315C15.3841 10.2527 15.3745 9.38034 15.3745 8.5ZM8.9984 11.771C7.18828 11.771 5.72741 10.3101 5.72741 8.5C5.72741 6.68987 7.18828 5.22901 8.9984 5.22901C10.8085 5.22901 12.2694 6.68987 12.2694 8.5C12.2694 10.3101 10.8085 11.771 8.9984 11.771ZM12.4034 5.85897C11.9807 5.85897 11.6394 5.51767 11.6394 5.09504C11.6394 4.67241 11.9807 4.33112 12.4034 4.33112C12.826 4.33112 13.1673 4.67241 13.1673 5.09504C13.1674 5.1954 13.1477 5.29479 13.1094 5.38753C13.071 5.48027 13.0148 5.56454 12.9438 5.6355C12.8729 5.70646 12.7886 5.76273 12.6959 5.80107C12.6031 5.83942 12.5037 5.85909 12.4034 5.85897Z" fill="white"/>
</svg>
