<?xml version="1.0" encoding="UTF-8"?>
<svg width="30px" height="17px" viewBox="0 0 30 17" version="1.1" xmlns="http://www.w3.org/2000/svg" xmlns:xlink="http://www.w3.org/1999/xlink">
    <title>kueski</title>
    <defs>
        <polygon id="path-1" points="0 0 8 0 8 13 0 13"></polygon>
        <polygon id="path-3" points="0 0 8 0 8 6.65193595 0 6.65193595"></polygon>
    </defs>
    <g id="Page-1" stroke="none" stroke-width="1" fill="none" fill-rule="evenodd">
        <g id="kueski">
            <g id="Group-9" transform="translate(10.000000, 2.000000)">
                <g id="Group-3">
                    <mask id="mask-2" fill="white">
                        <use xlink:href="#path-1"></use>
                    </mask>
                    <g id="Clip-2"></g>
                    <path d="M4.91363873,2.33337326 C4.73632693,1.88229077 4.54164919,1.55246778 4.22913111,1.33813691 C3.61415617,0.916251858 2.93447241,0.619663495 2.26994941,0.297914864 C1.9898891,0.162236863 1.82863391,0.293733502 1.81492032,0.617644906 C1.80120674,0.941123755 1.81085449,1.26546771 1.8076156,1.58945121 C1.80286064,2.06223354 2.02344948,2.38282869 2.42038534,2.5823806 C2.75088958,2.74862581 3.08470161,2.90766176 3.4149302,3.07448371 C3.84322124,3.29083317 4.11942244,3.63745369 4.2241005,4.12753821 C4.30741568,4.51791886 4.27475117,4.567158 3.8899439,4.56513942 C2.7659125,4.55915574 1.6418811,4.54646747 0.517849695,4.53969078 C0.111886297,4.53731173 0.0146507925,4.63730396 0.00403827111,5.06993079 C-0.00333536385,5.36969122 0.00100612215,5.66981212 0.00410718359,5.96971673 C0.0105849564,6.58992813 0.069849686,6.65185555 0.653951835,6.65178346 C2.6499328,6.6513509 4.64591376,6.65012533 6.64189473,6.64940441 C6.9515874,6.64926022 7.26134898,6.6551718 7.57097273,6.64940441 C7.84152312,6.64443003 7.99802335,6.520431 7.99030515,6.20812648 C7.98058849,5.81255518 7.99106319,5.41640713 7.99023624,5.02040327 C7.98954711,4.71155919 7.85144651,4.56694173 7.54375231,4.57263703 C6.98190889,4.58294625 6.41951417,4.56139061 5.85767075,4.57256494 C5.59862875,4.57761141 5.5348158,4.46457044 5.58243432,4.22248397 C5.67532834,3.74999002 5.91783134,3.38916728 6.30704901,3.13388789 C6.69550863,2.87904106 7.08617346,2.62779885 7.47187659,2.36848229 C7.74132438,2.18745813 7.96156865,1.95085069 7.98155327,1.60069763 C8.00608611,1.17023358 8.0021581,0.737174198 7.99257926,0.305772942 C7.9867217,0.0392471329 7.84110964,-0.0737938378 7.60219009,0.0502772787 C7.35665493,0.177736741 7.11601257,0.321200728 6.89032421,0.483552938 C6.18080135,0.993751248 5.31656998,1.31679754 4.91363873,2.33337326 M4.01088529,7.469384 C2.98946457,7.469384 1.96790602,7.46628402 0.946485297,7.47104212 C0.572566201,7.47277234 0.413171643,7.6480291 0.452796317,8.02781216 C0.603232253,9.47059848 0.759181187,10.9128081 0.920918769,12.3542967 C0.968330552,12.7769027 1.16941716,12.9879894 1.57896401,12.9911615 C3.2315541,13.0037056 4.88435093,13.0011823 6.53700994,12.9941893 C6.86641158,12.9928196 7.06184736,12.8154001 7.09912901,12.4467913 C7.24742866,10.979854 7.40985536,9.5143586 7.56008456,8.04763759 C7.60019162,7.65595927 7.43183844,7.4721956 7.04089797,7.47046538 C6.03091671,7.46577937 5.02093546,7.46887935 4.01088529,7.469384" id="Fill-1" fill="#FEFEFE" mask="url(#mask-2)"></path>
                </g>
                <path d="M4.01091286,7.46911726 C5.02089411,7.46890098 6.03087537,7.465801 7.04092553,7.47048701 C7.4317971,7.47221723 7.60021919,7.6559809 7.56011213,8.04758712 C7.40988293,9.51438023 7.24738731,10.9798036 7.09908766,12.446813 C7.06187492,12.8154217 6.86643914,12.9928412 6.5370375,12.994211 C4.88430958,13.0011319 3.23158166,13.0037272 1.57899157,12.9911831 C1.16944472,12.988011 0.968358117,12.7769243 0.920946334,12.3543183 C0.759139839,10.9128297 0.603259818,9.47062011 0.452754969,8.02783379 C0.413130296,7.64797864 0.572593766,7.47279397 0.946512862,7.47099166 C1.96793359,7.46630565 2.98942322,7.46940563 4.01091286,7.46911726" id="Fill-4" fill="#FFFFFF"></path>
                <g id="Group-8">
                    <mask id="mask-4" fill="white">
                        <use xlink:href="#path-3"></use>
                    </mask>
                    <g id="Clip-7"></g>
                    <path d="M4.91363873,2.33337326 C5.31656998,1.31679754 6.18080135,0.993751248 6.89032421,0.483552938 C7.11601257,0.321200728 7.35665493,0.177736741 7.60219009,0.0502772787 C7.84110964,-0.0737938378 7.9867217,0.0392471329 7.99257926,0.305772942 C8.0021581,0.737174198 8.00608611,1.17023358 7.98155327,1.60069763 C7.96156865,1.95085069 7.74132438,2.18745813 7.47187659,2.36848229 C7.08617346,2.62779885 6.69550863,2.87904106 6.30704901,3.13388789 C5.91783134,3.38916728 5.67532834,3.74999002 5.58243432,4.22248397 C5.5348158,4.46457044 5.59862875,4.57761141 5.85767075,4.57256494 C6.41951417,4.56139061 6.98190889,4.58294625 7.54375231,4.57263703 C7.85144651,4.56694173 7.98954711,4.71155919 7.99023624,5.02040327 C7.99106319,5.41640713 7.98058849,5.81255518 7.99030515,6.20812648 C7.99802335,6.520431 7.84152312,6.64443003 7.57097273,6.64940441 C7.26134898,6.6551718 6.9515874,6.64926022 6.64189473,6.64940441 C4.64591376,6.65012533 2.6499328,6.6513509 0.653951835,6.65178346 C0.069849686,6.65185555 0.0105849564,6.58992813 0.00410718359,5.96971673 C0.00100612215,5.66981212 -0.00333536385,5.36969122 0.00403827111,5.06993079 C0.0146507925,4.63730396 0.111886297,4.53731173 0.517849695,4.53969078 C1.6418811,4.54646747 2.7659125,4.55915574 3.8899439,4.56513942 C4.27475117,4.567158 4.30741568,4.51791886 4.2241005,4.12753821 C4.11942244,3.63745369 3.84322124,3.29083317 3.4149302,3.07448371 C3.08470161,2.90766176 2.75088958,2.74862581 2.42038534,2.5823806 C2.02344948,2.38282869 1.80286064,2.06223354 1.8076156,1.58945121 C1.81085449,1.26546771 1.80120674,0.941123755 1.81492032,0.617644906 C1.82863391,0.293733502 1.9898891,0.162236863 2.26994941,0.297914864 C2.93447241,0.619663495 3.61415617,0.916251858 4.22913111,1.33813691 C4.54164919,1.55246778 4.73632693,1.88229077 4.91363873,2.33337326" id="Fill-6" fill="#FFFFFF" mask="url(#mask-4)"></path>
                </g>
            </g>
            <rect id="Rectangle" x="0" y="0" width="30" height="17"></rect>
        </g>
    </g>
</svg>