<?xml version="1.0" encoding="UTF-8"?>
<svg width="200px" height="52px" viewBox="0 0 200 52" version="1.1" xmlns="http://www.w3.org/2000/svg" xmlns:xlink="http://www.w3.org/1999/xlink">
    <title>light</title>
    <g id="Page-1" stroke="none" stroke-width="1" fill="none" fill-rule="evenodd">
        <g id="light">
            <path d="M10,0 L190,0 C195.522847,-2.79088747e-15 200,4.4771525 200,10 L200,51.7073171 L200,51.7073171 L0,51.7073171 L0,10 C-6.76353751e-16,4.4771525 4.4771525,-7.61826213e-16 10,0 Z" id="Rectangle-Copy-69" fill="#00853F"></path>
            <g id="Combo-Light" transform="translate(41.217000, 17.635143)" fill="#FFFFFF" fill-rule="nonzero">
                <path d="M6.84,14.22 C9.396,14.22 11.538,12.996 12.708,11.394 L10.872,9.72 C9.936,10.89 8.568,11.664 7.002,11.664 C4.608,11.664 2.772,9.882 2.772,7.416 C2.772,4.878 4.644,3.06 7.02,3.06 C8.586,3.06 9.9,3.852 10.818,4.986 L12.6,3.24 C11.448,1.62 9.342,0.486 6.876,0.486 C3.132,0.486 0,3.312 0,7.416 C0,11.484 3.042,14.22 6.84,14.22 Z" id="Path"></path>
                <path d="M18.936,14.274 C22.068,14.274 24.192,11.97 24.192,9.108 C24.192,6.282 22.068,3.942 18.936,3.942 C15.804,3.942 13.68,6.282 13.68,9.108 C13.68,11.97 15.804,14.274 18.936,14.274 Z M18.936,11.916 C17.406,11.916 16.218,10.674 16.218,9.108 C16.218,7.56 17.406,6.318 18.936,6.318 C20.466,6.318 21.654,7.56 21.654,9.108 C21.654,10.674 20.466,11.916 18.936,11.916 Z" id="Shape"></path>
                <path d="M37.836,3.942 C36.396,3.942 35.046,4.572 34.326,5.67 C33.768,4.482 32.616,3.942 31.446,3.942 C30.186,3.924 29.016,4.572 28.458,5.616 L28.458,4.212 L25.974,4.212 L25.974,14.022 L28.512,14.022 L28.512,8.658 C28.512,7.146 29.448,6.282 30.654,6.282 C31.842,6.282 32.634,7.11 32.634,8.586 L32.634,14.022 L35.172,14.022 L35.172,8.64 C35.172,7.182 36.09,6.282 37.332,6.282 C38.466,6.282 39.294,7.02 39.294,8.568 L39.294,14.022 L41.832,14.022 L41.832,8.1 C41.832,5.4 40.068,3.942 37.836,3.942 Z" id="Path"></path>
                <path d="M49.536,3.96 C48.186,3.96 47.232,4.554 46.548,5.346 L46.548,0.342 L44.01,0.342 L44.01,14.022 L46.476,14.022 L46.476,12.798 C47.16,13.626 48.132,14.256 49.536,14.256 C52.326,14.256 54.432,12.06 54.432,9.126 C54.432,6.192 52.326,3.96 49.536,3.96 Z M49.14,11.934 C47.52,11.934 46.44,10.656 46.44,9.108 C46.44,7.578 47.52,6.3 49.14,6.3 C50.76,6.3 51.84,7.56 51.84,9.108 C51.84,10.656 50.76,11.934 49.14,11.934 Z" id="Shape"></path>
                <path d="M60.948,14.274 C64.08,14.274 66.204,11.97 66.204,9.108 C66.204,6.282 64.08,3.942 60.948,3.942 C57.816,3.942 55.692,6.282 55.692,9.108 C55.692,11.97 57.816,14.274 60.948,14.274 Z M60.948,11.916 C59.418,11.916 58.23,10.674 58.23,9.108 C58.23,7.56 59.418,6.318 60.948,6.318 C62.478,6.318 63.666,7.56 63.666,9.108 C63.666,10.674 62.478,11.916 60.948,11.916 Z" id="Shape"></path>
                <polygon id="Path" points="72.756 14.022 82.188 14.022 82.188 11.466 75.438 11.466 75.438 0.72 72.756 0.72"></polygon>
                <path d="M84.906,3.114 C85.788,3.114 86.472,2.448 86.472,1.548 C86.472,0.666 85.788,0 84.906,0 C84.024,0 83.34,0.666 83.34,1.548 C83.34,2.448 84.024,3.114 84.906,3.114 Z M86.166,14.022 L86.166,4.212 L83.628,4.212 L83.628,14.022 L86.166,14.022 Z" id="Shape"></path>
                <path d="M95.94,4.212 L95.94,5.292 C95.238,4.518 94.248,3.96 92.916,3.96 C90.126,3.96 87.912,6.048 87.912,9.018 C87.912,11.898 89.91,14.04 92.808,14.04 C94.176,14.04 95.148,13.536 95.832,12.78 L95.832,13.284 C95.832,14.814 94.77,16.002 92.772,16.002 C91.458,16.002 90.216,15.444 89.334,14.85 L88.344,16.758 C89.496,17.586 91.116,18.18 92.844,18.18 C95.994,18.18 98.28,16.236 98.28,13.05 L98.28,4.212 L95.94,4.212 Z M93.186,11.826 C91.62,11.826 90.468,10.638 90.468,9.036 C90.468,7.452 91.62,6.282 93.186,6.282 C94.752,6.282 95.904,7.452 95.904,9.036 C95.904,10.62 94.752,11.826 93.186,11.826 Z" id="Shape"></path>
                <path d="M100.584,14.022 L103.122,14.022 L103.122,8.766 C103.122,7.29 104.04,6.282 105.372,6.282 C106.596,6.282 107.424,7.128 107.424,8.712 L107.424,14.022 L109.962,14.022 L109.962,8.028 C109.962,5.256 108.126,3.942 106.146,3.942 C104.688,3.942 103.554,4.662 103.05,5.49 L103.05,0.342 L100.584,0.342 L100.584,14.022 Z" id="Path"></path>
                <path d="M118.476,11.448 C117.99,11.718 117.468,11.952 116.838,11.952 C115.884,11.952 115.452,11.358 115.452,10.224 L115.452,6.336 L118.692,6.336 L118.692,4.212 L115.452,4.212 L115.452,0.738 L112.932,0.738 L112.932,4.212 L111.312,4.212 L111.312,6.336 L112.914,6.336 L112.914,10.386 C112.914,12.924 114.084,14.256 116.334,14.256 C117.342,14.256 118.458,13.968 119.232,13.446 L118.476,11.448 Z" id="Path"></path>
            </g>
        </g>
    </g>
</svg>