<svg width="18" height="17" viewBox="0 0 18 17" fill="none" xmlns="http://www.w3.org/2000/svg">
<path fill-rule="evenodd" clip-rule="evenodd" d="M7.36099 6.56774H9.72866V7.74711C10.0697 7.06881 10.9444 6.45936 12.2583 6.45936C14.777 6.45936 15.375 7.80959 15.375 10.2869V14.875H12.825V10.8511C12.825 9.44031 12.4839 8.64471 11.6157 8.64471C10.4114 8.64471 9.91099 9.50215 9.91099 10.8505V14.875H7.36099V6.56774ZM2.98837 14.7666H5.53838V6.45936H2.98837V14.7666ZM5.90366 3.75063C5.90376 3.96436 5.86137 4.17599 5.77896 4.3732C5.69655 4.57041 5.57577 4.74928 5.42362 4.8994C5.11533 5.2058 4.69803 5.3773 4.26338 5.37625C3.82949 5.37596 3.41315 5.20489 3.1044 4.90004C2.95281 4.7494 2.83243 4.57034 2.75017 4.3731C2.6679 4.17586 2.62537 3.96433 2.625 3.75063C2.625 3.31904 2.79712 2.90594 3.10504 2.60121C3.41351 2.29595 3.83003 2.12481 4.26401 2.125C4.69879 2.125 5.11571 2.29649 5.42362 2.60121C5.7309 2.90594 5.90366 3.31904 5.90366 3.75063Z" fill="white"/>
</svg>
