<svg xmlns="http://www.w3.org/2000/svg" xmlns:xlink="http://www.w3.org/1999/xlink" width="103" height="36" viewBox="0 0 103 36">
    <defs>
        <path id="eqzsww2jna" d="M0 0L2.625 0 2.625 2.881 0 2.881z"/>
        <path id="toqdazqg8c" d="M0 0L2.632 0 2.632 2.88 0 2.88z"/>
    </defs>
    <g fill="none" fill-rule="evenodd">
        <g>
            <g>
                <g>
                    <g>
                        <path fill="#FFF" d="M0 5.836c.634-.425 1.316-.201 1.98-.153.2.014.235.271.232.488-.006.38-.002.76-.002 1.228.464-.291.854-.554 1.257-.788 1.568-.907 3.19-1.532 5.008-1.247 1.908.299 2.918 1.4 3.183 3.525.082.655.123 1.313.123 1.974.002 3.303.002 6.606 0 9.909 0 .653-.09.747-.701.76-.3.006-.599.006-.898 0-.592-.01-.695-.122-.694-.772.008-3.174.022-6.348.025-9.522 0-.622-.018-1.245-.13-1.86-.215-1.19-.744-1.698-1.83-1.786-.695-.056-1.354.1-2.007.324-1.016.347-1.984.822-2.949 1.31-.308.155-.395.35-.394.711.012 3.578.008 7.157.007 10.735 0 .8-.053.87-.8.856-.472-.01-.963.118-1.41-.166V5.836z" transform="translate(-1207.000000, -931.000000) translate(0.000000, 903.000000) translate(1110.000000, 28.000000) translate(97.000000, 0.000000)"/>
                        <g transform="translate(-1207.000000, -931.000000) translate(0.000000, 903.000000) translate(1110.000000, 28.000000) translate(97.000000, 0.000000) translate(44.165671, 0.000000)">
                            <mask id="6v6r9muvtb" fill="#fff">
                                <use xlink:href="#eqzsww2jna"/>
                            </mask>
                            <path fill="#FFF" d="M1.898 0c.674.482.93 1.496.55 2.287-.315.653-.888.617-1.438.573-.47-.039-.803-.284-.93-.825C-.126 1.153.06.513.701 0h1.197z" mask="url(#6v6r9muvtb)"/>
                        </g>
                        <g transform="translate(-1207.000000, -931.000000) translate(0.000000, 903.000000) translate(1110.000000, 28.000000) translate(97.000000, 0.000000) translate(75.429370, 0.000000)">
                            <mask id="eehhl8e7ad" fill="#fff">
                                <use xlink:href="#toqdazqg8c"/>
                            </mask>
                            <path fill="#FFF" d="M1.94 0c.63.506.865 1.402.558 2.203-.222.581-.69.684-1.193.676-.498-.007-.963-.093-1.173-.7C-.171 1.309.053.507.744 0h1.197z" mask="url(#eehhl8e7ad)"/>
                        </g>
                        <path fill="#FFF" d="M66.585 13.875H64.99c-2.33 0-3.18.966-3.118 3.549v.055c.048 1.37.578 1.958 1.82 2.01 1.917.08 3.58-.786 5.229-1.713.193-.11.19-.27.19-.455-.001-1.028-.01-2.055.005-3.083.004-.29-.078-.375-.338-.37-.731.018-1.462.007-2.193.007zm4.804.456c0 1.394-.005 2.787.001 4.181.004.94.122 1.093.951 1.177.371.038.632.106.634.623.004.95-.051 1.148-.576 1.236-.555.093-1.112.147-1.683.065-.787-.114-1.297-.557-1.467-1.4-.091-.452-.216-.401-.51-.209-1.145.752-2.343 1.37-3.67 1.631-.905.18-1.813.216-2.723.044-1.426-.27-2.318-1.192-2.629-2.758-.248-1.254-.225-2.516.07-3.756.451-1.902 1.716-3.004 3.703-3.27 1.689-.225 3.384-.092 5.076-.097.475-.002.604-.163.55-.641-.028-.235-.003-.476-.006-.715-.027-1.862-.76-2.717-2.437-2.848-1.513-.117-3.017.028-4.521.17-.066.006-.132.024-.198.032-.959.118-.936.111-1.18-.917-.121-.511.05-.772.449-.927.756-.294 1.547-.404 2.339-.495 1.404-.162 2.81-.25 4.22-.05 2.38.336 3.483 1.696 3.581 4.523.051 1.465.009 2.934.009 4.4h.017zM21.617 13.875h-1.545c-2.362 0-3.193.948-3.138 3.58.03 1.364.568 1.978 1.795 2.034 1.936.087 3.613-.788 5.273-1.728.193-.109.17-.29.17-.47.001-1.01-.01-2.018.007-3.027.005-.32-.096-.402-.37-.395-.73.018-1.462.006-2.192.006M24.19 19.8c-.647.367-1.267.755-1.912 1.078-1.495.75-3.055 1.08-4.7.822-1.601-.25-2.538-1.213-2.834-2.97-.186-1.111-.177-2.232.048-3.332.421-2.065 1.702-3.232 3.788-3.506 1.689-.223 3.384-.08 5.076-.1.4-.004.585-.085.522-.563-.032-.251-.002-.512-.006-.77-.025-1.885-.767-2.744-2.47-2.869-1.48-.109-2.95.03-4.422.164-.083.007-.165.026-.247.036-.992.124-1.234-.107-1.252-1.215-.006-.387.258-.529.531-.634.742-.284 1.516-.395 2.291-.484 1.405-.16 2.81-.25 4.22-.056 2.351.325 3.53 1.71 3.587 4.398.058 2.768.022 5.538.03 8.307 0 .22.004.44.026.658.076.732.157.819.82.92.748.115.748.115.731 1.104-.01.578-.152.722-.788.797-.445.052-.887.096-1.338.047-.863-.093-1.417-.559-1.613-1.508-.022-.104-.056-.206-.088-.324M97.022 12.314h2.24c1.504 0 1.504 0 1.217-1.666-.3-1.748-1.123-2.728-2.56-3.019-.506-.102-1.021-.104-1.536-.042-1.132.135-1.952.753-2.433 1.899-.311.74-.413 1.537-.52 2.335-.05.378.038.511.406.502 1.061-.026 2.124-.01 3.186-.01m.681 2.094c-1.296 0-2.592.011-3.888-.007-.322-.004-.427.081-.403.458.039.586.08 1.168.191 1.743.373 1.934 1.329 2.815 3.119 2.89 1.534.064 3.047-.19 4.565-.368.398-.046.68.01.785.507.189.896.155 1.17-.336 1.345-2.244.799-4.532 1.158-6.862.544-1.831-.483-2.968-1.828-3.424-3.815-.575-2.51-.601-5.058-.07-7.574.691-3.265 2.744-4.938 5.793-4.837.496.016.998.053 1.485.15 2.342.464 3.682 1.995 4.13 4.682.149.886.225 1.778.21 2.68-.017 1.124-.39 1.582-1.406 1.598-1.296.02-2.592.004-3.889.004M51.563 13.45c0-1.762-.008-3.524.006-5.285.003-.348-.065-.496-.406-.464-.363.033-.73.01-1.096.006-.115-.001-.26.026-.341-.038-.554-.436-.191-1.076-.257-1.62-.041-.343.245-.433.52-.433.415-.001.831-.019 1.246.005.287.017.367-.094.362-.404-.016-.972.01-1.946-.012-2.917-.011-.468.167-.724.558-.837l.864-.255c.685-.205.814-.097.817.712.003 1.064.02 2.129-.01 3.192-.01.415.094.527.467.514.88-.033 1.761.004 2.642-.017.456-.01.67.163.667.698-.01 1.57.072 1.398-1.26 1.401-.73.002-1.462.009-2.193-.004-.23-.004-.318.063-.317.335.01 3.358 0 6.717.018 10.075.005.785.352 1.141 1.057 1.285.898.182 1.788-.02 2.682-.045.305-.009.585-.073.688.398.2.917.18 1.265-.278 1.435-1.548.573-3.136.855-4.744.365-1.114-.339-1.67-1.385-1.678-2.982-.01-1.707-.002-3.414-.002-5.12M35.427 18.44c1.288-4.035 2.575-8.035 3.833-12.047.178-.57.406-.877.985-.786.31.048.63.007.946.009.591.003.634.072.418.715-.411 1.218-.826 2.434-1.24 3.65-1.232 3.614-2.47 7.226-3.691 10.844-.166.49-.388.737-.901.72-1.726-.058-1.327.234-1.916-1.459-1.576-4.527-3.135-9.061-4.7-13.593-.273-.79-.216-.892.553-.875 1.84.04 1.419-.373 2.056 1.593 1.16 3.584 2.365 7.151 3.434 10.77.043.15.061.321.223.459M84.649 7.555c1.42-.985 2.836-1.67 4.365-2.078.466-.125.604.069.625.53.017.385.052.768.1 1.15.06.468-.092.686-.533.789-1.41.328-2.795.765-4.152 1.308-.316.127-.415.303-.414.677.015 3.557.01 7.114.009 10.67 0 .855-.071.93-.86.932-.233 0-.465.002-.697 0-.645-.008-.72-.087-.72-.784-.002-2.2 0-4.4 0-6.6v-7.7c0-.774.055-.832.77-.834.3 0 .598.008.897-.001.414-.014.618.193.61.656-.005.398 0 .795 0 1.285M75.618 13.599V6.387c.001-.686.073-.766.68-.772.35-.004.698.004 1.047-.002.357-.005.516.194.51.577-.002.091 0 .183 0 .275v14.204c0 .801-.06.863-.801.867-1.657.007-1.428.072-1.434-1.55-.008-2.13-.002-4.258-.002-6.387M46.579 13.599c0 2.348.002 4.696-.001 7.044-.001.832-.053.888-.779.89-1.734.005-1.44.08-1.444-1.577-.012-4.494-.004-8.989-.004-13.483 0-.817.037-.856.798-.858h.648c.736.002.78.047.78.885.003 2.366.002 4.733.002 7.099M38.802 30.488c-.267.706-.545 1.407-.798 2.12-.114.318-.288.449-.599.454-.32.006-.485-.155-.597-.46-.246-.669-.503-1.332-.756-1.997l-.134.024-.167 2.476c-.018.277-.01.521-.396.512-.708-.017-.712.013-.639-.77.116-1.24.226-2.481.364-3.719.025-.22-.151-.624.276-.622.395.003.862-.158 1.075.425.254.696.503 1.395.76 2.09.06.164.073.36.26.49.288-.806.57-1.602.857-2.395.196-.54.792-.817 1.267-.612.125.054.121.155.131.26.146 1.53.287 3.063.438 4.593.021.218-.075.249-.227.247-.166-.001-.334-.013-.498.004-.263.027-.331-.096-.345-.378-.045-.914-.122-1.826-.186-2.739-.029 0-.057-.002-.086-.003M78.17 29.075c.59-.388 1.114-.644 1.726-.58.344.037.67.122.854.468.133.249.239.149.386.045.485-.339.998-.562 1.592-.516.678.053 1.047.394 1.12 1.135.12 1.206.039 2.417.06 3.626.007.353-.191.357-.427.36-.256.002-.339-.109-.335-.394.014-1.008.01-2.016.004-3.025-.005-.86-.328-1.126-1.074-.902-.048.014-.094.034-.14.052-.919.343-.919.343-.919 1.41 0 .806-.006 1.613.003 2.42.004.28-.04.446-.347.443-.294-.002-.41-.092-.404-.44.019-1.007.013-2.016.005-3.024-.007-.791-.325-1.055-1.017-.867-.048.013-.097.023-.145.04-.938.318-.958.348-.958 1.43 0 .806-.014 1.613.006 2.419.008.347-.114.439-.406.441-.31.003-.346-.17-.345-.448.007-1.357.001-2.713.006-4.07 0-.219-.085-.502.262-.532.31-.027.534.043.493.509M47.576 31.061c0 .439-.003.877.002 1.315.002.118-.036.246.101.333.4.253 1.567.001 1.775-.45.338-.737.362-1.522.004-2.257-.332-.682-.948-.618-1.535-.595-.28.011-.366.153-.352.45.02.4.005.802.005 1.204m-1.031.043c0-.642.017-1.285-.007-1.926-.013-.318.083-.46.361-.522.673-.15 1.351-.209 2.031-.13 1 .114 1.686.885 1.837 1.992.067.498.047.991-.04 1.478-.183 1.027-.857 1.587-2.008 1.676-.631.049-1.26-.016-1.889-.08-.253-.026-.29-.164-.288-.396.008-.697.003-1.394.003-2.092M31.711 31.391c-.252.031-.483.05-.71.09-.345.06-.514.284-.507.678.007.39.223.524.528.6.274.068.525-.028.779-.084.524-.117.619-.31.513-1.036-.07-.476-.429-.116-.603-.248m1.675.102c0 .531-.011 1.063.005 1.594.009.296-.064.504-.353.39-.524-.205-.996-.007-1.486.14-.356.108-.719.104-1.08-.004-.649-.193-.976-.607-1.016-1.304-.04-.708.265-1.237.863-1.507.474-.214.973-.176 1.468-.204.18-.01.505.22.528-.237.02-.396-.066-.747-.474-.843-.48-.113-.969-.057-1.42.12-.435.17-.426-.142-.531-.428-.145-.395.098-.414.319-.493.66-.237 1.338-.265 2.018-.195.732.076 1.135.568 1.157 1.377.014.531.002 1.063.002 1.594M60.705 31.052c0 .679-.01 1.358.005 2.036.006.297-.063.503-.355.384-.54-.219-1.032-.016-1.538.131-.159.046-.326.066-.491.075-1.287.07-1.773-.433-1.779-1.845-.004-.954.01-1.908-.004-2.862-.01-.657.444-.372.712-.446.337-.094.368.139.364.44-.013.899-.01 1.798-.003 2.696.006.816.24 1.045.977.977.1-.009.198-.025.296-.045.748-.15.748-.151.748-.97 0-.88.005-1.76-.002-2.64-.003-.277-.012-.548.347-.46.287.07.755-.193.729.493-.026.678-.006 1.357-.006 2.036M43.42 31.384c-.297.041-.583.051-.854.128-.265.075-.397.295-.395.618.002.327.143.502.411.602.321.12.628.01.932-.06.516-.121.588-.283.508-1.01-.058-.515-.426-.134-.601-.278m1.645.122c0 .532-.013 1.064.006 1.595.011.307-.078.488-.357.377-.525-.208-1-.007-1.49.139-.357.107-.72.1-1.082-.005-.63-.185-.956-.603-.982-1.268-.03-.81.235-1.282.862-1.55.462-.198.943-.166 1.423-.195.181-.011.501.224.537-.23.033-.425-.059-.774-.502-.861-.484-.097-.965-.023-1.423.135-.283.097-.363.011-.447-.27-.114-.385-.072-.575.33-.684.655-.178 1.31-.234 1.973-.164.738.08 1.128.562 1.15 1.386.013.53.002 1.063.002 1.595M51.988 31.1c0-.66.011-1.32-.005-1.98-.008-.312.073-.45.374-.505.86-.157 1.72-.114 2.583-.087.489.016.38.39.379.7-.003.47-.295.2-.466.202-.448.003-.896-.008-1.344-.028-.35-.015-.465.125-.483.54-.025.558.118.753.622.677.31-.047.634.022.945-.017.427-.053.555.13.509.58-.023.231-.078.322-.294.316-.464-.013-.93.01-1.395-.01-.261-.01-.378.045-.378.38 0 .811-.016.792.709.892.453.063.893-.034 1.338-.06.196-.01.348.012.306.276-.035.216.16.55-.218.612-.977.16-1.95.131-2.92-.078-.254-.055-.265-.213-.264-.428.005-.66.002-1.321.002-1.981M85.647 31.255v.274c0 1.387.047 1.437 1.318 1.41.577-.011.855-.249.952-.885.105-.69.102-1.388 0-2.078-.047-.325-.151-.65-.521-.71-.595-.097-1.121.16-1.6.478-.332.222-.09.674-.145 1.017-.025.16-.004.329-.004.494m0 2.193c0 .525-.019 1.001.006 1.475.018.338-.077.438-.387.438s-.342-.144-.341-.427c.009-1.945.004-3.89.006-5.834 0-.243-.076-.532.306-.539.322-.006.477.12.399.537.529-.264.977-.589 1.528-.601.816-.018 1.285.36 1.472 1.23.163.76.161 1.535.058 2.295-.18 1.328-.984 1.893-2.246 1.639-.243-.05-.481-.128-.8-.213M91.59 31.183c-.314.003-.63-.034-.933.09-.387.158-.557.632-.458 1.196.083.473.4.474.721.466.37-.01.71-.155 1.043-.316.445-.216.619-.643.452-1.24-.115-.413-.454-.11-.678-.194-.044-.017-.098-.003-.148-.002m1.592.193c0 .385.004.77-.001 1.156-.004.237.014.45.287.479.198.02.164.183.173.326.011.186-.074.262-.231.28-.333.038-.688.108-.88-.296-.12-.253-.225-.178-.387-.08-.426.256-.876.433-1.37.446-.8.02-1.234-.328-1.328-1.069-.135-1.063.218-1.788.973-2.01.474-.14.959-.056 1.436-.1.193-.018.486.195.567-.2.095-.458-.11-.897-.473-1.02-.338-.117-.688-.103-1.037-.07-.264.025-.529.046-.793.075-.18.019-.278-.051-.296-.264-.018-.193.035-.334.208-.374.785-.183 1.576-.264 2.363-.035.475.138.703.533.737 1.054.037.566.049 1.134.072 1.701l-.02.001M19.665 31.182c-.261.016-.56-.038-.85.067-.407.148-.624.598-.548 1.143.07.506.395.566.77.545.37-.021.695-.213 1.042-.317.644-.194.483-.751.441-1.194-.045-.48-.446-.152-.674-.241-.044-.017-.098-.003-.181-.003zm1.59-.023c0 .421.005.843-.001 1.265-.005.291-.006.564.35.598.164.016.146.169.148.294.001.136-.02.255-.173.282-.35.063-.73.152-.941-.252-.14-.268-.242-.205-.418-.096-.425.264-.88.427-1.372.439-.77.019-1.208-.334-1.3-1.04-.14-1.087.191-1.798.941-2.034.49-.154.992-.06 1.486-.107.19-.018.515.204.551-.209.035-.406-.008-.827-.443-.997-.335-.131-.687-.117-1.035-.09-.265.02-.529.053-.793.078-.152.014-.291.033-.33-.21-.035-.217-.003-.374.2-.422.801-.189 1.61-.28 2.41-.024.45.144.662.548.691 1.04.03.493.007.99.007 1.485h.022zM63.263 33.703c-.28-.034-.56-.062-.839-.102-.577-.081-.57-.09-.416-.707.057-.231.135-.28.345-.24.458.09.92.135 1.387.07.246-.035.466-.135.523-.424.062-.317-.156-.463-.374-.565-.334-.156-.683-.277-1.017-.434-.675-.316-.994-.822-.935-1.452.06-.648.508-1.18 1.175-1.305.593-.111 1.185-.061 1.767.156.271.101.284.26.183.496-.088.207-.064.557-.438.4-.327-.139-.669-.225-1.022-.187-.253.027-.516.1-.573.425-.055.317.186.449.396.555.391.197.796.36 1.188.556.527.265.767.717.712 1.366-.053.627-.377.987-.887 1.192-.38.154-.772.2-1.175.2M95.018 29.104c.61-.372 1.142-.65 1.77-.613.732.045 1.12.366 1.18 1.19.065.874.033 1.757.042 2.636.003.275-.012.55.004.825.018.3-.025.473-.363.478-.355.005-.406-.174-.402-.503.013-1.024.034-2.05-.005-3.073-.027-.732-.303-.921-.953-.782l-.049.011c-1.143.268-1.238.396-1.238 1.668 0 .752-.012 1.504.005 2.255.007.31-.088.42-.368.42-.276 0-.385-.102-.382-.414.009-1.356 0-2.713.006-4.069 0-.238-.083-.532.29-.57.342-.037.497.11.463.54M22.376 31.074c0-.678-.003-1.356.002-2.033.001-.189-.063-.445.215-.462.213-.013.495-.114.525.296.023.313.175.121.263.068.488-.294.993-.49 1.563-.45.66.049 1.009.346 1.1 1.09.15 1.238.032 2.487.064 3.73.009.36-.235.277-.42.295-.23.023-.326-.088-.324-.35.009-.824.006-1.649.002-2.473-.002-.292-.003-.587-.033-.876-.058-.551-.317-.756-.822-.675-.415.066-.788.266-1.172.437-.22.098-.224.277-.223.486.003.989-.01 1.978.007 2.967.005.344-.073.495-.413.494-.37 0-.336-.249-.335-.51.002-.679 0-1.356 0-2.034M73.372 31.177c.026.219.043.53.1.833.133.688.447.928 1.152.912.633-.014.955-.308 1.054-.985.07-.488.088-.977.034-1.472-.097-.885-.43-1.26-1.157-1.262-.69-.003-1.028.356-1.138 1.226-.027.216-.027.437-.045.748m-.706-.069c0-.147-.004-.294.001-.44.068-1.966 1.152-2.378 2.549-2.106.604.118 1 .567 1.15 1.229.185.81.188 1.636.017 2.448-.214 1.02-.818 1.466-1.889 1.452-1-.014-1.563-.478-1.756-1.49-.068-.355-.065-.727-.094-1.09.007-.002.015-.002.022-.003M100.706 32.567c.395-1.278.743-2.41 1.098-3.54.047-.148.043-.352.205-.414.186-.072.409-.123.57.017.143.123.007.305-.04.452-.594 1.824-1.192 3.647-1.788 5.471-.056.172-.116.343-.16.519-.11.428-.438.31-.657.254-.3-.077-.07-.35-.013-.465.441-.88.342-1.71-.021-2.6-.415-1.017-.735-2.08-1.072-3.132-.051-.157-.315-.425.017-.535.258-.086.545-.104.672.329.274.94.59 1.865.892 2.795.075.233.16.461.297.85M68.713 31.079c-.029-2.564 1.071-2.733 2.756-2.526.13.016.259.064.387.101.197.056.253.2.226.414-.028.229-.166.245-.326.23-.33-.03-.66-.074-.991-.094-.817-.05-1.177.274-1.254 1.17-.052.602-.066 1.208.071 1.804.112.49.385.765.848.757.43-.007.86-.04 1.29-.073.185-.015.33-.004.363.249.03.226-.058.343-.249.397-.717.206-1.439.299-2.152.005-.738-.304-.883-1.028-.965-1.775-.024-.217-.004-.44-.004-.66" transform="translate(-1207.000000, -931.000000) translate(0.000000, 903.000000) translate(1110.000000, 28.000000) translate(97.000000, 0.000000)"/>
                    </g>
                </g>
            </g>
        </g>
    </g>
</svg>