<?xml version="1.0" encoding="UTF-8"?>
<svg width="30px" height="17px" viewBox="0 0 30 17" version="1.1" xmlns="http://www.w3.org/2000/svg" xmlns:xlink="http://www.w3.org/1999/xlink">
    <title>paypal</title>
    <g id="Page-1" stroke="none" stroke-width="1" fill="none" fill-rule="evenodd">
        <g id="paypal">
            <g id="Icons-/-1-Primary-/-Alert" transform="translate(10.000000, 2.000000)" fill="#FFFFFF">
                <path d="M3.08007323,7.37663374 C2.98323078,7.90788375 2.59862792,10.3842835 2.48518391,11.084316 C2.47688313,11.1341207 2.45751464,11.1534892 2.40217609,11.1534892 L0.338048484,11.1534892 C0.127762025,11.1534892 -0.0244189645,10.970872 0.00325030642,10.7688864 L1.62466958,0.478684508 C1.66617349,0.213059507 1.90412922,0.0110738298 2.178055,0.0110738298 C6.39208496,0.0110738298 6.74625163,-0.0913024726 7.82258626,0.326503518 C9.48550944,0.97119753 9.63769043,2.52621055 9.04003418,4.20850223 C8.44514486,5.94059858 7.03401204,6.68490197 5.16356933,6.70703739 C3.96272297,6.72640588 3.240555,6.51335249 3.08007323,7.37663374 Z M9.87841309,3.39502566 C9.8286084,3.35905561 9.80923991,3.34522097 9.79540528,3.43099571 C9.74006674,3.7464254 9.654292,4.05355431 9.55191569,4.36068322 C8.44791179,7.50944624 5.38769042,7.23552046 3.8935498,7.23552046 C3.72476724,7.23552046 3.61409016,7.32682906 3.59195474,7.49561161 C2.96662922,11.3803772 2.8421175,12.1910869 2.8421175,12.1910869 C2.81444823,12.3875387 2.93895995,12.5480205 3.13541177,12.5480205 L4.89241047,12.5480205 C5.1303662,12.5480205 5.32681803,12.3737041 5.37385579,12.1357483 C5.39322428,11.9863343 5.34341959,12.3045309 5.77229329,9.60954391 C5.89957194,9.00081995 6.16796386,9.06445927 6.58300293,9.06445927 C8.54752116,9.06445927 10.0803988,8.26758427 10.5369417,5.95720015 C10.716792,4.99430952 10.6642204,3.9816142 9.87841309,3.39502566 Z" id="icons/lined/grey/paypal"></path>
            </g>
            <rect id="Rectangle" x="0" y="0" width="30" height="17"></rect>
        </g>
    </g>
</svg>