<?xml version="1.0" encoding="UTF-8"?>
<svg width="122px" height="41px" viewBox="0 0 122 41" version="1.1" xmlns="http://www.w3.org/2000/svg" xmlns:xlink="http://www.w3.org/1999/xlink">
    <title>Group 85</title>
    <defs>
        <polygon id="path-1" points="0 0 43.5878515 0 43.5878515 31.1505097 0 31.1505097"></polygon>
        <polygon id="path-3" points="0 0 2.2842797 0 2.2842797 2.44400412 0 2.44400412"></polygon>
        <polygon id="path-5" points="0 0 7.1738914 0 7.1738914 5.94647331 0 5.94647331"></polygon>
        <polygon id="path-7" points="0 40 122 40 122 0 0 0"></polygon>
    </defs>
    <g id="Desktop" stroke="none" stroke-width="1" fill="none" fill-rule="evenodd">
        <g id="footer/-general--desktop-PCI" transform="translate(-794.000000, -767.000000)">
            <g id="Group-2" transform="translate(524.000000, 758.000000)">
                <g id="Group-85" transform="translate(270.000000, 10.000000)">
                    <g id="Group-3" transform="translate(0.000000, 0.091126)">
                        <mask id="mask-2" fill="white">
                            <use xlink:href="#path-1"></use>
                        </mask>
                        <g id="Clip-2"></g>
                        <path d="M37.1685078,8.37783617 C38.5274466,8.37965308 39.594238,7.68622824 39.9359233,6.57882385 C40.366886,5.18196146 39.7974709,3.83461642 38.5330718,3.25988756 C37.1447368,2.62854144 35.3515692,3.08694096 34.6509599,4.26042916 C34.5482547,4.43246551 34.4660543,4.62343497 34.4103467,4.81604287 C33.8476455,6.76560618 35.0968022,8.37491981 37.1685078,8.37783617 M7.12922961,21.8172398 C6.50555856,20.1201786 5.88134315,18.4231173 5.25803502,16.725874 C3.53563597,12.0359263 1.81868065,7.34379397 0.0826722512,2.65894364 C-0.0721113973,2.24095901 -0.0381787569,2.13628081 0.432704676,2.11042984 C8.63424201,1.66131483 16.8346906,1.19381286 25.0353206,0.730680066 C29.2874253,0.490375316 33.5398928,0.255167939 37.7912716,0.00339409879 C38.1977374,-0.0206363762 38.4098618,0.0773060144 38.5875091,0.478542127 C40.205207,4.13354097 41.8450426,7.77889121 43.4964916,11.4185979 C43.6465574,11.749199 43.6128062,11.9558247 43.3874354,12.2254393 C42.1596907,13.693847 41.012332,15.2248795 39.9295723,16.8043371 C39.8462831,16.9257638 39.7531951,17.0404547 39.5902459,17.2576393 C39.576818,16.9738248 39.561757,16.7996038 39.5615755,16.6253829 C39.5599424,14.4549941 39.5514139,12.2842412 39.5684709,10.1138524 C39.5715557,9.72335714 39.4793751,9.58499986 39.0656509,9.59373822 C37.798167,9.62086353 36.5294128,9.62341221 35.2621104,9.59301002 C34.8315106,9.58263322 34.7701778,9.74775172 34.7716295,10.1211343 C34.7836057,13.3940122 34.7792507,16.666708 34.7761659,19.9394039 C34.7759845,20.1039762 34.855826,20.3399118 34.7137444,20.4178288 C34.5155923,20.5265121 34.4078063,20.2696408 34.270624,20.1647806 C33.8423832,19.8374564 33.4981575,19.401813 32.9924341,19.1738876 C32.9154959,19.1392983 32.8171457,19.0999757 32.8231338,19.0058563 C32.8586996,18.4502426 32.5357044,18.6747091 32.2880143,18.7573594 C30.9374226,19.2077487 29.5652374,19.4513303 28.1502282,19.1300138 C25.361945,18.4966651 25.0055615,15.9902137 25.7261311,14.2958832 C26.2793965,12.9953248 27.4249407,12.5201767 28.7521242,12.4287881 C29.8884141,12.350507 30.9677261,12.6073782 32.0020365,13.0712392 C32.1254279,13.1267642 32.2470048,13.1859301 32.3716664,13.2379962 C32.397252,13.2487371 32.4328177,13.2354475 32.513748,13.2296219 C32.513748,12.2361802 32.5084857,11.2396437 32.5170142,10.2434713 C32.5195546,9.95619788 32.3059786,9.93125716 32.1214358,9.86590155 C30.9200026,9.44099906 29.670483,9.40222261 28.4167899,9.41969932 C26.8431864,9.44154521 25.3180322,9.71298035 23.9117329,10.4531918 C21.608124,11.6658205 20.3631408,13.5478437 20.4845362,16.2030291 C20.6077462,18.8997217 22.085177,20.6162622 24.5295973,21.5694711 C25.985616,22.1372821 27.5091372,22.3100466 29.0596955,22.2685394 C29.3903119,22.2598011 29.5666891,22.3162363 29.6468935,22.6930778 C29.7860718,23.3482724 30.3213728,23.7739031 30.7071524,24.2829122 C31.0874883,24.7846394 31.0981943,24.7777215 30.5229726,24.9588603 C24.0445601,26.9996302 17.5652404,29.0369412 11.0902756,31.088634 C10.7117543,31.2086043 10.5515269,31.1802047 10.4038201,30.7678636 C9.43211271,28.0575173 8.4279243,25.3590042 7.43498629,22.656486 C7.22268046,22.0781161 7.22376921,22.0773879 7.86377147,22.0772059 C9.04724035,22.0770238 10.2312536,22.0584548 11.4141781,22.0870365 C11.8587501,22.0977774 12.0427485,22.0043863 12.0117192,21.5119436 C11.9661733,20.7857499 11.9999244,20.0544589 11.9999244,19.3253524 C11.9999244,18.3284518 11.9999244,18.325721 12.970906,18.3266313 C14.041871,18.3275415 15.0952345,18.1984688 16.1237383,17.894993 C16.7434172,17.7120337 17.3202721,17.4371396 17.8592023,17.0755902 C20.1452098,15.542009 20.1452098,11.7579374 17.4066461,10.4903298 C16.3614482,10.0064434 15.2681639,9.74356459 14.1315112,9.67201931 C11.9701653,9.53602867 9.80500883,9.63378901 7.64184837,9.59646895 C7.20144988,9.58882289 7.2553429,9.84860689 7.2553429,10.1222266 C7.2566131,13.8018021 7.25625019,17.4815596 7.25606873,21.1611351 C7.25606873,21.3775914 7.25606873,21.5942297 7.25606873,21.8106861 C7.21378902,21.8128707 7.17150931,21.8150553 7.12922961,21.8172398" id="Fill-1" fill="#FFFFFF" mask="url(#mask-2)"></path>
                    </g>
                    <path d="M36.3759538,28.3605117 C35.766618,28.35414 34.965481,28.0042417 34.3534233,27.2307153 C33.2403601,25.8238402 32.1158651,24.4262497 30.9991727,23.0222874 C30.5275635,22.4291715 30.5233899,22.0394045 30.9810269,21.4279017 C31.2673676,21.0455987 31.6262915,20.7388461 32.0037241,20.4482958 C32.323453,20.2021655 32.584571,20.2019834 32.8979489,20.4819749 C34.0333314,21.4965342 35.1846823,22.4927067 36.3345814,23.4905175 C36.8049205,23.8986715 36.8972826,23.881923 37.1994101,23.3372322 C39.9648296,18.3532753 43.3007529,13.7863927 47.1456658,9.58652109 C47.6804225,9.00232568 48.3681482,8.82683039 49.0691203,8.65552223 C49.7593864,8.48694481 50.4676169,8.41940461 51.1811096,8.44197869 C51.3808949,8.44816836 51.5538243,8.51024709 51.6273148,8.71195744 C51.6959059,8.90001411 51.5922934,9.04000983 51.4567443,9.15470073 C47.8217782,12.2320579 45.4965758,16.3068619 43.0497965,20.2853619 C41.7106367,22.4628506 40.3979698,24.6609109 39.2351871,26.9361599 C38.6719415,28.0382849 37.8328799,28.3525016 36.3759538,28.3605117" id="Fill-4" fill="#FFFFFF"></path>
                    <path d="M11.9589331,14.0295375 C11.9589331,13.5893428 11.9618364,13.1489662 11.9576629,12.7087716 C11.9558483,12.5190765 11.983067,12.3818115 12.2256763,12.3834354 C12.8685819,12.387637 13.5114875,12.3816294 14.1130207,12.6594363 C14.6552171,12.9097537 14.934118,13.3310152 14.9533525,13.9357822 C14.9738573,14.5802358 14.7811489,15.1054474 14.182882,15.4167512 C13.5615699,15.7398883 12.8874535,15.7591855 12.207712,15.7468062 C11.9545781,15.742255 11.9585702,15.5767724 11.9587516,15.401095 C11.9591145,14.9437878 11.9589331,14.4866626 11.9589331,14.0295375" id="Fill-6" fill="#FFFFFF"></path>
                    <path d="M46.1113735,17.354718 C46.4690272,18.145175 46.7689772,18.8251282 47.0848956,19.4974354 C47.1872379,19.714984 47.1654629,19.8416901 46.9179542,19.8979433 C46.819604,19.9203353 46.72452,19.9569272 46.6279844,19.9871473 C45.8081573,20.2442006 44.9885116,20.5010718 44.1686845,20.7581251 C44.1329373,20.7308177 44.0971901,20.7035104 44.0614429,20.676203 C44.7268492,19.5979265 45.3924371,18.5196499 46.1113735,17.354718" id="Fill-8" fill="#FFFFFF"></path>
                    <path d="M28.6934407,32.6664088 C28.6934407,33.0341479 28.6934407,33.4017049 28.6934407,33.769444 C28.6934407,34.7257477 28.6934407,34.7257477 29.6691402,34.652746 C30.3352725,34.6030466 30.6629855,34.3206885 30.8117811,33.6676786 C30.9121273,33.2271198 30.8977922,32.7800074 30.8785576,32.3343513 C30.8261163,31.1131662 30.3871694,30.689356 29.1764819,30.6777049 C29.1109755,30.6771588 29.0447434,30.6842587 28.9801443,30.6767947 C28.7542292,30.6505796 28.6854566,30.7530732 28.6898116,30.9724423 C28.7014249,31.5369764 28.6938037,32.1016926 28.6934407,32.6664088 M26.417232,32.6607652 C26.417232,31.5573659 26.4252161,30.4539666 26.4117882,29.3507494 C26.4083405,29.0738527 26.4952589,28.9908384 26.7692604,28.9944794 C27.8035709,29.0084971 28.8384257,28.9964819 29.8729175,29.0008511 C31.7889323,29.0092253 32.9016325,29.9968414 33.1400683,31.9038053 C33.210474,32.4665189 33.2063005,33.0336017 33.1324471,33.5943128 C32.9045359,35.3234147 31.7914727,36.2957387 29.9623763,36.341615 C28.8892339,36.3685583 27.8146398,36.3396125 26.740953,36.3521739 C26.477476,36.3552687 26.4092478,36.2638801 26.4119697,36.0101037 C26.4239459,34.8937789 26.417232,33.7772721 26.417232,32.6607652" id="Fill-10" fill="#FFFFFF"></path>
                    <path d="M37.3800515,28.8853592 C37.8975697,28.8678825 38.4406734,28.9286868 38.9663571,29.118564 C39.7745709,29.4103886 40.1942832,30.0126069 40.3568695,30.833284 C40.3966088,31.0333559 40.3283806,31.089245 40.1425677,31.0970731 C39.6061779,31.1198292 39.0697881,31.1489571 38.5341242,31.1862771 C38.3399642,31.1997488 38.2407067,31.1584236 38.1677606,30.9457903 C37.9659793,30.357954 37.3575507,30.1010827 36.758558,30.3146263 C36.5304653,30.3958202 36.3713267,30.5441901 36.3631611,30.7994229 C36.3551769,31.0499224 36.5235699,31.1873694 36.734787,31.24872 C37.1494184,31.3686903 37.5707638,31.4651763 37.9895688,31.5707647 C38.4218017,31.679448 38.850224,31.8014209 39.2581415,31.983834 C40.0306081,32.3291811 40.5537514,32.8791513 40.6183505,33.7604508 C40.6876674,34.7080161 40.3015248,35.4447686 39.5176264,35.9708904 C39.2202168,36.1705982 38.8872414,36.29603 38.5381163,36.3637522 C37.6253827,36.541068 36.7115604,36.5305091 35.8100772,36.3005812 C34.8164133,36.0471689 34.0945735,35.1702386 33.9893279,34.158592 C33.9684602,33.9572458 34.0328778,33.9002644 34.2117954,33.8904338 C34.7741336,33.8596675 35.3377421,33.8369114 35.8979028,33.7817505 C36.165009,33.7555354 36.1528513,33.939587 36.1993045,34.0912339 C36.4254011,34.8279864 37.052157,35.1762462 37.7899651,34.9725333 C38.1205815,34.8811447 38.3673643,34.6850779 38.4058334,34.3349976 C38.4457542,33.9721738 38.2147582,33.7553534 37.9035578,33.6162679 C37.5662274,33.4655313 37.2060333,33.393986 36.8498313,33.3073307 C36.2755169,33.167699 35.7099124,33.0002139 35.2025559,32.6854511 C33.8857154,31.868597 33.932713,30.049927 35.2871153,29.2964259 C35.9287507,28.9394277 36.6282712,28.8744362 37.3800515,28.8853592" id="Fill-12" fill="#FFFFFF"></path>
                    <path d="M46.6559108,31.1458258 C46.4991311,31.1552924 46.3410812,31.1554744 46.1855717,31.176228 C45.8531407,31.2201019 45.6239593,31.194797 45.4853254,30.786279 C45.3113072,30.2738109 44.4462971,30.0830235 43.9962813,30.3901402 C43.6457045,30.6293527 43.6783669,31.0471553 44.0734009,31.2248351 C44.4825887,31.4087047 44.9331488,31.4502119 45.3628413,31.5649028 C45.7936225,31.6797757 46.2229521,31.7966512 46.6321398,31.9752413 C47.4064209,32.3133064 47.9391815,32.8567228 48.0101316,33.7376582 C48.0863439,34.6815826 47.7156253,35.4279837 46.9324527,35.9586567 C46.5454029,36.2208073 46.106819,36.3553415 45.646823,36.4137793 C44.7415292,36.5290163 43.8387758,36.5271959 42.9670517,36.2231739 C41.9924409,35.8831063 41.5558531,35.1132209 41.3892746,34.1432635 C41.359697,33.9710451 41.4101423,33.9024126 41.5825274,33.8931281 C42.1579306,33.8619977 42.7336967,33.8319596 43.3076483,33.7835346 C43.544088,33.7636912 43.5471728,33.9244405 43.5901784,34.0722644 C43.8102869,34.8272218 44.4559143,35.1873148 45.2038841,34.9670355 C45.5299641,34.8709136 45.7725734,34.6722981 45.8008808,34.3149358 C45.8286439,33.966858 45.6074466,33.7613246 45.3151178,33.6233314 C44.9805093,33.4653128 44.6183192,33.3994111 44.2628431,33.3112993 C43.6382647,33.1565576 43.0207633,32.9806982 42.4818331,32.6091361 C41.3718547,31.8438019 41.3482651,30.2601572 42.4364686,29.4609619 C42.5834495,29.3530068 42.7411365,29.2455978 42.9104368,29.1853396 C44.1127773,28.7578884 45.3258238,28.7338579 46.5210875,29.1902549 C47.2636135,29.4738873 47.6072949,30.0981335 47.7553646,30.8505423 C47.7896602,31.0245812 47.729779,31.0910291 47.5581198,31.0957624 C47.257081,31.1039546 46.9564052,31.1234338 46.6555479,31.1379977 C46.6557293,31.1407285 46.6557293,31.1432772 46.6559108,31.1458258" id="Fill-14" fill="#FFFFFF"></path>
                    <path d="M33.5310558,38.5692765 C33.4506699,38.8785778 33.3762721,39.1896997 33.2877206,39.4966344 C33.2274766,39.7050805 33.2588688,39.962862 32.8866985,39.9530313 C32.5421099,39.9439289 32.571869,39.7132727 32.515617,39.5144752 C32.4317834,39.2175532 32.353575,38.9191748 32.1882668,38.6331757 C32.1882668,38.9805253 32.1753833,39.328421 32.1924403,39.6748604 C32.2049609,39.9273624 32.0714079,39.9415623 31.8774293,39.944475 C31.6758295,39.9473878 31.5645958,39.9173497 31.5711283,39.6706733 C31.587278,39.0669986 31.5811084,38.4625957 31.5734872,37.858739 C31.5711283,37.669226 31.6119563,37.5812963 31.8298873,37.5714656 C32.5341257,37.5392429 32.5343072,37.5288662 32.7027002,38.2290268 C32.737903,38.3755763 32.7667548,38.5237642 32.8150226,38.7476846 C33.0113602,38.4260039 33.1075329,38.1460124 33.184834,37.8561904 C33.3245566,37.3313429 33.7449947,37.6304495 34.0338758,37.591309 C34.3144098,37.5534428 34.2091642,37.8263343 34.212249,37.9692428 C34.2244067,38.5335949 34.2075311,39.0986751 34.2215034,39.6630272 C34.2274915,39.8985987 34.1311373,39.9470237 33.9202831,39.9455673 C33.713421,39.9441109 33.6054536,39.9049704 33.6170669,39.6646656 C33.6344868,39.3056649 33.6216033,38.9452078 33.6216033,38.5852968 C33.5914813,38.5800174 33.5611778,38.5745559 33.5310558,38.5692765" id="Fill-16" fill="#FFFFFF"></path>
                    <path d="M44.5997379,38.6502701 C44.5997379,38.4290805 44.5990121,38.2077089 44.5999194,37.9865193 C44.601371,37.6113162 44.8516016,37.4452874 45.1965532,37.5834627 C45.3511554,37.6455414 45.3066982,37.7757065 45.3076055,37.8840257 C45.3123234,38.4343599 45.3175857,38.9852404 45.3045207,39.5353926 C45.3012544,39.6706551 45.4097663,39.9060445 45.177863,39.922793 C44.9528551,39.9389954 44.6790351,40.0607862 44.4957625,39.7882587 C44.2814606,39.4694909 44.0600819,39.1552742 43.7514219,38.8678187 C43.7514219,39.0972005 43.7372682,39.3274926 43.7552325,39.555418 C43.7764631,39.8246686 43.7227516,39.9559259 43.4024782,39.9517388 C43.1068832,39.9479158 43.0217794,39.867086 43.0344815,39.5741691 C43.0577081,39.0376705 43.0352073,38.4995335 43.045369,37.9623067 C43.0477279,37.8341442 42.9593579,37.6173238 43.155151,37.5978445 C43.3808847,37.5752705 43.6534346,37.4614898 43.8361628,37.7327429 C44.0519163,38.0529672 44.2740209,38.3688223 44.4932221,38.6864979 C44.5287879,38.6743006 44.5641722,38.6622854 44.5997379,38.6502701" id="Fill-18" fill="#FFFFFF"></path>
                    <path d="M30.4643267,38.7624669 C30.4648697,38.3466669 30.3042794,38.1252953 29.9952565,38.1161928 C29.6815157,38.1070904 29.4933438,38.3574078 29.49661,38.7797616 C29.4996948,39.1868233 29.6709911,39.4192999 29.973663,39.426946 C30.2942992,39.4353202 30.463781,39.2057564 30.4643267,38.7624669 M29.9754776,37.5567512 C30.7791549,37.5551176 31.2001374,37.968551 31.1995936,38.7582798 C31.1992301,39.5541983 30.7735297,39.9883853 29.9950751,39.9871137 C29.2119025,39.9858366 28.7651529,39.5476445 28.7618684,38.777577 C28.7586204,37.9964045 29.1939381,37.5583945 29.9754776,37.5567512" id="Fill-20" fill="#FFFFFF"></path>
                    <path d="M41.5314651,38.283769 C41.4623296,38.4891203 41.4102512,38.6318468 41.3667013,38.7769398 C41.3422044,38.8586799 41.27942,38.9659068 41.3975491,39.0128754 C41.4753946,39.0438238 41.5815475,39.044552 41.6615705,39.0179728 C41.7847804,38.9771938 41.7285285,38.8663259 41.7043946,38.7851321 C41.6604817,38.6369441 41.6044112,38.4925792 41.5314651,38.283769 M42.8292525,39.9515203 C42.4485537,39.8859827 42.0740244,40.1184593 41.9132527,39.6121809 C41.857908,39.43796 41.1761704,39.5697635 41.0707433,39.7580022 C40.9874541,39.9065542 40.4702989,40.020699 40.3489035,39.9156567 C40.271421,39.8486626 40.3187815,39.7709277 40.3441856,39.7030234 C40.5875207,39.0512878 40.8366625,38.4017367 41.0781831,37.7492729 C41.1792552,37.4761994 41.4060777,37.5945312 41.5829992,37.582516 C41.7405047,37.5717751 41.9255918,37.5187988 42.0096069,37.7498191 C42.2689103,38.4636334 42.5387383,39.1738068 42.8292525,39.9515203" id="Fill-22" fill="#FFFFFF"></path>
                    <g id="Group-26" transform="translate(26.217431, 37.555996)">
                        <mask id="mask-4" fill="white">
                            <use xlink:href="#path-3"></use>
                        </mask>
                        <g id="Clip-25"></g>
                        <path d="M1.22113671,0.00121530687 C1.53868816,-0.00988968537 1.8562396,0.0512787965 2.07144876,0.344195723 C2.1532863,0.455427694 2.3432728,0.614356518 2.16489961,0.729775617 C2.0155597,0.826625714 1.76786957,0.964254798 1.59366992,0.775834028 C1.34815729,0.510406508 1.11407651,0.453243106 0.868200957,0.730685863 C0.656439506,0.96953422 0.706884821,1.64293367 0.940784145,1.78529603 C1.18901865,1.93639674 1.43507566,1.90399201 1.56989893,1.62618515 C1.74936086,1.25680763 1.98688934,1.51750187 2.15655255,1.58376773 C2.41531161,1.684987 2.21298597,1.87377187 2.13913258,1.99374219 C1.80742741,2.53278944 0.793440273,2.60105783 0.332174113,2.12682005 C0.00355372901,1.78893701 -0.103143557,1.09369167 0.111702679,0.611625782 C0.320923719,0.141939225 0.715231888,-0.0115281268 1.22113671,0.00121530687" id="Fill-24" fill="#FFFFFF" mask="url(#mask-4)"></path>
                    </g>
                    <path d="M35.4152972,38.286791 C35.4223741,38.44663 35.3917077,38.598459 35.5982068,38.5848053 C35.7598859,38.5740644 35.9262828,38.5478493 35.936263,38.3445005 C35.9462432,38.1415158 35.7952702,38.0947292 35.6250626,38.0807114 C35.4417901,38.0656014 35.4029581,38.1677309 35.4152972,38.286791 M34.660432,38.7555673 C34.6606135,38.4546402 34.6689606,38.153349 34.6577102,37.852786 C34.6502704,37.6548987 34.7116032,37.5655126 34.9226388,37.574433 C35.2614208,37.5884508 35.6016545,37.5678793 35.9398922,37.5871765 C36.4318248,37.6153941 36.6789705,37.8739037 36.6753413,38.3222905 C36.6717122,38.7604826 36.3964404,39.0899914 35.9360816,39.0541277 C35.4390682,39.0155333 35.3566863,39.2338102 35.4169303,39.6345001 C35.4668313,39.9672858 35.2492632,39.9367015 35.0309692,39.9439835 C34.7919891,39.9518116 34.6266809,39.9321503 34.6548069,39.6186618 C34.6805739,39.3332089 34.6602506,39.0433868 34.660432,38.7555673" id="Fill-27" fill="#FFFFFF"></path>
                    <path d="M46.727133,37.577364 C47.0016789,37.5769999 47.2769507,37.5911997 47.5502264,37.5728128 C47.8051748,37.5557002 47.8124331,37.6986087 47.8178769,37.889214 C47.823865,38.0998448 47.7687018,38.2249125 47.5351654,38.1832233 C47.1455751,38.1138626 47.0354301,38.2842605 47.0728105,38.6565508 C47.1052914,38.9809622 47.0586567,39.3130197 47.0851496,39.6385234 C47.1129127,39.9800474 46.9015141,39.9312583 46.6895712,39.9441838 C46.4464175,39.9591118 46.3297401,39.8979433 46.3475229,39.6235954 C46.3694794,39.2842559 46.3330063,38.9409114 46.3584104,38.6019361 C46.3821814,38.286081 46.2958074,38.1247855 45.9559367,38.1844976 C45.6503614,38.23802 45.5667093,38.0940192 45.5933836,37.8087484 C45.6086261,37.6452683 45.6554423,37.5715385 45.8252869,37.5757256 C46.1257813,37.5830075 46.4264572,37.5777281 46.727133,37.577364" id="Fill-29" fill="#FFFFFF"></path>
                    <path d="M37.0292933,38.760519 C37.0296562,38.4457562 37.0381847,38.1306293 37.0271158,37.8162306 C37.0160468,37.5014678 37.2406918,37.5837539 37.4067258,37.5797489 C37.5796553,37.5757438 37.7886949,37.5176701 37.7779889,37.8258792 C37.7638351,38.2320306 37.7856101,38.6392744 37.7714564,39.0454258 C37.7632908,39.2780845 37.8304302,39.3878601 38.0779389,39.3623732 C38.2332669,39.3465349 38.3916797,39.3638296 38.5484594,39.3585502 C38.75514,39.3518143 38.9166376,39.3368863 38.9146599,39.651103 C38.9126455,39.9638633 38.7516923,39.944202 38.5455561,39.9414712 C38.140179,39.9360098 37.7342575,39.9263612 37.3296062,39.9445661 C37.0806459,39.9558531 37.0115104,39.8599133 37.0251197,39.6259802 C37.0416324,39.3383427 37.0289303,39.0490668 37.0292933,38.760519" id="Fill-31" fill="#FFFFFF"></path>
                    <path d="M39.9933729,38.7586257 C39.9933729,39.0737526 39.9801265,39.3894257 39.997365,39.7034603 C40.0131518,39.9890953 39.8231653,39.9514111 39.6613048,39.9353908 C39.4959966,39.9190064 39.2365117,40.0562714 39.2390521,39.7063731 C39.24377,39.0763013 39.2473992,38.4460475 39.2376005,37.8159757 C39.2327011,37.5012129 39.4524467,37.579676 39.6181178,37.5811324 C39.7807042,37.5825888 40.0093412,37.4930207 39.9960948,37.8136091 C39.9832113,38.1281898 39.9933729,38.4434988 39.9933729,38.7586257" id="Fill-33" fill="#FFFFFF"></path>
                    <path d="M105.577382,22.4137884 C105.519316,22.4991694 105.540002,22.5678019 105.540002,22.6317011 C105.53855,24.1168573 105.538913,25.6020135 105.538913,27.0871696 C105.538913,27.1177539 105.542361,27.1487022 105.538006,27.1787403 C105.530748,27.229532 105.567946,27.3018055 105.504073,27.3258359 C105.454717,27.3444049 105.423869,27.2817801 105.390662,27.2488292 C104.878043,26.743461 104.365787,26.2375467 103.854076,25.7310862 C102.778756,24.6668275 101.70398,23.6016585 100.627753,22.5381279 C100.587288,22.4982592 100.558799,22.4359984 100.484764,22.4343599 C100.442485,22.4960746 100.463171,22.5650712 100.463171,22.6289704 C100.461901,24.5479494 100.463534,26.4671106 100.45936,28.3860896 C100.458997,28.5260854 100.498737,28.6247559 100.600535,28.7212419 C101.260679,29.3462163 101.914835,29.9771984 102.571712,30.6052676 C102.622521,30.6536926 102.664619,30.7166816 102.762062,30.7368891 L102.762062,27.6112889 C104.364336,29.2943324 105.930318,30.9389635 107.53604,32.625648 L107.53604,27.6094684 C107.830909,27.8914624 108.085313,28.1321312 108.336995,28.3757128 C109.760896,29.7552806 111.184434,31.1352124 112.607427,32.5156904 C112.645533,32.5528284 112.716665,32.5892382 112.697793,32.6427606 C112.672389,32.7137597 112.590914,32.677532 112.535388,32.677532 C109.641678,32.6793525 106.747786,32.6786243 103.854076,32.6808088 C103.736673,32.6808088 103.648121,32.6485862 103.561747,32.5650256 C101.882717,30.9406019 100.192798,29.3269191 98.5262885,27.6893879 C98.2036562,27.3722585 97.8897339,27.214786 97.4293751,27.2404549 C96.706628,27.2808698 95.9800703,27.2506497 95.2551457,27.2524702 C95.2039745,27.2524702 95.1306655,27.2229782 95.1056243,27.2801416 C95.0780427,27.3427665 95.1560696,27.3675252 95.1925427,27.4026606 C96.5895876,28.7485493 97.9873583,30.0935277 99.3856734,31.438142 C99.741694,31.7805763 100.098985,32.1219183 100.457727,32.4616218 C100.505995,32.5073161 100.566602,32.5397208 100.599809,32.5630231 C100.576764,32.6536835 100.542468,32.6456734 100.514342,32.6456734 C99.8260719,32.647858 99.13508,32.6882729 98.4497132,32.6433067 C96.5128309,32.5166006 95.0375776,31.6376678 94.1872655,29.8453948 C93.7383385,28.899468 93.6535976,27.8854547 93.7797109,26.8530546 C93.904554,25.8301209 94.2867045,24.9198757 94.996931,24.1647362 C95.5433009,23.5836356 96.1905615,23.165833 96.9791778,22.9905198 C97.2009195,22.9413666 97.382196,22.9755918 97.5660129,23.1316078 C98.2219835,23.6872215 98.8917449,24.2264508 99.5573327,24.7704134 C99.5959832,24.8019079 99.6313675,24.869084 99.6919745,24.8326742 C99.7382463,24.8050027 99.715927,24.7425599 99.7161084,24.6955912 C99.7188303,23.9805025 99.7171972,23.2655959 99.7240926,22.5505072 C99.7253628,22.4167012 99.6890712,22.3700966 99.54953,22.3711889 C98.6602045,22.3775606 97.7694273,22.3440636 96.8815535,22.3832042 C95.283816,22.4538392 93.857012,22.9947069 92.6759021,24.0984703 C91.9204926,24.8046386 91.4728357,25.6903073 91.3178706,26.7146973 C91.143671,27.8648832 91.257808,28.9824823 91.7675235,30.0398232 C92.3396605,31.2271472 93.3013877,31.9899327 94.4814089,32.5076802 C94.5857472,32.5533745 94.6908114,32.5972483 94.7909762,32.6789884 C94.7343613,32.6789884 94.6779279,32.6789884 94.6214944,32.6789884 C91.8495425,32.6789884 89.077772,32.677532 86.30582,32.6828114 C86.135431,32.6831755 86.0800859,32.6487682 86.0800859,32.4656269 C86.0851671,25.7367298 86.0848042,19.0076506 86.0809936,12.2787535 C86.0809936,12.124558 86.1087567,12.0741299 86.2771497,12.0741299 C95.0375776,12.0788636 103.798005,12.0786816 112.558433,12.0750406 C112.709043,12.0750406 112.749872,12.1121786 112.749872,12.2654639 C112.745879,17.9981886 112.746605,23.7309133 112.745517,29.463638 C112.745517,29.5149758 112.764388,29.5715931 112.713761,29.634582 C110.334847,27.2275295 107.959381,24.8239358 105.577382,22.4137884" id="Fill-35" fill="#FFFFFF"></path>
                    <path d="M89.764046,37.8481438 C89.8616704,37.5981904 89.9509477,37.3726317 90.0380476,37.1459806 C90.3815475,36.2519377 90.7264991,35.3584409 91.0652811,34.4625775 C91.1088311,34.3469764 91.1658089,34.304559 91.2906519,34.3054429 C92.04588,34.3111127 92.8011081,34.3111127 93.5565176,34.3056513 C93.6891634,34.304559 93.7352537,34.3375098 93.7348929,34.4785979 C93.7303543,36.2016921 93.7305358,37.9249685 93.7347093,39.6480628 C93.7350723,39.7922456 93.6927925,39.8397604 93.5476262,39.8379399 C93.0177689,39.830658 92.4877302,39.830658 91.9578729,39.8379399 C91.8197834,39.8399425 91.782766,39.7960687 91.7833103,39.6602601 C91.7885726,38.65808 91.7862137,37.6559 91.7862137,36.653902 L91.7862137,36.4307099 C91.6958476,36.4822297 91.6902224,36.5590544 91.6679031,36.6193127 C91.2959142,37.6265901 90.9235625,38.6336854 90.5601022,39.6440577 C90.5082052,39.7878764 90.4426988,39.8437655 90.2870079,39.8388502 C89.9097568,39.827199 89.5317798,39.8297477 89.1543473,39.8379399 C89.0191611,39.8408527 88.9491183,39.8020763 88.9010319,39.667542 C88.5493664,38.6853874 88.1893538,37.7061455 87.8313372,36.7261755 C87.8023039,36.6468021 87.7681898,36.5694312 87.7273618,36.4680299 C87.6740131,36.5452187 87.6919775,36.6113025 87.6919775,36.6710146 C87.6905258,37.6548077 87.6868967,38.6386008 87.6946993,39.6223939 C87.6959696,39.7926097 87.646613,39.841945 87.4784014,39.8386681 C86.9670529,39.8286554 86.45516,39.8312041 85.9436299,39.8375758 C85.8075365,39.8392143 85.7516474,39.8113608 85.7521878,39.6571652 C85.7576355,37.9338889 85.7574541,36.2107946 85.7521878,34.4875183 C85.7518289,34.3367816 85.8017298,34.3043769 85.9410895,34.3054429 C86.6964991,34.3114768 87.4517271,34.3107486 88.2069552,34.3056513 C88.324177,34.304741 88.3766184,34.3442457 88.4179908,34.453293 C88.8177427,35.5022597 89.2233013,36.5488597 89.6274082,37.5961879 C89.6575302,37.6739228 89.6724098,37.7594859 89.764046,37.8481438" id="Fill-37" fill="#FFFFFF"></path>
                    <g id="Group-41" transform="translate(77.994428, 34.053527)">
                        <mask id="mask-6" fill="white">
                            <use xlink:href="#path-5"></use>
                        </mask>
                        <g id="Clip-40"></g>
                        <path d="M5.46400806,5.18161241 C5.01381083,5.56282313 4.53512471,5.78328454 4.00363431,5.86921169 C3.09580009,6.01594323 2.20284542,5.98080776 1.37521562,5.52495693 C0.517645249,5.05272169 0.0598267907,4.31615122 0.0133735503,3.33272223 C-0.000598713395,3.03525408 -0.0189259684,2.73268855 0.0476691067,2.44068187 C0.234026442,1.62273548 0.684223666,0.991571408 1.40951117,0.562663839 C1.95043738,0.242985702 2.54289765,0.099531048 3.16003621,0.0341754379 C3.91925636,-0.0461081945 4.66777049,0.0146961892 5.40158652,0.220411619 C6.02689068,0.395724857 6.54350152,0.7336079 6.8821021,1.30578807 C7.00240873,1.50913687 6.99623916,1.51860342 6.7650617,1.54500053 C6.23937796,1.60471262 5.71296839,1.65750684 5.1871032,1.71558049 C5.08330924,1.72723163 5.0061896,1.69828583 4.9241706,1.62819695 C4.3879623,1.16997948 3.76556146,1.17653325 3.14678978,1.36932319 C2.53110289,1.5612029 2.1774413,2.02797667 2.06185258,2.65914073 C1.95007447,3.26900506 2.05042072,3.82825975 2.5314658,4.26845436 C2.8764174,4.58394537 3.30302509,4.68225186 3.74886732,4.67588015 C4.25549798,4.66878023 4.72093767,4.52259484 5.08512382,4.14010978 C5.15280764,4.06874655 5.20742649,3.98864497 5.2531539,3.90162552 C5.31521252,3.78365774 5.30015151,3.7241277 5.1473639,3.72667638 C4.78208901,3.732684 4.4164512,3.7233995 4.0511763,3.73122761 C3.92234114,3.73395834 3.88387205,3.69263321 3.88695684,3.56538092 C3.89494099,3.24770532 3.89512245,2.92984768 3.88695684,2.61235413 C3.8836906,2.48819667 3.92760342,2.45779448 4.0442809,2.45815858 C5.03086788,2.46198161 6.01745487,2.46198161 7.00422331,2.45815858 C7.12961077,2.45761243 7.17443089,2.49511454 7.1738914,2.62509756 C7.16971298,3.62108793 7.16989444,4.61689625 7.17370505,5.61288662 C7.17424943,5.73904662 7.13632471,5.78546912 7.00712664,5.78383068 C6.54440881,5.77800511 6.08132807,5.77818716 5.61861025,5.78364863 C5.50084403,5.78510503 5.45330204,5.7512439 5.46183056,5.62854284 C5.47126638,5.49601113 5.46400806,5.36256917 5.46400806,5.18161241" id="Fill-39" fill="#FFFFFF" mask="url(#mask-6)"></path>
                    </g>
                    <path d="M101.9322,37.5215114 C102.431391,37.5215114 102.930763,37.5162319 103.429773,37.5246062 C103.588549,37.5271549 103.60742,37.4690812 103.554797,37.3421931 C103.477315,37.1555928 103.393118,36.9751822 103.249766,36.826084 C102.700312,36.25445 101.717172,36.0947929 101.021281,36.4769139 C100.671067,36.6691577 100.434628,36.9613464 100.306518,37.3443776 C100.260609,37.4812785 100.280751,37.5269728 100.434628,37.5244242 C100.933637,37.516596 101.433009,37.5215114 101.9322,37.5215114 M102.237412,37.9587932 C101.646767,37.9587932 101.056121,37.9586111 100.465475,37.9589752 C100.251899,37.9591573 100.237746,37.9780904 100.285106,38.191998 C100.390715,38.6687845 100.664716,39.0126752 101.09078,39.2460621 C101.846733,39.6600416 102.908807,39.5069383 103.507618,38.8881536 C103.579476,38.8140596 103.65714,38.7370529 103.701234,38.6463925 C103.786882,38.470351 103.879063,38.485097 103.998462,38.603975 C104.028221,38.633649 104.065783,38.6574975 104.103526,38.6764306 C104.208953,38.7292248 104.222744,38.7832934 104.147076,38.8865152 C103.693068,39.5051179 103.079559,39.8291652 102.326327,39.9109052 C101.724975,39.9762608 101.16427,39.8635724 100.648566,39.5435302 C99.5618147,38.8690385 99.3774534,37.2584505 100.293453,36.4086455 C100.635502,36.0915161 101.05848,35.9225745 101.511036,35.8681419 C102.349735,35.7672867 103.110225,35.9478794 103.707041,36.5987047 C104.010801,36.930034 104.15996,37.3294496 104.215849,37.7707365 C104.23345,37.9083656 104.201514,37.9648008 104.046004,37.9624342 C103.443201,37.9535138 102.840216,37.9587932 102.237412,37.9587932" id="Fill-42" fill="#FFFFFF"></path>
                    <path d="M113.593941,37.5215296 C114.093314,37.5215296 114.592868,37.5175245 115.09224,37.5240783 C115.243939,37.5260808 115.273153,37.4769276 115.222708,37.3407549 C115.151577,37.1496034 115.061573,36.9741081 114.917677,36.8257381 C114.384009,36.2746756 113.440246,36.1028213 112.752884,36.4434351 C112.388153,36.6242098 112.131753,36.9094807 111.997293,37.2976092 C111.927976,37.4978632 111.94594,37.5211655 112.150443,37.5213475 C112.631488,37.5218937 113.112715,37.5215296 113.593941,37.5215296 M113.907682,37.9588114 C113.304879,37.9588114 112.702075,37.9617242 112.099454,37.9566268 C111.963179,37.9555345 111.919629,37.9841162 111.948118,38.1341246 C112.079312,38.8279136 112.574873,39.3118 113.346977,39.4354113 C114.206906,39.5732224 114.923665,39.3261818 115.421768,38.5724988 C115.466769,38.5042304 115.495984,38.4800178 115.576914,38.5322659 C115.932935,38.7621939 115.927128,38.7720245 115.646231,39.0980744 C114.741845,40.1479513 112.874823,40.2089377 111.939408,39.2331548 C111.236984,38.5005894 111.181821,37.2895991 111.84886,36.5260854 C112.210324,36.112652 112.703527,35.9189518 113.23538,35.8612422 C113.977362,35.7807765 114.665269,35.930785 115.23668,36.4539939 C115.63371,36.8175459 115.833496,37.2750352 115.886663,37.8057081 C115.899183,37.931504 115.851641,37.9617242 115.734057,37.960996 C115.125265,37.9564448 114.516474,37.9588114 113.907682,37.9588114" id="Fill-44" fill="#FFFFFF"></path>
                    <path d="M97.2420016,35.8507926 C97.6771378,35.8480619 98.1037455,35.9021304 98.5200101,36.0313853 C98.8342953,36.1291456 99.0823483,36.31611 99.2636248,36.5911861 C99.3639711,36.7433791 99.3514505,36.7705044 99.1674521,36.8125577 C99.0963206,36.8287601 99.0242818,36.8405933 98.9533317,36.85807 C98.8489934,36.8837389 98.7715108,36.8684468 98.7076376,36.7641327 C98.6103761,36.6053859 98.4445235,36.5247382 98.2757676,36.4743106 C97.6453826,36.2860719 97.0079208,36.2580363 96.3677371,36.4273419 C96.2062395,36.4701235 96.0616175,36.5489507 95.9463917,36.6721979 C95.6930763,36.943269 95.7858014,37.3321257 96.1338377,37.4531884 C96.2902545,37.507621 96.4555627,37.5163594 96.6196007,37.5272823 C97.2020808,37.5666049 97.7876457,37.5615075 98.3663152,37.6505295 C98.6840481,37.6993187 98.9888974,37.7854279 99.2106391,38.0397504 C99.5907935,38.4757579 99.493895,39.1671802 99.0103095,39.5283655 C98.7069118,39.7550166 98.3545204,39.8524128 97.9905157,39.8962867 C97.3510578,39.9731114 96.7139589,39.9476245 96.0926468,39.7608422 C95.6896286,39.6395975 95.347036,39.4318795 95.1543276,39.0324639 C95.1044267,38.92906 95.0989829,38.8560584 95.2410645,38.8478662 C95.2470526,38.8475021 95.2535851,38.8469559 95.2590289,38.8447713 C95.4947428,38.7482853 95.668761,38.747011 95.8458639,39.0037001 C96.040024,39.28533 96.3935041,39.3505036 96.7212172,39.4025696 C97.1997219,39.4784841 97.6793153,39.4824892 98.1536464,39.3679803 C98.4104094,39.3059016 98.6591883,39.2196103 98.815968,38.9836748 C99.0135757,38.6863886 98.8939949,38.3435903 98.5532169,38.2390941 C98.3311123,38.1710078 98.0988461,38.1600848 97.8680316,38.145703 C97.3398074,38.1127521 96.8112203,38.0841704 96.283722,38.0424811 C95.9380446,38.0151738 95.6257554,37.8968419 95.4196192,37.5980994 C95.0806557,37.106749 95.2764488,36.4078627 95.8387871,36.1162201 C96.2775525,35.8888408 96.758779,35.8569823 97.2420016,35.8507926" id="Fill-46" fill="#FFFFFF"></path>
                    <path d="M106.792842,39.9178753 C106.166268,39.9158387 105.587598,39.7738405 105.099658,39.3520328 C104.730391,39.0329008 104.528428,38.6251109 104.479979,38.1455937 C104.339893,36.7554672 105.268958,36.053304 106.323773,35.8572371 C107.029826,35.7259798 107.70612,35.8341169 108.329428,36.2073175 C108.632645,36.3890024 108.873439,36.6367712 109.06016,36.9371521 C109.083931,36.9752004 109.140545,37.0261741 109.073587,37.0594891 C108.937675,37.1268472 108.795775,37.1832824 108.652968,37.2344382 C108.586917,37.2581046 108.560061,37.1932951 108.53121,37.1472367 C107.895744,36.1357722 106.673261,36.1246672 105.939627,36.4490786 C105.352792,36.7086806 105.01528,37.3094424 105.054112,38.0014109 C105.089133,38.6251109 105.507213,39.1608813 106.149755,39.3422022 C106.935105,39.5637559 107.669103,39.463993 108.297855,38.8956358 C108.440299,38.7669271 108.536472,38.6012625 108.618128,38.4308646 C108.671658,38.3194506 108.730813,38.3021559 108.828256,38.3642346 C108.84858,38.3771601 108.872169,38.3851703 108.89467,38.3948189 C109.215669,38.5335403 109.210588,38.5300813 109.004815,38.8279136 C108.468244,39.6041707 107.710475,39.9216643 106.792842,39.9178753" id="Fill-48" fill="#FFFFFF"></path>
                    <path d="M118.457088,39.9181418 C117.796581,39.9150377 117.188515,39.7604781 116.700393,39.2842377 C115.862964,38.4670195 115.954238,37.0372063 116.88421,36.3281252 C117.924871,35.5345734 119.62114,35.6651026 120.481796,36.6050218 C120.506474,36.6319651 120.530789,36.6594545 120.553653,36.6880362 C120.829651,37.0330191 120.827836,37.0290141 120.434979,37.2021427 C120.315762,37.2547549 120.252433,37.2321808 120.183297,37.1234975 C119.900586,36.6782055 119.496116,36.3956654 118.978416,36.308646 C118.358556,36.204696 117.752486,36.2503903 117.253477,36.6854875 C116.755738,37.1193104 116.609301,37.6862111 116.783864,38.3146445 C116.963144,38.9605545 117.442193,39.2858762 118.0753,39.407667 C118.458721,39.4813969 118.837423,39.4531793 119.211227,39.3390345 C119.696264,39.1908466 120.065531,38.9046655 120.282192,38.4388019 C120.330823,38.3344878 120.38272,38.2920704 120.488328,38.3614311 C120.513369,38.3779976 120.543491,38.3872821 120.571617,38.3985691 C120.875741,38.5210881 120.874471,38.5201779 120.699908,38.7865156 C120.168781,39.5964519 119.395407,39.9201351 118.457088,39.9181418" id="Fill-50" fill="#FFFFFF"></path>
                    <path d="M109.758174,37.7412082 C109.758174,37.3439771 109.753819,36.9465641 109.760714,36.5495151 C109.762892,36.4211705 109.721882,36.3743839 109.593954,36.3825761 C109.454413,36.3916785 109.313239,36.3762044 109.173879,36.3867632 C109.008753,36.3991425 109.016737,36.2942823 109.022906,36.1865093 C109.028713,36.085472 108.978812,35.9505737 109.166984,35.9605864 C109.300537,35.9678683 109.435723,35.9523942 109.568732,35.9644094 C109.726782,35.9786092 109.765795,35.9116152 109.761077,35.7641555 C109.75146,35.4650489 109.772509,35.1643038 109.752912,34.8661075 C109.740754,34.6800533 109.829487,34.6086901 109.975379,34.5422422 C110.289301,34.3987876 110.286942,34.3936902 110.286942,34.7364885 C110.286942,35.0849304 110.294019,35.4335544 110.283495,35.7814501 C110.278958,35.9314585 110.331763,35.970235 110.472211,35.9645915 C110.721534,35.9549429 110.971946,35.9700529 111.22127,35.959312 C111.398554,35.951666 111.378957,36.0623518 111.379319,36.174494 C111.379682,36.2877285 111.396195,36.3953195 111.219636,36.3874914 C110.958155,36.3760223 110.695767,36.3885837 110.433923,36.3827581 C110.325412,36.3803915 110.284039,36.4131603 110.284946,36.5276692 C110.290753,37.2487655 110.288031,37.9700438 110.294745,38.6911401 C110.295834,38.8054669 110.319605,38.9225245 110.351179,39.0330282 C110.427391,39.3011865 110.587437,39.4275285 110.865068,39.4504667 C110.949808,39.4573846 111.035457,39.4552 111.120742,39.4544718 C111.375146,39.4521052 111.439019,39.5374862 111.377686,39.7898062 C111.361355,39.8571643 111.315265,39.8824691 111.261553,39.8881127 C110.94001,39.9216097 110.617559,39.9558349 110.307266,39.8240314 C109.913683,39.6569104 109.799546,39.3150222 109.783397,38.931991 C109.766702,38.5356702 109.779767,38.1382572 109.779767,37.7412082 C109.772509,37.7412082 109.765432,37.7412082 109.758174,37.7412082" id="Fill-52" fill="#FFFFFF"></path>
                    <path d="M80.1126777,3.57864747 L81.0232338,3.91216133 C80.8811522,4.51292321 80.6447124,4.95184347 80.314096,5.22910418 C79.9834796,5.50618284 79.5766508,5.64490422 79.0936097,5.64490422 C78.4866328,5.64490422 77.9945188,5.42389667 77.6174491,4.98188157 C77.1834017,4.47141602 76.9663779,3.78272446 76.9663779,2.91562482 C76.9663779,1.99973603 77.1848533,1.28300891 77.6218041,0.765079351 C78.0019586,0.315782288 78.5125813,0.091133756 79.1538538,0.091133756 C79.6760898,0.091133756 80.1130406,0.259711179 80.4647061,0.596683976 C80.715481,0.836078481 80.8991165,1.19143823 81.0154311,1.66276323 L80.085459,1.9190883 C80.0259408,1.62853801 79.9076302,1.40570997 79.7303457,1.25060418 C79.5530613,1.09549838 79.3442032,1.01794549 79.1034084,1.01794549 C78.7593641,1.01794549 78.4784672,1.15957965 78.2610805,1.44284798 C78.0438753,1.72629835 77.935182,2.19398237 77.935182,2.84608208 C77.935182,3.52257636 78.040972,4.00354996 78.2527335,4.28936697 C78.4644949,4.57518398 78.7397667,4.71809249 79.0781858,4.71809249 C79.3260574,4.71809249 79.5405407,4.62706796 79.7212728,4.44501891 C79.902005,4.26315191 80.0326547,3.97424006 80.1126777,3.57864747" id="Fill-54" fill="#FFFFFF"></path>
                    <path d="M80.1126777,3.57864747 L81.0232338,3.91216133 C80.8811522,4.51292321 80.6447124,4.95184347 80.314096,5.22910418 C79.9834796,5.50618284 79.5766508,5.64490422 79.0936097,5.64490422 C78.4866328,5.64490422 77.9945188,5.42389667 77.6174491,4.98188157 C77.1834017,4.47141602 76.9663779,3.78272446 76.9663779,2.91562482 C76.9663779,1.99973603 77.1848533,1.28300891 77.6218041,0.765079351 C78.0019586,0.315782288 78.5125813,0.091133756 79.1538538,0.091133756 C79.6760898,0.091133756 80.1130406,0.259711179 80.4647061,0.596683976 C80.715481,0.836078481 80.8991165,1.19143823 81.0154311,1.66276323 L80.085459,1.9190883 C80.0259408,1.62853801 79.9076302,1.40570997 79.7303457,1.25060418 C79.5530613,1.09549838 79.3442032,1.01794549 79.1034084,1.01794549 C78.7593641,1.01794549 78.4784672,1.15957965 78.2610805,1.44284798 C78.0438753,1.72629835 77.935182,2.19398237 77.935182,2.84608208 C77.935182,3.52257636 78.040972,4.00354996 78.2527335,4.28936697 C78.4644949,4.57518398 78.7397667,4.71809249 79.0781858,4.71809249 C79.3260574,4.71809249 79.5405407,4.62706796 79.7212728,4.44501891 C79.902005,4.26315191 80.0326547,3.97424006 80.1126777,3.57864747 Z" id="Stroke-56" stroke="#FFFFFF" stroke-width="0.5"></path>
                    <polygon id="Fill-58" fill="#FFFFFF" points="81.8290705 5.55327893 81.8290705 0.182649815 85.285119 0.182649815 85.285119 1.09125664 82.7666638 1.09125664 82.7666638 2.28185745 85.1069272 2.28185745 85.1069272 3.18664124 82.7666638 3.18664124 82.7666638 4.64467211 85.3705857 4.64467211 85.3705857 5.55327893"></polygon>
                    <polygon id="Stroke-60" stroke="#FFFFFF" stroke-width="0.5" points="81.8290705 5.55327893 81.8290705 0.182649815 85.285119 0.182649815 85.285119 1.09125664 82.7666638 1.09125664 82.7666638 2.28185745 85.1069272 2.28185745 85.1069272 3.18664124 82.7666638 3.18664124 82.7666638 4.64467211 85.3705857 4.64467211 85.3705857 5.55327893"></polygon>
                    <path d="M87.1064126,2.45400303 L87.8037556,2.45400303 C88.2300004,2.45400303 88.50128,2.43634427 88.6175946,2.40084471 C88.7337277,2.36552719 88.8279044,2.29416396 88.9003061,2.18657297 C88.9727078,2.07916403 89.008818,1.93625552 89.008818,1.7580295 C89.008818,1.58708544 88.9727078,1.44963841 88.9003061,1.34587044 C88.8279044,1.24210248 88.7299171,1.17055721 88.6057998,1.13141666 C88.5179742,1.10465545 88.2635701,1.09118382 87.8425876,1.09118382 L87.1064126,1.09118382 L87.1064126,2.45400303 Z M86.1688193,5.55320611 L86.1688193,0.182576995 L88.1487072,0.182576995 C88.6549749,0.182576995 89.0166207,0.231002044 89.2336444,0.327305993 C89.4504867,0.42397404 89.6286784,0.59127712 89.7682196,0.829215232 C89.9077607,1.06733539 89.9774406,1.35260626 89.9774406,1.68466373 C89.9774406,2.10483295 89.8709248,2.44289804 89.6578931,2.69940515 C89.44468,2.95591227 89.1418267,3.11720773 88.7491516,3.18292744 C88.9507514,3.31982833 89.1173298,3.46947265 89.2490683,3.6318604 C89.3808068,3.79424816 89.5602687,4.08552665 89.7876356,4.50551381 L90.3534215,5.55320611 L89.2314669,5.55320611 L88.550818,4.38463324 C88.3058498,3.96209739 88.1396343,3.69776216 88.0518086,3.59162756 C87.963983,3.48531092 87.870895,3.41194515 87.7727263,3.37171231 C87.6745575,3.33147947 87.517052,3.31127202 87.3000283,3.31127202 L87.1064126,3.31127202 L87.1064126,5.55320611 L86.1688193,5.55320611 Z" id="Fill-62" fill="#FFFFFF"></path>
                    <path d="M87.1064126,2.45400303 L87.8037556,2.45400303 C88.2300004,2.45400303 88.50128,2.43634427 88.6175946,2.40084471 C88.7337277,2.36552719 88.8279044,2.29416396 88.9003061,2.18657297 C88.9727078,2.07916403 89.008818,1.93625552 89.008818,1.7580295 C89.008818,1.58708544 88.9727078,1.44963841 88.9003061,1.34587044 C88.8279044,1.24210248 88.7299171,1.17055721 88.6057998,1.13141666 C88.5179742,1.10465545 88.2635701,1.09118382 87.8425876,1.09118382 L87.1064126,1.09118382 L87.1064126,2.45400303 Z M86.1688193,5.55320611 L86.1688193,0.182576995 L88.1487072,0.182576995 C88.6549749,0.182576995 89.0166207,0.231002044 89.2336444,0.327305993 C89.4504867,0.42397404 89.6286784,0.59127712 89.7682196,0.829215232 C89.9077607,1.06733539 89.9774406,1.35260626 89.9774406,1.68466373 C89.9774406,2.10483295 89.8709248,2.44289804 89.6578931,2.69940515 C89.44468,2.95591227 89.1418267,3.11720773 88.7491516,3.18292744 C88.9507514,3.31982833 89.1173298,3.46947265 89.2490683,3.6318604 C89.3808068,3.79424816 89.5602687,4.08552665 89.7876356,4.50551381 L90.3534215,5.55320611 L89.2314669,5.55320611 L88.550818,4.38463324 C88.3058498,3.96209739 88.1396343,3.69776216 88.0518086,3.59162756 C87.963983,3.48531092 87.870895,3.41194515 87.7727263,3.37171231 C87.6745575,3.33147947 87.517052,3.31127202 87.3000283,3.31127202 L87.1064126,3.31127202 L87.1064126,5.55320611 L86.1688193,5.55320611 Z" id="Stroke-64" stroke="#FFFFFF" stroke-width="0.5"></path>
                    <polygon id="Fill-66" fill="#FFFFFF" points="91.9108934 5.55327893 91.9108934 1.09125664 90.5276393 1.09125664 90.5276393 0.182649815 94.2279302 0.182649815 94.2279302 1.09125664 92.8484868 1.09125664 92.8484868 5.55327893"></polygon>
                    <polygon id="Stroke-68" stroke="#FFFFFF" stroke-width="0.5" points="91.9108934 5.55327893 91.9108934 1.09125664 90.5276393 1.09125664 90.5276393 0.182649815 94.2279302 0.182649815 94.2279302 1.09125664 92.8484868 1.09125664 92.8484868 5.55327893"></polygon>
                    <mask id="mask-8" fill="white">
                        <use xlink:href="#path-7"></use>
                    </mask>
                    <g id="Clip-71"></g>
                    <polygon id="Fill-70" fill="#FFFFFF" mask="url(#mask-8)" points="94.8090675 5.55322432 95.7466609 5.55322432 95.7466609 0.1825952 94.8090675 0.1825952"></polygon>
                    <polygon id="Stroke-72" stroke="#FFFFFF" stroke-width="0.5" mask="url(#mask-8)" points="94.8090675 5.55322432 95.7466609 5.55322432 95.7466609 0.1825952 94.8090675 0.1825952"></polygon>
                    <polygon id="Fill-73" fill="#FFFFFF" mask="url(#mask-8)" points="96.6534426 5.55327893 96.6534426 0.182649815 99.8461956 0.182649815 99.8461956 1.09125664 97.591036 1.09125664 97.591036 2.36250518 99.5438867 2.36250518 99.5438867 3.27092995 97.591036 3.27092995 97.591036 5.55327893"></polygon>
                    <polygon id="Stroke-74" stroke="#FFFFFF" stroke-width="0.5" mask="url(#mask-8)" points="96.6534426 5.55327893 96.6534426 0.182649815 99.8461956 0.182649815 99.8461956 1.09125664 97.591036 1.09125664 97.591036 2.36250518 99.5438867 2.36250518 99.5438867 3.27092995 97.591036 3.27092995 97.591036 5.55327893"></polygon>
                    <polygon id="Fill-75" fill="#FFFFFF" mask="url(#mask-8)" points="100.593948 5.55322432 101.531541 5.55322432 101.531541 0.1825952 100.593948 0.1825952"></polygon>
                    <polygon id="Stroke-76" stroke="#FFFFFF" stroke-width="0.5" mask="url(#mask-8)" points="100.593948 5.55322432 101.531541 5.55322432 101.531541 0.1825952 100.593948 0.1825952"></polygon>
                    <polygon id="Fill-77" fill="#FFFFFF" mask="url(#mask-8)" points="102.434494 5.55327893 102.434494 0.182649815 105.890542 0.182649815 105.890542 1.09125664 103.372087 1.09125664 103.372087 2.28185745 105.712351 2.28185745 105.712351 3.18664124 103.372087 3.18664124 103.372087 4.64467211 105.975828 4.64467211 105.975828 5.55327893"></polygon>
                    <polygon id="Stroke-78" stroke="#FFFFFF" stroke-width="0.5" mask="url(#mask-8)" points="102.434494 5.55327893 102.434494 0.182649815 105.890542 0.182649815 105.890542 1.09125664 103.372087 1.09125664 103.372087 2.28185745 105.712351 2.28185745 105.712351 3.18664124 103.372087 3.18664124 103.372087 4.64467211 105.975828 4.64467211 105.975828 5.55327893"></polygon>
                    <path d="M107.703852,1.09122023 L107.703852,4.64481775 L108.409179,4.64481775 C108.711307,4.64481775 108.930145,4.61805654 109.065875,4.56435206 C109.201425,4.51064759 109.312477,4.42945372 109.399032,4.32095248 C109.485406,4.21245124 109.557264,4.04096104 109.61406,3.80666391 C109.670856,3.57236677 109.699164,3.26397568 109.699164,2.88076242 C109.699164,2.48316729 109.670131,2.16967882 109.612064,1.94029701 C109.553816,1.71091521 109.46345,1.53050459 109.340784,1.39870108 C109.2183,1.26689757 109.06896,1.18024222 108.893309,1.13873503 C108.761752,1.1070585 108.507348,1.09122023 108.130278,1.09122023 L107.703852,1.09122023 Z M106.766077,0.182613405 L108.481036,0.182613405 C108.91454,0.182613405 109.241708,0.228489767 109.461998,0.32006044 C109.682833,0.411631114 109.885884,0.56619076 110.071878,0.78355733 C110.257691,1.0009239 110.403402,1.28291788 110.509192,1.62972133 C110.614982,1.97652477 110.667968,2.40761693 110.667968,2.9229978 C110.667968,3.38704084 110.612442,3.79064359 110.501571,4.133624 C110.390519,4.47696852 110.249889,4.74858571 110.0795,4.94883966 C109.909292,5.14909362 109.703519,5.30001229 109.46218,5.40123156 C109.220841,5.50263288 108.910547,5.55324252 108.531482,5.55324252 L106.766077,5.55324252 L106.766077,0.182613405 Z" id="Fill-79" fill="#FFFFFF" mask="url(#mask-8)"></path>
                    <path d="M107.703852,1.09122023 L107.703852,4.64481775 L108.409179,4.64481775 C108.711307,4.64481775 108.930145,4.61805654 109.065875,4.56435206 C109.201425,4.51064759 109.312477,4.42945372 109.399032,4.32095248 C109.485406,4.21245124 109.557264,4.04096104 109.61406,3.80666391 C109.670856,3.57236677 109.699164,3.26397568 109.699164,2.88076242 C109.699164,2.48316729 109.670131,2.16967882 109.612064,1.94029701 C109.553816,1.71091521 109.46345,1.53050459 109.340784,1.39870108 C109.2183,1.26689757 109.06896,1.18024222 108.893309,1.13873503 C108.761752,1.1070585 108.507348,1.09122023 108.130278,1.09122023 L107.703852,1.09122023 Z M106.766077,0.182613405 L108.481036,0.182613405 C108.91454,0.182613405 109.241708,0.228489767 109.461998,0.32006044 C109.682833,0.411631114 109.885884,0.56619076 110.071878,0.78355733 C110.257691,1.0009239 110.403402,1.28291788 110.509192,1.62972133 C110.614982,1.97652477 110.667968,2.40761693 110.667968,2.9229978 C110.667968,3.38704084 110.612442,3.79064359 110.501571,4.133624 C110.390519,4.47696852 110.249889,4.74858571 110.0795,4.94883966 C109.909292,5.14909362 109.703519,5.30001229 109.46218,5.40123156 C109.220841,5.50263288 108.910547,5.55324252 108.531482,5.55324252 L106.766077,5.55324252 L106.766077,0.182613405 Z" id="Stroke-80" stroke="#FFFFFF" stroke-width="0.5" mask="url(#mask-8)"></path>
                    <path d="M114.213312,3.21232836 L114.213312,4.64469031 L115.086669,4.64469031 C115.469727,4.64469031 115.715602,4.62593926 115.824296,4.58807306 C115.933171,4.5503889 116.024262,4.47611289 116.098116,4.36524502 C116.171788,4.25437714 116.208805,4.11365322 116.208805,3.94307326 C116.208805,3.76776002 116.169247,3.62339512 116.090313,3.51016061 C116.011379,3.3969261 115.906496,3.31882706 115.775846,3.27622758 C115.645197,3.2336281 115.377909,3.21232836 114.974165,3.21232836 L114.213312,3.21232836 Z M114.213312,1.07652887 L114.213312,2.31846751 L114.833172,2.31846751 C115.205161,2.31846751 115.435068,2.31245989 115.522894,2.30008056 C115.683121,2.27568598 115.808327,2.21160472 115.898694,2.10783676 C115.98906,2.0040688 116.034424,1.86298078 116.034424,1.68457271 C116.034424,1.52600798 115.997588,1.39711725 115.923916,1.29826462 C115.850244,1.19922993 115.761148,1.13769735 115.656629,1.11312073 C115.551927,1.08872616 115.251796,1.07652887 114.75569,1.07652887 L114.213312,1.07652887 Z M113.275719,0.18266802 L115.141288,0.18266802 C115.65064,0.18266802 116.008838,0.226723891 116.215701,0.314653583 C116.422563,0.402401227 116.597125,0.55750702 116.739388,0.779788914 C116.88147,1.00207081 116.952783,1.2536626 116.952783,1.53456429 C116.952783,1.79343804 116.891813,2.02718903 116.769873,2.23599929 C116.647752,2.44480955 116.489521,2.5993692 116.295179,2.69949618 C116.571177,2.7923412 116.787293,2.95108797 116.943347,3.1757365 C117.099219,3.40038503 117.177428,3.67400476 117.177428,3.99641363 C117.177428,4.3870909 117.077989,4.71750993 116.878929,4.98730663 C116.680233,5.25710333 116.445063,5.42386026 116.173965,5.48739538 C115.98543,5.5312692 115.547572,5.55329714 114.86021,5.55329714 L113.275719,5.55329714 L113.275719,0.18266802 Z" id="Fill-81" fill="#FFFFFF" mask="url(#mask-8)"></path>
                    <path d="M114.213312,3.21232836 L114.213312,4.64469031 L115.086669,4.64469031 C115.469727,4.64469031 115.715602,4.62593926 115.824296,4.58807306 C115.933171,4.5503889 116.024262,4.47611289 116.098116,4.36524502 C116.171788,4.25437714 116.208805,4.11365322 116.208805,3.94307326 C116.208805,3.76776002 116.169247,3.62339512 116.090313,3.51016061 C116.011379,3.3969261 115.906496,3.31882706 115.775846,3.27622758 C115.645197,3.2336281 115.377909,3.21232836 114.974165,3.21232836 L114.213312,3.21232836 Z M114.213312,1.07652887 L114.213312,2.31846751 L114.833172,2.31846751 C115.205161,2.31846751 115.435068,2.31245989 115.522894,2.30008056 C115.683121,2.27568598 115.808327,2.21160472 115.898694,2.10783676 C115.98906,2.0040688 116.034424,1.86298078 116.034424,1.68457271 C116.034424,1.52600798 115.997588,1.39711725 115.923916,1.29826462 C115.850244,1.19922993 115.761148,1.13769735 115.656629,1.11312073 C115.551927,1.08872616 115.251796,1.07652887 114.75569,1.07652887 L114.213312,1.07652887 Z M113.275719,0.18266802 L115.141288,0.18266802 C115.65064,0.18266802 116.008838,0.226723891 116.215701,0.314653583 C116.422563,0.402401227 116.597125,0.55750702 116.739388,0.779788914 C116.88147,1.00207081 116.952783,1.2536626 116.952783,1.53456429 C116.952783,1.79343804 116.891813,2.02718903 116.769873,2.23599929 C116.647752,2.44480955 116.489521,2.5993692 116.295179,2.69949618 C116.571177,2.7923412 116.787293,2.95108797 116.943347,3.1757365 C117.099219,3.40038503 117.177428,3.67400476 117.177428,3.99641363 C117.177428,4.3870909 117.077989,4.71750993 116.878929,4.98730663 C116.680233,5.25710333 116.445063,5.42386026 116.173965,5.48739538 C115.98543,5.5312692 115.547572,5.55329714 114.86021,5.55329714 L113.275719,5.55329714 L113.275719,0.18266802 Z" id="Stroke-82" stroke="#FFFFFF" stroke-width="0.5" mask="url(#mask-8)"></path>
                    <polygon id="Fill-83" fill="#FFFFFF" mask="url(#mask-8)" points="119.19613 5.55327893 119.19613 3.29222969 117.491151 0.182649815 118.591693 0.182649815 119.686066 2.30643407 120.765197 0.182649815 121.846323 0.182649815 120.133723 3.29951165 120.133723 5.55327893"></polygon>
                    <polygon id="Stroke-84" stroke="#FFFFFF" stroke-width="0.5" mask="url(#mask-8)" points="119.19613 5.55327893 119.19613 3.29222969 117.491151 0.182649815 118.591693 0.182649815 119.686066 2.30643407 120.765197 0.182649815 121.846323 0.182649815 120.133723 3.29951165 120.133723 5.55327893"></polygon>
                </g>
            </g>
        </g>
    </g>
</svg>