<?xml version="1.0" encoding="UTF-8"?>
<svg width="200px" height="200px" viewBox="0 0 200 200" version="1.1" xmlns="http://www.w3.org/2000/svg" xmlns:xlink="http://www.w3.org/1999/xlink">
    <title>S1_Paso1</title>
    <defs>
        <polygon id="path-1" points="0 0 1.99041588 0 1.99041588 7.96213152 0 7.96213152"></polygon>
    </defs>
    <g id="Page-1" stroke="none" stroke-width="1" fill="none" fill-rule="evenodd">
        <g id="Artboard" transform="translate(-5270.000000, -4167.000000)">
            <g id="S1_Paso1" transform="translate(5270.000000, 4167.000000)">
                <g id="S1_2-Copy-5">
                    <rect id="Rectangle-Copy-5" x="0" y="0" width="200" height="200"></rect>
                    <g id="Carta-de-derechos--Copy" transform="translate(33.000000, 36.000000)">
                        <rect id="Rectangle-Copy-3" x="0" y="0" width="143" height="143"></rect>
                        <g id="Group-17" transform="translate(4.039504, 7.271338)">
                            <ellipse id="Oval-Copy-5" fill="#C0C0C0" cx="65.5" cy="124.364331" rx="65.5" ry="3.36433101"></ellipse>
                            <g id="Group-52-Copy-3" transform="translate(4.960496, 45.728662)">
                                <rect id="Rectangle" fill="#EDEDED" transform="translate(59.000000, 17.500000) scale(1, -1) translate(-59.000000, -17.500000) " x="0" y="0" width="118" height="35" rx="4"></rect>
                                <rect id="Rectangle" fill="#B7B7B7" opacity="0.803538005" transform="translate(58.500000, 17.000000) scale(1, -1) translate(-58.500000, -17.000000) " x="5" y="9" width="107" height="16" rx="7.5"></rect>
                            </g>
                            <g id="Group-52-Copy-14" transform="translate(5.000000, 0.000000)">
                                <rect id="Rectangle" fill="#EDEDED" transform="translate(58.960496, 17.228662) scale(1, -1) translate(-58.960496, -17.228662) " x="-0.0395044095" y="-0.271337974" width="118" height="35" rx="4"></rect>
                                <rect id="Rectangle" fill="#B7B7B7" opacity="0.803538005" transform="translate(58.460496, 17.728662) scale(1, -1) translate(-58.460496, -17.728662) " x="4.96049559" y="9.72866203" width="107" height="16" rx="7.5"></rect>
                            </g>
                            <g id="Group-52-Copy-4" transform="translate(48.960496, 89.728662)" fill="#34B233">
                                <rect id="Rectangle" transform="translate(37.500000, 11.500000) scale(1, -1) translate(-37.500000, -11.500000) " x="0" y="0" width="75" height="23" rx="5"></rect>
                            </g>
                        </g>
                        <g id="sign-form" transform="translate(9.000000, 7.000000)">
                            <path d="M122,12.7241379 L122,114.517241 C122,119.20214 118.233017,123 113.586207,123 L8.4137931,123 C3.76698348,123 0,119.20214 0,114.517241 L0,12.7241379 L122,12.7241379 Z" id="Shape" fill="#ECF0F1" fill-rule="nonzero"></path>
                            <path d="M122,12.7241379 L122,114.517241 C122,119.20214 118.233017,123 113.586207,123 L8.4137931,123 C3.76698348,123 0,119.20214 0,114.517241 L0,12.7241379 L122,12.7241379 Z" id="Shape" fill="#FFFFFF" fill-rule="nonzero"></path>
                            <g id="Group-100" fill-rule="nonzero">
                                <path d="M122,8.48275862 L122,16.9655172 L0,16.9655172 L0,8.48275862 C0,3.7978604 3.76698348,0 8.4137931,0 L113.586207,0 C118.233017,0 122,3.7978604 122,8.48275862 Z" id="Shape" fill="#454545"></path>
                                <path d="M8.45586207,10.6034483 C7.29415966,10.6034483 6.35241379,9.65398318 6.35241379,8.48275862 C6.35241379,7.31153406 7.29415966,6.36206897 8.45586207,6.36206897 C9.61756447,6.36206897 10.5593103,7.31153406 10.5593103,8.48275862 C10.5593103,9.65398318 9.61756447,10.6034483 8.45586207,10.6034483 Z" id="Shape" fill="#FF4D29"></path>
                                <path d="M16.8696552,10.6034483 C15.7079528,10.6034483 14.7662069,9.65398318 14.7662069,8.48275862 C14.7662069,7.31153406 15.7079528,6.36206897 16.8696552,6.36206897 C18.0313576,6.36206897 18.9731034,7.31153406 18.9731034,8.48275862 C18.9731034,9.65398318 18.0313576,10.6034483 16.8696552,10.6034483 Z" id="Shape" fill="#FCCD48"></path>
                                <path d="M25.2834483,10.6034483 C24.121746,10.6034483 23.18,9.65398318 23.18,8.48275862 C23.18,7.31153406 24.121746,6.36206897 25.2834483,6.36206897 C26.4451506,6.36206897 27.3868966,7.31153406 27.3868966,8.48275862 C27.3868966,9.65398318 26.4451506,10.6034483 25.2834483,10.6034483 Z" id="Shape" fill="#51C662"></path>
                                <path d="M111.482759,12.7241379 C110.321056,12.7241379 109.37931,11.7746728 109.37931,10.6034483 L109.37931,6.36206897 C109.37931,5.19084441 110.321056,4.24137931 111.482759,4.24137931 C112.644461,4.24137931 113.586207,5.19084441 113.586207,6.36206897 L113.586207,10.6034483 C113.586207,11.7746728 112.644461,12.7241379 111.482759,12.7241379 Z" id="Shape" fill="#FFFFFF"></path>
                                <path d="M113.586207,10.6034483 L109.37931,10.6034483 C108.217608,10.6034483 107.275862,9.65398318 107.275862,8.48275862 C107.275862,7.31153406 108.217608,6.36206897 109.37931,6.36206897 L113.586207,6.36206897 C114.747909,6.36206897 115.689655,7.31153406 115.689655,8.48275862 C115.689655,9.65398318 114.747909,10.6034483 113.586207,10.6034483 Z" id="Shape" fill="#FFFFFF"></path>
                                <path d="M100.965517,10.6034483 L96.7586207,10.6034483 C95.5969184,10.6034483 94.6551724,9.65398318 94.6551724,8.48275862 C94.6551724,7.31153406 95.5969184,6.36206897 96.7586207,6.36206897 L100.965517,6.36206897 C102.12722,6.36206897 103.068966,7.31153406 103.068966,8.48275862 C103.068966,9.65398318 102.12722,10.6034483 100.965517,10.6034483 Z" id="Shape" fill="#FFFFFF"></path>
                            </g>
                            <line x1="109.37931" y1="8.48275862" x2="113.586207" y2="8.48275862" id="Shape" fill="#BDC3C7" fill-rule="nonzero"></line>
                            <line x1="96.7586207" y1="8.48275862" x2="100.965517" y2="8.48275862" id="Shape" fill="#BDC3C7" fill-rule="nonzero"></line>
                            <rect id="Rectangle" fill="#51C662" opacity="0.320867629" x="0" y="30" width="122" height="51"></rect>
                            <path d="M67.5837931,84.8275862 L12.6206897,84.8275862 C11.4589873,84.8275862 10.5172414,85.7770514 10.5172414,86.9482759 L10.5172414,112.396552 C10.5172414,113.567776 11.4589873,114.517241 12.6206897,114.517241 L109.37931,114.517241 C110.541013,114.517241 111.482759,113.567776 111.482759,112.396552 L111.482759,86.9482759 C111.482759,85.7770514 110.541013,84.8275862 109.37931,84.8275862 L86.62,84.8275862" id="Shape" fill="#CBCBCB" fill-rule="nonzero"></path>
                            <g id="Group" transform="translate(14.724138, 103.913793)" fill="#ADA9A9" fill-rule="nonzero">
                                <path d="M6.31034483,4.24137931 L2.10344828,4.24137931 C0.941745871,4.24137931 0,3.29191411 0,2.12068966 C0,0.949465205 0.941745871,0 2.10344828,0 L6.31034483,0 C7.47204713,0 8.4137931,0.949465205 8.4137931,2.12068966 C8.4137931,3.29191411 7.47204713,4.24137931 6.31034483,4.24137931 Z" id="Shape"></path>
                                <path d="M18.9310345,4.24137931 L14.7241379,4.24137931 C13.5624356,4.24137931 12.6206897,3.29191411 12.6206897,2.12068966 C12.6206897,0.949465205 13.5624356,0 14.7241379,0 L18.9310345,0 C20.0927368,0 21.0344828,0.949465205 21.0344828,2.12068966 C21.0344828,3.29191411 20.0927368,4.24137931 18.9310345,4.24137931 Z" id="Shape"></path>
                                <path d="M31.5517241,4.24137931 L27.3448276,4.24137931 C26.1831253,4.24137931 25.2413793,3.29191411 25.2413793,2.12068966 C25.2413793,0.949465205 26.1831253,0 27.3448276,0 L31.5517241,0 C32.7134264,0 33.6551724,0.949465205 33.6551724,2.12068966 C33.6551724,3.29191411 32.7134264,4.24137931 31.5517241,4.24137931 Z" id="Shape"></path>
                                <path d="M42.0689655,4.24137931 L39.9655172,4.24137931 C38.8038149,4.24137931 37.862069,3.29191411 37.862069,2.12068966 C37.862069,0.949465205 38.8038149,0 39.9655172,0 L42.0689655,0 C43.2306678,0 44.1724138,0.949465205 44.1724138,2.12068966 C44.1724138,3.29191411 43.2306678,4.24137931 42.0689655,4.24137931 Z" id="Shape"></path>
                                <path d="M65.2068966,4.24137931 L63.1034483,4.24137931 C61.941746,4.24137931 61,3.29191411 61,2.12068966 C61,0.949465205 61.941746,0 63.1034483,0 L65.2068966,0 C66.3685989,0 67.3103448,0.949465205 67.3103448,2.12068966 C67.3103448,3.29191411 66.3685989,4.24137931 65.2068966,4.24137931 Z" id="Shape"></path>
                                <path d="M77.8275862,4.24137931 L73.6206897,4.24137931 C72.4589874,4.24137931 71.5172414,3.29191411 71.5172414,2.12068966 C71.5172414,0.949465205 72.4589874,0 73.6206897,0 L77.8275862,0 C78.9892885,0 79.9310345,0.949465205 79.9310345,2.12068966 C79.9310345,3.29191411 78.9892885,4.24137931 77.8275862,4.24137931 Z" id="Shape"></path>
                                <path d="M90.4482759,4.24137931 L86.2413793,4.24137931 C85.079677,4.24137931 84.137931,3.29191411 84.137931,2.12068966 C84.137931,0.949465205 85.079677,0 86.2413793,0 L90.4482759,0 C91.6099782,0 92.5517241,0.949465205 92.5517241,2.12068966 C92.5517241,3.29191411 91.6099782,4.24137931 90.4482759,4.24137931 Z" id="Shape"></path>
                            </g>
                        </g>
                    </g>
                </g>
                <rect id="Rectangle-Copy-86" fill="#9B9B9B" x="45" y="63" width="21" height="6" rx="3"></rect>
                <rect id="Rectangle-Copy-87" fill="#9B9B9B" x="69" y="63" width="21" height="6" rx="3"></rect>
                <rect id="Rectangle-Copy-89" fill="#FF4D29" x="134" y="63" width="21" height="6" rx="3"></rect>
                <rect id="Rectangle-Copy-88" fill="#00853F" x="92" y="63" width="40" height="8" rx="4"></rect>
                <g id="Group-14" transform="translate(95.000000, 71.000000) scale(-1, 1) translate(-95.000000, -71.000000) translate(78.000000, 54.000000)">
                    <g id="Group-3" transform="translate(11.958990, 0.000000)">
                        <mask id="mask-2" fill="white">
                            <use xlink:href="#path-1"></use>
                        </mask>
                        <g id="Clip-2"></g>
                        <path d="M1.25601129,-1.99663703e-05 C1.85786375,0.282836947 2.00003992,0.773144449 1.98992251,1.40561251 C1.96063529,3.24078816 1.98346601,5.07676247 1.97760856,6.91240401 C1.97514578,7.67039398 1.28243635,8.16289779 0.620079142,7.88250339 C0.227763457,7.71644974 0.00651178709,7.40424227 0.00491430211,6.97875891 C-0.00254062779,4.97726339 -0.000210962193,2.97570132 0.00338337901,0.974205798 C0.00431524525,0.478507377 0.343514556,0.220608426 0.72478097,-1.99663703e-05 L1.25601129,-1.99663703e-05 Z" id="Fill-1" fill="#FCBF03" mask="url(#mask-2)"></path>
                    </g>
                    <path d="M0,12.682339 C0.257328205,12.1239461 0.6925763,11.9337997 1.30228307,11.9421856 C3.17127393,11.9678757 5.04079729,11.9484417 6.91012096,11.9531006 C7.67052381,11.9549641 8.16467916,12.6326893 7.89769948,13.3022948 C7.7340904,13.7125371 7.41579152,13.9390889 6.97654971,13.9407527 C4.98561749,13.94834 2.99455215,13.9448791 1.00355338,13.943548 C0.494621286,13.9432153 0.212598626,13.6244854 0,13.213511 L0,12.682339 Z" id="Fill-4" fill="#FFCA28"></path>
                    <path d="M28.6907503,34 C28.4048005,33.9781701 28.1425467,33.8119833 27.9087149,33.5777778 C26.1106124,31.7767447 24.3058538,29.9823004 22.5160715,28.173081 C22.2941542,27.9487256 22.1792684,27.9690913 21.9732594,28.1814669 C21.1797088,28.9992894 20.3677205,29.7993419 19.5616562,30.6050515 C18.8791973,31.2871027 18.0465082,31.1005502 17.7353315,30.184227 C17.224336,28.6793616 16.7260538,27.1701037 16.2234451,25.6623765 C14.8758999,21.6203179 13.5286876,17.5780597 12.1817415,13.5358015 C11.9505721,12.8419701 12.2698029,12.2753911 12.983213,12.1117999 C13.2356822,12.0538975 13.4633904,12.1627807 13.6893014,12.2378543 C17.0930094,13.3683502 20.4945874,14.5053019 23.8969642,15.6399241 C25.8651322,16.2962187 27.8343653,16.9492521 29.8014683,17.6088745 C30.0717761,17.6995218 30.3597893,17.7645456 30.5875641,17.9466389 C31.1235203,18.3751172 31.1542719,18.9972028 30.6587187,19.4988245 C29.8343499,20.3331526 29.0079842,21.1658168 28.1661762,21.9823082 C27.9370037,22.2046005 27.9354727,22.3374434 28.1642459,22.5639952 C29.9879747,24.3706189 31.7997889,26.189289 33.614665,28.0048311 C34.1284561,28.518832 34.1281898,29.0460107 33.6153972,29.559812 C32.2554049,30.9225833 30.8927503,32.282759 29.5370846,33.6497899 C29.3129042,33.8759423 29.0587709,33.9960067 28.6907503,34" id="Fill-6" fill="#FF4D29"></path>
                    <path d="M4.50815586,3.51611348 C4.79144319,3.51343561 5.02647317,3.62058846 5.22263101,3.81752343 C6.61969819,5.22029405 8.01969409,6.62020283 9.4111035,8.0286306 C9.83070956,8.4533153 9.8046173,9.06435279 9.37675758,9.47872153 C9.01912063,9.82513805 8.41839971,9.81941436 8.0287465,9.43426307 C6.60498802,8.02696674 5.18768603,6.61301494 3.77424463,5.19533609 C3.47657993,4.8967723 3.41288022,4.4290268 3.59286353,4.05725298 C3.77710679,3.67662741 4.10778619,3.5345334 4.50815586,3.51611348" id="Fill-8" fill="#FFCA28"></path>
                    <path d="M4.50559323,22.3869866 C4.07839912,22.3811298 3.75743776,22.1915159 3.5911662,21.7972466 C3.41550941,21.3806816 3.49631553,20.9932674 3.81681095,20.670145 C4.49381177,19.9875613 5.17553849,19.3097031 5.85533491,18.6299147 C6.54298563,17.9422729 7.22923855,17.2533 7.91868644,16.5675218 C8.39360542,16.0951174 9.00304593,16.0541864 9.41919077,16.4609679 C9.84452115,16.8768008 9.80851117,17.4992192 9.3229423,17.985733 C7.98032274,19.3310671 6.6341754,20.6728737 5.2916224,22.0182743 C5.07256727,22.2378378 4.82948331,22.3936421 4.50559323,22.3869866" id="Fill-10" fill="#FFCA28"></path>
                    <path d="M17.2678874,9.70000215 C16.7647462,9.69887073 16.4638865,9.50679424 16.2827051,9.13528664 C16.1074477,8.77602509 16.1770049,8.33523418 16.4744699,8.02961561 C17.0142201,7.47501639 17.5663508,6.93259667 18.1134895,6.38531845 C18.9420517,5.55651442 19.7698151,4.72697829 20.5997086,3.89963845 C21.0773566,3.42344052 21.681339,3.38510509 22.0961526,3.79993971 C22.511299,4.2151071 22.4762209,4.82048745 22.0007029,5.29708471 C20.6576174,6.6432174 19.3108044,7.98568959 17.9678521,9.33188884 C17.7485973,9.55171858 17.5069111,9.70985223 17.2678874,9.70000215" id="Fill-12" fill="#FFCA28"></path>
                </g>
            </g>
        </g>
    </g>
</svg>