<?xml version="1.0" encoding="UTF-8"?>
<svg width="200px" height="200px" viewBox="0 0 200 200" version="1.1" xmlns="http://www.w3.org/2000/svg" xmlns:xlink="http://www.w3.org/1999/xlink">
    <title>S1_Paso2</title>
    <defs>
        <polygon id="path-1" points="0 0 49.9032513 0 49.9032513 53.721335 0 53.721335"></polygon>
    </defs>
    <g id="Page-1" stroke="none" stroke-width="1" fill="none" fill-rule="evenodd">
        <g id="Artboard" transform="translate(-5487.000000, -4167.000000)">
            <g id="S1_2-Copy-5" transform="translate(5487.000000, 4167.000000)">
                <rect id="Rectangle-Copy-5" x="0" y="0" width="200" height="200"></rect>
                <g id="Carta-de-derechos--Copy" transform="translate(33.000000, 36.000000)">
                    <rect id="Rectangle-Copy-3" x="0" y="0" width="143" height="143"></rect>
                    <g id="Group-17" transform="translate(4.039504, 7.000000)">
                        <ellipse id="Oval-Copy-5" fill="#C0C0C0" cx="65.5" cy="124.635669" rx="65.5" ry="3.36433101"></ellipse>
                        <g id="Group-52-Copy-3" transform="translate(4.960496, 55.849628)">
                            <rect id="Rectangle" fill="#EDEDED" transform="translate(59.000000, 15.150372) scale(1, -1) translate(-59.000000, -15.150372) " x="0" y="0.150371953" width="118" height="30" rx="4"></rect>
                            <rect id="Rectangle" fill="#B7B7B7" opacity="0.803538005" transform="translate(58.500000, 15.150372) scale(1, -1) translate(-58.500000, -15.150372) " x="5" y="8.15037195" width="107" height="14" rx="7"></rect>
                        </g>
                        <g id="Group-52-Copy-14" transform="translate(5.000000, 21.271338)">
                            <rect id="Rectangle" fill="#EDEDED" transform="translate(58.960496, 14.728662) scale(1, -1) translate(-58.960496, -14.728662) " x="-0.0395044095" y="-0.271337974" width="118" height="30" rx="4"></rect>
                            <rect id="Rectangle" fill="#B7B7B7" opacity="0.803538005" transform="translate(58.460496, 15.728662) scale(1, -1) translate(-58.460496, -15.728662) " x="4.96049559" y="8.72866203" width="107" height="14" rx="7"></rect>
                        </g>
                        <g id="Group-100" transform="translate(2.960496, 0.000000)" fill-rule="nonzero">
                            <path d="M122,8.48275862 L122,16.9655172 L0,16.9655172 L0,8.48275862 C0,3.7978604 3.76698348,0 8.4137931,0 L113.586207,0 C118.233017,0 122,3.7978604 122,8.48275862 Z" id="Shape" fill="#454545"></path>
                            <path d="M8.45586207,10.6034483 C7.29415966,10.6034483 6.35241379,9.65398318 6.35241379,8.48275862 C6.35241379,7.31153406 7.29415966,6.36206897 8.45586207,6.36206897 C9.61756447,6.36206897 10.5593103,7.31153406 10.5593103,8.48275862 C10.5593103,9.65398318 9.61756447,10.6034483 8.45586207,10.6034483 Z" id="Shape" fill="#FF4D29"></path>
                            <path d="M16.8696552,10.6034483 C15.7079528,10.6034483 14.7662069,9.65398318 14.7662069,8.48275862 C14.7662069,7.31153406 15.7079528,6.36206897 16.8696552,6.36206897 C18.0313576,6.36206897 18.9731034,7.31153406 18.9731034,8.48275862 C18.9731034,9.65398318 18.0313576,10.6034483 16.8696552,10.6034483 Z" id="Shape" fill="#FCCD48"></path>
                            <path d="M25.2834483,10.6034483 C24.121746,10.6034483 23.18,9.65398318 23.18,8.48275862 C23.18,7.31153406 24.121746,6.36206897 25.2834483,6.36206897 C26.4451506,6.36206897 27.3868966,7.31153406 27.3868966,8.48275862 C27.3868966,9.65398318 26.4451506,10.6034483 25.2834483,10.6034483 Z" id="Shape" fill="#51C662"></path>
                            <path d="M111.482759,12.7241379 C110.321056,12.7241379 109.37931,11.7746728 109.37931,10.6034483 L109.37931,6.36206897 C109.37931,5.19084441 110.321056,4.24137931 111.482759,4.24137931 C112.644461,4.24137931 113.586207,5.19084441 113.586207,6.36206897 L113.586207,10.6034483 C113.586207,11.7746728 112.644461,12.7241379 111.482759,12.7241379 Z" id="Shape" fill="#FFFFFF"></path>
                            <path d="M113.586207,10.6034483 L109.37931,10.6034483 C108.217608,10.6034483 107.275862,9.65398318 107.275862,8.48275862 C107.275862,7.31153406 108.217608,6.36206897 109.37931,6.36206897 L113.586207,6.36206897 C114.747909,6.36206897 115.689655,7.31153406 115.689655,8.48275862 C115.689655,9.65398318 114.747909,10.6034483 113.586207,10.6034483 Z" id="Shape" fill="#FFFFFF"></path>
                            <path d="M100.965517,10.6034483 L96.7586207,10.6034483 C95.5969184,10.6034483 94.6551724,9.65398318 94.6551724,8.48275862 C94.6551724,7.31153406 95.5969184,6.36206897 96.7586207,6.36206897 L100.965517,6.36206897 C102.12722,6.36206897 103.068966,7.31153406 103.068966,8.48275862 C103.068966,9.65398318 102.12722,10.6034483 100.965517,10.6034483 Z" id="Shape" fill="#FFFFFF"></path>
                        </g>
                        <g id="Group-52-Copy-4" transform="translate(48.960496, 94.000000)" fill="#34B233">
                            <rect id="Rectangle" transform="translate(37.500000, 11.500000) scale(1, -1) translate(-37.500000, -11.500000) " x="0" y="0" width="75" height="23" rx="5"></rect>
                        </g>
                    </g>
                    <g id="Group-51" transform="translate(49.118958, 87.118958) scale(-1, 1) translate(-49.118958, -87.118958) translate(9.000000, 47.000000)">
                        <circle id="Oval" fill-opacity="0.62063716" fill="#DBFFFF" cx="29.1189578" cy="27.1189578" r="21"></circle>
                        <g id="Group-12" transform="translate(40.118958, 40.118958) scale(-1, 1) rotate(-7.000000) translate(-40.118958, -40.118958) translate(4.118958, 4.118958)">
                            <g id="Group-3" transform="translate(22.096749, 0.000000)">
                                <mask id="mask-2" fill="white">
                                    <use xlink:href="#path-1"></use>
                                </mask>
                                <g id="Clip-2"></g>
                                <path d="M29.5233982,43.0400673 L29.5188877,43.047537 C29.8251837,43.0669866 30.1204853,43.017658 30.4198746,42.9476114 C32.3926863,42.4861773 34.2534385,41.7520265 35.9924053,40.7086557 C42.9412245,36.5392598 46.4863938,28.8490687 45.3518438,21.1308308 C44.4770746,15.179967 41.4155233,10.5501235 36.3304163,7.31064254 C34.0778081,5.87560249 31.6275804,4.9231373 28.9516831,4.61913205 C26.885277,4.18377174 24.8170384,4.28609339 22.7551429,4.63209843 C12.3592593,6.3764994 5.17137973,16.0309561 6.62843569,26.4821405 C7.56085565,33.1705378 11.1484525,38.11693 17.1026904,41.3083508 C19.5071076,42.5970963 22.1156282,43.2456972 24.8284558,43.4225755 C26.2020662,43.5122127 27.5872349,43.5241925 28.942662,43.1783284 C29.1435234,43.1625432 29.3655282,43.2359724 29.5233982,43.0400673 L29.5233982,43.0400673 Z M49.9032936,26.1536119 C49.6791745,27.26562 49.5180625,28.3946816 49.2213514,29.4868173 C46.6136765,39.0863079 40.4410986,45.1261042 30.7677525,47.2945904 C24.205292,48.7657108 18.0413124,47.3444827 12.4377715,43.5931116 C12.1836289,43.4229983 11.9774112,43.102926 11.4282489,43.3793073 C11.6912717,43.5676017 11.9929163,43.7195338 12.2104104,43.9505327 C12.9374584,44.7225961 12.9849603,45.9056373 12.357286,46.7213918 C11.7105826,47.5620924 10.4982252,47.8396012 9.57961887,47.2843018 C9.17521783,47.0397728 8.93587557,47.0640143 8.62084025,47.3962073 C7.91183459,48.1443111 7.16984538,48.8611264 6.44026023,49.5894987 C6.23827115,49.7910414 6.04600798,49.9560809 6.25377624,50.3025087 C6.80138796,51.215652 6.80589854,52.1533186 6.10083963,52.9751334 C5.3873234,53.8065321 4.46561605,53.8910954 3.47709584,53.4849095 C3.41789457,53.460527 3.33952337,53.4822316 3.27073714,53.483641 C2.37242838,52.4705721 1.40899823,51.5206438 0.409483498,50.606514 C0.409483498,50.606514 0.417095089,50.6172253 0.416954134,50.6172253 C0.408778721,50.5719839 0.400744263,50.5266016 0.392991716,50.4813602 C0.462764639,50.4857293 0.534651892,50.4803736 0.601746662,50.495736 C1.83552927,50.777191 2.79487171,50.4589509 3.29399478,49.6000692 C3.81989937,48.6949594 3.60536525,47.5708306 2.73271038,46.6920765 C1.96126148,45.9153621 1.18177813,45.1468222 0.413853115,44.3667253 C0.241041796,44.1912564 -0.013664609,44.0599013 0.000571886254,43.7539229 C0.970485985,42.7992027 1.94040008,41.8443415 2.91045514,40.8897622 C3.9291398,41.8845091 4.93753473,42.8898264 5.9694692,43.8704794 C6.78517809,44.6455025 8.1718973,44.6684755 8.97943078,43.9536333 C9.82107547,43.2087712 9.99896118,41.8914151 9.29855381,41.0470501 C8.73501412,40.3675836 8.18373756,39.6678218 7.50405063,39.0910998 C7.4330091,39.0414893 7.36196758,38.9918788 7.29092606,38.9422683 L7.30065199,38.9514293 C7.31827141,38.8203561 7.26766842,38.723813 7.15349455,38.659122 L7.16350238,38.666028 C6.04163836,37.1097805 4.95050262,35.528164 4.21725264,33.7469779 C0.434714514,24.559029 1.57884949,16.04054 7.89647046,8.3437248 C11.3397289,4.14881889 15.8763784,1.64644842 21.1598097,0.478487622 C22.0163956,0.289065718 22.9070928,0.282864406 23.7464822,0 L28.1059507,0 C28.8277833,0.276522154 29.6051524,0.23931428 30.3498197,0.403367179 C40.1892113,2.57044396 46.4652505,8.51101929 49.194006,18.1933819 C49.5125652,19.323712 49.6707172,20.4994245 49.9032936,21.654137 L49.9032936,26.1536119 Z" id="Fill-1" fill="#FF4D29" mask="url(#mask-2)"></path>
                            </g>
                            <path d="M2.21980434,70.313453 C-0.48484785,68.2165638 -0.77098731,63.8308266 1.65372746,61.1593294 C2.51820692,60.2068642 3.45668796,59.3212041 4.36683697,58.4105977 C8.09045574,54.6848775 11.8280291,50.9728283 15.5324779,47.2282222 C16.3968164,46.3545419 17.3190876,46.0976102 18.4472946,46.5652456 C19.8079371,47.8019846 21.0885169,49.1200453 22.3621899,50.4450121 C22.4127928,50.5023742 22.4632549,50.5598773 22.5137169,50.6172394 C22.5137169,50.6172394 22.5062463,50.6065281 22.5061053,50.6065281 C22.9168494,51.979555 22.2012188,52.8601413 21.280921,53.7666604 C17.0979286,57.8867278 12.9652573,62.057956 8.80946923,66.2057883 C8.01673607,66.9970194 7.27404207,67.8444851 6.36248351,68.5080255 C5.11643778,69.4149674 3.89083059,70.3777212 2.21980434,70.313453" id="Fill-4" fill="#00853F"></path>
                            <path d="M2.21980434,70.313453 C3.89083059,70.3777212 5.11643778,69.4149674 6.36248351,68.5080255 C7.27404207,67.8444851 8.01673607,66.9970194 8.80946923,66.2057883 C12.9652573,62.057956 17.0979286,57.8867278 21.280921,53.7666604 C22.2012188,52.8601413 22.9168494,51.979555 22.5061053,50.6065281 C23.505761,51.5206579 24.4691912,52.4705862 25.3674999,53.4836551 C25.8925588,54.6871325 25.7673904,55.4431289 24.8649939,56.3461245 C20.329754,60.8852032 15.7988836,65.428792 11.2503939,69.9546225 C8.74899936,72.4434629 5.13997734,72.6781262 2.45717323,70.5644652 C2.36766655,70.4939958 2.29845745,70.3977345 2.21980434,70.313453" id="Fill-6" fill="#004A23"></path>
                            <path d="M29.6007993,39.0911139 C30.2804862,39.6678359 30.8317628,40.3675976 31.3953025,41.0470642 C32.0957099,41.8914292 31.9178242,43.2087853 31.0761795,43.9536474 C30.268646,44.6683487 28.8819268,44.6455166 28.0662179,43.8704935 C27.0342834,42.8898405 26.0258885,41.8845232 25.0072038,40.8897763 C24.7647605,40.3509669 24.4140635,39.8716336 24.4447918,39.2140126 C24.4862327,38.3266612 24.8576501,37.6773556 25.6434765,37.3251493 C26.4900546,36.9457417 27.3118246,37.0191709 28.0493032,37.6652349 C28.4424278,38.0096896 28.6876902,38.5382105 29.2601101,38.6659012 C29.2602511,38.6660421 29.2502432,38.6591361 29.2502432,38.6591361 C29.244605,38.7841489 29.2735009,38.8916853 29.3974007,38.9514434 C29.3974007,38.9514434 29.3876747,38.9422824 29.3876747,38.9422824 C29.4587163,38.9918929 29.5297578,39.0415034 29.6007993,39.0911139" id="Fill-8" fill="#E43F1E"></path>
                            <path d="M22.3622462,50.4450121 C21.0884323,49.1200453 19.8079935,47.8019846 18.447351,46.5652456 C18.4563721,46.0178388 18.1671317,45.5055258 18.3151348,44.9323273 C18.6826056,43.5085623 20.2353702,42.8175388 21.5184872,43.5445018 C21.7051122,43.650206 21.8779235,43.7554873 22.0972501,43.7537961 C22.0830136,44.0599154 22.33772,44.1912705 22.5105313,44.3667394 C23.2784563,45.1468363 24.0580806,45.9153762 24.8293886,46.6920906 C25.7021844,47.5708447 25.9167185,48.6949735 25.390673,49.6000833 C24.8915499,50.458965 23.9322075,50.7772051 22.6985658,50.4957501 C22.6313301,50.4803877 22.5594428,50.4856025 22.4898109,50.4813743 C22.4465376,50.4716495 22.40411,50.4595288 22.3622462,50.4450121" id="Fill-10" fill="#E43F1E"></path>
                        </g>
                    </g>
                </g>
            </g>
        </g>
    </g>
</svg>