<?xml version="1.0" encoding="UTF-8"?>
<svg width="200px" height="200px" viewBox="0 0 200 200" version="1.1" xmlns="http://www.w3.org/2000/svg" xmlns:xlink="http://www.w3.org/1999/xlink">
    <title>S1_Paso3</title>
    <defs>
        <polygon id="path-1" points="0 0 2.52521818 0 2.52521818 10.1067304 0 10.1067304"></polygon>
    </defs>
    <g id="Page-1" stroke="none" stroke-width="1" fill="none" fill-rule="evenodd">
        <g id="Artboard" transform="translate(-5704.000000, -4167.000000)">
            <g id="S1_2-Copy-5" transform="translate(5704.000000, 4167.000000)">
                <rect id="Rectangle-Copy-5" x="0" y="0" width="200" height="200"></rect>
                <g id="Carta-de-derechos--Copy" transform="translate(33.000000, 36.000000)">
                    <rect id="Rectangle-Copy-3" x="0" y="0" width="143" height="143"></rect>
                    <g id="Group-17" transform="translate(4.039504, 34.000000)">
                        <ellipse id="Oval-Copy-5" fill="#C0C0C0" cx="65.5" cy="97.635669" rx="65.5" ry="3.36433101"></ellipse>
                        <g id="Group-52-Copy-19" transform="translate(2.960496, 0.000000)" fill="#38AC49">
                            <rect id="Rectangle" transform="translate(11.000000, 11.000000) scale(1, -1) translate(-11.000000, -11.000000) " x="0" y="0" width="22" height="22" rx="4"></rect>
                        </g>
                        <g id="Group-52-Copy-20" transform="translate(2.960496, 27.000000)" fill="#38AC49">
                            <rect id="Rectangle" transform="translate(11.000000, 11.000000) scale(1, -1) translate(-11.000000, -11.000000) " x="0" y="0" width="22" height="22" rx="4"></rect>
                        </g>
                        <path d="M12.1541774,18.0271355 C11.4878572,18.0271355 10.8501824,17.7525069 10.386249,17.2654056 L5.93062148,12.5897409 C4.9828275,11.5952425 5.00649129,10.0064551 5.98293073,9.04176634 C6.95874732,8.07644336 8.51806133,8.09991043 9.4658553,9.09504304 L12.136741,11.897778 L18.7669392,4.80626877 C19.7053921,3.80225663 21.2647062,3.76356764 22.2498637,4.71937689 C23.2356441,5.67455209 23.2736306,7.26270515 22.3351777,8.26671728 L13.9376739,17.2482809 C13.4756089,17.7423589 12.8360659,18.0239643 12.1653866,18.0271355 C12.1616501,18.0271355 12.1579138,18.0271355 12.1541774,18.0271355 L12.1541774,18.0271355 Z" id="Path-Copy-14" fill="#FFFFFF" fill-rule="nonzero"></path>
                        <path d="M12.1541774,45.0271355 C11.4878572,45.0271355 10.8501824,44.7525069 10.386249,44.2654056 L5.93062148,39.5897409 C4.9828275,38.5952425 5.00649129,37.0064551 5.98293073,36.0417663 C6.95874732,35.0764434 8.51806133,35.0999104 9.4658553,36.095043 L12.136741,38.897778 L18.7669392,31.8062688 C19.7053921,30.8022566 21.2647062,30.7635676 22.2498637,31.7193769 C23.2356441,32.6745521 23.2736306,34.2627051 22.3351777,35.2667173 L13.9376739,44.2482809 C13.4756089,44.7423589 12.8360659,45.0239643 12.1653866,45.0271355 C12.1616501,45.0271355 12.1579138,45.0271355 12.1541774,45.0271355 L12.1541774,45.0271355 Z" id="Path-Copy-15" fill="#FFFFFF" fill-rule="nonzero"></path>
                        <g id="Group-52-Copy-21" transform="translate(2.960496, 54.000000)" fill="#EDEDED">
                            <rect id="Rectangle" transform="translate(11.000000, 11.000000) scale(1, -1) translate(-11.000000, -11.000000) " x="0" y="0" width="22" height="22" rx="4"></rect>
                        </g>
                        <g id="Group-52-Copy-16" transform="translate(31.960496, 27.000000)">
                            <rect id="Rectangle" fill="#EDEDED" transform="translate(49.500000, 11.000000) scale(1, -1) translate(-49.500000, -11.000000) " x="0" y="0" width="99" height="22" rx="4"></rect>
                            <rect id="Rectangle" fill="#B7B7B7" opacity="0.803538005" transform="translate(49.500000, 11.000000) scale(1, -1) translate(-49.500000, -11.000000) " x="6" y="7" width="87" height="8" rx="2"></rect>
                        </g>
                        <g id="Group-52-Copy-15" transform="translate(31.960496, 0.000000)">
                            <rect id="Rectangle" fill="#EDEDED" transform="translate(49.500000, 11.000000) scale(1, -1) translate(-49.500000, -11.000000) " x="0" y="0" width="99" height="22" rx="4"></rect>
                            <rect id="Rectangle" fill="#B7B7B7" opacity="0.803538005" transform="translate(49.500000, 11.000000) scale(1, -1) translate(-49.500000, -11.000000) " x="6" y="7" width="87" height="8" rx="2"></rect>
                        </g>
                        <g id="Group-52-Copy-17" transform="translate(31.960496, 54.000000)">
                            <rect id="Rectangle" fill="#EDEDED" transform="translate(49.500000, 11.000000) scale(1, -1) translate(-49.500000, -11.000000) " x="0" y="0" width="99" height="22" rx="4"></rect>
                            <rect id="Rectangle" fill="#B7B7B7" opacity="0.803538005" transform="translate(49.500000, 11.000000) scale(1, -1) translate(-49.500000, -11.000000) " x="6" y="7" width="87" height="8" rx="2"></rect>
                        </g>
                    </g>
                    <g id="Group-100-Copy" transform="translate(8.000000, 7.000000)" fill-rule="nonzero">
                        <path d="M127,8.5 L127,17 L0,17 L0,8.5 C0,3.80557963 3.92136805,0 8.75862069,0 L118.241379,0 C123.078632,0 127,3.80557963 127,8.5 Z" id="Shape" fill="#454545"></path>
                        <path d="M8,10 C6.8954305,10 6,9.1045695 6,8 C6,6.8954305 6.8954305,6 8,6 C9.1045695,6 10,6.8954305 10,8 C10,9.1045695 9.1045695,10 8,10 Z" id="Shape" fill="#FF4D29"></path>
                        <path d="M17,10 C15.8954305,10 15,9.1045695 15,8 C15,6.8954305 15.8954305,6 17,6 C18.1045695,6 19,6.8954305 19,8 C19,9.1045695 18.1045695,10 17,10 Z" id="Shape" fill="#FCCD48"></path>
                        <path d="M25,10 C23.8954306,10 23,9.1045695 23,8 C23,6.8954305 23.8954306,6 25,6 C26.1045694,6 27,6.8954305 27,8 C27,9.1045695 26.1045694,10 25,10 Z" id="Shape" fill="#51C662"></path>
                        <path d="M116,12 C114.895431,12 114,11.1045695 114,10 L114,6 C114,4.8954305 114.895431,4 116,4 C117.104569,4 118,4.8954305 118,6 L118,10 C118,11.1045695 117.104569,12 116,12 Z" id="Shape" fill="#FFFFFF"></path>
                        <path d="M118,10 L114,10 C112.895431,10 112,9.1045695 112,8 C112,6.8954305 112.895431,6 114,6 L118,6 C119.104569,6 120,6.8954305 120,8 C120,9.1045695 119.104569,10 118,10 Z" id="Shape" fill="#FFFFFF"></path>
                        <path d="M106,10 L102,10 C100.895431,10 100,9.1045695 100,8 C100,6.8954305 100.895431,6 102,6 L106,6 C107.104569,6 108,6.8954305 108,8 C108,9.1045695 107.104569,10 106,10 Z" id="Shape" fill="#FFFFFF"></path>
                    </g>
                    <g id="Group-14" transform="translate(14.000000, 86.000000)">
                        <g id="Group-3" transform="translate(15.172236, 0.000000)">
                            <mask id="mask-2" fill="white">
                                <use xlink:href="#path-1"></use>
                            </mask>
                            <g id="Clip-2"></g>
                            <path d="M1.59348736,-2.53443091e-05 C2.3570508,0.359019035 2.53742809,0.981390786 2.52459225,1.78421402 C2.48743588,4.11369395 2.51640096,6.44418766 2.50896969,8.77425896 C2.50584518,9.73641342 1.62701254,10.361573 0.786687417,10.0056545 C0.288960929,9.79487429 0.00826143086,9.39857377 0.00623471968,8.85848655 C-0.00322326583,6.31788852 -0.000267645355,3.77720601 0.0042924548,1.23660798 C0.00547470299,0.607393265 0.435813044,0.280029272 0.919521446,-2.53443091e-05 L1.59348736,-2.53443091e-05 Z" id="Fill-1" fill="#FCBF03" mask="url(#mask-2)"></path>
                        </g>
                        <path d="M0,16.098325 C0.326469393,15.3895292 0.878663743,15.1481668 1.65219184,15.1588115 C4.02335948,15.1914211 6.39520269,15.1667527 8.76679255,15.1726663 C9.73150707,15.1750318 10.3584364,16.0353022 10.0197223,16.8852658 C9.81215329,17.4060069 9.40833109,17.6935803 8.85106996,17.6956923 C6.3251967,17.7053232 3.79915456,17.7009301 1.27319685,17.6992405 C0.627520449,17.6988181 0.26972148,17.2942385 0,16.7725681 L0,16.098325 Z" id="Fill-4" fill="#FFCA28"></path>
                        <path d="M36.3996315,43.1578947 C36.0368502,43.130185 35.7041318,42.9192358 35.4074719,42.6219471 C33.1262396,40.3358059 30.8365626,38.0580284 28.5658861,35.761496 C28.2843421,35.4767105 28.1385878,35.5025617 27.8772265,35.7721406 C26.8704577,36.8102436 25.8402973,37.82579 24.8176526,38.8485174 C23.9518247,39.714279 22.8954015,39.4774786 22.5006151,38.3143438 C21.8523208,36.4041432 21.2201559,34.4883669 20.5825018,32.5745336 C18.8728865,27.4437472 17.1636934,22.3127074 15.4548381,17.1816675 C15.1615561,16.3009528 15.5665606,15.5817657 16.471656,15.3741114 C16.7919608,15.3006129 17.0808516,15.4388238 17.3674623,15.5341184 C21.6857083,16.9691132 26.001252,18.4123027 30.317809,19.8525353 C32.8148016,20.6856027 35.3131454,21.5145306 37.8087869,22.3518221 C38.1517233,22.4668852 38.5171224,22.5494232 38.8060977,22.7805633 C39.4860593,23.3244522 39.5250735,24.1140964 38.8963708,24.7508299 C37.8505033,25.8098841 36.8021025,26.8668263 35.7341102,27.9032395 C35.4433616,28.1854062 35.4414193,28.3540303 35.7316612,28.6416038 C38.0454054,30.9348413 40.3440337,33.24337 42.6465465,35.547928 C43.2983874,36.200375 43.2980497,36.8695492 42.6474754,37.5217428 C40.9220686,39.2515764 39.1932839,40.9781152 37.4733662,42.7133556 C37.188951,43.0004221 36.8665351,43.1528259 36.3996315,43.1578947" id="Fill-6" fill="#FF4D29"></path>
                        <path d="M5.71944651,4.4631781 C6.07884996,4.45977894 6.37702984,4.5957934 6.62589309,4.84577277 C8.39833646,6.62637945 10.1744955,8.40335344 11.9397609,10.191141 C12.4721104,10.7302145 12.4390074,11.5058348 11.8961866,12.0318137 C11.4424567,12.4715375 10.6803288,12.4642721 10.1859802,11.9753804 C8.37967383,10.189029 6.58155878,8.39422949 4.78834161,6.59469906 C4.41069776,6.21571716 4.32988266,5.62198448 4.55822545,5.15007344 C4.79197281,4.66692643 5.21150202,4.48655943 5.71944651,4.4631781" id="Fill-8" fill="#FFCA28"></path>
                        <path d="M5.71619533,28.416918 C5.17421898,28.4094837 4.76701892,28.1687972 4.55607207,27.6683316 C4.33321829,27.1395648 4.43573609,26.6478007 4.84234502,26.2376453 C5.70124833,25.3712079 6.56614733,24.5107686 7.42859738,23.6478794 C8.3010121,22.7750213 9.17165344,21.9004737 10.0463482,21.0299812 C10.6488726,20.4303348 11.4220629,20.378379 11.9500211,20.8947271 C12.489633,21.4225645 12.4439475,22.2126311 11.8279118,22.8301875 C10.1245455,24.537887 8.41670353,26.2411091 6.71342167,27.9488931 C6.4355089,28.227596 6.12711102,28.4253661 5.71619533,28.416918" id="Fill-10" fill="#FFCA28"></path>
                        <path d="M21.9075741,12.3126962 C21.2692445,12.3112601 20.8875472,12.0674478 20.6576844,11.5958747 C20.4353373,11.1398461 20.5235837,10.5803282 20.9009742,10.1923913 C21.5857492,9.4884109 22.2862313,8.7998905 22.9803798,8.10520299 C24.0315674,7.05316072 25.0817416,6.00018916 26.134618,4.95000547 C26.7406047,4.34554369 27.5068704,4.29688262 28.0331397,4.82345288 C28.5598313,5.35044555 28.5153281,6.118885 27.9120437,6.72385366 C26.2080863,8.43256698 24.4993999,10.1366338 22.7956113,11.8454317 C22.5174452,12.1244725 22.2108207,12.3251994 21.9075741,12.3126962" id="Fill-12" fill="#FFCA28"></path>
                    </g>
                </g>
            </g>
        </g>
    </g>
</svg>