<?xml version="1.0" encoding="UTF-8"?>
<svg width="200px" height="200px" viewBox="0 0 200 200" version="1.1" xmlns="http://www.w3.org/2000/svg" xmlns:xlink="http://www.w3.org/1999/xlink">
    <title>S2_Paso2</title>
    <defs>
        <rect id="path-1" x="0" y="0" width="93" height="132"></rect>
        <polygon id="path-3" points="0 0 31.0970511 0 31.0970511 33.4762777 0 33.4762777"></polygon>
    </defs>
    <g id="Page-1" stroke="none" stroke-width="1" fill="none" fill-rule="evenodd">
        <g id="Artboard" transform="translate(-5487.000000, -4402.000000)">
            <g id="S2_Paso2" transform="translate(5487.000000, 4402.000000)">
                <g id="S1_2-Copy-7">
                    <rect id="Rectangle-Copy-5" x="0" y="0" width="200" height="200"></rect>
                    <g id="Carta-de-derechos--Copy" transform="translate(30.000000, 35.635669)">
                        <rect id="Rectangle-Copy-3" x="0" y="0.364331013" width="143" height="143"></rect>
                        <g id="Group-17" transform="translate(4.039504, 128.635669)" fill="#C0C0C0">
                            <ellipse id="Oval-Copy-5" cx="65.5" cy="3.36433101" rx="65.5" ry="3.36433101"></ellipse>
                        </g>
                        <g id="Group-9" transform="translate(25.000000, 0.000000)">
                            <mask id="mask-2" fill="white">
                                <use xlink:href="#path-1"></use>
                            </mask>
                            <g id="Mask"></g>
                            <g mask="url(#mask-2)">
                                <g transform="translate(1.000000, 9.364331)">
                                    <path d="M77.4844226,166 L12.5152532,166 C5.60321416,166 0,160.396743 0,153.485051 L0,12.5146249 C0,5.6030409 5.60321416,0 12.5152532,0 L77.4844226,0 C84.3964617,0 90,5.6030409 90,12.5146249 L90,153.485051 C90,160.396743 84.3964617,166 77.4844226,166" id="Fill-28" fill="#314155"></path>
                                    <polygon id="Fill-29" fill="#FFFFFF" points="2.45395215 148.727793 87.5461559 148.727793 87.5461559 12.5146249 2.45395215 12.5146249"></polygon>
                                    <polygon id="Fill-30" fill="#4E6278" points="31.0039043 7.41680633 58.9957716 7.41680633 58.9957716 6.01685645 31.0039043 6.01685645"></polygon>
                                    <path d="M70.4999892,6.71677737 C70.4999892,7.39184775 69.9532498,7.93899185 69.2779294,7.93899185 C68.6026091,7.93899185 68.0558697,7.39184775 68.0558697,6.71677737 C68.0558697,6.04181504 68.6026091,5.49456289 69.2779294,5.49456289 C69.9532498,5.49456289 70.4999892,6.04181504 70.4999892,6.71677737" id="Fill-31" fill="#4E6278"></path>
                                    <path d="M50.7730707,157.280701 C50.7730707,160.468053 48.1881605,163.05251 44.9998919,163.05251 C41.8116234,163.05251 39.2271454,160.468053 39.2271454,157.280701 C39.2271454,154.092269 41.8116234,151.507812 44.9998919,151.507812 C48.1881605,151.507812 50.7730707,154.092269 50.7730707,157.280701" id="Fill-32" fill="#4E6278"></path>
                                </g>
                            </g>
                        </g>
                    </g>
                </g>
                <rect id="Rectangle" fill="#2B8639" x="58" y="57" width="86" height="11"></rect>
                <rect id="Rectangle-Copy-94" fill="#2B8639" opacity="0.556531634" x="58" y="68" width="86" height="42"></rect>
                <g id="Group-13" transform="translate(101.000000, 86.000000) rotate(-314.000000) translate(-101.000000, -86.000000) translate(91.000000, 76.000000)">
                    <path d="M18.8262159,16.3984661 L15.1546228,8.25930003 L11.3052735,11.94709 L16.675976,18.2198628 C16.8804975,18.4587138 17.2450288,18.4727752 17.4673939,18.2505071 L18.7159547,17.0020426 C18.8746068,16.8432934 18.9185367,16.6029878 18.8262159,16.3984661 L18.8262159,16.3984661 Z" id="Path" fill="#F3F3F3" fill-rule="nonzero"></path>
                    <path d="M18.3434714,16.6866778 L12.9424155,10.3785089 L11.3052735,11.946993 L16.675976,18.2197658 C16.8804975,18.4586168 17.2450288,18.4726783 17.4673939,18.2504101 L18.7158577,17.0018486 C18.7528054,16.9649009 18.7828678,16.9232014 18.8071117,16.8788835 C18.6375014,16.8915873 18.4636242,16.8270985 18.3434714,16.6866778 L18.3434714,16.6866778 Z" id="Path" fill="#DAE5F3" fill-rule="nonzero"></path>
                    <path d="M11.7408878,4.8454663 L3.60162897,1.17377433 C3.39710743,1.08155049 3.1568019,1.12548046 2.9982468,1.28403564 L1.74978296,2.53259711 C1.52741791,2.75496227 1.54157635,3.11949373 1.78042725,3.32401537 L8.0531968,8.69472069 L11.7408878,4.8454663 Z" id="Path" fill="#F3F3F3" fill-rule="nonzero"></path>
                    <path d="M3.12431508,1.84552464 C2.97409988,1.71683796 2.91077481,1.52666871 2.93637637,1.34600308 L1.74968598,2.53269408 C1.52741791,2.75505924 1.54147937,3.1195907 1.78033027,3.32411234 L8.05309982,8.69481766 L9.4369416,7.25046237 L3.12431508,1.84552464 Z" id="Path" fill="#DAE5F3" fill-rule="nonzero"></path>
                    <path d="M10.0647616,18.4281665 L9.19586026,13.9679655 L6.56423347,16.4891384 C6.41246666,16.6346018 6.23083137,16.7293471 6.03998339,16.7758954 L7.55416037,19.7078571 C7.69836309,19.9872439 8.05009358,20.0846075 8.3174553,19.919167 L9.81902545,18.9901403 C10.0097765,18.8722179 10.1077218,18.6483981 10.0647616,18.4281665 L10.0647616,18.4281665 Z" id="Path" fill="#FFFFFF" fill-rule="nonzero"></path>
                    <path d="M3.51095678,13.4358601 L6.03212837,10.804232 L1.57192971,9.93533015 C1.35169813,9.89236994 1.12787845,9.99021837 1.00985915,10.1810664 L0.0808329233,11.6826374 C-0.0846074461,11.9499992 0.0127560538,12.3016329 0.29214275,12.4459327 L3.22410297,13.9601105 C3.27074823,13.7693594 3.36549339,13.587627 3.51095678,13.4358601 Z" id="Path" fill="#FFFFFF" fill-rule="nonzero"></path>
                    <path d="M8.53982035,16.9535548 C8.37515578,16.6347958 8.4561304,16.2538755 8.71650988,16.0070724 C8.71806149,16.0056178 8.71951613,16.0041632 8.72106774,16.0027085 L9.45517301,15.2993442 L9.19576329,13.9678685 L6.5641365,16.4890414 C6.41236969,16.6345049 6.23073439,16.7292501 6.03988642,16.7757984 L7.5540634,19.7076631 C7.69826611,19.98705 8.0499966,20.0845105 8.31735832,19.9189731 L9.64660284,19.0966196 L8.53982035,16.9535548 Z" id="Path" fill="#DAE5F3" fill-rule="nonzero"></path>
                    <path d="M2.44917097,11.9595028 C2.16978427,11.8153001 2.07242077,11.4636664 2.23786114,11.1963045 L2.86248096,10.186788 L1.57202669,9.93542713 C1.3517951,9.89246691 1.12797543,9.99031534 1.00995612,10.1811634 L0.0809298989,11.6826374 C-0.0845104705,11.9500962 0.0128530294,12.3016329 0.292239726,12.4459327 L3.22419994,13.9602074 C3.27074823,13.7693594 3.36549339,13.587724 3.51095678,13.4359571 L4.10570812,12.815119 L2.44917097,11.9595028 Z" id="Path" fill="#DAE5F3" fill-rule="nonzero"></path>
                    <path d="M19.9055543,1.1169466 C19.7912201,0.607048644 19.3930383,0.208769659 18.8831406,0.09443537 C17.5514717,-0.204055674 16.1607447,0.215848881 15.2165902,1.20121844 L3.44161923,13.491912 C3.00522904,13.9474066 3.01289011,14.6682266 3.45897786,15.1143146 L4.88568285,16.5410203 C5.3317706,16.9871083 6.05259022,16.9947694 6.5080846,16.558379 L18.7987718,4.78340189 C19.7842379,3.83944093 20.2040452,2.44861619 19.9055543,1.1169466 Z" id="Path" fill="#DFEBFA" fill-rule="nonzero"></path>
                    <path d="M5.05742664,16.642069 C4.61133889,16.195981 4.60367782,15.475258 5.04006801,15.0196664 L16.815039,2.72897279 C17.6398165,1.86811997 18.8055601,1.43900273 19.9748919,1.54334852 C19.9591818,1.40098827 19.9372653,1.25862802 19.9055543,1.11704358 C19.7912201,0.60714562 19.3930383,0.208866634 18.8830436,0.0946293213 C17.5513747,-0.203861722 16.1606477,0.216042832 15.2164933,1.20141239 L3.44152226,13.492106 C3.00513207,13.9476006 3.01279314,14.6684206 3.45888089,15.1145086 L4.88558588,16.5412143 C4.96859699,16.6242255 5.06111171,16.6919145 5.15963892,16.7444753 L5.05742664,16.642069 Z" id="Path" fill="#FFFFFF" fill-rule="nonzero"></path>
                    <path d="M2.32616144,3.80307464 L4.3438609,1.48466484 C3.66511757,1.20097278 3.19595606,1.15475219 2.93637637,1.34600308 C2.54700683,1.63287941 1.54909625,2.46132608 1.59174128,2.97588117 C1.62017129,3.3189179 1.86497801,3.59464906 2.32616144,3.80307464 Z" id="Path-2" fill="#D60000"></path>
                    <path d="M16.9114951,18.3801963 L18.9329873,15.8941377 C18.2529681,15.5899313 17.7829247,15.5403684 17.522857,15.745449 C17.1327556,16.0530699 16.2476097,16.9716705 16.1615166,17.420547 C16.1041211,17.719798 16.354114,18.0396811 16.9114951,18.3801963 Z" id="Path-2-Copy" fill="#9A0000" transform="translate(17.543233, 17.000886) scale(-1, 1) rotate(-86.000000) translate(-17.543233, -17.000886) "></path>
                </g>
                <g id="Group-52-Copy-3" transform="translate(64.000000, 123.000000)">
                    <rect id="Rectangle" fill="#EDEDED" transform="translate(37.000000, 8.500000) scale(1, -1) translate(-37.000000, -8.500000) " x="0" y="0" width="74" height="17" rx="2.29816228"></rect>
                    <rect id="Rectangle" fill="#B7B7B7" opacity="0.803538005" transform="translate(36.500000, 9.000000) scale(1, -1) translate(-36.500000, -9.000000) " x="3" y="5" width="67" height="8" rx="4"></rect>
                </g>
                <g id="Group-52-Copy-14" transform="translate(64.000000, 103.000000)">
                    <rect id="Rectangle" fill="#EDEDED" transform="translate(37.000000, 8.500000) scale(1, -1) translate(-37.000000, -8.500000) " x="0" y="0" width="74" height="17" rx="2.29816228"></rect>
                    <rect id="Rectangle" fill="#B7B7B7" opacity="0.803538005" transform="translate(36.500000, 9.000000) scale(1, -1) translate(-36.500000, -9.000000) " x="3" y="5" width="67" height="8" rx="4"></rect>
                </g>
                <g id="Group-52-Copy-4" transform="translate(48.941176, 120.000000)">
                    <rect id="Rectangle" fill="#34B233" transform="translate(52.500000, 31.500000) scale(1, -1) translate(-52.500000, -31.500000) " x="29" y="25" width="47" height="13" rx="2.87270285"></rect>
                    <g id="Group-51" transform="translate(25.000000, 25.000000) scale(-1, 1) translate(-25.000000, -25.000000) ">
                        <circle id="Oval" fill-opacity="0.62063716" fill="#DBFFFF" cx="18.1453853" cy="16.8990917" r="13.0860827"></circle>
                        <g id="Group-12" transform="translate(25.000000, 25.000000) scale(-1, 1) rotate(-7.000000) translate(-25.000000, -25.000000) translate(2.566715, 2.566715)">
                            <g id="Group-3" transform="translate(13.769518, 0.000000)">
                                <mask id="mask-4" fill="white">
                                    <use xlink:href="#path-3"></use>
                                </mask>
                                <g id="Clip-2"></g>
                                <path d="M18.397411,26.82028 L18.3946002,26.8249348 C18.5854677,26.8370547 18.7694839,26.8063157 18.9560474,26.7626664 C20.1853987,26.4751253 21.3449205,26.0176415 22.428552,25.3674684 C26.7586865,22.7693226 28.9678473,17.9772047 28.2608561,13.1676095 C27.7157465,9.45934776 25.8079506,6.57427567 22.6391825,4.55560347 C21.2354769,3.66136286 19.7086254,3.06783723 18.0411486,2.87839734 C16.7534742,2.60710395 15.464658,2.67086536 14.1797943,2.88647729 C7.70163285,3.97349517 3.22252871,9.98963894 4.13048846,16.502261 C4.71152297,20.6701143 6.94712242,23.7524428 10.6574867,25.7411664 C12.1557916,26.544244 13.7812828,26.9484176 15.4717727,27.0586388 C16.3277336,27.1144959 17.190897,27.1219611 18.0355271,26.9064369 C18.1606932,26.8966005 18.2990348,26.9423576 18.397411,26.82028 L18.397411,26.82028 Z M31.0970775,16.2975395 C30.9574184,16.9904837 30.857022,17.6940549 30.6721274,18.3746157 C29.0471631,24.3565075 25.200741,28.1201872 19.1728264,29.4714724 C15.0834501,30.3881964 11.242386,29.5025627 7.75055745,27.1649078 C7.59218931,27.0589023 7.46368538,26.8594502 7.12147669,27.0316763 C7.28537849,27.1490114 7.47334733,27.2436874 7.60887813,27.3876336 C8.06193573,27.8687424 8.09153643,28.6059508 7.70040314,29.1142856 C7.29741201,29.6381655 6.54193539,29.8110941 5.9695088,29.4650612 C5.71750759,29.3126837 5.56836222,29.3277897 5.37204897,29.5347947 C4.93023437,30.0009732 4.46786617,30.4476543 4.01322752,30.9015372 C3.88735867,31.0271279 3.7675505,31.1299717 3.89702062,31.3458471 C4.23826311,31.9148694 4.24107386,32.4991733 3.80171867,33.0112846 C3.35709331,33.529368 2.78273433,33.5820634 2.16674113,33.3289499 C2.12985005,33.3137561 2.08101329,33.3272812 2.03814936,33.3281595 C1.47837114,32.6968688 0.878012732,32.1049241 0.255168329,31.535287 C0.255168329,31.535287 0.259911468,31.5419617 0.259823632,31.5419617 C0.25472915,31.5137697 0.249722503,31.4854899 0.244891529,31.4572978 C0.288370302,31.4600204 0.333166613,31.4566831 0.374976504,31.4662561 C1.14380418,31.6416438 1.74161535,31.4433336 2.05264229,30.9081241 C2.38035805,30.3441079 2.2466718,29.6436107 1.70287972,29.0960178 C1.22215381,28.6120108 0.736421253,28.1330976 0.257891243,27.6469827 C0.150204423,27.5376398 -0.00851505732,27.4557863 0.000356369088,27.2651168 C0.604755231,26.670186 1.20915409,26.0751673 1.81364079,25.4803243 C2.44843088,26.1001976 3.07680894,26.7266579 3.7198556,27.3377486 C4.22816198,27.8207018 5.09229162,27.8350174 5.59550352,27.3895658 C6.11997171,26.9254073 6.23082062,26.1045011 5.79436401,25.5783377 C5.44319606,25.1549303 5.09966983,24.7188761 4.6761251,24.3594936 C4.6318558,24.3285789 4.58758651,24.2976643 4.54331721,24.2667497 L4.54937789,24.2724584 C4.56035738,24.1907805 4.52882429,24.13062 4.4576772,24.090308 L4.46391355,24.0946114 C3.76482759,23.1248408 3.08488984,22.1392615 2.62796747,21.0293212 C0.270890956,15.3038802 0.983854997,9.99561108 4.92066026,5.19936537 C7.06631575,2.58532319 9.89331435,1.02597906 13.1856676,0.298168028 C13.7194464,0.180130376 14.2744815,0.176266048 14.7975443,9.13047415e-13 L17.5141331,9.13047415e-13 C17.9639408,0.172313894 18.4483558,0.149127927 18.9123929,0.251356965 C25.0437783,1.60176392 28.9546719,5.3036144 30.6550872,11.3371476 C30.8535964,12.0415092 30.9521482,12.7741507 31.0970775,13.4937061 L31.0970775,16.2975395 Z" id="Fill-1" fill="#FF4D29" mask="url(#mask-4)"></path>
                            </g>
                            <path d="M1.38326396,43.8156029 C-0.302131384,42.5089331 -0.480438271,39.775975 1.03051497,38.1112401 C1.56921257,37.5177145 2.15402403,36.9658182 2.72118047,36.3983768 C5.04154157,34.0767062 7.37059843,31.7635546 9.67901384,29.4301153 C10.2176236,28.8856842 10.7923339,28.7255781 11.4953725,29.0169835 C12.3432525,29.7876535 13.1412417,30.6089988 13.9349269,31.4346476 C13.96646,31.4703926 13.9979053,31.5062255 14.0293505,31.5419705 C14.0293505,31.5419705 14.0246952,31.5352958 14.0246074,31.5352958 C14.2805612,32.3908931 13.8346183,32.9396277 13.2611377,33.5045222 C10.6545194,36.0719289 8.07925851,38.6712164 5.48959252,41.2559248 C4.99560339,41.7489779 4.53279601,42.2770735 3.96476121,42.6905565 C3.18829181,43.2557145 2.42455861,43.8556514 1.38326396,43.8156029" id="Fill-4" fill="#00853F"></path>
                            <path d="M1.38326396,43.8156029 C2.42455861,43.8556514 3.18829181,43.2557145 3.96476121,42.6905565 C4.53279601,42.2770735 4.99560339,41.7489779 5.48959252,41.2559248 C8.07925851,38.6712164 10.6545194,36.0719289 13.2611377,33.5045222 C13.8346183,32.9396277 14.2805612,32.3908931 14.0246074,31.5352958 C14.6475396,32.1049328 15.2478981,32.6968776 15.8076763,33.3281683 C16.134865,34.0781114 16.0568667,34.5492081 15.4945413,35.1119069 C12.668421,37.9404193 9.8450237,40.7717421 7.01064689,43.5919988 C5.45191092,45.1429117 3.2029604,45.2891414 1.53117963,43.9720204 C1.47540383,43.9281076 1.4322764,43.8681226 1.38326396,43.8156029" id="Fill-6" fill="#004A23"></path>
                            <path d="M18.4456432,24.3595023 C18.869188,24.7188848 19.2127142,25.1549391 19.5638821,25.5783465 C20.0003387,26.1045099 19.8894898,26.9254161 19.3650216,27.3895745 C18.8618097,27.8349383 17.9976801,27.8207106 17.4893737,27.3377574 C16.8463271,26.7266667 16.217949,26.1002064 15.5831589,25.4803331 C15.4320812,25.1445757 15.2135454,24.8458807 15.2326937,24.4360863 C15.2585174,23.8831361 15.489965,23.4785234 15.9796502,23.2590471 C16.5071926,23.0226205 17.019276,23.0683777 17.4788334,23.4709704 C17.7238078,23.6856162 17.8766422,24.0149624 18.2333438,24.0945324 C18.2334317,24.0946202 18.2271953,24.0903168 18.2271953,24.0903168 C18.2236819,24.1682181 18.2416883,24.2352291 18.318896,24.2724671 C18.318896,24.2724671 18.3128353,24.2667585 18.3128353,24.2667585 C18.3571046,24.2976731 18.4013739,24.3285877 18.4456432,24.3595023" id="Fill-8" fill="#E43F1E"></path>
                            <path d="M13.9349621,31.4346476 C13.141189,30.6089988 12.3432876,29.7876535 11.4954077,29.0169835 C11.5010292,28.6758688 11.3207899,28.3566226 11.4130176,27.9994357 C11.6420058,27.1122212 12.6096061,26.6816121 13.4091764,27.1346167 C13.5254711,27.200486 13.6331579,27.2660917 13.7698306,27.2650378 C13.7609592,27.4557951 13.9196786,27.5376486 14.0273655,27.6469915 C14.5058955,28.1331064 14.9917159,28.6120195 15.4723539,29.0960266 C16.0162339,29.6436194 16.1499201,30.3441167 15.8221165,30.9081329 C15.5110896,31.4433423 14.9132784,31.6416526 14.1445386,31.4662648 C14.1026408,31.4566918 14.0578445,31.4599414 14.0144536,31.4573066 C13.987488,31.4512467 13.9610493,31.4436936 13.9349621,31.4346476" id="Fill-10" fill="#E43F1E"></path>
                        </g>
                    </g>
                </g>
            </g>
        </g>
    </g>
</svg>