<?xml version="1.0" encoding="UTF-8"?>
<svg width="200px" height="200px" viewBox="0 0 200 200" version="1.1" xmlns="http://www.w3.org/2000/svg" xmlns:xlink="http://www.w3.org/1999/xlink">
    <title>S2_Paso4</title>
    <defs>
        <rect id="path-1" x="0" y="0" width="93" height="132"></rect>
        <polygon id="path-3" points="0 0 2 0 2 2 0 2"></polygon>
        <polygon id="path-5" points="0 0 2 0 2 2 0 2"></polygon>
    </defs>
    <g id="Page-1" stroke="none" stroke-width="1" fill="none" fill-rule="evenodd">
        <g id="Artboard" transform="translate(-5948.000000, -4402.000000)">
            <g id="S2_Paso4" transform="translate(5948.000000, 4402.000000)">
                <g id="S1_2-Copy-7">
                    <rect id="Rectangle-Copy-5" x="0" y="0" width="200" height="200"></rect>
                    <g id="Carta-de-derechos--Copy" transform="translate(30.000000, 35.635669)">
                        <rect id="Rectangle-Copy-3" x="0" y="0.364331013" width="143" height="143"></rect>
                        <g id="Group-17" transform="translate(4.039504, 128.635669)" fill="#C0C0C0">
                            <ellipse id="Oval-Copy-5" cx="65.5" cy="3.36433101" rx="65.5" ry="3.36433101"></ellipse>
                        </g>
                        <g id="Group-9" transform="translate(25.000000, 0.000000)">
                            <mask id="mask-2" fill="white">
                                <use xlink:href="#path-1"></use>
                            </mask>
                            <g id="Mask"></g>
                            <g mask="url(#mask-2)">
                                <g transform="translate(1.000000, 9.364331)">
                                    <path d="M77.4844226,166 L12.5152532,166 C5.60321416,166 0,160.396743 0,153.485051 L0,12.5146249 C0,5.6030409 5.60321416,0 12.5152532,0 L77.4844226,0 C84.3964617,0 90,5.6030409 90,12.5146249 L90,153.485051 C90,160.396743 84.3964617,166 77.4844226,166" id="Fill-28" fill="#314155"></path>
                                    <polygon id="Fill-29" fill="#FFFFFF" points="2.45395215 148.727793 87.5461559 148.727793 87.5461559 12.5146249 2.45395215 12.5146249"></polygon>
                                    <polygon id="Fill-30" fill="#4E6278" points="31.0039043 7.41680633 58.9957716 7.41680633 58.9957716 6.01685645 31.0039043 6.01685645"></polygon>
                                    <path d="M70.4999892,6.71677737 C70.4999892,7.39184775 69.9532498,7.93899185 69.2779294,7.93899185 C68.6026091,7.93899185 68.0558697,7.39184775 68.0558697,6.71677737 C68.0558697,6.04181504 68.6026091,5.49456289 69.2779294,5.49456289 C69.9532498,5.49456289 70.4999892,6.04181504 70.4999892,6.71677737" id="Fill-31" fill="#4E6278"></path>
                                    <path d="M50.7730707,157.280701 C50.7730707,160.468053 48.1881605,163.05251 44.9998919,163.05251 C41.8116234,163.05251 39.2271454,160.468053 39.2271454,157.280701 C39.2271454,154.092269 41.8116234,151.507812 44.9998919,151.507812 C48.1881605,151.507812 50.7730707,154.092269 50.7730707,157.280701" id="Fill-32" fill="#4E6278"></path>
                                </g>
                            </g>
                        </g>
                    </g>
                </g>
                <rect id="Rectangle" fill="#00853F" x="63" y="78" width="47" height="6" rx="3"></rect>
                <rect id="Rectangle-Copy-83" fill="#737373" x="113" y="81" width="26" height="3" rx="1.5"></rect>
                <rect id="Rectangle" fill="#2B8639" x="58" y="57" width="86" height="16"></rect>
                <rect id="Rectangle-Copy-82" fill="#F4F4F4" x="63" y="105" width="76" height="63"></rect>
                <g id="Group-43" transform="translate(101.000000, 139.000000) scale(-1, 1) translate(-101.000000, -139.000000) translate(77.000000, 115.000000)">
                    <path d="M40.5908237,30.4936612 C41.3569377,30.4921584 41.9559508,29.8930539 41.9537066,29.1304124 C41.9514497,28.3827742 41.3267433,27.7608833 40.5818216,27.7647102 C39.8370875,27.7685726 39.2118183,28.3971212 39.2147152,29.1391331 C39.2176322,29.893429 39.8289293,30.4950653 40.5908237,30.4936612 M41.9962726,37.466676 C41.9962726,36.4986755 41.9983356,35.5305811 41.9956162,34.5624868 C41.9929906,33.614272 41.4219215,32.9881614 40.5746949,32.9981011 C39.7546622,33.0076658 39.1943768,33.6350892 39.1924076,34.5564855 C39.1894069,35.9461753 39.1841557,37.3358652 39.1977526,38.7253675 C39.2005658,39.0071501 39.1337066,39.1002649 38.8367319,39.0943573 C37.8534428,39.0746654 36.8694973,39.0835736 35.8858331,39.0879809 C34.9728727,39.092013 34.3351319,39.6672996 34.3323097,40.4792648 C34.3295056,41.284291 34.9810308,41.8849896 35.878894,41.888084 C37.4090591,41.893429 38.939318,41.894648 40.4693894,41.8878027 C41.4093561,41.8834892 41.9898961,41.3020137 41.9950535,40.3708653 C42.0003048,39.4028647 41.9961788,38.4347704 41.9962726,37.466676 M34.8946671,19.7694165 C36.7213381,19.7694165 38.5480091,19.7709168 40.3745863,19.7688539 C41.4378626,19.7675411 41.9954286,19.2138219 41.9958037,18.1590829 C41.9970228,14.5995265 41.9968352,11.03997 41.9958975,7.48031976 C41.9957099,6.38919755 41.4498654,5.83688492 40.357895,5.83604098 C36.7203066,5.83322784 33.0826245,5.83294653 29.4449424,5.83622852 C28.3746332,5.83716623 27.831508,6.38319619 27.8309454,7.44993788 C27.8289762,11.0095881 27.8292575,14.5691446 27.8306641,18.128701 C27.8310392,19.2321073 28.3649747,19.7680099 29.4616337,19.7690414 C31.2726449,19.7706355 33.083656,19.7695103 34.8946671,19.7694165 M48,1.87504982 L48,46.1249502 C47.7154969,47.0904189 47.0698794,47.6947746 46.1250366,48 L24,48 C24.001219,45.9718217 24.0025318,43.9436435 24.0037509,41.915559 C24.1752591,41.9107767 24.3467674,41.9020559 24.5182757,41.9019622 C26.3618256,41.9008369 28.2053755,41.9062756 30.0489253,41.8981175 C30.6489699,41.8954919 31.0856643,41.5975807 31.3442864,41.0599902 C31.6106915,40.506271 31.4900075,39.99428 31.1099511,39.5414586 C30.7953474,39.1666549 30.3642793,39.0669761 29.8898887,39.0696017 C28.546329,39.0769159 27.2026756,39.0642567 25.8592097,39.0783224 C25.5759257,39.0812293 25.4550541,39.0113698 25.4896558,38.7150526 C25.5111295,38.5301357 25.4935942,38.340624 25.4935942,38.1530816 C25.4935942,34.0285533 25.501471,29.9040251 25.4818728,25.7796845 C25.4798098,25.3503059 25.6029319,25.2622547 25.9989294,25.2813841 C26.684775,25.3143915 27.3742777,25.3118597 28.0604045,25.2818529 C28.4261138,25.2659118 28.5256055,25.3690602 28.5223235,25.7398317 C28.503663,27.8956326 28.5097581,30.0517148 28.5150093,32.2077033 C28.5172598,33.1643575 29.1036137,33.7482711 30.0568959,33.7514593 C31.4004556,33.7558666 32.744109,33.7579295 34.0876686,33.7494901 C34.9165159,33.7443327 35.5272504,33.1362262 35.5239684,32.344328 C35.5207802,31.5659329 34.8875405,30.9476991 34.0778226,30.9425417 C33.2810452,30.9373843 32.4840803,30.9320393 31.6875842,30.9467614 C31.4397459,30.9513562 31.3725116,30.8745575 31.3739182,30.6307523 C31.3836705,28.9590923 31.3852646,27.2873385 31.3729805,25.6157723 C31.3709175,25.3373655 31.4721909,25.2811965 31.7236863,25.2856038 C32.4889564,25.2992944 33.2547892,25.2993881 34.0200593,25.28551 C34.262834,25.2811965 34.3464783,25.3483367 34.3389766,25.5992686 C34.3216288,26.1768057 34.325661,26.7553743 34.3356008,27.3332864 C34.3509793,28.224207 34.9489609,28.8651335 35.7557718,28.8708536 C36.5831188,28.8766674 37.1901962,28.2254261 37.2006986,27.3111564 C37.2071688,26.7488103 37.2156083,26.1858077 37.19601,25.6240242 C37.1867266,25.3557447 37.2708398,25.2784772 37.5367761,25.2846661 C38.2706327,25.3017324 39.0052395,25.2968563 39.7394712,25.2880418 C40.1433455,25.2831657 40.5491891,25.3313641 40.9506253,25.2217456 C41.5762695,25.0508943 41.9952411,24.5422791 42.0118387,23.904916 C42.029374,23.2325761 41.6406906,22.6977049 41.0055755,22.4990037 C40.7767728,22.4274562 40.5468448,22.4220175 40.312322,22.4219237 C34.8757253,22.4194857 29.4391285,22.4157348 24.0025318,22.4122653 C24.0031882,21.5716998 24.0037509,20.7310406 24.0044073,19.8903814 C24.9892905,19.8103008 25.4926565,19.2713037 25.4930316,18.2871744 C25.4942506,14.6823265 25.4940631,11.0774785 25.4932191,7.47263052 C25.4930316,6.45877582 25.0276431,5.94181494 24.0030945,5.81081651 C24.002063,3.87387768 24.0010315,1.93693884 24,0 L46.1250366,0 C46.2787283,0.164662306 46.5085625,0.149190051 46.6961995,0.239679302 C47.3981738,0.578287268 47.7334073,1.19642732 48,1.87504982" id="Fill-1" fill="#6A6A6A"></path>
                    <path d="M13.0210791,25.2604731 C14.799975,25.2604731 16.5787771,25.2611295 18.357673,25.2595354 C18.5446193,25.2593478 18.7332531,25.2601918 18.9181368,25.236749 C19.621576,25.1472912 20.1406003,24.5633776 20.1477984,23.8660009 C20.1546635,23.1922545 19.664703,22.6013081 18.9881713,22.4821249 C18.8205385,22.4525869 18.6469053,22.4479921 18.4760848,22.4478984 C14.8559464,22.4460229 11.2358079,22.4461167 7.61566948,22.4477108 C7.4602247,22.4477108 7.30262356,22.4513679 7.1498039,22.4764986 C6.44214573,22.5929625 5.96071691,23.1762196 5.97524884,23.8881309 C5.99174961,24.6936259 6.5930903,25.2512835 7.49725768,25.2567222 C9.33850024,25.2675997 11.1798366,25.2600042 13.0210791,25.2604731 M13.0282982,27.9542396 C11.2321515,27.9542396 9.43600481,27.9535832 7.63995187,27.9545209 C6.50561745,27.9550836 5.97281123,28.4814216 5.9722487,29.609771 C5.97046737,33.1557306 5.97037361,36.701784 5.97234245,40.2478374 C5.97290498,41.3698103 6.50964889,41.8942729 7.64923356,41.8944605 C11.2570902,41.8949885 14.8649468,41.8952106 18.4728034,41.8944605 C19.599075,41.8941791 20.1484757,41.3522751 20.1488507,40.2387416 C20.1499758,36.6926882 20.1499758,33.1467286 20.148757,29.6006752 C20.148382,28.5102093 19.5958873,27.9556462 18.5103052,27.9547085 C16.683032,27.9531144 14.8556651,27.9542396 13.0282982,27.9542396 M13.0367361,19.7742926 C14.8328828,19.7742926 16.6290295,19.7746677 18.4251762,19.7741051 C19.6171696,19.77373 20.148757,19.2497363 20.1490382,18.0731885 C20.1494836,14.5582671 20.1496945,11.0434395 20.1489445,7.52861195 C20.148757,6.37344398 19.6125756,5.83050847 18.4647405,5.82994585 C14.8567902,5.82816419 11.2488398,5.82816419 7.64098317,5.82994585 C6.50861759,5.83050847 5.97271747,6.36350423 5.9722487,7.48885294 C5.97046737,11.0349063 5.97037361,14.5809597 5.9722487,18.1271069 C5.97290498,19.2484235 6.51011766,19.7734487 7.64829601,19.7740113 C9.44444271,19.774949 11.2405894,19.7742926 13.0367361,19.7742926 M23.9994375,41.915559 C23.9981249,43.9437373 23.9969061,45.9718217 23.9955935,48 L1.78086473,48 C1.28584152,47.7081839 0.752379018,47.4749748 0.413269372,46.9663596 C0.253324375,46.7263989 0.223041705,46.4196732 0,46.2187214 L0,1.78127857 C0.294857571,1.26928757 0.527462225,0.716037227 1.06748754,0.382680451 C1.29915465,0.239585531 1.58885573,0.21089153 1.78086473,0 L23.9955935,0 C23.9967186,1.93693884 23.9977499,3.87387768 23.9986874,5.81081651 C22.9161992,6.14604871 22.6676563,6.48643833 22.6675625,7.63551117 C22.6674688,11.1805331 22.666625,14.7254612 22.6683126,18.2704832 C22.6687813,19.2347329 23.0413613,19.6832407 24,19.8903814 C23.9994375,20.7310406 23.9988749,21.5716998 23.9982187,22.4123591 C22.9221995,22.7439342 22.6681251,23.0913566 22.6681251,24.234053 C22.6679376,29.5377546 22.6679376,34.8414563 22.6681251,40.1451579 C22.6682188,41.2435943 22.9560448,41.6255245 23.9994375,41.915559" id="Fill-3" fill="#7C7C7C"></path>
                    <g id="Group-7" transform="translate(0.000000, 46.000000)">
                        <mask id="mask-4" fill="white">
                            <use xlink:href="#path-3"></use>
                        </mask>
                        <g id="Clip-6"></g>
                        <path d="M0.00614028182,0 C0.255845076,0.224937284 0.289852791,0.568273661 0.468813141,0.836770896 C0.848460993,1.40609419 1.44569524,1.667139 2,1.99389111 C1.40528484,1.99389111 0.81046472,1.98423445 0.216169409,1.99966412 C0.0334304233,2.00438748 -0.00435592642,1.96660054 0.000367367289,1.78385868 C0.0157967934,1.18955401 0.00614028182,0.594619559 0.00614028182,0" id="Fill-5" fill="#FCF3F3" mask="url(#mask-4)"></path>
                    </g>
                    <path d="M2,0.00568794387 C1.78498889,0.241801221 1.46058247,0.273926905 1.20105734,0.434030394 C0.596338588,0.807360236 0.335973569,1.42667203 0.00568794387,2 C0.00568794387,1.41291888 0.0152416603,0.825627782 0.000333663241,0.238966602 C-0.00460067381,0.0437978237 0.0437978237,-0.00460067381 0.238966602,0.000333663241 C0.825627782,0.0151366744 1.41291888,0.00568794387 2,0.00568794387" id="Fill-8" fill="#FCF3F3"></path>
                    <g id="Group-12" transform="translate(46.000000, 0.000000)">
                        <mask id="mask-6" fill="white">
                            <use xlink:href="#path-5"></use>
                        </mask>
                        <g id="Clip-11"></g>
                        <path d="M1.99422527,2 C1.71057553,1.27831912 1.35411836,0.620867439 0.607493181,0.260725142 C0.407921049,0.164481078 0.163367892,0.180937317 0,0.00580304004 C0.598217714,0.00580304004 1.19673464,0.014479966 1.79465314,0.000317627048 C1.96819413,-0.00387123378 2.00379995,0.0317340833 1.99971077,0.205272603 C1.98544849,0.803282354 1.99422527,1.40169104 1.99422527,2" id="Fill-10" fill="#FCF3F3" mask="url(#mask-6)"></path>
                    </g>
                    <path d="M46,47.9942109 C47.0049277,47.6696717 47.6916016,47.0268765 47.994197,46 C47.994197,46.5982134 47.98552,47.196726 47.9996824,47.7946402 C48.0038712,47.9681799 47.9682659,48.0037855 47.7947274,47.9996964 C47.1967176,47.9854342 46.598309,47.9942109 46,47.9942109" id="Fill-13" fill="#FCF3F3"></path>
                    <path d="M24.3082621,42 C23.283043,41.7025776 23.0002303,41.3109185 23,40.1845019 C23,34.7457005 23,29.306899 23,23.8680975 C23,22.6962935 23.2497872,22.3400213 24.3070645,22 C29.6479871,22.0035579 34.9889098,22.0073081 40.3298324,22.0098083 C40.560228,22.0099045 40.7861097,22.0155779 41.0108859,22.0889479 C41.6348242,22.2927106 42.0166674,22.8412064 41.9994407,23.5306726 C41.9831352,24.184175 41.5715368,24.7058422 40.9569028,24.8809493 C40.562531,24.9933602 40.1638296,24.943934 39.7670627,24.9489343 C39.0457521,24.9579733 38.3240731,24.9629736 37.6031309,24.9454726 C37.3418746,24.939126 37.2592418,25.0183617 37.2683618,25.2935712 C37.2876151,25.8695688 37.2793242,26.4469125 37.2729678,27.0235832 C37.2626502,27.9611418 36.6662563,28.628972 35.8534691,28.6230101 C35.0608566,28.6171443 34.4733984,27.9598917 34.4582905,27.0462769 C34.4485256,26.4536437 34.4445644,25.8604336 34.4616068,25.268185 C34.4689766,25.0108613 34.3868043,24.9419146 34.148302,24.9464342 C33.3964992,24.9605697 32.6441437,24.9604735 31.8923409,24.9465303 C31.6452713,24.9419146 31.5457802,24.9995144 31.5478069,25.2851092 C31.5598748,26.9992548 31.5583087,28.7135927 31.5487281,30.4277383 C31.5473462,30.6778501 31.6133973,30.756605 31.8568742,30.7518931 C32.6393534,30.736796 33.4222932,30.742181 34.2050487,30.7474698 C35.0005171,30.7528547 35.6226129,31.3867405 35.625745,32.1849635 C35.6289693,32.9970335 35.0289826,33.6207263 34.2147215,33.6260151 C32.894806,33.6346695 31.5747984,33.6324578 30.254883,33.6279383 C29.3183768,33.624765 28.7423416,33.0259776 28.7401307,32.0448586 C28.7349719,29.8339512 28.728984,27.6229476 28.7474083,25.4122325 C28.7505404,25.0320164 28.6527996,24.9262406 28.2935262,24.9426839 C27.6194738,24.9733589 26.9421052,24.9759552 26.2683292,24.942107 C25.8793005,24.9225865 25.7583451,25.0128806 25.7603718,25.4531004 C25.7796252,29.6825955 25.771887,33.9121868 25.771887,38.1417781 C25.771887,38.3340016 25.7891137,38.5283407 25.7680179,38.7180641 C25.7340251,39.0218331 25.8527696,39.0935683 26.1310683,39.0904912 C27.4508917,39.0760673 28.7708993,39.0890488 30.0908147,39.0815484 C30.5568569,39.078952 30.980339,39.1810738 31.2894063,39.5654248 C31.6627744,40.0297807 31.7813346,40.5548135 31.5196177,41.1226375 C31.2655469,41.6739219 30.8365375,41.9794218 30.2470526,41.9821143 C28.4359458,41.9904802 26.624839,41.9849991 24.8137323,41.9860568 C24.6452422,41.9862491 24.4767522,41.995192 24.3082621,42" id="Fill-15" fill="#FCF3F3"></path>
                    <path d="M34.9912196,17.1831584 C36.286871,17.1831584 37.582615,17.1733615 38.8779884,17.1906003 C39.1701633,17.1944626 39.2353999,17.1059135 39.2342115,16.8218971 C39.223724,14.2661261 39.224558,11.7103551 39.2333613,9.15458407 C39.2342115,8.89006728 39.16414,8.80905431 38.8980042,8.81009052 C36.3067941,8.81969904 33.715584,8.82054685 31.1243739,8.80932269 C30.8345157,8.8080181 30.7624218,8.89816858 30.7634411,9.1820908 C30.773171,11.7221302 30.774561,14.2622638 30.7620335,16.8023033 C30.7605685,17.115993 30.8525855,17.1936148 31.1506909,17.1899409 C32.4306818,17.1741151 33.7110434,17.1831584 34.9912196,17.1831584 M34.9818604,19.9994898 C33.1922083,19.9994898 31.4025562,20.0007144 29.6129041,19.999113 C28.5291791,19.9980768 28.0015408,19.4596231 28.0010775,18.3512525 C27.9997802,14.7753774 27.9994095,11.1994081 28.0013555,7.62353302 C28.0020041,6.5518067 28.538631,6.00336769 29.5964097,6.00242568 C33.191189,5.99912864 36.7858756,5.99931704 40.3806549,6.00223728 C41.459654,6.00308509 41.9990608,6.55783557 41.9993388,7.65405419 C42.0000458,11.2299293 42.0004508,14.8058986 41.9991535,18.3817737 C41.9987828,19.4413481 41.4478854,19.9976058 40.3971494,19.9988304 C38.5920222,20.000997 36.7869876,19.9994898 34.9818604,19.9994898" id="Fill-17" fill="#FCF3F3"></path>
                    <path d="M23.4168243,20 C22.3977354,19.7940299 22.0015615,19.3480566 22.0010632,18.3892559 C21.9992692,14.8642673 22.0002658,11.3392786 22.0003655,7.81438314 C22.0003655,6.67171058 22.2645811,6.33333777 23.4154289,6 C24.5044836,6.13025815 24.9990283,6.64429763 24.9993273,7.65242294 C25.0001246,11.2368996 25.0004236,14.8213762 24.9990283,18.4058529 C24.9987293,19.3844207 24.4636204,19.9203719 23.4168243,20" id="Fill-19" fill="#FCF3F3"></path>
                    <path d="M41.998414,37.521747 C41.998414,38.5013152 42.00272,39.4808834 41.9971418,40.4603566 C41.9918571,41.4025411 41.3859826,41.9909082 40.4049964,41.9951779 C38.8080557,42.0021992 37.2111149,42.0008709 35.6141742,41.9955574 C34.6770309,41.9924263 33.9970736,41.3846082 34,40.5699461 C34.0029454,39.7484524 34.6686146,39.1663475 35.6214161,39.1621727 C36.6480069,39.1577132 37.6748913,39.1487942 38.7010906,39.1686247 C39.0110251,39.1746972 39.0808019,39.0803838 39.077866,38.7953564 C39.0635779,37.3893858 39.0690583,35.9831305 39.0721899,34.577065 C39.0743429,33.6447483 39.658981,33.0097939 40.5147995,33.0001158 C41.3990964,32.9901532 41.9950866,33.6236844 41.9978268,34.5831374 C42.0006649,35.5627056 41.998414,36.5421789 41.998414,37.521747" id="Fill-21" fill="#FCF3F3"></path>
                    <path d="M40.5072429,31 C39.6727449,31.0015436 39.003195,30.3401506 39,29.5109354 C38.9968271,28.6952243 39.6816804,28.004246 40.497383,28 C41.313291,27.995793 41.9975281,28.6794523 42,29.5013485 C42.0024581,30.3397383 41.3463628,30.9983479 40.5072429,31" id="Fill-23" fill="#FCF3F3"></path>
                    <path d="M13.03075,8.82462813 C11.7516597,8.82462813 10.4724768,8.8339475 9.19357168,8.81794454 C8.88428308,8.81408501 8.76828828,8.88157983 8.77020834,9.22545515 C8.7843961,11.7482743 8.78337779,14.2713759 8.77088034,16.7941951 C8.76930659,17.1086062 8.86317628,17.1836318 9.16061546,17.1823309 C11.7187034,17.1711118 14.276884,17.1717708 16.8350646,17.181655 C17.1203766,17.1826904 17.2322982,17.1293159 17.2304692,16.8033262 C17.2165606,14.2647865 17.2183195,11.7260585 17.2288729,9.18751873 C17.2300764,8.9000303 17.1555546,8.81436741 16.8679282,8.81785041 C15.5890231,8.83347683 14.3098402,8.82462813 13.03075,8.82462813 M12.9768721,19.9997758 C11.2033459,19.9997758 9.42981967,20.0004347 7.65629346,19.9994934 C6.53244921,19.9989286 6.00200213,19.4718664 6.00135411,18.3461996 C5.99950264,14.7862946 5.99959521,11.2264838 6.00135411,7.66667295 C6.00181698,6.53695829 6.53096803,6.00198883 7.64907271,6.00142402 C11.2114924,5.99954132 14.7740046,5.99954132 18.3365168,6.00132988 C19.4698961,6.00189469 19.9993249,6.5469366 19.99951,7.70658621 C20.0002506,11.2351442 20.0000423,14.7636081 19.9996026,18.2920719 C19.9993249,19.4731843 19.4744322,19.999211 18.2974507,19.9995875 C16.5239245,20.0001523 14.7503983,19.9997758 12.9768721,19.9997758" id="Fill-25" fill="#FCF3F3"></path>
                    <path d="M13.0315496,30.8253182 C11.7530355,30.8253182 10.4744289,30.8342641 9.19600742,30.8188206 C8.89033416,30.8151481 8.76804634,30.8754153 8.77005793,31.2233642 C8.78452418,33.7460175 8.78332074,36.2688591 8.7708235,38.7916066 C8.76924977,39.1070677 8.86432138,39.1824959 9.16175572,39.1811944 C11.7187838,39.17016 14.2759045,39.1709133 16.8329326,39.1804242 C17.1164811,39.1814601 17.2321037,39.1305154 17.2302742,38.8026242 C17.2163665,36.2642449 17.2181254,33.7257715 17.2287711,31.1872981 C17.2299746,30.8984863 17.1533248,30.8151481 16.8670917,30.8186323 C15.5886703,30.8340758 14.3100636,30.8253182 13.0315496,30.8253182 M12.9684154,28.0003872 C14.7727393,28.0003872 16.5770632,27.9992572 18.3812945,28.000858 C19.4530949,28.0017997 19.9987152,28.5586122 19.9990855,29.6537803 C20.0002889,33.2148186 20.0002889,36.7757628 19.9991781,40.3368012 C19.9988078,41.4550403 19.4563349,41.9992343 18.3442656,41.9994226 C14.7819039,42.000176 11.2195422,42.000176 7.65718046,41.9995168 C6.5319659,41.9993285 6.0019903,41.4726496 6.00143487,40.3459354 C5.99949085,36.7848971 5.99958343,33.2238587 6.0013423,29.6629145 C6.00189773,28.5297969 6.52798529,28.0012347 7.64801582,28.0006697 C9.42142062,27.999728 11.194918,28.0003872 12.9684154,28.0003872" id="Fill-27" fill="#FCF3F3"></path>
                    <path d="M12.9602069,25.9974876 C11.1414224,25.9971879 9.32254534,26.0053794 7.50376084,25.9936916 C6.6106218,25.9879975 6.0166158,25.3939169 6.00031629,24.5358115 C5.98596161,23.7774023 6.46151833,23.1559502 7.16054503,23.0319794 C7.31150072,23.0052073 7.46717956,23.0013114 7.62072835,23.0012115 C11.1967111,22.9996132 14.7726939,22.9995133 18.3486767,23.0014113 C18.5174136,23.0015112 18.6889289,23.006506 18.8545171,23.0379732 C19.522797,23.1649408 20.0067813,23.7943845 20,24.5121362 C19.9928897,25.2551615 19.480196,25.877213 18.7853368,25.9724137 C18.6027082,25.9974876 18.4163752,25.9965885 18.2317092,25.9967883 C16.4745109,25.9983867 14.7174052,25.9977873 12.9602069,25.9974876" id="Fill-29" fill="#FCF3F3"></path>
                    <path d="M33.0707265,12.9808916 C33.060292,13.711535 33.6827185,14.2983156 34.4770185,14.3064078 C35.2732873,14.31459 35.9217015,13.7427352 35.9339078,13.0215328 C35.9460158,12.3019489 35.3098079,11.7038391 34.5208236,11.6931393 C33.728197,11.6823496 33.0810626,12.2570816 33.0707265,12.9808916 M34.4926702,16.9927767 C33.1327427,16.9927767 31.7726184,16.9841449 30.4128878,16.9992505 C30.0962113,17.0027572 29.9984619,16.9286678 30.0000182,16.6292533 C30.0133261,14.2048047 30.0117511,11.7802662 30.0015135,9.35581766 C30.0003322,9.08481603 30.0770158,8.99876806 30.3849313,9.00001329 C33.1374678,9.01072666 35.8902011,9.00991743 38.6428361,9.00074618 C38.9255513,8.99975712 38.9999856,9.07717331 38.9990849,9.32956269 C38.9896348,11.7690269 38.9887488,14.2084912 38.9999856,16.6479554 C39.0011521,16.919047 38.9319498,17.0036563 38.6215733,16.9998799 C37.2454036,16.9835155 35.8689384,16.9927767 34.4926702,16.9927767" id="Fill-31" fill="#7C7C7C"></path>
                    <path d="M13.4662747,14.3131471 C14.2645463,14.3249413 14.9216973,13.7523386 14.9394236,13.0295628 C14.9570513,12.3101182 14.3174295,11.7024932 13.5266424,11.6876379 C12.7302419,11.6726026 12.0754543,12.2470959 12.0610764,12.973563 C12.046403,13.7078629 12.6689879,14.3013529 13.4662747,14.3131471 M13.5323541,9.00657912 C14.8930399,9.00657912 16.2538241,9.01504211 17.6143129,9.00009682 C17.9202875,8.99676565 17.9995632,9.07869464 17.9982829,9.35365195 C17.9870563,11.7815412 17.9851852,14.2096105 17.9999788,16.6374997 C18.0018282,16.94928 17.8828654,17.0003281 17.5793528,16.9993377 C14.8579813,16.9898844 12.1366098,16.9892542 9.4153368,16.9999842 C9.09892344,17.0012284 8.99906563,16.929473 9.00073978,16.6287666 C9.01403446,14.2159127 9.01501925,11.8027887 9.0000249,9.38993479 C8.99798236,9.0610484 9.12137668,8.99649555 9.45039536,9.00018686 C10.8108842,9.01549227 12.1716684,9.00657912 13.5323541,9.00657912" id="Fill-33" fill="#7C7C7C"></path>
                    <path d="M13.4722325,36.3128993 C14.2686238,36.3217274 14.9251764,35.7440278 14.9396527,35.0219259 C14.9540305,34.3016257 14.3124465,33.6974418 13.5206837,33.6857311 C12.7222243,33.6739303 12.0725651,34.2488373 12.0609447,34.9775152 C12.0493243,35.7112378 12.6759396,36.3040712 13.4722325,36.3128993 M13.5333873,31.0064952 C14.8934665,31.0065853 16.2536442,31.0148729 17.613625,31.0000993 C17.9181188,30.9967663 17.9996586,31.0765794 17.9983784,31.3528627 C17.9870534,33.7811285 17.9851823,36.2094845 17.9999773,38.6377504 C18.0019236,38.9514179 17.8789246,39.0002426 17.5772866,38.9992517 C14.8571282,38.9901534 12.1368712,38.9894327 9.41671281,38.9999864 C9.1003031,39.0011435 8.99916622,38.9290774 9.00084035,38.6272107 C9.01413487,36.2139886 9.01541509,33.8005864 9.00002594,31.3872742 C8.99788601,31.0545092 9.1279754,30.9967663 9.45314966,31.0002795 C10.8131304,31.015053 12.1733081,31.0064952 13.5333873,31.0064952" id="Fill-35" fill="#7C7C7C"></path>
                    <path d="M33.0001355,12.4783617 C33.0109643,11.6475119 33.6889516,10.9877862 34.5193674,11.0001716 C35.3459674,11.0124537 36.0125071,11.6990143 35.9998219,12.5250131 C35.9870336,13.3528698 35.3077056,14.0092927 34.4734738,13.9999005 C33.6413048,13.9906115 32.9892035,13.3170555 33.0001355,12.4783617" id="Fill-37" fill="#FCF3F3"></path>
                    <path d="M13.4645433,13.9997955 C12.6337353,13.9863215 11.9849745,13.3082994 12.0002648,12.4694117 C12.0152472,11.6394724 12.6975647,10.9831528 13.527449,11.0003296 C14.3514841,11.0173007 15.0179981,11.7114711 14.9996292,12.5333877 C14.9811577,13.3591099 14.2963774,14.0132696 13.4645433,13.9997955" id="Fill-39" fill="#FCF3F3"></path>
                    <path d="M13.4707146,35.999886 C12.6409848,35.9898061 11.9880574,35.3129131 12.0001657,34.4751538 C12.0122741,33.6431544 12.6892129,32.9867297 13.5212003,33.0002038 C14.3462099,33.013575 15.0147345,33.7034279 14.999753,34.5258616 C14.9846689,35.3503526 14.3005471,36.0099659 13.4707146,35.999886" id="Fill-41" fill="#FCF3F3"></path>
                </g>
                <g id="Group-56" transform="translate(120.000000, 144.000000)" fill-rule="nonzero">
                    <path d="M24,12.0002472 C24,18.627434 18.627434,24 12.0002473,24 C5.37256598,24 0,18.627434 0,12.0002472 C0,5.37256598 5.37256598,0 12.0002473,0 C18.627434,0 24,5.37256598 24,12.0002472 Z" id="Path" fill="#126D29"></path>
                    <path d="M21.6,12.0001977 C21.6,17.3019472 17.3019472,21.6 12.0001978,21.6 C6.69805279,21.6 2.4,17.3019472 2.4,12.0001977 C2.4,6.69805279 6.69805279,2.4 12.0001978,2.4 C17.3019472,2.4 21.6,6.69805279 21.6,12.0001977 Z" id="Path-Copy-6" fill="#38AC49"></path>
                    <path d="M10.7231413,16.32 C10.2914184,16.32 9.87825544,16.1505149 9.57766318,15.8499038 L6.69076787,12.9643508 C6.07667212,12.3506032 6.09200439,11.3700944 6.72466015,10.7747436 C7.35691235,10.1790014 8.36722487,10.1934839 8.98132062,10.8076229 L10.7118439,12.5373108 L15.0076895,8.16083651 C15.6157331,7.5412176 16.6260456,7.51734096 17.26435,8.10721181 C17.903058,8.69669136 17.9276702,9.67680868 17.3196268,10.2964276 L11.8787064,15.8393354 C11.5793248,16.1442522 11.1649513,16.3180429 10.730404,16.32 C10.7279831,16.32 10.7255623,16.32 10.7231413,16.32 L10.7231413,16.32 Z" id="Path" fill="#FFFFFF"></path>
                </g>
                <g id="icons/-viva-cash" transform="translate(50.000000, 139.000000)" fill="#FF4D29" fill-rule="nonzero">
                    <path d="M16.4285714,10.5882353 L16.4285714,0.958309892 C16.4285714,0.429049953 16.0083642,0 15.4782933,0 L11.5,0 L7.52170672,0 C6.99688259,0 6.57142857,0.428185323 6.57142857,0.958309892 L6.57142857,10.5882353 L0.955542134,10.5882353 C0.427810786,10.5882353 0.295827813,10.9060043 0.651239693,11.2877767 L10.8487603,22.2416351 C11.2084301,22.6279811 11.7958278,22.6234075 12.1512397,22.2416351 L22.3487603,11.2877767 C22.7084301,10.9014306 22.5688302,10.5882353 22.0444579,10.5882353 L16.4285714,10.5882353 Z M0,28.2352941 C0,29.2099143 0.791712061,30 1.76658104,30 L21.233419,30 C22.2090747,30 23,29.2167091 23,28.2352941 L23,28.2352941 C23,27.260674 22.2082879,26.4705882 21.233419,26.4705882 L1.76658104,26.4705882 C0.790925274,26.4705882 0,27.2538791 0,28.2352941 L0,28.2352941 Z" id="Mask"></path>
                </g>
                <path d="M68.375,91 L133.625,91 C136.386424,91 138.625,93.2385763 138.625,96 L138.625,105 L138.625,105 L63.375,105 L63.375,96 C63.375,93.2385763 65.6135763,91 68.375,91 Z" id="Rectangle-Copy-81" fill="#004A23"></path>
                <rect id="Rectangle-Copy-84" fill="#FFFFFF" x="68" y="96" width="29" height="4" rx="2"></rect>
                <rect id="Rectangle-Copy-85" fill="#FFFFFF" x="120" y="96" width="15" height="4" rx="2"></rect>
            </g>
        </g>
    </g>
</svg>