<?xml version="1.0" encoding="UTF-8"?>
<svg width="200px" height="200px" viewBox="0 0 200 200" version="1.1" xmlns="http://www.w3.org/2000/svg" xmlns:xlink="http://www.w3.org/1999/xlink">
    <title>S2_Paso1</title>
    <g id="Page-1" stroke="none" stroke-width="1" fill="none" fill-rule="evenodd">
        <g id="Artboard" transform="translate(-5270.000000, -4402.000000)">
            <g id="S1_2-Copy-6" transform="translate(5270.000000, 4402.000000)">
                <rect id="Rectangle-Copy-5" x="0" y="0" width="200" height="200"></rect>
                <g id="Carta-de-derechos--Copy" transform="translate(33.000000, 36.000000)">
                    <rect id="Rectangle-Copy-3" x="0" y="0" width="143" height="143"></rect>
                    <g id="Group-17" transform="translate(4.039504, 128.271338)" fill="#C0C0C0">
                        <ellipse id="Oval-Copy-5" cx="65.5" cy="3.36433101" rx="65.5" ry="3.36433101"></ellipse>
                    </g>
                </g>
                <g id="Group-9" transform="translate(81.000000, 42.000000)">
                    <path d="M57.6828479,122 L9.31691074,122 C4.17128166,122 0,117.881944 0,112.802266 L0,9.19749542 C0,4.11789753 4.17128166,0 9.31691074,0 L57.6828479,0 C62.828477,0 67,4.11789753 67,9.19749542 L67,112.802266 C67,117.881944 62.828477,122 57.6828479,122" id="Fill-28" fill="#314155"></path>
                    <polygon id="Fill-29" fill="#FFFFFF" points="1.82683105 109.305968 65.1732494 109.305968 65.1732494 9.19749542 1.82683105 9.19749542"></polygon>
                    <polygon id="Fill-29" fill="#2B8639" points="1.82683105 17.1974954 65.1732494 17.1974954 65.1732494 9.19749542 1.82683105 9.19749542"></polygon>
                    <g id="Group-52-Copy-2" transform="translate(6.000000, 23.000000)">
                        <rect id="Rectangle" fill="#EDEDED" transform="translate(28.000000, 10.000000) scale(1, -1) translate(-28.000000, -10.000000) " x="0" y="0" width="56" height="20" rx="1.89830508"></rect>
                        <path d="M14.7449936,10.0834712 C17.5807609,10.0834712 22.129404,10.0834712 28.3909228,10.0834712 C34.6524417,10.0834712 39.2789398,10.0834712 42.2704173,10.0834712" id="Path-13" stroke="#494949" stroke-width="1.01704733" opacity="0.39822969" stroke-dasharray="2.373110367079913"></path>
                        <rect id="Rectangle" fill="#B7B7B7" opacity="0.803538005" transform="translate(7.765794, 9.454545) scale(1, -1) translate(-7.765794, -9.454545) " x="2.54545455" y="3.45454545" width="10.440678" height="12" rx="0.949152542"></rect>
                        <rect id="Rectangle-Copy-19" fill="#B7B7B7" opacity="0.803538005" transform="translate(48.104777, 9.454545) scale(1, -1) translate(-48.104777, -9.454545) " x="42.8844376" y="3.45454545" width="10.440678" height="12" rx="0.949152542"></rect>
                        <rect id="Rectangle-Copy-18" fill="#B7B7B7" opacity="0.803538005" transform="translate(7.765794, 17.500000) scale(1, -1) translate(-7.765794, -17.500000) " x="2.54545455" y="16.8181818" width="10.440678" height="1.36363636" rx="0.681818182"></rect>
                        <rect id="Rectangle-Copy-20" fill="#B7B7B7" opacity="0.803538005" transform="translate(48.104777, 17.500000) scale(1, -1) translate(-48.104777, -17.500000) " x="42.8844376" y="16.8181818" width="10.440678" height="1.36363636" rx="0.681818182"></rect>
                    </g>
                    <polygon id="Fill-30" fill="#4E6278" points="23.0806843 5.45090586 43.9190744 5.45090586 43.9190744 4.42202703 23.0806843 4.42202703"></polygon>
                    <path d="M52.4833253,4.93642674 C52.4833253,5.4325628 52.0763082,5.83468076 51.5735697,5.83468076 C51.0708312,5.83468076 50.6638141,5.4325628 50.6638141,4.93642674 C50.6638141,4.44037009 51.0708312,4.03817272 51.5735697,4.03817272 C52.0763082,4.03817272 52.4833253,4.44037009 52.4833253,4.93642674" id="Fill-31" fill="#4E6278"></path>
                    <path d="M37.7977304,115.591841 C37.7977304,117.934352 35.8734083,119.833772 33.4999196,119.833772 C31.1264308,119.833772 29.2024304,117.934352 29.2024304,115.591841 C29.2024304,113.248535 31.1264308,111.349115 33.4999196,111.349115 C35.8734083,111.349115 37.7977304,113.248535 37.7977304,115.591841" id="Fill-32" fill="#4E6278"></path>
                    <path d="M33.4999196,118.832448 C31.2981663,118.832448 29.4842053,117.198248 29.2331578,115.090781 C29.2136113,115.255154 29.2024304,115.421909 29.2024304,115.591841 C29.2024304,117.934352 31.1264308,119.833772 33.4999196,119.833772 C35.8734083,119.833772 37.7977304,117.934352 37.7977304,115.591841 C37.7977304,115.421909 37.7864691,115.255154 37.7663596,115.090781 C37.5153925,117.198248 35.7016729,118.832448 33.4999196,118.832448" id="Fill-33" fill="#404D58"></path>
                </g>
                <g id="Group-92" transform="translate(81.000000, 42.000000)">
                    <g id="Group-91">
                        <g id="Group-90">
                            <g id="Group-9">
                                <path d="M57.6828479,122 L9.31691074,122 C4.17128166,122 0,117.881944 0,112.802266 L0,9.19749542 C0,4.11789753 4.17128166,0 9.31691074,0 L57.6828479,0 C62.828477,0 67,4.11789753 67,9.19749542 L67,112.802266 C67,117.881944 62.828477,122 57.6828479,122" id="Fill-28" fill="#314155"></path>
                                <polygon id="Fill-29" fill="#EBEBEB" points="1.88732394 109.139265 65.2796316 109.139265 65.2796316 9.08510638 1.88732394 9.08510638"></polygon>
                                <g id="Group-52-Copy-8" transform="translate(5.661972, 51.010316)">
                                    <rect id="Rectangle" fill="#FFFFFF" transform="translate(27.959615, 20.982270) scale(1, -1) translate(-27.959615, -20.982270) " x="0" y="0" width="55.9192308" height="41.964539" rx="1.90057922"></rect>
                                    <path d="M14.7237268,23.2477833 C17.5554041,23.2477833 22.0974866,23.2477833 28.3499744,23.2477833 C34.6024622,23.2477833 39.2222875,23.2477833 42.2094504,23.2477833" id="Path-13" stroke="#494949" stroke-width="1.01826573" fill="#39B54A" opacity="0.39822969" stroke-dasharray="2.375953031622845"></path>
                                    <rect id="Rectangle" fill="#C7C7C7" opacity="0.803538005" transform="translate(7.754593, 21.813551) scale(1, -1) translate(-7.754593, -21.813551) " x="2.54178322" y="20.0115468" width="10.4256193" height="3.60400914" rx="0.95028961"></rect>
                                    <rect id="Rectangle-Copy-71" fill="#C7C7C7" transform="translate(28.020656, 23.039916) scale(1, -1) translate(-28.020656, -23.039916) " x="25.6615015" y="20.876795" width="4.71830986" height="4.32624113" rx="2.16312057"></rect>
                                    <rect id="Rectangle-Copy-19" fill="#C7C7C7" opacity="0.803538005" transform="translate(48.035395, 21.813551) scale(1, -1) translate(-48.035395, -21.813551) " x="42.822585" y="20.0115468" width="10.4256193" height="3.60400914" rx="0.95028961"></rect>
                                    <rect id="Rectangle-Copy-18" fill="#C7C7C7" opacity="0.803538005" transform="translate(7.754593, 25.642811) scale(1, -1) translate(-7.754593, -25.642811) " x="2.54178322" y="24.9670594" width="10.4256193" height="1.35150343" rx="0.675751714"></rect>
                                    <rect id="Rectangle-Copy-69" fill="#C7C7C7" transform="translate(32.267135, 7.878407) scale(1, -1) translate(-32.267135, -7.878407) " x="19.5276987" y="5.93159838" width="25.4788732" height="3.89361702" rx="0.95028961"></rect>
                                    <rect id="Rectangle" fill="#D6D6D6" x="2.35915493" y="3.06769826" width="13.6830986" height="12.5460993" rx="0.943661972"></rect>
                                    <rect id="Rectangle-Copy-72" fill="#C7C7C7" transform="translate(27.784741, 34.917414) scale(1, -1) translate(-27.784741, -34.917414) " x="2.54178322" y="31.023797" width="50.4859155" height="7.78723404" rx="2.35915493"></rect>
                                    <rect id="Rectangle-Copy-70" fill="#C7C7C7" opacity="0.6" transform="translate(26.841079, 12.204648) scale(1, -1) translate(-26.841079, -12.204648) " x="19.5276987" y="11.1230877" width="14.6267606" height="2.16312057" rx="0.95028961"></rect>
                                    <rect id="Rectangle-Copy-20" fill="#C7C7C7" opacity="0.803538005" transform="translate(48.035395, 25.642811) scale(1, -1) translate(-48.035395, -25.642811) " x="42.822585" y="24.9670594" width="10.4256193" height="1.35150343" rx="0.675751714"></rect>
                                </g>
                                <polygon id="Fill-30" fill="#4E6278" points="22.9346154 5.42746615 43.8076923 5.42746615 43.8076923 4.48355899 22.9346154 4.48355899"></polygon>
                                <path d="M52.5692308,4.95551257 C52.5692308,5.4768644 52.1657179,5.89941973 51.6673077,5.89941973 C51.1688975,5.89941973 50.7653846,5.4768644 50.7653846,4.95551257 C50.7653846,4.43424418 51.1688975,4.01160542 51.6673077,4.01160542 C52.1657179,4.01160542 52.5692308,4.43424418 52.5692308,4.95551257" id="Fill-31" fill="#4E6278"></path>
                                <path d="M37.8807692,115.629024 C37.8807692,117.974437 35.9769219,119.876209 33.628687,119.876209 C31.2804521,119.876209 29.3769231,117.974437 29.3769231,115.629024 C29.3769231,113.282816 31.2804521,111.381044 33.628687,111.381044 C35.9769219,111.381044 37.8807692,113.282816 37.8807692,115.629024" id="Fill-32" fill="#4E6278"></path>
                                <path d="M33.628687,118.879836 C31.4503603,118.879836 29.6556999,117.253718 29.4073235,115.156673 C29.387985,115.320233 29.3769231,115.486164 29.3769231,115.655255 C29.3769231,117.986182 31.2804521,119.876209 33.628687,119.876209 C35.9769219,119.876209 37.8807692,117.986182 37.8807692,115.655255 C37.8807692,115.486164 37.8696277,115.320233 37.8497321,115.156673 C37.6014354,117.253718 35.8070137,118.879836 33.628687,118.879836" id="Fill-33" fill="#404D58"></path>
                            </g>
                            <path d="M2.04585914,9.08510638 L65.4259718,9.08510638 C65.5135284,9.08510638 65.584507,9.15608501 65.584507,9.24364158 L65.584507,43.6950355 L65.584507,43.6950355 L1.88732394,43.6950355 L1.88732394,9.24364158 C1.88732394,9.15608501 1.95830257,9.08510638 2.04585914,9.08510638 Z" id="Rectangle-Copy-2" fill="#E0E0E0"></path>
                            <path d="M3.3028169,43.2624113 L63.2253521,43.2624113 C63.2253521,43.2624113 41.9877657,26.2468382 39.5899737,26.2468382 C37.1921816,26.2468382 38.6044811,27.9962597 37.1921816,27.9962597 C33.7667645,27.9962597 35.1369313,24.4974168 34.4518479,24.1475325 C33.7667645,23.7976482 32.3965976,22.7479953 31.7115142,23.0978796 C31.0264307,23.4477639 31.3689725,26.9466068 30.3413473,26.9466068 C28.6286387,26.9466068 30.1149272,24.006879 29.0294125,23.0275528 C27.9435553,22.0482267 21.4352627,28.6960283 20.4076375,28.6960283 L19.3800124,28.6960283 L3.3028169,43.2624113 Z" id="Fill-1" fill="#CDCDCD"></path>
                            <path d="M60.1472338,23.5133074 C59.981256,23.5133074 59.8180046,23.5244613 59.6578207,23.5451755 C58.9417643,21.9128908 57.2509714,20.7659574 55.2790046,20.7659574 C52.9624718,20.7659574 51.0337888,22.3491653 50.6176513,24.4429003 C48.9725279,24.4938893 47.6549296,25.781361 47.6549296,27.3623381 C47.6549296,28.9758206 49.0267178,30.2836879 50.7188739,30.2836879 L60.1472338,30.2836879 C62.1079537,30.2836879 63.6971831,28.7680405 63.6971831,26.898657 C63.6971831,25.0289549 62.1079537,23.5133074 60.1472338,23.5133074 L60.1472338,23.5133074 Z" id="Shape-Copy-4" fill="#CDCDCD" fill-rule="nonzero" transform="translate(55.676056, 25.524823) scale(-1, 1) translate(-55.676056, -25.524823) "></path>
                            <path d="M20.513431,16.1586975 C20.3474531,16.1586975 20.1842018,16.1698513 20.0240179,16.1905656 C19.3079615,14.5582809 17.6171686,13.4113475 15.6452018,13.4113475 C13.328669,13.4113475 11.3999859,14.9945553 10.9838484,17.0882903 C9.33872506,17.1392793 8.02112676,18.4267511 8.02112676,20.0077281 C8.02112676,21.6212107 9.39291496,22.929078 11.0850711,22.929078 L20.513431,22.929078 C22.4741509,22.929078 24.0633803,21.4134306 24.0633803,19.5440471 C24.0633803,17.6743449 22.4741509,16.1586975 20.513431,16.1586975 L20.513431,16.1586975 Z" id="Shape" fill="#CDCDCD" fill-rule="nonzero" transform="translate(16.042254, 18.170213) scale(-1, 1) translate(-16.042254, -18.170213) "></path>
                            <ellipse id="Oval" fill="#A1A1A1" cx="12.2676056" cy="20.9574468" rx="5.99844147" ry="6"></ellipse>
                            <rect id="Rectangle" fill="#FFFFFF" x="20.2887324" y="16.0070922" width="24.5352113" height="3.02836879" rx="1.5141844"></rect>
                            <rect id="Rectangle-Copy-67" fill="#FFFFFF" x="20.2887324" y="21.6312057" width="37.7464789" height="4.32624113" rx="2.16312057"></rect>
                            <rect id="Rectangle-Copy-68" fill="#FFFFFF" opacity="0.458827427" x="7.07746479" y="32.8794326" width="53.7887324" height="7.35460993" rx="3.67730496"></rect>
                        </g>
                        <rect id="Rectangle-Copy-73" fill="#C7C7C7" x="5.66197183" y="45.858156" width="22.1760563" height="3.02836879" rx="1.41549296"></rect>
                        <rect id="Rectangle-Copy-74" fill="#C7C7C7" x="50.9577465" y="46.2907801" width="9.9084507" height="2.16312057" rx="1.08156028"></rect>
                    </g>
                    <rect id="Rectangle" fill="#FFFFFF" x="2" y="100" width="63" height="10" rx="0.471830986"></rect>
                    <rect id="Rectangle-Copy-90" fill="#38AC49" x="16" y="97" width="21" height="11" rx="1.41549296"></rect>
                    <rect id="Rectangle-Copy-91" fill="#E5E5E5" x="39" y="102" width="10.5607112" height="6" rx="1.41549296"></rect>
                    <rect id="Rectangle-Copy-93" fill="#E5E5E5" x="4" y="102" width="10.5607112" height="6" rx="1.41549296"></rect>
                    <rect id="Rectangle-Copy-92" fill="#E5E5E5" x="51" y="102" width="10.5607112" height="6" rx="1.41549296"></rect>
                </g>
                <g id="Group-13" transform="translate(73.000000, 136.000000) rotate(-1.000000) translate(-73.000000, -136.000000) translate(52.000000, 115.000000)">
                    <path d="M39.5350534,34.4367789 L31.8247079,17.3445301 L23.7410743,25.0888889 L35.0195496,38.2617118 C35.4490448,38.7632989 36.2145605,38.792828 36.6815271,38.3260648 L39.3035048,35.7042894 C39.6366742,35.3709162 39.7289271,34.8662743 39.5350534,34.4367789 L39.5350534,34.4367789 Z" id="Path" fill="#F3F3F3" fill-rule="nonzero"></path>
                    <path d="M38.5212899,35.0420233 L27.1790725,21.7948686 L23.7410743,25.0886853 L35.0195496,38.2615081 C35.4490448,38.7630953 36.2145605,38.7926244 36.6815271,38.3258612 L39.3033012,35.7038821 C39.3808913,35.6262919 39.4440225,35.5387229 39.4949346,35.4456554 C39.138753,35.4723334 38.7736108,35.3369069 38.5212899,35.0420233 L38.5212899,35.0420233 Z" id="Path" fill="#DAE5F3" fill-rule="nonzero"></path>
                    <path d="M24.6558645,10.1754792 L7.56342083,2.46492609 C7.13392561,2.27125603 6.62928399,2.36350896 6.29631828,2.69647485 L3.67454421,5.31845392 C3.20757761,5.78542076 3.23731033,6.55093682 3.73889722,6.98043227 L16.9117133,18.2589134 L24.6558645,10.1754792 Z" id="Path" fill="#F3F3F3" fill-rule="nonzero"></path>
                    <path d="M6.56106166,3.87560175 C6.24560974,3.60535971 6.1126271,3.20600429 6.16639037,2.82660647 L3.67434056,5.31865757 C3.20757761,5.78562441 3.23710668,6.55114047 3.73869357,6.98063592 L16.9115096,18.2591171 L19.8175774,15.225971 L6.56106166,3.87560175 Z" id="Path" fill="#DAE5F3" fill-rule="nonzero"></path>
                    <path d="M21.1359994,38.6991495 L19.3113066,29.3327275 L13.7848903,34.6271906 C13.46618,34.9326639 13.0847459,35.1316288 12.6839651,35.2293803 L15.8637368,41.3864999 C16.1665625,41.9732123 16.9051965,42.1776757 17.4666561,41.8302508 L20.6199534,39.8792947 C21.0205306,39.6316577 21.2262158,39.1616361 21.1359994,38.6991495 L21.1359994,38.6991495 Z" id="Path" fill="#FFFFFF" fill-rule="nonzero"></path>
                    <path d="M7.37300925,28.2153062 L12.6674696,22.6888871 L3.30105239,20.8641933 C2.83856607,20.7739769 2.36854474,20.9794586 2.12070421,21.3802395 L0.169749139,24.5335385 C-0.177675637,25.0949984 0.026787713,25.8334292 0.613499776,26.1364587 L6.77061623,29.316232 C6.86857128,28.9156547 7.06753611,28.5340167 7.37300925,28.2153062 Z" id="Path" fill="#FFFFFF" fill-rule="nonzero"></path>
                    <path d="M17.9336227,35.602465 C17.5878271,34.9330712 17.7578738,34.1331385 18.3046708,33.6148521 C18.3079291,33.6117974 18.3109839,33.6087426 18.3142422,33.6056879 L19.8558633,32.1286227 L19.3111029,29.3325239 L13.7846866,34.6269869 C13.4659763,34.9324602 13.0845422,35.1314252 12.6837615,35.2291766 L15.8635331,41.3860926 C16.1663588,41.972805 16.9049929,42.1774721 17.4664525,41.8298435 L20.257866,40.1029011 L17.9336227,35.602465 Z" id="Path" fill="#DAE5F3" fill-rule="nonzero"></path>
                    <path d="M5.14325903,25.114956 C4.55654697,24.8121301 4.35208362,24.0736994 4.69950839,23.5122394 L6.01121002,21.3922548 L3.30125604,20.864397 C2.83876972,20.7741805 2.36874839,20.9796622 2.12090786,21.3804432 L0.169952788,24.5335385 C-0.177471988,25.095202 0.0269913617,25.8334292 0.613703424,26.1364587 L6.77081988,29.3164356 C6.86857128,28.9156547 7.06753611,28.5342203 7.37300925,28.2155099 L8.62198706,26.9117499 L5.14325903,25.114956 Z" id="Path" fill="#DAE5F3" fill-rule="nonzero"></path>
                    <path d="M41.8016641,2.34558786 C41.5615622,1.27480215 40.7253804,0.438416283 39.6545953,0.198314277 C36.8580906,-0.428516915 33.9375638,0.45328265 31.9548395,2.52255872 L7.22740039,28.3330153 C6.31098099,29.289554 6.32706924,30.8032759 7.26385351,31.7400607 L10.259934,34.7361427 C11.1967183,35.6729275 12.7104395,35.6890157 13.6669777,34.7725959 L39.4774208,10.045144 C41.5468995,8.06282596 42.428495,5.14209401 41.8016641,2.34558786 Z" id="Path" fill="#DFEBFA" fill-rule="nonzero"></path>
                    <path d="M10.6205959,34.9483448 C9.68381167,34.0115601 9.66772342,32.4980418 10.5841428,31.5412994 L35.3115819,5.73084286 C37.0436146,3.92305193 39.4916763,3.02190572 41.9472729,3.2410319 C41.9142818,2.94207537 41.8682572,2.64311884 41.8016641,2.34579151 C41.5615622,1.2750058 40.7253804,0.438619932 39.6543916,0.198721575 C36.8578869,-0.428109617 33.9373601,0.453689948 31.9546358,2.52296602 L7.22719674,28.3334226 C6.31077734,29.2899613 6.32686559,30.8036832 7.26364986,31.740468 L10.2597303,34.73655 C10.4340537,34.9108734 10.6283346,35.0530204 10.8352417,35.163398 L10.6205959,34.9483448 Z" id="Path" fill="#FFFFFF" fill-rule="nonzero"></path>
                    <path d="M4.88493902,7.98645675 L9.12210788,3.11779616 C7.69674689,2.52204283 6.71150772,2.4249796 6.16639037,2.82660647 C5.34871435,3.42904677 3.25310213,5.16878476 3.34265668,6.24935046 C3.40235972,6.96972759 3.91645383,7.54876302 4.88493902,7.98645675 Z" id="Path-2" fill="#D60000"></path>
                    <path d="M35.5141396,38.5984123 L39.7592732,33.3776891 C38.3312329,32.7388557 37.3441418,32.6347736 36.7979998,33.0654429 C35.9787867,33.7114469 34.1199804,35.640508 33.9391848,36.5831487 C33.8186544,37.2115758 34.3436393,37.8833303 35.5141396,38.5984123 Z" id="Path-2-Copy" fill="#9A0000" transform="translate(36.840789, 35.701861) scale(-1, 1) rotate(-86.000000) translate(-36.840789, -35.701861) "></path>
                </g>
            </g>
        </g>
    </g>
</svg>