<?xml version="1.0" encoding="UTF-8"?>
<svg width="580px" height="320px" viewBox="0 0 580 320" version="1.1" xmlns="http://www.w3.org/2000/svg" xmlns:xlink="http://www.w3.org/1999/xlink">
    <title>S3</title>
    <defs>
        <rect id="path-1" x="0" y="0" width="580" height="320"></rect>
    </defs>
    <g id="Page-1" stroke="none" stroke-width="1" fill="none" fill-rule="evenodd">
        <g id="Artboard" transform="translate(-7114.000000, -3817.000000)">
            <g id="VB_MLM_02-Copy" transform="translate(7114.000000, 3817.000000)">
                <mask id="mask-2" fill="white">
                    <use xlink:href="#path-1"></use>
                </mask>
                <g id="Mask"></g>
                <g id="Group-8" mask="url(#mask-2)" fill="#9CB6A0">
                    <g transform="translate(71.000000, 305.000000)" id="Oval-Copy-2">
                        <ellipse cx="216.5" cy="7.5" rx="216.5" ry="7.5"></ellipse>
                    </g>
                </g>
                <g id="earth-globe" mask="url(#mask-2)">
                    <g transform="translate(353.515400, 128.013668) scale(-1, 1) translate(-353.515400, -128.013668) translate(253.000000, 28.000000)" id="Group">
                        <g transform="translate(0.930698, 0.000000)">
                            <ellipse id="Oval" fill="#004676" fill-rule="nonzero" cx="100.050051" cy="100.013668" rx="100.050051" ry="100.013668"></ellipse>
                        </g>
                        <g transform="translate(0.000000, 2.333764)">
                            <path d="M54.2106292,149.004024 C52.8553634,148.552356 53.7587328,146.746529 53.3072599,145.391947 C52.8553634,143.585696 51.0486248,142.682783 49.2414627,142.682783 C47.4343005,142.682783 45.6275619,143.585696 43.8203998,143.134451 C41.1098683,142.682783 39.3027061,139.522373 37.0440711,137.716123 C34.3335396,135.458627 30.2677425,134.55529 27.557211,131.846126 C26.2019453,130.039876 25.7500489,127.78238 24.8466795,125.97613 C23.9433102,122.364052 23.0395174,118.751551 22.1361481,115.139473 C21.6842517,114.23656 21.6842517,113.333223 20.7808824,112.430309 C20.3289859,111.527396 19.4256166,111.527396 18.5222473,110.624059 C14.4564501,107.914895 12.1978151,102.044898 13.5530808,97.0782384 C14.4564501,93.4661607 16.7155087,90.3053282 19.4260401,87.1444956 C23.0395174,82.6295044 27.1053146,78.1140898 31.6230082,74.5020121 C33.4301703,73.1474301 34.7854361,72.2445165 36.1407018,70.438266 C40.206499,66.3745199 40.6583954,60.5045233 37.9478639,55.989532 C37.0444946,54.63495 36.1407018,53.280368 35.2373325,51.9257859 C33.8820668,49.6682903 33.8820668,46.5074578 32.9786974,44.2499621 C32.0744811,41.5403748 29.3639496,39.2828791 27.1053146,39.7341243 L10.3902294,51.4736942 C4.06579719,65.0199379 0,80.8232539 0,97.0782384 C0,134.103622 20.3289859,166.613591 50.5967284,183.771489 C52.8553634,182.868575 55.114422,181.513993 57.373057,179.707743 C58.2764264,179.256074 58.7283228,178.804829 58.7283228,178.353161 C60.5354849,175.643997 57.373057,172.483164 57.373057,169.322755 C57.373057,166.162346 60.9869578,163.452758 61.8903271,160.291926 C62.3422235,159.389012 62.3422235,158.937344 62.7936964,158.03443 C65.5046514,152.616102 60.0835885,146.746105 54.2106292,149.004024 C54.2106292,148.552356 54.2106292,149.004024 54.2106292,149.004024 Z" id="Path" fill="#2CB740" fill-rule="nonzero"></path>
                            <path d="M72.2809801,7.67582379 C70.022345,9.03040582 66.8599171,9.48207427 64.1493857,9.93331941 C62.3422235,10.3849879 60.5350614,10.3849879 58.2764264,10.8366563 C57.373057,10.8366563 56.9211606,11.2883248 56.4692642,11.2883248 C55.1139985,11.7399932 54.6621021,13.0945752 53.7587328,14.4491573 C52.8553634,16.2554078 51.5000977,18.5129034 50.5963049,20.3191539 C49.2410391,23.028318 47.433877,25.737482 44.7233455,26.6403956 C41.5609177,27.9949777 37.9470169,26.6403956 36.1398548,23.9312316 C35.6879583,23.028318 35.2364854,22.1249811 34.784589,20.770399 C46.0790348,10.8366563 59.6316921,3.61207767 74.5396151,0 C74.5396151,0.451668449 74.9915115,0.451668449 74.9915115,0.90291359 C76.3467773,3.16040922 74.5396151,6.32124175 72.2809801,7.67582379 Z" id="Path" fill="#2CB740" fill-rule="nonzero"></path>
                            <path d="M188.833833,111.526972 C183.864666,110.17239 189.737202,100.690316 188.381936,95.7236563 C187.026671,90.7569966 185.219508,86.241582 181.605608,82.6295044 C177.991707,79.0174267 172.570644,77.6628447 168.05295,79.9203403 C168.95632,83.0811728 173.92591,83.532418 176.184545,86.241582 C177.539811,88.4990777 177.087914,91.6599102 175.281175,93.4661607 C173.474437,95.2724112 171.215378,97.0782384 169.408216,98.8844888 C168.504847,99.7874024 167.601054,100.690739 167.601054,102.045321 C167.601054,103.399903 168.95632,104.754485 169.408216,106.109067 C170.311585,107.915318 169.408216,110.172814 167.601054,111.979064 C166.245788,113.333646 164.438626,114.688228 162.631888,115.591142 C157.210825,119.203219 153.596924,125.524884 152.693131,131.846126 C152.241235,134.55529 152.241235,136.812786 151.789762,139.52195 C150.886392,142.231114 148.627334,144.940278 146.820595,147.197774 C144.56196,151.26152 143.658167,155.776934 141.851429,159.840681 C139.592794,165.259009 136.430366,169.774423 132.364569,173.386501 C130.557406,175.192751 128.298771,176.998579 125.58824,177.450247 C120.167177,178.353161 114.746114,173.838169 112.487479,168.871086 C110.228844,164.355672 109.776948,158.937344 110.680317,153.970684 C111.583686,149.455269 114.294218,144.036941 111.132213,140.424864 C109.776948,139.070282 108.421682,138.167368 107.066416,136.812786 C102.09725,131.846126 103.903988,123.718634 103.000619,116.945724 C103.000619,116.04281 102.548723,114.688228 101.645353,113.784891 C101.193457,113.333223 100.741984,113.333223 99.8381911,113.333223 C94.4171281,112.430309 88.5441688,112.881554 83.1231059,112.430309 C77.702043,111.527396 71.8290836,109.269477 69.1185522,104.302817 C66.8599171,100.239071 66.8599171,95.2724112 66.8599171,90.7569966 C66.8599171,87.1449189 67.3118136,83.532418 69.1185522,80.3720087 C71.3771872,76.3082626 75.8948808,74.5020121 79.960678,72.696185 C87.1889031,69.5353524 94.868601,65.9232748 103.000195,67.7295253 C107.517889,68.6324388 111.583686,70.8903578 116.100956,71.3416029 C118.811488,71.7932714 121.522019,71.3416029 123.780654,70.8899345 C131.460352,69.5353524 138.688577,67.729102 145.916802,64.5686927 C149.9826,62.7624422 154.951766,59.602033 154.048397,55.0866185 C153.5965,52.3774544 150.885969,50.5712039 148.175437,50.1199587 C145.464906,49.6682903 142.754374,50.1199587 140.043843,51.4745408 C136.429942,52.8291228 132.815618,55.0866185 130.105086,57.7957825 C129.201717,58.6986961 127.846451,60.0532782 126.491186,60.0532782 C121.522019,60.9561918 120.618226,51.4741175 115.64906,51.9257859 C117.004326,53.7320364 116.552429,56.4412005 115.197163,57.7957825 C113.390001,59.1503646 110.67947,59.1503646 108.872731,57.7957825 C106.614096,56.4412005 105.710303,53.280368 102.999772,52.3774544 C100.28924,51.4745408 97.578709,53.280368 95.3200739,54.63495 C90.8023803,57.3441141 85.8332138,59.1503646 80.8640473,59.6016097 C77.7016195,60.0532782 74.0877187,59.6016097 72.732453,56.8924456 C70.9252908,53.7316131 73.6358223,49.667867 76.7982501,48.313285 C79.960678,46.9587029 83.5745788,46.9587029 87.1884796,46.0557893 C88.0922724,43.7978704 88.0922724,41.5403748 88.0922724,39.2828791 C84.0264752,37.0253835 78.6054123,39.2828791 74.9915115,36.5737151 C72.7328765,34.7674646 71.8290836,31.6070553 72.7328765,28.8978913 C73.6362458,26.1887272 75.4434079,23.9312316 78.1539394,22.5766495 C81.3163673,20.770399 86.7374302,21.2220675 87.6407995,24.8341452 C88.0926959,26.6403956 87.1889031,27.9949777 87.1889031,29.8008049 C86.7370067,31.6070553 87.6407995,33.4128825 88.9960652,33.864551 C89.4479616,33.864551 90.351331,33.864551 91.2547003,33.864551 C100.74156,31.6070553 110.680317,29.8008049 120.167177,27.5433092 C121.974339,27.0916408 123.781078,26.6403956 125.136344,25.7370587 C126.491609,24.3824767 126.943506,22.1249811 126.039713,20.770399 C124.232551,18.061235 120.166753,20.770399 117.456222,21.6733126 C112.938528,23.0278947 108.872731,22.1249811 105.25883,21.2216442 C103.451668,20.7699757 100.741137,19.8670621 100.741137,17.6095665 C100.741137,16.2549845 101.644506,15.3520709 102.548299,14.448734 C109.776524,7.67582379 120.61865,5.41832816 130.10551,8.12749223 C135.074677,9.48207427 139.59237,12.1912384 144.561537,13.0941519 C147.723964,13.5458204 150.885969,13.0941519 154.048397,12.1912384 C180.701815,28.8978913 198.772166,57.3441141 201.030801,90.3053282 C200.127432,91.6599102 198.772166,93.0144922 197.868373,94.3690743 C194.706369,98.8844888 200.579328,114.687805 188.833833,111.526972 Z" id="Path" fill="#2CB740" fill-rule="nonzero"></path>
                        </g>
                    </g>
                </g>
                <g id="documentos" mask="url(#mask-2)">
                    <g transform="translate(146.000000, 62.000000)">
                        <g id="document" transform="translate(93.840651, 124.867997) scale(-1, 1) translate(-93.840651, -124.867997) ">
                            <path d="M172.976928,0 L61.8875427,0 C56.0955998,0 50.6483448,2.23437899 46.5422568,6.29344343 L6.47093345,43.4147264 L6.3764781,43.5057147 C2.26445581,47.5952726 0,53.0324418 0,58.8158586 L0,235.111459 C0,243.174995 6.5960497,249.735502 14.7043741,249.735502 L172.977422,249.735502 C181.085252,249.735502 187.681302,243.174995 187.681302,235.111459 L187.681302,14.6240424 C187.681302,6.56001473 181.084758,0 172.976928,0 Z" id="Path" fill="#FFFFFF" fill-rule="nonzero"></path>
                            <path d="M172.976928,0 L158.141009,0 C166.248839,0 172.844888,6.56001473 172.844888,14.6240424 L172.844888,235.111951 C172.844888,243.175487 166.248839,249.735993 158.141009,249.735993 L172.976928,249.735993 C181.084758,249.735993 187.680808,243.175487 187.680808,235.111951 L187.680808,14.6240424 C187.681302,6.56001473 181.084758,0 172.976928,0 Z" id="Path" fill="#D9D9D9" fill-rule="nonzero"></path>
                            <g id="Group" transform="translate(0.043024, 0.025575)" fill-rule="nonzero">
                                <path d="M46.4992327,6.26786833 L6.42790928,43.3891513 L6.33345393,43.4801396 C2.49886333,47.2937814 0.282871527,52.2809271 0,57.6261243 L45.504237,57.6261243 C53.8766408,57.5862862 60.6759426,50.8015056 60.6759426,42.4659883 L60.7802885,0 C55.3879264,0.25673472 50.35311,2.45865299 46.4992327,6.26786833 Z" id="Path" fill="#DFDFDF"></path>
                                <ellipse id="Oval" fill="#BBBBBB" cx="42.0232358" cy="126.666615" rx="5.35675591" ry="5.32749135"></ellipse>
                                <path d="M150.928774,130.355332 L64.8839038,130.355332 C62.8355579,130.355332 61.174924,128.703771 61.174924,126.666615 C61.174924,124.62946 62.8355579,122.977898 64.8839038,122.977898 L150.928774,122.977898 C152.97712,122.977898 154.637754,124.62946 154.637754,126.666615 C154.637754,128.703771 152.97712,130.355332 150.928774,130.355332 Z" id="Path" fill="#BBBBBB"></path>
                                <ellipse id="Oval" fill="#BBBBBB" cx="42.0232358" cy="152.971596" rx="5.35675591" ry="5.32749135"></ellipse>
                                <path d="M150.928774,156.660313 L64.8839038,156.660313 C62.8355579,156.660313 61.174924,155.008751 61.174924,152.971596 C61.174924,150.93444 62.8355579,149.282878 64.8839038,149.282878 L150.928774,149.282878 C152.97712,149.282878 154.637754,150.93444 154.637754,152.971596 C154.637754,155.008751 152.97712,156.660313 150.928774,156.660313 Z" id="Path" fill="#BBBBBB"></path>
                                <ellipse id="Oval" fill="#BBBBBB" cx="42.0232358" cy="179.276576" rx="5.35675591" ry="5.32749135"></ellipse>
                                <path d="M150.928774,182.965293 L64.8839038,182.965293 C62.8355579,182.965293 61.174924,181.313731 61.174924,179.276576 C61.174924,177.23942 62.8355579,175.587859 64.8839038,175.587859 L150.928774,175.587859 C152.97712,175.587859 154.637754,177.23942 154.637754,179.276576 C154.637754,181.313731 152.97712,182.965293 150.928774,182.965293 Z" id="Path" fill="#BBBBBB"></path>
                                <path d="M82.7300311,93.7632575 L38.8270843,93.7632575 C36.7787384,93.7632575 35.1181045,92.1116958 35.1181045,90.0745402 C35.1181045,88.0373847 36.7787384,86.385823 38.8270843,86.385823 L82.7300311,86.385823 C84.778377,86.385823 86.4390109,88.0373847 86.4390109,90.0745402 C86.4390109,92.1116958 84.778377,93.7632575 82.7300311,93.7632575 Z" id="Path" fill="#BBBBBB"></path>
                            </g>
                        </g>
                        <g id="Group-58" transform="translate(66.806154, 67.873303)">
                            <g id="Group-6" fill-rule="nonzero">
                                <g id="passport">
                                    <path d="M137.111374,182.126697 L8.72582239,182.126697 L6.51227841,180.594167 C4.06719772,180.594167 2.08519044,178.786227 2.08519044,176.555881 L1.68498168,5.4016113 C1.68498168,3.17126597 3.66698897,1.36332534 6.11206966,1.36332534 L8.72582239,0 L137.111374,0 C139.556454,0 141.538462,1.80794062 141.538462,4.03828596 L141.538462,7.62953367 L138.773745,17.2245011 L141.538462,178.088411 C141.538462,180.318756 139.556454,182.126697 137.111374,182.126697 Z" id="Path" fill="#002612"></path>
                                    <path d="M132.692308,5.24977175 L10.1730769,5.24977175 C9.44017308,5.24977175 8.84615385,4.70742994 8.84615385,4.03828596 L8.84615385,0 L4.42307692,0 C1.98153846,0 0,1.80511382 0,4.03828596 L0,20.1914298 L8.07919231,91.0621369 L0,161.531438 L0,178.088411 C0,180.318756 1.98021154,182.126697 4.42307692,182.126697 L8.84615385,182.126697 L8.84615385,177.684582 C8.84615385,177.015438 9.44017308,176.473096 10.1730769,176.473096 L132.692308,176.473096 C135.947692,176.473096 138.986346,175.600827 141.538462,174.094546 L135.689827,33.6510369 L141.538462,20.1902183 L141.538462,7.62832218 C138.986346,6.12204152 135.947692,5.24977175 132.692308,5.24977175 Z" id="Path" fill="#004A23"></path>
                                    <path d="M132.684286,169.882885 L8.72582239,169.882885 C8.72582239,169.882885 1.68498168,166.263654 1.68498168,161.79883 L3.49344712,20.3278666 C3.49344712,15.863043 8.72582239,12.2438116 8.72582239,12.2438116 L132.684286,12.2438116 C137.574447,12.2438116 141.538462,15.863043 141.538462,20.3278666 L141.538462,161.79883 C141.538462,166.263654 137.574447,169.882885 132.684286,169.882885 Z" id="Path" fill="#F3F0F3"></path>
                                    <path d="M8.42490842,12.2438116 L8.42490842,169.882885 C3.77014652,169.882885 0,166.262441 0,161.800043 L0,94.298183 L2.60371795,91.2666624 L0,88.2351418 L0,20.3290792 C0,15.8626388 3.77014652,12.2438116 8.42490842,12.2438116 Z" id="Path" fill="#E5E3E5"></path>
                                    <polygon id="Path" fill="#B5B5B5" points="1.68498168 88.7676338 117.948718 88.7676338 117.948718 94.8895395 1.68498168 94.8895395"></polygon>
                                    <polygon id="Path" fill="#DBD9DB" points="0 88.7676338 8.42490842 88.7676338 8.42490842 94.8895395 0 94.8895395"></polygon>
                                    <path d="M44.2895567,140.803833 L15.7857809,140.701451 C14.8084605,140.701451 14.0160745,139.982367 14.0160745,139.095458 L13.4798535,107.607555 C13.4798535,106.720646 14.2722395,106.001562 15.2495599,106.001562 L21.9611713,105.602875 L45.4097808,105.602875 C46.3871011,105.602875 47.1794872,106.321958 47.1794872,107.208868 L47.1794872,133.708957 L46.059263,139.19784 C46.059263,140.084749 45.266877,140.803833 44.2895567,140.803833 Z" id="Path" fill="#FFE177"></path>
                                    <path d="M47.1794872,134.171768 L47.1794872,140.701801 C47.1794872,141.603762 46.3960801,142.334309 45.4288569,142.334309 L15.2304838,142.334309 C14.2632605,142.334309 13.4798535,141.603762 13.4798535,140.701801 L13.4798535,107.235383 C13.4798535,106.333422 14.2632605,105.602875 15.2304838,105.602875 L22.2330051,105.602875 L22.2330051,133.355514 C22.2330051,133.804454 22.6268969,134.171768 23.1083203,134.171768 L47.1794872,134.171768 Z" id="Path" fill="#FFD15B"></path>
                                    <g id="Group" transform="translate(13.479853, 21.426670)" fill="#B2B2B2">
                                        <path d="M91.4433881,92.8489043 L57.4282147,92.8489043 C55.5984635,92.8489043 54.1150485,91.4933103 54.1150485,89.8212226 C54.1150485,88.1491349 55.5984635,86.7935409 57.4282147,86.7935409 L91.4433881,86.7935409 C93.2731393,86.7935409 94.7565543,88.1491349 94.7565543,89.8212226 C94.7565543,91.4933103 93.2731393,92.8489043 91.4433881,92.8489043 Z" id="Path"></path>
                                        <path d="M96.744454,117.070358 L52.1271488,117.070358 C50.2973975,117.070358 48.8139825,115.714764 48.8139825,114.042676 C48.8139825,112.370588 50.2973975,111.014994 52.1271488,111.014994 L96.744454,111.014994 C98.5742053,111.014994 100.05762,112.370588 100.05762,114.042676 C100.05762,115.714764 98.5742053,117.070358 96.744454,117.070358 Z" id="Path"></path>
                                        <path d="M114.635552,139.273356 L3.31316623,139.273356 C1.48341496,139.273356 0,137.917762 0,136.245675 C0,134.573587 1.48341496,133.217993 3.31316623,133.217993 L114.635552,133.217993 C116.465303,133.217993 117.948718,134.573587 117.948718,136.245675 C117.948718,137.917762 116.465303,139.273356 114.635552,139.273356 Z" id="Path"></path>
                                        <path d="M96.744454,104.959631 L52.1271488,104.959631 C50.2973975,104.959631 48.8139825,103.604037 48.8139825,101.931949 C48.8139825,100.259862 50.2973975,98.9042676 52.1271488,98.9042676 L96.744454,98.9042676 C98.5742053,98.9042676 100.05762,100.259862 100.05762,101.931949 C100.05762,103.604037 98.5742053,104.959631 96.744454,104.959631 Z" id="Path"></path>
                                        <path d="M114.414674,58.7370242 C112.584923,58.7370242 111.101508,57.3814302 111.101508,55.7093426 L111.101508,19.3771626 C111.101508,17.705075 112.584923,16.349481 114.414674,16.349481 C116.244425,16.349481 117.72784,17.705075 117.72784,19.3771626 L117.72784,55.7093426 C117.72784,57.3814302 116.244425,58.7370242 114.414674,58.7370242 Z" id="Path"></path>
                                        <path d="M77.0863344,6.05536332 L37.3283396,6.05536332 C35.4985883,6.05536332 34.0151733,4.69976932 34.0151733,3.02768166 C34.0151733,1.355594 35.4985883,0 37.3283396,0 L77.0863344,0 C78.9160857,0 80.3995006,1.355594 80.3995006,3.02768166 C80.3995006,4.69976932 78.9160857,6.05536332 77.0863344,6.05536332 Z" id="Path"></path>
                                        <path d="M101.382887,22.2029988 L46.8260828,22.2029988 C44.9963315,22.2029988 43.5129165,20.8474048 43.5129165,19.1753172 C43.5129165,17.5032295 44.9963315,16.1476355 46.8260828,16.1476355 L101.382887,16.1476355 C103.212638,16.1476355 104.696053,17.5032295 104.696053,19.1753172 C104.696053,20.8474048 103.212638,22.2029988 101.382887,22.2029988 Z" id="Path"></path>
                                        <path d="M33.5734178,22.2029988 L3.31316623,22.2029988 C1.48341496,22.2029988 0,20.8474048 0,19.1753172 C0,17.5032295 1.48341496,16.1476355 3.31316623,16.1476355 L33.5734178,16.1476355 C35.4031691,16.1476355 36.8865841,17.5032295 36.8865841,19.1753172 C36.8865841,20.8474048 35.4031691,22.2029988 33.5734178,22.2029988 Z" id="Path"></path>
                                        <path d="M101.382887,34.3137255 L3.31316623,34.3137255 C1.48341496,34.3137255 0,32.9581315 0,31.2860438 C0,29.6139562 1.48341496,28.2583622 3.31316623,28.2583622 L101.382887,28.2583622 C103.212638,28.2583622 104.696053,29.6139562 104.696053,31.2860438 C104.696053,32.9581315 103.212638,34.3137255 101.382887,34.3137255 Z" id="Path"></path>
                                        <path d="M30.0393739,54.4982699 L3.31316623,54.4982699 C1.48341496,54.4982699 0,53.1426759 0,51.4705882 C0,49.7985006 1.48341496,48.4429066 3.31316623,48.4429066 L30.0393739,48.4429066 C31.8691251,48.4429066 33.3525401,49.7985006 33.3525401,51.4705882 C33.3525401,53.1426759 31.8691251,54.4982699 30.0393739,54.4982699 Z" id="Path"></path>
                                        <path d="M73.9834438,58.0515571 C68.2035148,58.0515571 64.4905599,56.6733564 62.575108,53.889504 C61.3850187,52.1600923 61.3046192,50.2247982 61.6209162,48.3948674 C59.1294152,50.8791811 55.8308269,53.6908881 51.2436378,53.6908881 C46.1864208,53.6908881 43.530145,50.0786621 42.5300106,48.7186275 C41.5095554,47.3307382 41.9133199,45.4495386 43.4320753,44.5170127 C44.9503889,43.5848904 47.0094113,43.9534602 48.0298665,45.3413495 C49.275617,47.0352364 50.1167195,47.6355248 51.2436378,47.6355248 C53.4930568,47.6355248 55.6112744,45.4652826 57.6592529,43.36609 C59.8715644,41.0989619 62.1598579,38.7543253 65.3798137,38.7543253 C67.4220494,38.7543253 68.5206953,39.7413495 68.9942572,40.3295271 C70.4728128,42.167128 69.7099011,44.3983276 68.9717276,46.5556517 C68.6125804,47.6060554 67.771478,50.0653403 68.1845194,50.6660323 C68.3974455,50.9752595 70.7012004,53.5968281 85.8688754,50.5324106 C87.6553347,50.1702999 89.4241237,51.2025375 89.8190531,52.8354671 C90.2139825,54.4683968 89.085739,56.0843714 87.2992797,56.445271 C82.0105829,57.5138408 77.5939115,58.0511534 73.9834438,58.0515571 L73.9834438,58.0515571 Z" id="Path"></path>
                                    </g>
                                </g>
                            </g>
                            <g id="visa-(1)" transform="translate(0.000000, 8.848261)" fill-rule="nonzero">
                                <path d="M133.530712,162.955466 L8.0077493,162.955466 C3.58511141,162.955466 0,159.381903 0,154.973512 L0,86.6308811 C0,83.6031558 2.46244916,81.1486391 5.49995939,81.1486391 L136.038502,81.1486391 C139.076012,81.1486391 141.538462,83.6031558 141.538462,86.6308811 L141.538462,154.973512 C141.538462,159.381903 137.95335,162.955466 133.530712,162.955466 Z" id="Path" fill="#C0E6AF"></path>
                                <path d="M136.038502,81.8068264 L5.49995939,81.8068264 C2.46244916,81.8068264 0,79.3523097 0,76.3245845 L0,7.98195336 C0,3.57356244 3.58511141,0 8.0077493,0 L133.530712,0 C137.95335,0 141.538462,3.57356244 141.538462,7.98195336 L141.538462,76.3245845 C141.538462,79.3523097 139.076012,81.8068264 136.038502,81.8068264 Z" id="Path" fill="#E8EDF2"></path>
                                <path d="M141.537823,86.6321542 L141.537823,154.971921 C141.537823,159.382858 137.953989,162.955147 133.531989,162.955147 L126.932038,162.955147 C131.354037,162.955147 134.937872,159.382858 134.937872,154.971921 L134.937872,86.6321542 C134.937872,83.6025193 132.476061,81.1489574 129.440147,81.1489574 L136.040099,81.1489574 C139.076012,81.1489574 141.537823,83.6025193 141.537823,86.6321542 L141.537823,86.6321542 Z" id="Path" fill="#ADE194"></path>
                                <path d="M141.537823,7.98354472 L141.537823,76.3233114 C141.537823,79.3529463 139.076012,81.8065082 136.040099,81.8065082 L129.440147,81.8065082 C132.476061,81.8065082 134.937872,79.352628 134.937872,76.3233114 L134.937872,7.98354472 C134.937552,3.57228935 131.354037,0 126.932038,0 L133.531989,0 C137.953989,0 141.537823,3.57228935 141.537823,7.98354472 Z" id="Path" fill="#D9E7EC"></path>
                                <path d="M55.5596479,152.254511 L14.5502264,152.254511 C13.4074482,152.254511 12.4808367,151.330885 12.4808367,150.191788 L12.4808367,93.9126352 C12.4808367,92.7735383 13.4074482,91.8499118 14.5502264,91.8499118 L55.5596479,91.8499118 C56.7024261,91.8499118 57.6290375,92.7735383 57.6290375,93.9126352 L57.6290375,150.191788 C57.6290375,151.330885 56.7027454,152.254511 55.5596479,152.254511 Z" id="Path" fill="#FFFFFF"></path>
                                <path d="M57.6287182,93.9116804 L57.6287182,150.192743 C57.6287182,151.330885 56.7014682,152.255148 55.5596479,152.255148 L48.9596966,152.255148 C50.1015169,152.255148 51.0287669,151.330885 51.0287669,150.192743 L51.0287669,93.9116804 C51.0287669,92.7735383 50.1015169,91.8492753 48.9596966,91.8492753 L55.5596479,91.8492753 C56.7014682,91.8492753 57.6287182,92.7735383 57.6287182,93.9116804 L57.6287182,93.9116804 Z" id="Path" fill="#FFFFFF"></path>
                                <g id="Group" transform="translate(20.507744, 99.678140)">
                                    <g transform="translate(0.000319, 4.825964)" id="Path">
                                        <path d="M29.0937475,11.0259105 L29.0937475,30.6878242 C29.0937475,35.787821 24.9460277,39.9218612 19.8298681,39.9218612 L9.26387935,39.9218612 C4.14740044,39.9218612 0,35.7875028 0,30.6878242 L0,11.0259105 L14.5470334,0 L29.0937475,11.0259105 Z" fill="#752A1C"></path>
                                        <path d="M29.0940668,11.0246374 L29.0940668,30.6884607 C29.0940668,35.7868662 24.9457084,39.9221794 19.8305067,39.9221794 L14.1281105,39.9221794 C19.2429929,39.9221794 23.3916705,35.7871845 23.3916705,30.6884607 L23.3916705,6.70218007 L29.0940668,11.0246374 Z" fill="#531D14"></path>
                                    </g>
                                    <path d="M14.5470334,35.873118 C6.99333008,35.873118 0.869456571,29.7692901 0.869456571,22.2396018 L0.869456571,9.14905823 L28.2242909,9.14905823 L28.2242909,22.2396018 C28.2246102,29.7689718 22.101056,35.873118 14.5470334,35.873118 Z" id="Path" fill="#FED2A4"></path>
                                    <path d="M28.2249295,9.1493765 L28.2249295,22.2396018 C28.2249295,29.768017 22.1007367,35.8727998 14.547672,35.8727998 C13.5696531,35.8727998 12.6174976,35.7706343 11.6966335,35.5771247 C17.8808549,34.2696617 22.5225333,28.7934669 22.5225333,22.2396018 L22.5225333,9.1493765 L28.2249295,9.1493765 Z" id="Path" fill="#FFBD86"></path>
                                    <path d="M6.50032937,13.3887648 C5.13755278,15.3486862 3.62087312,16.7710455 0,18.298753 L0,13.661206 C0,6.11624059 6.13600695,0 13.705356,0 L14.5470334,0 L15.3887108,0 C22.9580598,0 29.0940668,6.11624059 29.0940668,13.661206 L29.0940668,18.298753 C18.8566387,18.298753 10.8108926,12.5883097 9.11891671,8.19296796 L8.01892483,10.6758109 C7.59840544,11.6245809 7.09359059,12.5357948 6.50032937,13.3887648 Z" id="Path" fill="#752A1C"></path>
                                    <path d="M29.0943861,13.662479 L29.0943861,18.2977982 C27.1013093,18.2977982 25.1883772,18.0816912 23.3919898,17.698173 L23.3919898,13.662479 C23.3919898,6.79893487 18.3141464,1.1149082 11.6963142,0.146087029 C12.3521584,0.0521966726 13.0220519,0.00127308958 13.7063139,0.00127308958 L15.3883915,0.00127308958 C22.9586984,0.000954817181 29.0943861,6.11687713 29.0943861,13.662479 L29.0943861,13.662479 Z" id="Path" fill="#531D14"></path>
                                </g>
                                <g id="Group" transform="translate(69.878700, 94.637023)" fill="#23580D">
                                    <path d="M59.1789245,4.77408591 L2.39475736,4.77408591 C1.07221269,4.77408591 0,3.70532721 0,2.38704295 C0,1.0687587 1.07221269,0 2.39475736,0 L59.1789245,0 C60.5017884,0 61.5736818,1.0687587 61.5736818,2.38704295 C61.5736818,3.70532721 60.5014691,4.77408591 59.1789245,4.77408591 Z" id="Path"></path>
                                    <path d="M18.4891233,17.2882382 L2.39475736,17.2882382 C1.07221269,17.2882382 0,16.2194795 0,14.9011952 C0,13.5829109 1.07221269,12.5141522 2.39475736,12.5141522 L18.4891233,12.5141522 C19.8119873,12.5141522 20.8838806,13.5829109 20.8838806,14.9011952 C20.8838806,16.2194795 19.8119873,17.2882382 18.4891233,17.2882382 Z" id="Path"></path>
                                    <path d="M59.1789245,17.2882382 L43.0845585,17.2882382 C41.7616946,17.2882382 40.6898012,16.2194795 40.6898012,14.9011952 C40.6898012,13.5829109 41.7616946,12.5141522 43.0845585,12.5141522 L59.1789245,12.5141522 C60.5017884,12.5141522 61.5736818,13.5829109 61.5736818,14.9011952 C61.5736818,16.2194795 60.5014691,17.2882382 59.1789245,17.2882382 L59.1789245,17.2882382 Z" id="Path"></path>
                                    <path d="M18.4891233,29.8020721 L2.39475736,29.8020721 C1.07221269,29.8020721 0,28.7333134 0,27.4150292 C0,26.0967449 1.07221269,25.0279862 2.39475736,25.0279862 L18.4891233,25.0279862 C19.8119873,25.0279862 20.8838806,26.0967449 20.8838806,27.4150292 C20.8838806,28.7333134 19.8119873,29.8020721 18.4891233,29.8020721 Z" id="Path"></path>
                                    <path d="M59.1789245,29.8020721 L43.0845585,29.8020721 C41.7616946,29.8020721 40.6898012,28.7333134 40.6898012,27.4150292 C40.6898012,26.0967449 41.7616946,25.0279862 43.0845585,25.0279862 L59.1789245,25.0279862 C60.5017884,25.0279862 61.5736818,26.0967449 61.5736818,27.4150292 C61.5736818,28.7333134 60.5014691,29.8020721 59.1789245,29.8020721 L59.1789245,29.8020721 Z" id="Path"></path>
                                    <path d="M43.0845585,42.3162244 L2.39475736,42.3162244 C1.07221269,42.3162244 0,41.2474657 0,39.9291814 C0,38.6108972 1.07221269,37.5421385 2.39475736,37.5421385 L43.0845585,37.5421385 C44.4074225,37.5421385 45.4793159,38.6108972 45.4793159,39.9291814 C45.4793159,41.2474657 44.4071032,42.3162244 43.0845585,42.3162244 Z" id="Path"></path>
                                    <path d="M43.0845585,54.8303766 L2.39475736,54.8303766 C1.07221269,54.8303766 0,53.7616179 0,52.4433337 C0,51.1250494 1.07221269,50.0562907 2.39475736,50.0562907 L43.0845585,50.0562907 C44.4074225,50.0562907 45.4793159,51.1250494 45.4793159,52.4433337 C45.4793159,53.7616179 44.4071032,54.8303766 43.0845585,54.8303766 Z" id="Path"></path>
                                </g>
                                <g id="Group" transform="translate(14.914352, 23.361446)" fill="#C5D3DD">
                                    <path d="M111.5547,31.8511757 L100.242505,1.97303646 C100.234522,1.95107566 100.225582,1.92911487 100.216641,1.90747234 C99.738967,0.75023392 98.6198171,0.0032486118 97.3646449,0.0032486118 C97.363687,0.0032486118 97.3624098,0.0032486118 97.3611326,0.0032486118 C96.1046832,0.00452170137 94.9861719,0.754371461 94.5104134,1.91351952 C94.5030695,1.93134277 94.4957256,1.9494843 94.4890203,1.96730755 L83.0730523,31.844492 C82.6020834,33.0765244 83.2228045,34.4555987 84.4588186,34.9247322 C84.7391648,35.0313534 85.0271743,35.0818399 85.3107136,35.0818399 C86.2753218,35.0818399 87.1850103,34.4960193 87.5490135,33.54343 L89.8045556,27.6401136 L104.841077,27.6401136 L107.07363,33.5367463 C107.540448,34.7700518 108.923021,35.3932292 110.159674,34.9272784 C111.397284,34.4616459 112.021837,33.0844812 111.5547,31.8511757 Z M91.6290414,22.8660277 L97.3576203,7.87380664 L103.033834,22.8660277 L91.6290414,22.8660277 Z" id="Shape"></path>
                                    <path d="M38.5934678,0.0029303394 C37.2709231,0.0029303394 36.1987104,1.07168904 36.1987104,2.38997329 L36.1987104,32.693961 C36.1987104,34.0122452 37.2709231,35.0810039 38.5934678,35.0810039 C39.9160125,35.0810039 40.9882251,34.0122452 40.9882251,32.693961 L40.9882251,2.38997329 C40.9882251,1.07168904 39.9163318,0.0029303394 38.5934678,0.0029303394 Z" id="Path"></path>
                                    <path d="M67.2373202,15.5409886 C63.271602,14.0826645 59.5970863,12.4897112 58.731142,12.1100122 C57.6445608,11.3324727 57.1148405,10.0784795 57.310572,8.72168429 C57.5506863,7.05393695 58.8231007,5.71910253 60.7143204,5.15130458 C65.768855,3.63410008 70.3006938,7.27513626 70.3789225,7.33847247 C71.3914259,8.17966641 72.8966108,8.04758336 73.7453128,7.04056951 C74.5962499,6.03164602 74.4656558,4.52589933 73.4531524,3.67738512 C73.1900484,3.45682236 66.9180192,-1.69855388 59.3330244,0.579958189 C55.6655333,1.68118067 53.0737673,4.54085813 52.569591,8.04312755 C52.1011765,11.2955531 53.513764,14.4228977 56.2562401,16.2052231 C56.3619288,16.2739699 56.4730455,16.3341234 56.5883132,16.3853653 C56.7626515,16.4630237 60.9078168,18.3020016 65.5795095,20.0197177 C69.0985256,21.313495 70.8786286,23.3860848 70.4628987,25.7059723 C70.0634532,27.936107 67.5815266,30.3062815 63.7684343,30.3062815 C60.356384,30.3062815 57.0592821,28.9202052 54.9487026,26.5984081 C54.0607266,25.6213119 52.5462821,25.5471544 51.566028,26.4325882 C50.5860933,27.318022 50.5113769,28.8272697 51.3996722,29.8043659 C54.4033366,33.1080334 59.0271341,35.0806857 63.7684343,35.0806857 C69.4012229,35.0806857 74.3063246,31.4113232 75.177697,26.5455749 C76.1799827,20.9528924 71.733078,17.1940954 67.2373202,15.5409886 L67.2373202,15.5409886 Z" id="Path"></path>
                                    <path d="M24.7677353,0.180208063 C23.5122439,-0.236092228 22.1571305,0.44182797 21.7401234,1.69295675 L13.401259,26.7142593 L4.65784026,1.6070232 C4.22422953,0.361623327 2.85889853,-0.296882255 1.6101124,0.13469511 C0.360687661,0.566909021 -0.30058467,1.92720523 0.133026062,3.17260511 L10.5329783,33.0373769 C10.9691434,34.2617708 12.1339534,35.0806857 13.4360628,35.0806857 L13.4564981,35.0806857 C14.7669093,35.0720923 15.9310807,34.2353542 16.3583054,32.9823158 L26.2847343,3.19774863 C26.70238,1.94725639 26.0229075,0.595871809 24.7677353,0.180208063 L24.7677353,0.180208063 Z" id="Path"></path>
                                </g>
                            </g>
                        </g>
                        <g id="Group-8-Copy" transform="translate(168.713846, 92.760181)">
                            <path d="M120.024615,142.94529 C120.024615,150.83989 114.053808,157.239819 106.688547,157.239819 L6.66803419,157.239819 C2.98519556,157.239819 0,154.040078 0,150.092555 L0,7.1472645 C0,3.19974098 2.98519556,0 6.66803419,0 L106.688547,0 C114.053808,0 120.024615,6.39992866 120.024615,14.294529 L120.024615,142.94529 Z" id="Path" fill="#D50303" fill-rule="nonzero"></path>
                            <rect id="Rectangle" fill="#E7BE29" x="20.7449788" y="126.504428" width="82.9799154" height="13.3774634" rx="4.27591575"></rect>
                            <path d="M60.301524,21.6985082 C38.0287312,21.6985082 19.9728096,41.0015188 19.9728096,64.8126521 C19.9728096,88.6237854 38.0287312,107.926796 60.301524,107.926796 C82.5743168,107.926796 100.630238,88.6237854 100.630238,64.8126521 C100.630238,41.0015188 82.5747369,21.6985082 60.301524,21.6985082 Z M89.559611,48.75052 L74.8482077,48.75052 C73.4411889,41.1027244 71.2437055,34.9212944 68.9998742,30.1522619 C77.9892313,33.0623911 85.3691699,39.8245554 89.559611,48.75052 Z M70.5813924,64.8126521 C70.5813924,68.1333711 70.3522418,71.1839504 70.0374274,74.1117812 L50.5673339,74.1117812 C50.2512346,71.1839504 50.0216556,68.1329061 50.0216556,64.8126521 C50.0216556,61.4905382 50.2473797,58.4404239 50.5604808,55.513523 L70.0438522,55.513523 C70.3556683,58.4404239 70.5813924,61.4910032 70.5813924,64.8126521 Z M51.6031738,48.75052 C53.5278119,39.5056487 56.7029014,32.7895256 59.2921939,28.5694118 C59.6340533,28.5588062 59.9555484,28.4615111 60.3008741,28.4615111 C60.649666,28.4615111 60.972461,28.5606506 61.3195198,28.5712562 C63.9209441,32.8185758 67.084335,39.5374655 68.9998742,48.75052 L51.6031738,48.75052 Z M50.0216556,30.1522619 C47.7859033,34.9111465 45.586719,41.0994955 44.1784247,48.75052 L29.4619188,48.75052 C33.6527851,39.8245554 41.0322985,33.0642362 50.0216556,30.1522619 Z M27.499748,55.513523 L43.6858609,55.513523 C43.4035032,58.4594871 43.2069518,61.5235501 43.2069518,64.8126521 C43.2069518,68.1036139 43.4085755,71.1639573 43.6955828,74.1117812 L27.4993253,74.1117812 C26.7925857,71.1221112 26.2988824,68.0422396 26.2988824,64.8126521 C26.2993051,61.5835295 26.7930084,58.503193 27.499748,55.513523 Z M29.4619188,80.8747841 L44.2020194,80.8747841 C45.6245971,88.5409776 47.8261043,94.7765358 50.0216556,99.4730423 C41.0331254,96.5605624 33.6530779,89.7990693 29.4619188,80.8747841 Z M59.291379,101.055892 C56.8044012,96.9888683 53.564911,90.2547618 51.6031738,80.8747841 L68.9998742,80.8747841 C67.0411732,90.2483063 63.8051527,96.9796461 61.3099341,101.055892 C60.9677253,101.066498 60.6476364,101.163793 60.3019577,101.163793 C59.9562791,101.163793 59.6353228,101.066959 59.291379,101.055892 Z M68.9998742,99.4730423 C71.1987674,94.7719223 73.3993626,88.5414389 74.818772,80.8747841 L89.559611,80.8747841 C85.367758,89.7986079 77.9881907,96.558717 68.9998742,99.4730423 Z M91.5224814,74.1117812 L75.325947,74.1117812 C75.611721,71.1639573 75.8129464,68.1036139 75.8129464,64.8126521 C75.8129464,61.5235501 75.6180621,58.4594871 75.3356701,55.513523 L91.5220586,55.513523 C92.2288841,58.503193 92.7226474,61.5830646 92.7226474,64.8126521 C92.7226474,68.0422396 92.2288841,71.1225761 91.5224814,74.1117812 Z" id="Shape" fill="#E7BE29" fill-rule="nonzero"></path>
                        </g>
                    </g>
                </g>
                <g id="download" mask="url(#mask-2)">
                    <g transform="translate(120.000000, 208.000000)">
                        <path d="M104,52.5 C104,23.5046768 80.7192369,0 52,0 C23.2815566,0 0,23.5046768 0,52.5 C0,81.4953232 23.2815566,105 52,105 C80.7192369,105 104,81.4953232 104,52.5 Z" id="Path" fill="#38AC49" fill-rule="nonzero"></path>
                        <path d="M83.731066,10.9701493 C90.4918709,19.8248204 94.5153664,30.9199745 94.5153664,42.9644724 C94.5153664,71.937065 71.2522032,95.4233155 42.5556556,95.4233155 C30.6255233,95.4233155 19.6366383,91.3609889 10.8656716,84.5354799 C20.3669574,96.980207 35.2754599,105 52.0410821,105 C80.7376296,105 104,81.5137495 104,52.541157 C104,35.6138627 96.056887,20.5620426 83.731066,10.9701493 Z" id="Path" fill="#2B8639" fill-rule="nonzero"></path>
                        <rect id="Rectangle" fill="#FFFFFF" fill-rule="evenodd" transform="translate(51.500000, 52.000000) rotate(90.000000) translate(-51.500000, -52.000000) " x="45" y="23" width="13" height="58" rx="6.5"></rect>
                        <rect id="Rectangle" fill="#FFFFFF" fill-rule="evenodd" x="45" y="23" width="13" height="58" rx="6.5"></rect>
                    </g>
                </g>
            </g>
        </g>
    </g>
</svg>