<?xml version="1.0" encoding="UTF-8"?>
<svg width="580px" height="320px" viewBox="0 0 580 320" version="1.1" xmlns="http://www.w3.org/2000/svg" xmlns:xlink="http://www.w3.org/1999/xlink">
    <title>S4</title>
    <defs>
        <polygon id="path-1" points="0 0 33.7654787 0 33.7654787 12.2190384 0 12.2190384"></polygon>
    </defs>
    <g id="Page-1" stroke="none" stroke-width="1" fill="none" fill-rule="evenodd">
        <g id="Artboard" transform="translate(-7797.000000, -3817.000000)">
            <g id="S4" transform="translate(7797.000000, 3817.000000)">
                <rect id="Rectangle" x="0" y="0" width="580" height="320"></rect>
                <g id="reglas_equipaje-copy" transform="translate(74.000000, 33.000000)">
                    <g id="Group-8" transform="translate(0.000000, 272.000000)" fill="#9CB6A0">
                        <ellipse id="Oval-Copy-2" cx="216.5" cy="7.5" rx="216.5" ry="7.5"></ellipse>
                    </g>
                    <g id="Group-85" transform="translate(70.000000, 0.000000)">
                        <path d="M72.4375555,11.4465145 C66.8394682,11.4465145 59.7707374,18.4426756 59.7707374,23.9832912 L59.7707374,143.734166 C59.7707374,149.274782 66.8394682,153.782673 72.4375555,153.782673 L107.445027,153.782673 C113.042797,153.782673 120.111845,149.274782 120.111845,143.734166 L120.111845,23.9832912 C120.111845,18.4426756 113.042797,11.4465145 107.445027,11.4465145 L72.4375555,11.4465145 Z M107.445027,163.736068 L72.4375555,163.736068 C61.2940286,163.736068 52.2281782,154.76329 52.2281782,143.734166 L52.2281782,23.9832912 C52.2281782,12.9541671 61.2940286,3.98138951 72.4375555,3.98138951 L107.445027,3.98138951 C118.588553,3.98138951 127.654404,12.9541671 127.654404,23.9832912 L127.654404,143.734166 C127.654404,154.76329 118.588553,163.736068 107.445027,163.736068 L107.445027,163.736068 Z" id="Fill-3" fill="#78D178"></path>
                        <path d="M55.742341,261.532909 C55.742341,268.418264 50.1027065,274 43.145931,274 C36.1891556,274 30.5495211,268.418264 30.5495211,261.532909 C30.5495211,254.647553 36.1891556,249.065817 43.145931,249.065817 C50.1027065,249.065817 55.742341,254.647553 55.742341,261.532909" id="Fill-5" fill="#282828"></path>
                        <path d="M156.886308,261.532909 C156.886308,268.418264 151.246674,274 144.289898,274 C137.333123,274 131.693488,268.418264 131.693488,261.532909 C131.693488,254.647553 137.333123,249.065817 144.289898,249.065817 C151.246674,249.065817 156.886308,254.647553 156.886308,261.532909" id="Fill-7" fill="#282828"></path>
                        <path d="M160.835194,258.795686 L10.6335431,258.795686 C4.7608004,258.795686 0,254.083761 0,248.27131 L0,35.9085631 C0,30.0964256 4.7608004,25.384501 10.6335431,25.384501 L160.835194,25.384501 C166.707937,25.384501 171.468737,30.0964256 171.468737,35.9085631 L171.468737,248.27131 C171.468737,254.083761 166.707937,258.795686 160.835194,258.795686" id="Fill-9" fill="#064924"></path>
                        <path d="M166.366457,258.795686 L20.690278,258.795686 C14.8175353,258.795686 10.0567349,254.083761 10.0567349,248.27131 L10.0567349,35.9085631 C10.0567349,30.0964256 14.8175353,25.384501 20.690278,25.384501 L166.366457,25.384501 C172.2392,25.384501 177,30.0964256 177,35.9085631 L177,248.27131 C177,254.083761 172.2392,258.795686 166.366457,258.795686" id="Fill-11" fill="#3EAB4E"></path>
                        <path d="M166.366457,258.795686 L20.690278,258.795686 C14.8175353,258.795686 10.0567349,254.083761 10.0567349,248.27131 L10.0567349,148.311083 L177,148.311083 L177,248.27131 C177,254.083761 172.2392,258.795686 166.366457,258.795686" id="Fill-13" fill="#389B43"></path>
                        <path d="M59.2911369,236.400122 L56.3314547,236.400122 C54.9356595,236.400122 53.8037364,235.280134 53.8037364,233.898355 L53.8037364,48.2907136 C53.8037364,46.909248 54.9356595,45.7892596 56.3314547,45.7892596 L59.2911369,45.7892596 C60.6869322,45.7892596 61.8188552,46.909248 61.8188552,48.2907136 L61.8188552,233.898355 C61.8188552,235.280134 60.6869322,236.400122 59.2911369,236.400122" id="Fill-15" fill="#2E662E"></path>
                        <path d="M82.9348809,236.400122 L79.9751987,236.400122 C78.5794035,236.400122 77.4474804,235.280134 77.4474804,233.898355 L77.4474804,48.2907136 C77.4474804,46.909248 78.5794035,45.7892596 79.9751987,45.7892596 L82.9348809,45.7892596 C84.3306762,45.7892596 85.4625992,46.909248 85.4625992,48.2907136 L85.4625992,233.898355 C85.4625992,235.280134 84.3306762,236.400122 82.9348809,236.400122" id="Fill-17" fill="#2E662E"></path>
                        <path d="M106.578625,236.400122 L103.618943,236.400122 C102.223147,236.400122 101.091224,235.280134 101.091224,233.898355 L101.091224,48.2907136 C101.091224,46.909248 102.223147,45.7892596 103.618943,45.7892596 L106.578625,45.7892596 C107.97442,45.7892596 109.106343,46.909248 109.106343,48.2907136 L109.106343,233.898355 C109.106343,235.280134 107.97442,236.400122 106.578625,236.400122" id="Fill-19" fill="#2E662E"></path>
                        <path d="M130.222369,236.400122 L127.262687,236.400122 C125.866891,236.400122 124.734968,235.280134 124.734968,233.898355 L124.734968,48.2907136 C124.734968,46.909248 125.866891,45.7892596 127.262687,45.7892596 L130.222369,45.7892596 C131.618164,45.7892596 132.750087,46.909248 132.750087,48.2907136 L132.750087,233.898355 C132.750087,235.280134 131.618164,236.400122 130.222369,236.400122" id="Fill-21" fill="#2E662E"></path>
                        <path d="M111.043838,15.9256208 L71.8556411,15.9256208 C70.4579429,15.9256208 69.3247513,14.8040628 69.3247513,13.4207139 L69.3247513,2.50490695 C69.3247513,1.12155796 70.4579429,0 71.8556411,0 L111.043838,0 C112.441536,0 113.574728,1.12155796 113.574728,2.50490695 L113.574728,13.4207139 C113.574728,14.8040628 112.441536,15.9256208 111.043838,15.9256208" id="Fill-23" fill="#022613"></path>
                        <polygon id="Fill-25" fill="#78D178" points="38.2155483 258.795717 48.2725053 258.795717 48.2725053 25.3845324 38.2155483 25.3845324"></polygon>
                        <polygon id="Fill-27" fill="#78D178" points="139.286856 258.795717 149.343812 258.795717 149.343812 25.3845324 139.286856 25.3845324"></polygon>
                    </g>
                    <g id="clock" transform="translate(42.000000, 147.000000)" fill-rule="nonzero">
                        <circle id="Oval" fill="#004A23" cx="66.5" cy="66.5" r="66.5"></circle>
                        <path d="M66.2656914,120.788418 C65.5627656,120.788418 65.1003828,121.741498 64.4036914,121.715521 C50.6488418,121.199367 38.1639863,115.631551 28.7547559,106.817703 C28.3934219,106.479229 28.8170996,105.355223 28.4648574,105.007396 C27.9694844,104.517998 26.7028672,104.800104 26.226457,104.292521 C17.2957148,94.7817227 11.6855566,82.1178887 11.2673545,68.1723711 C11.2509687,67.6149141 12.106377,67.140582 12.106377,66.5792285 C12.106377,66.4524629 12.1276777,66.3295937 12.128457,66.2030879 C12.1326133,65.6058867 11.2613594,64.9224434 11.2842187,64.329918 C11.8206348,50.4696035 17.4863828,37.9024023 26.4324512,28.4778457 C26.8989902,27.9863691 28.0406602,28.3653672 28.5248633,27.8912949 C28.9737383,27.4517715 28.7635879,26.1578789 29.2270098,25.7336816 C38.6318242,17.1255684 51.0145918,11.7208848 64.6294277,11.2649961 C65.2515664,11.2442148 65.876043,11.5925605 66.5031172,11.5925605 C67.1052539,11.5925605 67.7050527,11.2434355 68.3025137,11.2618926 C82.0641172,11.7050391 94.570793,17.203498 104.021846,25.9570801 C104.532025,26.4295937 103.825203,27.922207 104.317459,28.4134238 C104.746332,28.8415176 106.376361,28.2663965 106.790947,28.7082578 C115.67675,38.1767148 121.272621,50.7678145 121.733146,64.6364414 C121.751889,65.2074062 120.540082,65.7804492 120.541381,66.3555703 C120.541381,66.4018086 120.517742,66.4740234 120.517742,66.5205215 C120.517742,67.1673379 121.752408,67.7858398 121.730328,68.4274609 C121.25184,82.2784238 115.651293,94.8508203 106.768348,104.30499 C106.356359,104.743475 105.040906,104.278494 104.61515,104.703211 C104.144975,105.172088 104.563197,106.529363 104.076396,106.981355 C94.5203984,115.855988 81.8287695,121.398088 67.8702637,121.738729 C67.4154141,121.749291 66.7226191,120.788418 66.2656914,120.788418 Z" id="Path" fill="#FFFFFF"></path>
                        <path d="M66.5,70.5141582 C64.2831602,70.5141582 62.4858418,68.7168398 62.4858418,66.5 L62.4858418,36.5282422 C62.4858418,34.3114023 64.2831602,32.514084 66.5,32.514084 C68.7168398,32.514084 70.5141582,34.3114023 70.5141582,36.5282422 L70.5141582,66.5 C70.5141582,68.7168398 68.7168398,70.5141582 66.5,70.5141582 L66.5,70.5141582 Z" id="Path" fill="#064924"></path>
                        <path d="M88.4437012,70.5141582 L66.4997402,70.5141582 C64.2829004,70.5141582 62.485582,68.7168398 62.485582,66.5 C62.485582,64.2831602 64.2829004,62.4858418 66.4997402,62.4858418 L88.4437012,62.4858418 C90.660541,62.4858418 92.4578594,64.2831602 92.4578594,66.5 C92.4578594,68.7168398 90.660541,70.5141582 88.4437012,70.5141582 Z" id="Path" fill="#3EAB4E"></path>
                        <path d="M40.2743223,94.7321074 C39.7607656,94.7321074 39.2469492,94.5359844 38.8549629,94.1442578 C38.07125,93.3602852 38.07125,92.0897715 38.8549629,91.3055391 L65.0803809,65.0801211 C65.8643535,64.296668 67.1348672,64.296668 67.9190996,65.0801211 C68.7028125,65.8640938 68.7028125,67.1346074 67.9190996,67.9188398 L41.6936816,94.1445176 C41.3016953,94.5362441 40.7878789,94.7321074 40.2743223,94.7321074 L40.2743223,94.7321074 Z" id="Path" fill="#FF6262"></path>
                        <circle id="Oval" fill="#383838" cx="66.5" cy="66.5" r="6.02110742"></circle>
                        <g id="Group" transform="translate(11.239539, 11.239539)" fill="#5A5A5A">
                            <path d="M0.0402636719,57.2674102 L8.69721289,57.2674102 C9.80589258,57.2674102 10.7041621,56.3688809 10.7041621,55.2604609 C10.7041621,54.152041 9.80563281,53.2535117 8.69721289,53.2535117 L0.0402636719,53.2535117 C0.0163652344,53.9198105 0,54.5884473 0,55.2604609 C0,55.9324746 0.0161054687,56.6011113 0.0402636719,57.2674102 Z" id="Path"></path>
                            <path d="M20.9160684,86.7663945 L14.812875,92.8695879 C15.7249121,93.8496836 16.671498,94.7962695 17.6515938,95.7083066 L23.7547871,89.6051133 C24.5385,88.8211406 24.5385,87.550627 23.7547871,86.7663945 C22.9705547,85.9829414 21.700041,85.9829414 20.9160684,86.7663945 Z" id="Path"></path>
                            <path d="M55.2604609,99.8167598 C54.1517812,99.8167598 53.2535117,100.715289 53.2535117,101.823709 L53.2535117,110.480658 C53.9198105,110.504557 54.5884473,110.520922 55.2604609,110.520922 C55.9324746,110.520922 56.6011113,110.504557 57.2674102,110.480658 L57.2674102,101.823709 C57.2674102,100.715289 56.3691406,99.8167598 55.2604609,99.8167598 Z" id="Path"></path>
                            <path d="M95.7083066,92.8695879 L89.6051133,86.7663945 C88.8211406,85.9829414 87.550627,85.9829414 86.7663945,86.7663945 C85.9826816,87.5503672 85.9826816,88.8208809 86.7663945,89.6051133 L92.8695879,95.7083066 C93.8496836,94.7962695 94.7962695,93.8496836 95.7083066,92.8695879 Z" id="Path"></path>
                            <path d="M110.480658,53.2535117 L101.823709,53.2535117 C100.715029,53.2535117 99.8167598,54.152041 99.8167598,55.2604609 C99.8167598,56.3688809 100.715289,57.2674102 101.823709,57.2674102 L110.480658,57.2674102 C110.504557,56.6011113 110.520922,55.9324746 110.520922,55.2604609 C110.520922,54.5884473 110.504816,53.9198105 110.480658,53.2535117 Z" id="Path"></path>
                            <path d="M92.8695879,14.8126152 L86.7663945,20.9158086 C85.9826816,21.6997813 85.9826816,22.9702949 86.7663945,23.7545273 C87.1583809,24.1462539 87.6721973,24.342377 88.1857539,24.342377 C88.6993105,24.342377 89.213127,24.1462539 89.6051133,23.7545273 L95.7083066,17.651334 C94.7962695,16.6712383 93.8496836,15.7246523 92.8695879,14.8126152 Z" id="Path"></path>
                            <path d="M55.2604609,0 C54.5881875,0 53.9198105,0.0163652344 53.2535117,0.0402636719 L53.2535117,8.69721289 C53.2535117,9.80589258 54.152041,10.7041621 55.2604609,10.7041621 C56.3688809,10.7041621 57.2674102,9.80563281 57.2674102,8.69721289 L57.2674102,0.0402636719 C56.6011113,0.0161054687 55.9327344,0 55.2604609,0 Z" id="Path"></path>
                            <path d="M14.8126152,17.651334 L20.9158086,23.7545273 C21.3077949,24.1462539 21.8216113,24.342377 22.335168,24.342377 C22.8487246,24.342377 23.362541,24.1462539 23.7545273,23.7545273 C24.5382402,22.9705547 24.5382402,21.700041 23.7545273,20.9158086 L17.651334,14.8126152 C16.6712383,15.7246523 15.7246523,16.6712383 14.8126152,17.651334 Z" id="Path"></path>
                        </g>
                    </g>
                    <g id="Group-84-Copy" transform="translate(208.000000, 74.000000)">
                        <path d="M57.2632543,8.78246387 C52.9916017,8.78246387 47.5975939,14.1503551 47.5975939,18.4013257 L47.5975939,110.280061 C47.5975939,114.531032 52.9916017,117.989699 57.2632543,117.989699 L83.9762623,117.989699 C88.2479153,117.989699 93.6419228,114.531032 93.6419228,110.280061 L93.6419228,18.4013257 C93.6419228,14.1503551 88.2479153,8.78246387 83.9762623,8.78246387 L57.2632543,8.78246387 Z M83.9762623,125.626297 L57.2632543,125.626297 C48.760119,125.626297 41.8420529,118.742027 41.8420529,110.280061 L41.8420529,18.4013257 C41.8420529,9.93905972 48.760119,3.05478965 57.2632543,3.05478965 L83.9762623,3.05478965 C92.4793977,3.05478965 99.3971618,9.93905972 99.3971618,18.4013257 L99.3971618,110.280061 C99.3971618,118.742027 92.4793977,125.626297 83.9762623,125.626297 L83.9762623,125.626297 Z" id="Fill-3" fill="#E2E2E2" fill-rule="nonzero"></path>
                        <path d="M44.5669041,196.43464 C44.5669041,201.717469 40.2635376,206 34.9550056,206 C29.6464733,206 25.3431068,201.717469 25.3431068,196.43464 C25.3431068,191.15181 29.6464733,186.86928 34.9550056,186.86928 C40.2635376,186.86928 44.5669041,191.15181 44.5669041,196.43464" id="Fill-5" fill="#222222" fill-rule="nonzero"></path>
                        <path d="M121.651921,196.43464 C121.651921,201.717469 117.348554,206 112.040022,206 C106.73149,206 102.428123,201.717469 102.428123,196.43464 C102.428123,191.15181 106.73149,186.86928 112.040022,186.86928 C117.348554,186.86928 121.651921,191.15181 121.651921,196.43464" id="Fill-7" fill="#222222" fill-rule="nonzero"></path>
                        <path d="M120.715346,197.640799 L10.1262607,197.640799 C4.53381745,197.640799 0,193.128934 0,187.563267 L0,44.1324574 C0,30.0071398 11.5065518,18.5562999 25.7005932,18.5562999 L105.141316,18.5562999 C119.335358,18.5562999 130.84191,30.0071398 130.84191,44.1324574 L130.84191,187.563267 C130.84191,193.128934 126.308092,197.640799 120.715346,197.640799" id="Fill-9" fill="#C93B28" fill-rule="nonzero"></path>
                        <path d="M126.873437,197.640799 L19.737797,197.640799 C14.1450517,197.640799 9.61123428,193.128934 9.61123428,187.563267 L9.61123428,45.2484761 C9.61123428,30.5069888 21.6197649,18.5562999 36.4332757,18.5562999 L110.177958,18.5562999 C124.991167,18.5562999 137,30.5069888 137,45.2484761 L137,187.563267 C137,193.128934 132.466183,197.640799 126.873437,197.640799" id="Fill-11" fill="#FF4D29" fill-rule="nonzero"></path>
                        <g id="Fill-13-Clipped" transform="translate(54.888126, 0.000000)">
                            <mask id="mask-2" fill="white">
                                <use xlink:href="#path-1"></use>
                            </mask>
                            <g id="path-1"></g>
                            <path d="M31.3552552,12.2190384 L2.41022344,12.2190384 C1.07886192,12.2190384 0,11.1450995 0,9.8204846 L0,2.39879421 C0,1.0738788 1.07886192,-6.01141287e-05 2.41022344,-6.01141287e-05 L31.3552552,-6.01141287e-05 C32.6863146,-6.01141287e-05 33.7654787,1.0738788 33.7654787,2.39879421 L33.7654787,9.8204846 C33.7654787,11.1450995 32.6863146,12.2190384 31.3552552,12.2190384" id="Fill-13" fill="#C93B28" fill-rule="nonzero" mask="url(#mask-2)"></path>
                        </g>
                        <path d="M119.812117,69.3077438 L26.7777939,69.3077438 C25.8602176,69.3077438 25.1166122,68.5677389 25.1166122,67.654605 L25.1166122,65.9617914 C25.1166122,65.0489583 25.8602176,64.3086526 26.7777939,64.3086526 L119.812117,64.3086526 C120.729693,64.3086526 121.473298,65.0489583 121.473298,65.9617914 L121.473298,67.654605 C121.473298,68.5677389 120.729693,69.3077438 119.812117,69.3077438" id="Fill-16" fill="#AF3023" fill-rule="nonzero"></path>
                        <path d="M120.740234,76.6797797 L116.726517,76.6797797 C115.406029,76.6797797 114.419287,75.4723875 114.6887,74.1859452 L116.104631,67.4216029 C116.305785,66.4612796 117.156612,65.7729727 118.142448,65.7729727 L119.324303,65.7729727 C120.310139,65.7729727 121.160664,66.4612796 121.361818,67.4216029 L122.778051,74.1859452 C123.047162,75.4723875 122.06042,76.6797797 120.740234,76.6797797" id="Fill-18" fill="#E5E5E5" fill-rule="nonzero"></path>
                        <path d="M97.3515525,118.970761 C97.3515525,132.988474 85.9325904,144.352149 71.8466768,144.352149 C57.7607632,144.352149 46.342103,132.988474 46.342103,118.970761 C46.342103,104.953048 57.7607632,93.5893735 71.8466768,93.5893735 C85.9325904,93.5893735 97.3515525,104.953048 97.3515525,118.970761" id="Fill-20" fill="#FF6B4D" fill-rule="nonzero"></path>
                    </g>
                </g>
            </g>
        </g>
    </g>
</svg>