<?xml version="1.0" encoding="UTF-8"?>
<svg width="580px" height="320px" viewBox="0 0 580 320" version="1.1" xmlns="http://www.w3.org/2000/svg" xmlns:xlink="http://www.w3.org/1999/xlink">
    <title>S5</title>
    <defs>
        <polygon id="path-1" points="0 0 4.48717817 0 4.48717817 4.496 0 4.496"></polygon>
        <polygon id="path-3" points="0 0 4.48717817 0 4.48717817 4.496 0 4.496"></polygon>
        <rect id="path-5" x="0" y="0" width="156.112853" height="222.105489"></rect>
        <polygon id="path-7" points="0 0 3.35726565 0 3.35726565 3.36523468 0 3.36523468"></polygon>
        <polygon id="path-9" points="0 0 3.35726565 0 3.35726565 3.36523468 0 3.36523468"></polygon>
    </defs>
    <g id="Page-1" stroke="none" stroke-width="1" fill="none" fill-rule="evenodd">
        <g id="Artboard" transform="translate(-8462.000000, -3817.000000)">
            <g id="S5" transform="translate(8462.000000, 3817.000000)">
                <rect id="Rectangle" x="0" y="0" width="580" height="320"></rect>
                <g id="reglas_equipaje-copy" transform="translate(74.000000, 70.138483)">
                    <g id="Group-8" transform="translate(0.000000, 234.861517)" fill="#9CB6A0">
                        <ellipse id="Oval-Copy-2" cx="216.5" cy="7.5" rx="216.5" ry="7.5"></ellipse>
                    </g>
                    <rect id="Rectangle" fill="#F3F1F1" x="119" y="0" width="273" height="242"></rect>
                </g>
                <g id="Group-105" transform="translate(134.000000, 31.000000)">
                    <g id="Group-101" transform="translate(58.282132, 0.000000)">
                        <rect id="Rectangle" fill="#00853F" x="51.6025489" y="42.712" width="105.448687" height="13.488" rx="6.744"></rect>
                        <rect id="Rectangle-Copy-83" fill="#737373" x="163.782003" y="49.456" width="58.3333162" height="6.744" rx="3.372"></rect>
                        <g id="Group-100-Copy" fill-rule="nonzero">
                            <path d="M273.717868,19.0692414 L273.717868,38.1384828 L0,38.1384828 L0,19.0692414 C0,8.53759017 8.45156302,0 18.8770944,0 L254.840774,0 C265.266305,0 273.717868,8.53759017 273.717868,19.0692414 Z" id="Shape" fill="#454545"></path>
                            <path d="M18.9714798,23.8365517 C16.365097,23.8365517 14.2522062,21.7021542 14.2522062,19.0692414 C14.2522062,16.4363286 16.365097,14.301931 18.9714798,14.301931 C21.5778627,14.301931 23.6907534,16.4363286 23.6907534,19.0692414 C23.6907534,21.7021542 21.5778627,23.8365517 18.9714798,23.8365517 Z" id="Shape" fill="#FF4D29"></path>
                            <path d="M37.8485742,23.8365517 C35.2421914,23.8365517 33.1293006,21.7021542 33.1293006,19.0692414 C33.1293006,16.4363286 35.2421914,14.301931 37.8485742,14.301931 C40.454957,14.301931 42.5678478,16.4363286 42.5678478,19.0692414 C42.5678478,21.7021542 40.454957,23.8365517 37.8485742,23.8365517 Z" id="Shape" fill="#FCCD48"></path>
                            <path d="M56.7256686,23.8365517 C54.119286,23.8365517 52.006395,21.7021542 52.006395,19.0692414 C52.006395,16.4363286 54.119286,14.301931 56.7256686,14.301931 C59.3320512,14.301931 61.4449422,16.4363286 61.4449422,19.0692414 C61.4449422,21.7021542 59.3320512,23.8365517 56.7256686,23.8365517 Z" id="Shape" fill="#51C662"></path>
                            <path d="M250.1215,28.6038621 C247.515118,28.6038621 245.402227,26.4694645 245.402227,23.8365517 L245.402227,14.301931 C245.402227,11.6690182 247.515118,9.53462069 250.1215,9.53462069 C252.727883,9.53462069 254.840774,11.6690182 254.840774,14.301931 L254.840774,23.8365517 C254.840774,26.4694645 252.727883,28.6038621 250.1215,28.6038621 Z" id="Shape" fill="#FFFFFF"></path>
                            <path d="M254.840774,23.8365517 L245.402227,23.8365517 C242.795844,23.8365517 240.682953,21.7021542 240.682953,19.0692414 C240.682953,16.4363286 242.795844,14.301931 245.402227,14.301931 L254.840774,14.301931 C257.447157,14.301931 259.560048,16.4363286 259.560048,19.0692414 C259.560048,21.7021542 257.447157,23.8365517 254.840774,23.8365517 Z" id="Shape" fill="#FFFFFF"></path>
                            <path d="M226.525132,23.8365517 L217.086585,23.8365517 C214.480203,23.8365517 212.367312,21.7021542 212.367312,19.0692414 C212.367312,16.4363286 214.480203,14.301931 217.086585,14.301931 L226.525132,14.301931 C229.131515,14.301931 231.244406,16.4363286 231.244406,19.0692414 C231.244406,21.7021542 229.131515,23.8365517 226.525132,23.8365517 Z" id="Shape" fill="#FFFFFF"></path>
                        </g>
                        <rect id="Rectangle-Copy-82" fill="#F4F4F4" x="51.6025489" y="103.408" width="170.51277" height="177.592"></rect>
                        <g id="Group-43" transform="translate(136.858934, 179.840000) scale(-1, 1) translate(-136.858934, -179.840000) translate(83.012796, 125.888000)">
                            <path d="M91.0691289,68.5497503 C92.7879741,68.546372 94.1319132,67.1995852 94.1268782,65.485167 C94.1218147,63.8044765 92.7202301,62.4064657 91.048932,62.4150686 C89.3780546,62.4237511 87.9752076,63.8367285 87.9817069,65.5047712 C87.9882515,67.2004283 89.3597511,68.5529068 91.0691289,68.5497503 M94.2223788,84.2250877 C94.2223788,82.0490225 94.2270072,79.8727464 94.2209061,77.6964704 C94.2150153,75.5648834 92.9337709,74.1573868 91.0329427,74.1797313 C89.1931262,74.2012327 87.936076,75.6116805 87.931658,77.6829793 C87.9249256,80.8070021 87.9131441,83.9310249 87.9436499,87.0546261 C87.9499614,87.6880733 87.799957,87.8973955 87.1336678,87.8841152 C84.9275711,87.8398477 82.7200016,87.8598735 80.5130634,87.869781 C78.4647553,87.8788453 77.0339272,89.1720896 77.0275953,90.9973873 C77.0213041,92.8070861 78.4830588,94.1574565 80.4974949,94.1644129 C83.9305567,94.1764283 87.3638289,94.1791687 90.7966804,94.1637805 C92.9055793,94.1540838 94.2080726,92.8469269 94.2196438,90.7537051 C94.2314253,88.5776399 94.2221684,86.4013638 94.2223788,84.2250877 M78.2892943,44.4416483 C82.3875934,44.4416483 86.4858925,44.4450211 90.5839812,44.4403835 C92.9695363,44.4374324 94.2204853,43.1926716 94.2213268,40.8216184 C94.2240618,32.8197355 94.2236411,24.8178525 94.2215372,16.8157588 C94.2211164,14.3629161 92.9964656,13.1213173 90.5465327,13.1194201 C82.3852792,13.1130962 74.2238152,13.1124638 66.0623513,13.1198417 C63.6610174,13.1219497 62.4424677,14.349425 62.4412053,16.7474603 C62.4367873,24.7495541 62.4374184,32.751437 62.4405742,40.7533199 C62.4414157,43.2337772 63.6393477,44.4384863 66.0997999,44.4408051 C70.1629647,44.4443887 74.2261295,44.4418591 78.2892943,44.4416483 M107.692276,4.21511199 L107.692276,103.688888 C107.053968,105.859262 105.605468,107.217853 103.485629,107.904 L53.846138,107.904 C53.848873,103.344655 53.8518184,98.7853105 53.8545534,94.2261766 C54.2393475,94.2154259 54.6241416,94.1958217 55.0089357,94.1956109 C59.1451041,94.1930814 63.2812725,94.2053076 67.4174409,94.1869682 C68.7636943,94.1810659 69.7434571,93.5113614 70.3236988,92.3028579 C70.9214025,91.0580971 70.650637,89.9071413 69.7979468,88.889199 C69.0921052,88.0466403 68.1249655,87.8225623 67.060628,87.8284646 C64.0462322,87.8449069 61.0316261,87.8164492 58.0174407,87.8480688 C57.3818677,87.8546036 57.1106815,87.6975592 57.1883136,87.0314383 C57.2364917,86.6157451 57.1971497,86.1897229 57.1971497,85.7681273 C57.1971497,76.4961879 57.2148221,67.2242485 57.1708516,57.9527307 C57.1662231,56.9874877 57.4424586,56.7895486 58.3309143,56.8325514 C59.8696699,56.9067522 61.4166306,56.9010606 62.9560174,56.8336054 C63.7765187,56.7977697 63.9997372,57.0296473 63.9923737,57.8631416 C63.9505071,62.7093821 63.9641821,67.556255 63.9759637,72.402917 C63.9810129,74.5534758 65.2965501,75.8661134 67.4353236,75.8732805 C70.4497194,75.883188 73.4643255,75.8878256 76.4787213,75.8688538 C78.338314,75.8572599 79.7085513,74.4902364 79.7011878,72.7100494 C79.6940347,70.9602172 78.273305,69.5704275 76.4566309,69.5588337 C74.6689898,69.5472398 72.880928,69.5352243 71.0939181,69.5683196 C70.5378707,69.5786487 70.3870247,69.4060053 70.3901804,68.8579311 C70.4120605,65.1000395 70.415637,61.341937 70.3880766,57.5842562 C70.3834481,56.9583976 70.6106639,56.8321298 71.1749164,56.8420373 C72.891868,56.8728137 74.610082,56.8730245 76.3270337,56.8418265 C76.8717204,56.8321298 77.0593838,56.983061 77.042553,57.5471558 C77.0036318,58.8454592 77.0126783,60.1460813 77.0349791,61.4452279 C77.0694823,63.4480174 78.4111072,64.8888201 80.2212594,64.9016788 C82.0774859,64.9147482 83.4395182,63.4507578 83.4630813,61.3954797 C83.4775979,60.1313255 83.4965325,58.8656958 83.4525621,57.6028064 C83.431734,56.999714 83.6204493,56.8260166 84.217101,56.8399293 C85.8635738,56.8782945 87.5117296,56.867333 89.1590438,56.847518 C90.0651719,56.8365565 90.975718,56.9449066 91.876376,56.698484 C93.2800645,56.3144105 94.2200645,55.1710434 94.2573027,53.7382511 C94.2966446,52.2268311 93.424599,51.0244407 91.9996616,50.5777603 C91.4863223,50.4169216 90.9704584,50.4046953 90.4442856,50.4044845 C78.2467965,50.3990038 66.0493075,50.3905719 53.8518184,50.3827723 C53.8532911,48.4931812 53.8545534,46.6033793 53.8560261,44.7135774 C56.0656994,44.5335561 57.1950459,43.3218906 57.1958874,41.1095681 C57.1986224,33.0058699 57.1982017,24.9021716 57.1963082,16.7984734 C57.1958874,14.519328 56.1517469,13.3572 53.8530807,13.0627155 C53.8507665,8.70847701 53.8484523,4.35423851 53.846138,0 L103.485629,0 C103.83045,0.370160865 104.346103,0.335379234 104.767084,0.538799072 C106.342025,1.29998978 107.094152,2.68956861 107.692276,4.21511199" id="Fill-1" fill="#6A6A6A"></path>
                            <path d="M29.213951,56.7855435 C33.2050624,56.7855435 37.1959634,56.7870191 41.1870748,56.7834355 C41.6065054,56.7830139 42.0297222,56.7849111 42.4445252,56.7322116 C44.0227538,56.5311106 45.1872311,55.2184729 45.2033806,53.65077 C45.218783,52.1361881 44.1195131,50.8077406 42.6016539,50.5398167 C42.2255547,50.4734154 41.8359932,50.4630863 41.4527422,50.4628755 C33.3306391,50.4586595 25.208536,50.4588703 17.0864329,50.4624539 C16.7376787,50.4624539 16.3840865,50.470675 16.041222,50.5271688 C14.4535278,50.7889796 13.3733994,52.1001417 13.4060031,53.7005183 C13.443024,55.511271 14.7921854,56.7648853 16.8207655,56.7771116 C20.9517572,56.8015641 25.0829593,56.7844895 29.213951,56.7855435 M29.2301476,62.8411307 C25.2003325,62.8411307 21.1705174,62.8396551 17.1409126,62.8417631 C14.5959323,62.8430279 13.4005341,64.0262357 13.399272,66.5627651 C13.3952754,74.5340824 13.3950651,82.5056104 13.3994823,90.4771385 C13.4007444,92.9993337 14.6049772,94.1783255 17.1617369,94.1787471 C25.2562846,94.1799342 33.3508324,94.1804335 41.4453801,94.1787471 C43.9722706,94.1781147 45.2049002,92.9599145 45.2057416,90.4566911 C45.2082657,82.485163 45.2082657,74.5138458 45.2055312,66.5423177 C45.2046898,64.0909506 43.9651189,62.8442927 41.5295186,62.8421847 C37.4298685,62.8386011 33.3300081,62.8411307 29.2301476,62.8411307 M29.2490788,44.4526098 C33.2788939,44.4526098 37.308709,44.453453 41.3385242,44.4521882 C44.0128675,44.451345 45.2055312,43.2734071 45.2061623,40.6285277 C45.2071614,32.7269845 45.2076347,24.8256521 45.2059519,16.9243197 C45.2055312,14.3275021 44.0025605,13.1069831 41.4272903,13.1057183 C33.3325322,13.1017131 25.2377742,13.1017131 17.1432264,13.1057183 C14.6026634,13.1069831 13.4003237,14.3051575 13.399272,16.8349414 C13.3952754,24.8064695 13.3950651,32.7779975 13.399272,40.7497364 C13.4007444,43.270456 14.6060289,44.4507126 17.1596335,44.4519774 C21.1894486,44.4540854 25.2192637,44.4526098 29.2490788,44.4526098 M53.844876,94.2261766 C53.8419311,98.7855213 53.8391966,103.344655 53.8362518,107.904 L3.99552867,107.904 C2.88490001,107.247997 1.68802935,106.723743 0.927206652,105.580376 C0.568355802,105.040945 0.500413935,104.351425 0,103.899686 L0,4.00431423 C0.661539229,2.85335846 1.18340849,1.60965169 2.39500339,0.860265654 C2.91476919,0.538588274 3.56473937,0.47408416 3.99552867,0 L53.8362518,0 C53.8387759,4.35423851 53.8410897,8.70847701 53.8431932,13.0627155 C51.4145344,13.8163175 50.8569062,14.5815134 50.8566959,17.1646291 C50.8564856,25.1338384 50.8545924,33.1028369 50.8583787,41.0720461 C50.8594304,43.2396795 51.6953467,44.2479252 53.846138,44.7135774 C53.844876,46.6033793 53.8436139,48.4931812 53.8421415,50.3829831 C51.4279965,51.128364 50.857958,51.9093697 50.857958,54.4781512 C50.8575373,66.4008724 50.8575373,78.3235937 50.857958,90.2463149 C50.8581683,92.7155999 51.5039316,93.5741791 53.844876,94.2261766" id="Fill-3" fill="#7C7C7C"></path>
                            <g id="Group-7" transform="translate(0.000000, 103.408000)">
                                <mask id="mask-2" fill="white">
                                    <use xlink:href="#path-1"></use>
                                </mask>
                                <g id="Clip-6"></g>
                                <path d="M0.0137762693,0 C0.57401122,0.505659015 0.650310557,1.27747919 1.05182405,1.88106097 C1.90359782,3.16089975 3.24354607,3.74772848 4.48717817,4.48226722 C3.15288173,4.48226722 1.8183498,4.46055904 0.484995326,4.49524493 C0.0750041327,4.50586306 -0.00977290897,4.42091801 0.000824221239,4.01011431 C0.0354415133,2.67411741 0.0137762693,1.33670477 0.0137762693,0" id="Fill-5" fill="#FCF3F3" mask="url(#mask-2)"></path>
                            </g>
                            <path d="M4.48717817,0.0127864978 C4.00478158,0.543569145 3.27694689,0.615787682 2.69467914,0.975700326 C1.33793875,1.81494581 0.753786631,3.20715872 0.0127614088,4.496 C0.0127614088,3.17624163 0.0341960227,1.85601125 0.000748603205,0.537196921 C-0.0103220215,0.0984575076 0.0982643191,-0.0103423147 0.53614286,0.000750074966 C1.85236948,0.034027244 3.17000937,0.0127864978 4.48717817,0.0127864978" id="Fill-8" fill="#FCF3F3"></path>
                            <g id="Group-12" transform="translate(103.205098, 0.000000)">
                                <mask id="mask-4" fill="white">
                                    <use xlink:href="#path-3"></use>
                                </mask>
                                <g id="Clip-11"></g>
                                <path d="M4.47422206,4.496 C3.83782858,2.87366138 3.03808517,1.39571 1.36296507,0.586110119 C0.915207213,0.369753463 0.366530419,0.406747088 0,0.013045234 C1.34215473,0.013045234 2.68498077,0.0325509637 4.0264642,0.000714025604 C4.41581886,-0.00870253354 4.49570369,0.0713382192 4.48652925,0.461452813 C4.45453056,1.80577873 4.47422206,3.15100147 4.47422206,4.496" id="Fill-10" fill="#FCF3F3" mask="url(#mask-4)"></path>
                            </g>
                            <path d="M103.205098,107.890986 C105.459743,107.161422 107.000357,105.716418 107.679256,103.408 C107.679256,104.752784 107.659789,106.09824 107.691563,107.442351 C107.700962,107.832469 107.621078,107.91251 107.231729,107.903317 C105.890041,107.871256 104.547457,107.890986 103.205098,107.890986" id="Fill-13" fill="#FCF3F3"></path>
                            <path d="M54.5377515,94.416 C52.2375812,93.7473944 51.6030657,92.8669447 51.6025489,90.3347603 C51.6025489,78.1083346 51.6025489,65.8819089 51.6025489,53.6554832 C51.6025489,51.0212678 52.1629688,50.2203678 54.5350647,49.456 C66.5179003,49.4639982 78.500736,49.4724287 90.4835717,49.4780491 C91.0004848,49.4782652 91.5072705,49.4910191 92.011576,49.6559548 C93.4114371,50.1140134 94.2681363,51.347032 94.2294867,52.896952 C94.1929039,54.3660253 93.2694461,55.5387332 91.89046,55.932374 C91.0056519,56.1850736 90.1111297,56.0739636 89.2209478,56.0852043 C87.6026233,56.1055241 85.983472,56.1167648 84.3659742,56.0774223 C83.7798224,56.0631553 83.5944281,56.2412772 83.6148897,56.8599481 C83.6580863,58.1547906 83.6394849,59.4526594 83.6252238,60.749015 C83.6020754,62.8566468 82.2640124,64.3579291 80.440452,64.3445267 C78.6621551,64.3313405 77.3441403,62.8538366 77.3102444,60.8000305 C77.288336,59.4677911 77.2794487,58.1342547 77.317685,56.8028799 C77.3342196,56.2244161 77.1498587,56.0694241 76.6147575,56.079584 C74.928021,56.1113606 73.2400444,56.1111444 71.5533079,56.0798001 C70.9989853,56.0694241 70.7757681,56.1989084 70.7803151,56.8409254 C70.8073905,60.6943247 70.8038769,64.5481563 70.7823819,68.4015556 C70.7792817,68.9638069 70.9274731,69.140848 71.4737351,69.1302558 C73.2292969,69.0963175 74.9858921,69.1084229 76.742074,69.1203121 C78.526778,69.1324175 79.9225055,70.5573927 79.9295327,72.3517979 C79.9367666,74.1773312 78.5906429,75.5793927 76.7637757,75.5912819 C73.8024277,75.610737 70.8408731,75.6057651 67.8795252,75.5956053 C65.7783901,75.5884717 64.4860039,74.2423976 64.4810436,72.0368421 C64.4694693,67.0667222 64.456035,62.0963862 64.4973715,57.1266986 C64.5043987,56.2719729 64.2851085,56.0341888 63.4790464,56.0711534 C61.96675,56.1401108 60.4470131,56.1459474 58.9353367,56.0698564 C58.0625162,56.0259745 57.791142,56.2289556 57.795689,57.2185698 C57.8388856,66.7264748 57.8215243,76.234596 57.8215243,85.7427172 C57.8215243,86.1748357 57.8601739,86.6117099 57.8128436,87.0382081 C57.7365778,87.7210808 58.0029916,87.8823416 58.6273797,87.8754243 C61.5885209,87.8429992 64.5500755,87.8721818 67.5114235,87.8553207 C68.5570306,87.8494842 69.5071504,88.0790539 70.2005705,88.9430749 C71.038255,89.986947 71.3042554,91.1672208 70.7170702,92.443689 C70.1470397,93.6829765 69.1845189,94.3697402 67.8619571,94.3757929 C63.7985777,94.3945994 59.7351983,94.3822779 55.6718188,94.3846557 C55.2937964,94.3850881 54.915774,94.4051916 54.5377515,94.416" id="Fill-15" fill="#FCF3F3"></path>
                            <path d="M78.5059183,38.6277402 C81.4128276,38.6277402 84.3199449,38.6057167 87.2262305,38.6444695 C87.8817508,38.6531519 88.028115,38.4540936 88.0254487,37.8156247 C88.0019191,32.0702514 88.0037903,26.3248782 88.0235411,20.579505 C88.0254487,19.9848713 87.868237,19.8027541 87.2711377,19.8050835 C81.4575269,19.8266834 75.6439162,19.8285893 69.8303055,19.8033574 C69.1799828,19.8004247 69.0182337,20.003083 69.0205206,20.6413401 C69.0423505,26.3513487 69.0454691,32.0615691 69.0173626,37.7715777 C69.0140756,38.4767523 69.220524,38.651246 69.8893501,38.6429872 C72.7611237,38.6074108 75.6337289,38.6277402 78.5059183,38.6277402 M78.4849201,44.958853 C74.4696762,44.958853 70.4544324,44.961606 66.4391885,44.958006 C64.0077549,44.9556766 62.8239513,43.7452327 62.8229118,41.2536157 C62.8200012,33.2150484 62.8191695,25.1762695 62.8235355,17.1377022 C62.8249908,14.7284615 64.0289611,13.4955706 66.4021816,13.4934529 C74.4673893,13.4860412 82.532389,13.4864647 90.5975966,13.4930294 C93.0184271,13.4949353 94.2286345,14.7420144 94.2292582,17.2063138 C94.2308443,25.244881 94.231753,33.28366 94.2288424,41.3222273 C94.2280108,43.7041504 92.9920233,44.9546178 90.6346035,44.9573707 C86.5846397,44.9622413 82.5348838,44.958853 78.4849201,44.958853" id="Fill-17" fill="#FCF3F3"></path>
                            <path d="M52.5377313,44.96 C50.2513147,44.4969792 49.3624632,43.4944312 49.3613452,41.3390473 C49.3573202,33.4148728 49.3595563,25.4906982 49.3597799,17.5667333 C49.3597799,14.9980054 49.9525712,14.2373433 52.5346008,13.488 C54.977992,13.7808203 56.0875469,14.9363811 56.0882177,17.2026468 C56.0900066,25.2605503 56.0906775,33.3184538 56.0875469,41.3763573 C56.0868761,43.5761777 54.8863117,44.780996 52.5377313,44.96" id="Fill-19" fill="#FCF3F3"></path>
                            <path d="M94.2271832,84.3488874 C94.2271832,86.5509566 94.2368441,88.7530258 94.2243289,90.9548817 C94.2124723,93.0729123 92.8531389,94.3955616 90.6522088,94.4051599 C87.0693301,94.4209438 83.4864513,94.4179577 79.9035725,94.4060131 C77.801008,94.3989743 76.2754631,93.0325993 76.2820289,91.2012388 C76.2886371,89.3545209 77.7821254,88.0459492 79.9198204,88.0365641 C82.2230683,88.0265392 84.5269748,88.0064894 86.8293444,88.0510683 C87.52471,88.0647192 87.6812606,87.8527029 87.6746737,87.2119613 C87.642617,84.0513393 87.6549127,80.8900774 87.6619388,77.729242 C87.6667693,75.6333943 88.9784568,74.2060166 90.8985619,74.1842604 C92.8825607,74.1618643 94.219718,75.5860425 94.2258658,77.742893 C94.2322332,79.9449622 94.2271832,82.1468181 94.2271832,84.3488874" id="Fill-21" fill="#FCF3F3"></path>
                            <path d="M90.8816081,69.688 C89.0093374,69.6914699 87.5071425,68.2046586 87.4999743,66.3405828 C87.4928557,64.5068642 89.0293851,62.953545 90.8594865,62.944 C92.6900488,62.9345427 94.2251956,64.4714088 94.2307416,66.3190314 C94.2362564,68.2037317 92.7642484,69.6842862 90.8816081,69.688" id="Fill-23" fill="#FCF3F3"></path>
                            <path d="M29.2356484,19.837764 C26.3658954,19.837764 23.4959347,19.858714 20.6265971,19.8227393 C19.9326805,19.8140631 19.6724359,19.9657915 19.6767437,20.7388232 C19.7085752,26.4101207 19.7062905,32.0820531 19.6782514,37.7533506 C19.6747205,38.4601467 19.8853256,38.6288043 20.5526569,38.6258798 C26.2919551,38.6006594 32.0314611,38.6021407 37.7709671,38.6243603 C38.4110901,38.6266881 38.662196,38.5067021 38.6580927,37.7738773 C38.6268875,32.06724 38.6308338,26.3601794 38.6545112,20.6535421 C38.6572113,20.0072681 38.490015,19.8146979 37.8446996,19.8225277 C34.975362,19.8576559 32.1054013,19.837764 29.2356484,19.837764 M29.1147686,44.9594959 C25.1357045,44.9594959 21.1566405,44.9609773 17.1775764,44.9588611 C14.6561317,44.9575914 13.4660265,43.7727558 13.4645726,41.2422567 C13.4604186,33.2395903 13.4606263,25.2371355 13.4645726,17.2346808 C13.4656111,14.6950822 14.6528086,13.4924709 17.161376,13.4912012 C25.1539819,13.4869689 33.1467954,13.4869689 41.1396089,13.4909896 C43.6824464,13.4922593 44.870267,14.7175135 44.8706824,17.3244058 C44.872344,25.2566042 44.8718767,33.1885909 44.8708901,41.1205777 C44.870267,43.7757184 43.6926236,44.9582262 41.0519607,44.9590727 C37.0728966,44.9603424 33.0938326,44.9594959 29.1147686,44.9594959" id="Fill-25" fill="#FCF3F3"></path>
                            <path d="M29.2374424,69.2953153 C26.3689822,69.2953153 23.5003143,69.3154257 20.6320619,69.2807088 C19.9462567,69.2724529 19.6718931,69.4079336 19.6764063,70.1901228 C19.7088626,75.8610474 19.7061625,81.5323953 19.6781239,87.2035316 C19.6745931,87.9126882 19.8878947,88.0822508 20.5552151,88.0793251 C26.2921355,88.0545196 32.0292635,88.0562131 37.7661839,88.0775936 C38.4023502,88.0799222 38.6617599,87.9653987 38.657655,87.2282992 C38.6264519,81.5220226 38.6303981,75.8155343 38.6542829,70.1090461 C38.6569829,69.4597973 38.4850124,69.2724529 37.8428229,69.2802854 C34.9745704,69.3150023 32.1059026,69.2953153 29.2374424,69.2953153 M29.0957952,62.9448704 C33.1439566,62.9448704 37.192118,62.9423302 41.2400717,62.9459289 C43.6447514,62.9480458 44.8688992,64.1997602 44.8697299,66.661698 C44.87243,74.6669122 44.87243,82.6719148 44.8699376,90.677129 C44.8691069,93.1909306 43.6520207,94.4142787 41.1569941,94.4147021 C33.1645183,94.4163956 25.1720424,94.4163956 17.1795665,94.4149138 C14.6550474,94.4144904 13.4659999,93.2305163 13.4647538,90.6976628 C13.4603922,82.6924486 13.4605999,74.6872343 13.4645461,66.6822318 C13.4657922,64.1349835 14.6461166,62.9467756 17.1590048,62.9455055 C21.1377965,62.9433886 25.1167958,62.9448704 29.0957952,62.9448704" id="Fill-27" fill="#FCF3F3"></path>
                            <path d="M29.0773788,58.4423521 C24.9967738,58.4416784 20.915961,58.4600928 16.8353559,58.4338186 C14.8315189,58.4210184 13.4988135,57.0855251 13.4622441,55.1565043 C13.4300381,53.4516003 14.496992,52.054576 16.0653207,51.7758898 C16.4040032,51.7157061 16.7532825,51.706948 17.0977829,51.7067235 C25.1208189,51.7031304 33.1438548,51.7029058 41.1668907,51.7071726 C41.5454671,51.7073972 41.930277,51.7186255 42.3017888,51.7893637 C43.8011343,52.0747869 44.8869962,53.4897765 44.8717817,55.1032822 C44.8558291,56.7736031 43.7055552,58.1719748 42.1465767,58.3859861 C41.7368331,58.4423521 41.3187784,58.440331 40.9044637,58.4407802 C36.9620328,58.4443732 33.0198097,58.4430258 29.0773788,58.4423521" id="Fill-29" fill="#FCF3F3"></path>
                            <path d="M74.197121,29.1810442 C74.1737104,30.8235306 75.5701795,32.1426134 77.3522623,32.1608048 C79.1387623,32.1791984 80.5935373,30.8936688 80.6209234,29.2724058 C80.6480886,27.654781 79.2206997,26.3102303 77.450543,26.2861771 C75.6722147,26.2619219 74.2203109,27.5539195 74.197121,29.1810442 M77.3873784,38.199762 C74.33626,38.199762 71.2846999,38.1803578 68.2340232,38.2143152 C67.5235311,38.2221981 67.3042217,38.0556453 67.3077135,37.3825614 C67.3375708,31.932401 67.3340372,26.4820385 67.3110682,21.0318781 C67.3084179,20.4226664 67.4804643,20.2292306 68.1713003,20.2320299 C74.346861,20.2561135 80.5228635,20.2542944 86.6986452,20.2336774 C87.3329421,20.231454 87.499942,20.4054856 87.4979211,20.9728569 C87.476719,26.4567726 87.4747313,31.9406882 87.499942,37.4246038 C87.5025591,38.0340176 87.3472977,38.2242194 86.6509404,38.2157301 C83.5633809,38.1789429 80.4751588,38.199762 77.3873784,38.199762" id="Fill-31" fill="#7C7C7C"></path>
                            <path d="M30.2127869,32.1759547 C32.0037803,32.202468 33.4781572,30.9152573 33.5179276,29.2904573 C33.5574771,27.6731458 32.1224287,26.3072047 30.3482271,26.2738101 C28.5614317,26.2400107 27.0923575,27.5314717 27.0600993,29.1645697 C27.0271782,30.8152758 28.4240029,32.1494414 30.2127869,32.1759547 M30.361042,20.2467899 C33.4138618,20.2467899 36.4669024,20.2658147 39.5192802,20.2322177 C40.2057614,20.2247292 40.3836235,20.4089056 40.3807512,21.0270096 C40.3555633,26.4849046 40.3513653,31.9432043 40.384556,37.4010993 C40.3887052,38.1019815 40.1218017,38.2167376 39.4408442,38.2145113 C33.3352048,38.1932601 27.2295653,38.1918434 21.1241469,38.2159645 C20.4142453,38.2187615 20.1902054,38.0574554 20.1939615,37.3814673 C20.2237893,31.9573717 20.2259988,26.532669 20.1923576,21.1085734 C20.187775,20.3692368 20.4646212,20.224122 21.2028039,20.2324201 C24.2551817,20.2668266 27.3082223,20.2467899 30.361042,20.2467899" id="Fill-33" fill="#7C7C7C"></path>
                            <path d="M30.2261538,81.6313976 C32.0129287,81.6512432 33.4859629,80.3525746 33.5184417,78.7292895 C33.5506996,77.1100545 32.1112488,75.7518492 30.3348583,75.7255235 C28.5434435,75.6989953 27.0858753,76.9913862 27.0598039,78.6294542 C27.0337325,80.2788625 28.4395998,81.6115521 30.2261538,81.6313976 M30.36336,69.7026012 C33.4148189,69.7028037 36.4664988,69.7214342 39.5177367,69.6882233 C40.2008958,69.6807305 40.3838376,69.8601505 40.3809653,70.4812353 C40.3555567,75.939977 40.3513588,81.3989211 40.3845526,86.8576628 C40.3889193,87.5627874 40.1129601,87.6725455 39.4362083,87.6703179 C33.3332906,87.6498648 27.2301518,87.6482448 21.1272341,87.6719693 C20.4173407,87.6745705 20.1904311,87.512566 20.1941872,86.8339697 C20.2240146,81.4090464 20.2268869,75.9837182 20.19236,70.5585924 C20.1875588,69.8105367 20.479426,69.6807305 21.2089834,69.6886283 C24.2602213,69.7218392 27.3119012,69.7026012 30.36336,69.7026012" id="Fill-35" fill="#7C7C7C"></path>
                            <path d="M74.0387437,28.051357 C74.0630391,26.1836068 75.584164,24.7005434 77.447276,24.7283857 C79.3018266,24.7559959 80.7972678,26.2993841 80.7688075,28.1562295 C80.7401157,30.0172512 79.2159828,31.4928899 77.3443096,31.4717762 C75.4772642,31.4508946 74.0142169,29.9367407 74.0387437,28.051357" id="Fill-37" fill="#FCF3F3"></path>
                            <path d="M30.2089023,31.4715404 C28.3449107,31.4412507 26.8893579,29.9170571 26.9236631,28.0312375 C26.9572776,26.1655339 28.4881175,24.6901274 30.350037,24.7287409 C32.1988331,24.766892 33.6942167,26.327387 33.6530044,28.1750555 C33.6115619,30.0312792 32.0751963,31.50183 30.2089023,31.4715404" id="Fill-39" fill="#FCF3F3"></path>
                            <path d="M30.2227483,80.9277437 C28.3611755,80.9050842 26.8962746,79.3834286 26.9234408,77.5001458 C26.950607,75.6298112 28.4693797,74.1541683 30.3360174,74.1844581 C32.187,74.2145166 33.6868945,75.7653058 33.6532822,77.614137 C33.6194396,79.4675925 32.0845513,80.9504032 30.2227483,80.9277437" id="Fill-41" fill="#FCF3F3"></path>
                        </g>
                        <path d="M63.6840202,71.936 L210.033848,71.936 C216.241598,71.936 221.273973,76.9683756 221.273973,83.1761254 L221.273973,103.408 L221.273973,103.408 L52.4438949,103.408 L52.4438949,83.1761254 C52.4438949,76.9683756 57.4762704,71.936 63.6840202,71.936 Z" id="Rectangle-Copy-81" fill="#004A23"></path>
                        <rect id="Rectangle-Copy-84" fill="#FFFFFF" x="62.8204944" y="83.176" width="65.0640835" height="8.992" rx="4.496"></rect>
                        <rect id="Rectangle-Copy-85" fill="#FFFFFF" x="179.487127" y="83.176" width="33.6538363" height="8.992" rx="4.496"></rect>
                    </g>
                    <g id="Group-102" transform="translate(0.000000, 58.281481)">
                        <g id="Group-9">
                            <mask id="mask-6" fill="white">
                                <use xlink:href="#path-5"></use>
                            </mask>
                            <g id="Mask"></g>
                            <g mask="url(#mask-6)">
                                <g transform="translate(1.678633, 15.756586)">
                                    <path d="M130.067895,279.314478 L21.0085149,279.314478 C9.40573922,279.314478 0,269.886341 0,258.256608 L0,21.0573249 C0,9.42777378 9.40573922,0 21.0085149,0 L130.067895,0 C141.670671,0 151.076954,9.42777378 151.076954,21.0573249 L151.076954,258.256608 C151.076954,269.886341 141.670671,279.314478 130.067895,279.314478" id="Fill-28" fill="#314155"></path>
                                    <polygon id="Fill-29" fill="#FFFFFF" points="4.11928464 250.251963 146.957851 250.251963 146.957851 21.0573249 4.11928464 21.0573249"></polygon>
                                    <polygon id="Fill-30" fill="#4E6278" points="52.0441714 12.4796469 99.0322387 12.4796469 99.0322387 10.124067 52.0441714 10.124067"></polygon>
                                    <path d="M118.343596,11.3017661 C118.343596,12.4376512 117.425821,13.3582854 116.292206,13.3582854 C115.158591,13.3582854 114.240817,12.4376512 114.240817,11.3017661 C114.240817,10.1660627 115.158591,9.24524679 116.292206,9.24524679 C117.425821,9.24524679 118.343596,10.1660627 118.343596,11.3017661" id="Fill-31" fill="#4E6278"></path>
                                </g>
                            </g>
                        </g>
                        <rect id="Rectangle" fill="#00853F" x="13.4290626" y="71.2829579" width="78.8957427" height="10.095704" rx="5.04785202"></rect>
                        <rect id="Rectangle-Copy-83" fill="#737373" x="97.3607038" y="76.33081" width="43.6444534" height="5.04785202" rx="2.52392601"></rect>
                        <rect id="Rectangle" fill="#2B8639" x="5.03589847" y="35.9479938" width="144.362423" height="26.9218774"></rect>
                        <rect id="Rectangle-Copy-82" fill="#F4F4F4" x="13.4290626" y="116.713626" width="127.576095" height="106.004892"></rect>
                        <path d="M64.7798233,184.848963 C66.0658475,184.846434 67.0713705,183.83837 67.0676033,182.555136 C67.0638149,181.297148 66.0151621,180.250743 64.7647121,180.257182 C63.514577,180.263681 62.4649797,181.321288 62.4698424,182.56981 C62.474739,183.839001 63.5008825,184.851325 64.7798233,184.848963 M67.139056,196.581878 C67.139056,194.953104 67.142519,193.324171 67.1379541,191.695239 C67.1335467,190.099756 66.1749314,189.046252 64.7527491,189.062977 C63.3762153,189.07907 62.4357018,190.134784 62.4323963,191.685141 C62.4273592,194.023457 62.4185443,196.361774 62.4413685,198.699774 C62.4460908,199.173907 62.3338588,199.330583 61.8353473,199.320643 C60.1847659,199.287509 58.5330827,199.302498 56.8818717,199.309914 C55.3493464,199.316698 54.2788138,200.284686 54.2740764,201.650912 C54.2693693,203.005463 55.3630409,204.016209 56.8702235,204.021416 C59.4388089,204.03041 62.0075518,204.032461 64.5759798,204.020943 C66.1538387,204.013685 67.1283523,203.035284 67.1370097,201.468517 C67.1458246,199.839743 67.1388986,198.210811 67.139056,196.581878 M55.218068,166.804163 C58.2843779,166.804163 61.3506878,166.806687 64.4168402,166.803216 C66.2016907,166.801007 67.1376393,165.869309 67.138269,164.094587 C67.1403153,158.105216 67.1400005,152.115844 67.1384264,146.126315 C67.1381116,144.290374 66.221839,143.361043 64.3888216,143.359623 C58.2826464,143.35489 52.1763138,143.354416 46.0699812,143.359939 C44.273325,143.361517 43.3616173,144.280276 43.3606729,146.075194 C43.3573673,152.064723 43.3578395,158.054095 43.3602006,164.043466 C43.3608303,165.900077 44.257112,166.801796 46.0979998,166.803531 C49.1380225,166.806214 52.1780453,166.80432 55.218068,166.804163 M77.2171099,136.694791 L77.2171099,211.15044 C76.7395337,212.774955 75.6557789,213.791854 74.0697349,214.305432 L36.9299221,214.305432 C36.9319684,210.892784 36.9341722,207.480136 36.9362185,204.067646 C37.2241179,204.059599 37.5120173,204.044925 37.7999167,204.044768 C40.8945601,204.042874 43.9892034,204.052026 47.0838468,204.038299 C48.0911012,204.033881 48.8241508,203.53261 49.2582823,202.628051 C49.7054787,201.696353 49.5028945,200.834868 48.8649195,200.072943 C48.3368153,199.442292 47.6132102,199.274571 46.8168826,199.278989 C44.5615393,199.291296 42.3060386,199.269995 40.0508526,199.293662 C39.5753227,199.298554 39.3724237,199.181007 39.4305073,198.682418 C39.4665537,198.371274 39.4371184,198.052398 39.4371184,197.736836 C39.4371184,190.796833 39.4503407,183.856831 39.4174424,176.917144 C39.4139794,176.194664 39.6206563,176.046507 40.2853907,176.078695 C41.4366736,176.134234 42.5940954,176.129974 43.7458505,176.079484 C44.3597421,176.052661 44.5267521,176.22622 44.5212428,176.850087 C44.4899186,180.477475 44.5001501,184.105336 44.508965,187.73304 C44.5127428,189.342723 45.4970157,190.325226 47.0972264,190.33059 C49.3525698,190.338006 51.6080705,190.341477 53.8634138,190.327277 C55.2547441,190.318599 56.2799431,189.295388 56.2744338,187.962927 C56.2690819,186.653186 55.206105,185.612935 53.846886,185.604257 C52.5093893,185.595579 51.1715778,185.586585 49.8345534,185.611357 C49.4185238,185.619088 49.3056622,185.489865 49.3080233,185.079634 C49.3243937,182.26687 49.3270697,179.453948 49.3064492,176.641342 C49.3029862,176.17289 49.472987,176.078379 49.8951555,176.085795 C51.1797631,176.108831 52.4653151,176.108989 53.7499226,176.085637 C54.1574522,176.078379 54.2978602,176.19135 54.2852676,176.613573 C54.2561471,177.585347 54.2629156,178.558856 54.2796009,179.531261 C54.3054158,181.03034 55.3092073,182.108774 56.6635466,182.118398 C58.0523583,182.128181 59.0714184,181.032391 59.0890481,179.494025 C59.0999093,178.547812 59.114076,177.600494 59.0811777,176.655227 C59.0655943,176.203815 59.2067894,176.073803 59.6531988,176.084217 C60.8850746,176.112933 62.1182097,176.104729 63.3507151,176.089897 C64.0286718,176.081693 64.7099341,176.162792 65.3837982,175.978346 C66.4340251,175.690869 67.1373245,174.835064 67.1651857,173.762626 C67.1946211,172.631335 66.5421645,171.731351 65.4760394,171.397013 C65.0919636,171.276626 64.7059989,171.267475 64.3123213,171.267317 C55.1862716,171.263215 46.0602219,171.256904 36.9341722,171.251066 C36.935274,169.836716 36.9362185,168.422208 36.9373203,167.0077 C38.5905776,166.872955 39.4355444,165.966029 39.436174,164.310116 C39.4382203,158.244537 39.4379055,152.178957 39.4364888,146.113377 C39.436174,144.407448 38.6549576,143.5376 36.9351166,143.31718 C36.9333851,140.058053 36.9316536,136.798926 36.9299221,133.5398 L74.0697349,133.5398 C74.3277267,133.816863 74.713534,133.790829 75.0285076,133.943088 C76.2068647,134.512836 76.7695987,135.552929 77.2171099,136.694791" id="Fill-1" fill="#6A6A6A" transform="translate(57.073516, 173.922616) scale(-1, 1) translate(-57.073516, -173.922616) "></path>
                        <path d="M99.0747207,176.04351 C102.060834,176.04351 105.046789,176.044614 108.032902,176.041932 C108.346717,176.041616 108.663364,176.043036 108.973715,176.003591 C110.154531,175.853068 111.025783,174.870565 111.037866,173.697146 C111.04939,172.563489 110.226926,171.569152 109.091278,171.368613 C108.809884,171.318912 108.518417,171.31118 108.231672,171.311023 C102.154789,171.307867 96.0779059,171.308025 90.0010227,171.310707 C89.740088,171.310707 89.4755335,171.31686 89.2190054,171.359146 C88.0311072,171.55511 87.222965,172.536509 87.2473588,173.734383 C87.2750575,175.089723 88.2844877,176.028047 89.8022528,176.037198 C92.893023,176.055501 95.9839505,176.042721 99.0747207,176.04351 M99.0868389,180.576088 C96.0717681,180.576088 93.0566973,180.574983 90.0417839,180.576561 C88.1376529,180.577508 87.2432669,181.463133 87.2423226,183.361714 C87.2393324,189.328207 87.239175,195.294858 87.24248,201.261509 C87.2434243,203.14936 88.1444202,204.03183 90.0573645,204.032145 C96.113631,204.033034 102.169898,204.033407 108.226164,204.032145 C110.11676,204.031672 111.039003,203.119855 111.039632,201.246204 C111.041521,195.279553 111.041521,189.31306 111.039475,183.346409 C111.038845,181.511572 110.11141,180.578455 108.289116,180.576877 C105.221795,180.574194 102.154317,180.576088 99.0868389,180.576088 M99.1010031,166.812367 C102.116074,166.812367 105.131145,166.812998 108.146215,166.812052 C110.147135,166.81142 111.039475,165.92974 111.039947,163.95006 C111.040694,158.035792 111.041049,152.121682 111.03979,146.207573 C111.039475,144.263867 110.139423,143.350314 108.212629,143.349367 C102.156206,143.34637 96.0997816,143.34637 90.0435151,143.349367 C88.1426891,143.350314 87.2431095,144.247142 87.2423226,146.140673 C87.2393324,152.107324 87.239175,158.073975 87.2423226,164.040784 C87.2434243,165.927531 88.1452071,166.810947 90.0557907,166.811894 C93.0708615,166.813472 96.0859323,166.812367 99.1010031,166.812367 M117.503353,204.067646 C117.50115,207.480294 117.499104,210.892784 117.496901,214.305432 L80.2065279,214.305432 C79.3755657,213.814417 78.480078,213.422015 77.9108375,212.566211 C77.6423485,212.162449 77.591515,211.646347 77.2171099,211.308222 L77.2171099,136.53701 C77.7120675,135.675525 78.1025253,134.744616 79.0090295,134.183704 C79.3979136,133.94293 79.8842153,133.894649 80.2065279,133.5398 L117.496901,133.5398 C117.498789,136.798926 117.500521,140.058053 117.502094,143.31718 C115.684994,143.881248 115.267782,144.453993 115.267624,146.387443 C115.267467,152.352358 115.266051,158.317116 115.268883,164.282031 C115.26967,165.904495 115.895095,166.659162 117.504298,167.0077 C117.503353,168.422208 117.502409,169.836716 117.501307,171.251223 C115.695066,171.809138 115.268569,172.393717 115.268569,174.316437 C115.268254,183.240538 115.268254,192.164638 115.268569,201.088738 C115.268726,202.936986 115.75188,203.579629 117.503353,204.067646" id="Fill-3" fill="#7C7C7C" transform="translate(97.360704, 173.922616) scale(-1, 1) translate(-97.360704, -173.922616) "></path>
                        <g id="Group-7" transform="translate(115.825665, 212.622814) scale(-1, 1) translate(-115.825665, -212.622814) translate(114.147032, 210.940197)">
                            <mask id="mask-8" fill="white">
                                <use xlink:href="#path-7"></use>
                            </mask>
                            <g id="Clip-6"></g>
                            <path d="M0.0103072786,0 C0.429469942,0.378483375 0.486556409,0.956187116 0.786965127,1.40796522 C1.42425447,2.36591847 2.42679149,2.80515699 3.35726565,3.35495576 C2.35895726,3.35495576 1.36047268,3.33870729 0.362869065,3.36466952 C0.0561174058,3.37261714 -0.00731200107,3.30903617 0.000616674788,3.00155154 C0.0265170159,2.0015642 0.0103072786,1.00051718 0.0103072786,0" id="Fill-5" fill="#FCF3F3" mask="url(#mask-8)"></path>
                        </g>
                        <path d="M117.504298,133.54937 C117.143373,133.946658 116.598814,134.000714 116.163166,134.270107 C115.148066,134.898278 114.711008,135.940343 114.15658,136.905034 C114.15658,135.917201 114.172617,134.929015 114.147592,133.941889 C114.139309,133.613494 114.220553,133.532058 114.548169,133.540361 C115.532958,133.565269 116.518804,133.54937 117.504298,133.54937" id="Fill-8" fill="#FCF3F3" transform="translate(115.825665, 135.222417) scale(-1, 1) translate(-115.825665, -135.222417) "></path>
                        <g id="Group-12" transform="translate(38.608555, 135.222417) scale(-1, 1) translate(-38.608555, -135.222417) translate(36.929922, 133.539800)">
                            <mask id="mask-10" fill="white">
                                <use xlink:href="#path-9"></use>
                            </mask>
                            <g id="Clip-11"></g>
                            <path d="M3.347572,3.36523468 C2.87142823,2.15092192 2.27306752,1.04468232 1.01975799,0.438700645 C0.684749662,0.276758713 0.274234706,0.304448266 0,0.0097642958 C1.00418789,0.0097642958 2.00887804,0.024364242 3.01256367,0.000534444778 C3.30387527,-0.00651380509 3.36364437,0.0533963188 3.35678013,0.345395242 C3.332839,1.35161682 3.347572,2.35850966 3.347572,3.36523468" id="Fill-10" fill="#FCF3F3" mask="url(#mask-10)"></path>
                        </g>
                        <path d="M36.9299221,214.295691 C38.6168267,213.749616 39.7695002,212.668037 40.2774466,210.940197 C40.2774466,211.946761 40.2628812,212.953829 40.2866546,213.95989 C40.2936862,214.251891 40.2339179,214.311801 39.9426105,214.304921 C38.9387717,214.280923 37.9342632,214.295691 36.9299221,214.295691" id="Fill-13" fill="#FCF3F3" transform="translate(38.608555, 212.622814) scale(-1, 1) translate(-38.608555, -212.622814) "></path>
                        <path d="M49.1978108,204.209728 C47.4768444,203.70928 47.0021057,203.050267 47.0017191,201.154939 C47.0017191,192.003518 47.0017191,182.852096 47.0017191,173.700674 C47.0017191,171.728977 47.4210201,171.129507 49.1958005,170.557381 C58.1612485,170.563368 67.1266965,170.569678 76.0921445,170.573885 C76.4788942,170.574046 76.8580666,170.583593 77.2353834,170.707046 C78.2827466,171.049901 78.9237212,171.972809 78.8948039,173.132917 C78.8674329,174.232512 78.1765103,175.110278 77.1447655,175.404916 C76.4827602,175.594061 75.8134868,175.510895 75.1474609,175.519309 C73.9366453,175.534518 72.7252111,175.542932 71.515014,175.513484 C71.0764606,175.502805 70.9377503,175.636129 70.9530595,176.099201 C70.9853788,177.068384 70.9714614,178.039833 70.9607914,179.010149 C70.9434719,180.587702 69.9423455,181.711404 68.5779743,181.701373 C67.2474688,181.691503 66.2613422,180.585598 66.2359816,179.048334 C66.21959,178.051159 66.2129405,177.053013 66.2415486,176.056486 C66.2539196,175.623508 66.1159825,175.507498 65.7156247,175.515102 C64.4536239,175.538887 63.1906952,175.538725 61.9286944,175.515264 C61.5139553,175.507498 61.3469462,175.604416 61.3503482,176.084963 C61.3706058,178.969214 61.367977,181.853788 61.3518946,184.73804 C61.3495751,185.158882 61.4604505,185.291396 61.8691588,185.283468 C63.182654,185.258066 64.4969225,185.267126 65.8108817,185.276025 C67.1461809,185.285086 68.1904514,186.351673 68.1957091,187.694777 C68.2011214,189.06118 67.1939641,190.110617 65.8271187,190.119516 C63.6114652,190.134078 61.3956572,190.130356 59.1800037,190.122752 C57.6079537,190.117412 56.6410022,189.109882 56.6372909,187.459034 C56.6286312,183.738923 56.6185797,180.01865 56.6495073,176.298863 C56.654765,175.659104 56.4906941,175.481124 55.8876058,175.508792 C54.7561195,175.560406 53.6190662,175.564775 52.4880438,175.507821 C51.8350075,175.474976 51.6319678,175.626906 51.6353698,176.367628 C51.6676891,183.484249 51.6546995,190.601033 51.6546995,197.717817 C51.6546995,198.041255 51.6836168,198.368254 51.6482047,198.687486 C51.5911433,199.198613 51.7904717,199.319315 52.2576331,199.314138 C54.4731319,199.289868 56.68894,199.311711 58.9045934,199.29909 C59.6869071,199.294722 60.3977781,199.466554 60.9165886,200.113269 C61.5433365,200.894603 61.7423556,201.778032 61.303029,202.733462 C60.8765374,203.661063 60.1563882,204.175103 59.1668595,204.179633 C56.1266762,204.19371 53.0864929,204.184487 50.0463096,204.186267 C49.7634767,204.18659 49.4806437,204.201638 49.1978108,204.209728" id="Fill-15" fill="#FCF3F3" transform="translate(62.948731, 187.383554) scale(-1, 1) translate(-62.948731, -187.383554) "></path>
                        <path d="M58.7374098,162.45248 C60.9123327,162.45248 63.0874112,162.435995 65.2618675,162.465002 C65.7523218,162.4715 65.8618302,162.322506 65.8598353,161.844615 C65.8422307,157.544231 65.8436306,153.243846 65.858408,148.943461 C65.8598353,148.498381 65.742211,148.362067 65.2954667,148.363811 C60.9457763,148.379978 56.596086,148.381405 52.2463956,148.362519 C51.7598301,148.360323 51.6388109,148.512012 51.640522,148.989745 C51.6568549,153.263659 51.6591882,157.537732 51.6381592,161.811646 C51.6356999,162.339466 51.7901627,162.470074 52.2905723,162.463892 C54.439207,162.437263 56.5884639,162.45248 58.7374098,162.45248 M58.7216991,167.191288 C55.7175303,167.191288 52.7133616,167.193348 49.7091929,167.190654 C47.8900165,167.18891 47.0043055,166.282899 47.0035278,164.417935 C47.0013501,158.401106 47.0007279,152.384118 47.0039944,146.367288 C47.0050833,144.563983 47.9058828,143.64117 49.6815047,143.639585 C55.7158193,143.634037 61.7499783,143.634354 67.7842928,143.639268 C69.595536,143.640695 70.5010021,144.574127 70.5014688,146.418644 C70.5026555,152.435473 70.5033354,158.452461 70.5011577,164.469291 C70.5005355,166.252149 69.575781,167.188118 67.811981,167.190178 C64.7818352,167.193824 61.7518449,167.191288 58.7216991,167.191288" id="Fill-17" fill="#FCF3F3" transform="translate(58.752149, 155.413825) scale(-1, 1) translate(-58.752149, -155.413825) "></path>
                        <path d="M77.9168048,167.192146 C76.2061288,166.845577 75.5410983,166.095175 75.5402618,164.48188 C75.5372503,158.550673 75.5389234,152.619466 75.5390907,146.688416 C75.5390907,144.765735 75.9826116,144.196383 77.9144626,143.635504 C79.7425855,143.854678 80.5727444,144.71961 80.5732463,146.415899 C80.5745847,152.447202 80.5750866,158.478504 80.5727444,164.509807 C80.5722425,166.156362 79.6739912,167.058163 77.9168048,167.192146" id="Fill-19" fill="#FCF3F3" transform="translate(78.056426, 155.413825) scale(-1, 1) translate(-78.056426, -155.413825) "></path>
                        <path d="M60.4281194,196.674542 C60.4281194,198.32278 60.4353476,199.971018 60.4259838,201.619097 C60.4171128,203.204433 59.400072,204.19443 57.7533562,204.201614 C55.0726791,204.213428 52.392002,204.211193 49.7113249,204.202253 C48.1382054,204.196984 46.9968067,203.174259 47.0017191,201.803494 C47.0066633,200.421235 48.1240775,199.441775 49.7234814,199.43475 C51.4467504,199.427247 53.1705122,199.412239 54.893124,199.445607 C55.4133903,199.455824 55.53052,199.297131 55.5255917,198.817539 C55.5016072,196.451828 55.5108067,194.085639 55.5160636,191.719769 C55.5196777,190.151036 56.5010703,189.082651 57.9376754,189.066367 C59.4220851,189.049603 60.4225339,190.115594 60.4271337,191.729986 C60.4318977,193.378225 60.4281194,195.026303 60.4281194,196.674542" id="Fill-21" fill="#FCF3F3" transform="translate(53.716250, 196.637950) scale(-1, 1) translate(-53.716250, -196.637950) "></path>
                        <path d="M49.5318266,185.700937 C48.1310107,185.703534 47.0070823,184.590663 47.0017191,183.195411 C46.996393,181.822881 48.1460102,180.660229 49.5152754,180.653085 C50.8848854,180.646006 52.0334681,181.796343 52.0376176,183.17928 C52.0417437,184.589969 50.9404008,185.698157 49.5318266,185.700937" id="Fill-23" fill="#FCF3F3" transform="translate(49.519668, 183.177011) scale(-1, 1) translate(-49.519668, -183.177011) "></path>
                        <path d="M95.7336889,148.388272 C93.5865659,148.388272 91.4392876,148.403953 89.2924755,148.377026 C88.7732935,148.370532 88.5785808,148.4841 88.5818039,149.06271 C88.6056199,153.30765 88.6039105,157.553064 88.5829319,161.798003 C88.5802902,162.327037 88.7378629,162.453276 89.2371541,162.451087 C93.5312445,162.43221 97.8254904,162.433319 102.119736,162.44995 C102.59867,162.451692 102.786546,162.361883 102.783476,161.813368 C102.760128,157.541977 102.763081,153.270269 102.780796,148.998878 C102.782816,148.515145 102.657721,148.371007 102.174902,148.376868 C100.02809,148.403161 97.8808118,148.388272 95.7336889,148.388272 M95.6432477,167.191769 C92.6661484,167.191769 89.6890491,167.192878 86.7119498,167.191294 C84.8254279,167.190343 83.9350021,166.3035 83.9339143,164.409433 C83.9308063,158.419475 83.9309617,152.429676 83.9339143,146.439876 C83.9346913,144.538999 84.8229416,143.63885 86.6998288,143.6379 C92.6798233,143.634732 98.6599733,143.634732 104.640123,143.637741 C106.542651,143.638692 107.431368,144.555789 107.431678,146.507035 C107.432921,152.444248 107.432572,158.381302 107.431834,164.318357 C107.431368,166.305717 106.550265,167.190819 104.574546,167.191452 C101.597446,167.192403 98.620347,167.191769 95.6432477,167.191769" id="Fill-25" fill="#FCF3F3" transform="translate(95.682071, 155.413825) scale(-1, 1) translate(-95.682071, -155.413825) "></path>
                        <path d="M95.7350311,185.407014 C93.5888755,185.407014 91.4425644,185.422067 89.2965642,185.396081 C88.783451,185.389902 88.5781747,185.491309 88.5815514,186.076774 C88.6058349,190.321434 88.6038148,194.566411 88.5828365,198.811229 C88.5801948,199.34203 88.7397851,199.468947 89.2390681,199.466757 C93.5313795,199.44819 97.8238462,199.449457 102.116157,199.465461 C102.592131,199.467204 102.786219,199.381483 102.783148,198.829768 C102.759802,194.558647 102.762755,190.287367 102.780625,186.016088 C102.782645,185.530128 102.653978,185.389902 102.173498,185.395765 C100.027498,185.42175 97.8811868,185.407014 95.7350311,185.407014 M95.629052,180.653737 C98.6578493,180.653737 101.686647,180.651835 104.715289,180.654529 C106.514448,180.656113 107.430344,181.593016 107.430966,183.435764 C107.432986,189.427629 107.432986,195.419336 107.431121,201.411201 C107.430499,203.292769 106.519887,204.208439 104.653131,204.208756 C98.6732334,204.210024 92.6933361,204.210024 86.7134387,204.208915 C84.8246166,204.208598 83.9349822,203.322399 83.9340498,201.42657 C83.9307865,195.434705 83.9309419,189.44284 83.9338944,183.451134 C83.9348268,181.54453 84.8179347,180.655163 86.6980547,180.654212 C89.6749502,180.652627 92.6520011,180.653737 95.629052,180.653737" id="Fill-27" fill="#FCF3F3" transform="translate(95.682071, 192.431406) scale(-1, 1) translate(-95.682071, -192.431406) "></path>
                        <path d="M95.615273,177.283623 C92.5622017,177.283119 89.5089749,177.296902 86.4559035,177.277236 C84.956651,177.267655 83.959533,176.268044 83.9321722,174.824181 C83.9080759,173.548069 84.706361,172.502403 85.8797702,172.293807 C86.1331694,172.24876 86.394497,172.242205 86.652249,172.242037 C92.6550111,172.239347 98.6577731,172.239179 104.660535,172.242373 C104.943783,172.242541 105.231694,172.250945 105.509656,172.303893 C106.631452,172.517531 107.443884,173.576644 107.432501,174.784345 C107.420565,176.034572 106.559941,177.081247 105.393527,177.241433 C105.086961,177.283623 104.774176,177.28211 104.46419,177.282446 C101.514499,177.285136 98.5649638,177.284127 95.615273,177.283623" id="Fill-29" fill="#FCF3F3" transform="translate(95.682071, 174.763924) scale(-1, 1) translate(-95.682071, -174.763924) "></path>
                        <path d="M57.1922399,155.381673 C57.1747242,156.611066 58.2195497,157.598393 59.5528877,157.612009 C60.8895306,157.625777 61.97798,156.663564 61.99847,155.450056 C62.0187948,154.239272 60.9508354,153.232882 59.6264204,153.214878 C58.2958915,153.196723 57.2095903,154.163778 57.1922399,155.381673 M59.5791612,162.13214 C57.2963424,162.13214 55.013193,162.117616 52.7307046,162.143033 C52.199121,162.148934 52.0350356,162.02427 52.0376482,161.520469 C52.0599872,157.44105 52.0573433,153.36148 52.0401581,149.282061 C52.0381752,148.826068 52.1668988,148.681283 52.6837759,148.683378 C57.304274,148.701404 61.9251025,148.700043 66.5457659,148.684611 C67.020341,148.682947 67.1452888,148.813209 67.1437768,149.237883 C67.1279136,153.342568 67.1264264,157.447253 67.1452888,161.551938 C67.1472469,162.008081 67.0310817,162.150446 66.5100736,162.144092 C64.1999898,162.116557 61.8894103,162.13214 59.5791612,162.13214" id="Fill-31" fill="#7C7C7C" transform="translate(59.591465, 155.413825) scale(-1, 1) translate(-59.591465, -155.413825) "></path>
                        <path d="M94.7861421,157.623349 C96.126147,157.643194 97.2292624,156.679723 97.2590182,155.463568 C97.2886087,154.253018 96.2149186,153.230617 94.8874773,153.205622 C93.5506133,153.180323 92.4514654,154.146975 92.4273301,155.369342 C92.4026989,156.604887 93.4477903,157.603504 94.7861421,157.623349 M94.8970653,148.694426 C97.1811571,148.694426 99.4654142,148.708666 101.749175,148.683518 C102.262794,148.677913 102.395869,148.815769 102.39372,149.278416 C102.374875,153.363625 102.371734,157.449136 102.396567,161.534345 C102.399671,162.058952 102.199976,162.144846 101.69049,162.14318 C97.1223066,162.127274 92.5541231,162.126213 87.9861048,162.144268 C87.454963,162.146361 87.2873384,162.025624 87.2901487,161.519651 C87.3124656,157.459741 87.3141187,153.399376 87.2889487,149.339467 C87.28552,148.786077 87.4926537,148.677459 88.0449553,148.68367 C90.3287164,148.709423 92.6129735,148.694426 94.8970653,148.694426" id="Fill-33" fill="#7C7C7C" transform="translate(94.842755, 155.413825) scale(-1, 1) translate(-94.842755, -155.413825) "></path>
                        <path d="M94.7961431,194.640514 C96.1329917,194.655368 97.2351025,193.683321 97.2594028,192.468299 C97.2835379,191.25631 96.206554,190.239699 94.8774748,190.219995 C93.5371547,190.200139 92.4466155,191.167487 92.4271092,192.393573 C92.4076028,193.628147 93.4594598,194.625659 94.7961431,194.640514 M94.8987996,185.711866 C97.1818732,185.712018 99.4651122,185.725962 101.74802,185.701104 C102.259154,185.695496 102.396029,185.829791 102.39388,186.29467 C102.37487,190.380512 102.371729,194.466506 102.396564,198.552348 C102.399831,199.080131 102.193361,199.162284 101.687022,199.160617 C97.1208744,199.145308 92.5545619,199.144095 87.9884147,199.161853 C87.4572789,199.1638 87.2875073,199.04254 87.2903175,198.534614 C87.3126341,194.474085 87.3147831,190.413252 87.2889504,186.352571 C87.2853583,185.792655 87.5037306,185.695496 88.0495788,185.701407 C90.3324871,185.726266 92.615726,185.711866 94.8987996,185.711866" id="Fill-35" fill="#7C7C7C" transform="translate(94.842755, 192.431406) scale(-1, 1) translate(-94.842755, -192.431406) "></path>
                        <path d="M57.0737434,154.536107 C57.091921,153.138105 58.2300128,152.028039 59.6239761,152.048879 C61.0115339,152.069545 62.1304093,153.224764 62.1091155,154.614604 C62.0876486,156.00757 60.9473063,157.112078 59.5469376,157.096275 C58.1500313,157.080645 57.0553927,155.947308 57.0737434,154.536107" id="Fill-37" fill="#FCF3F3" transform="translate(59.591465, 154.572516) scale(-1, 1) translate(-59.591465, -154.572516) "></path>
                        <path d="M94.7832357,157.096098 C93.3886143,157.073427 92.299583,155.932575 92.3252498,154.521048 C92.3503999,153.124578 93.4957603,152.020243 94.8888315,152.049145 C96.2720837,152.077701 97.3909161,153.245724 97.3600814,154.628695 C97.3290745,156.01807 96.1795798,157.11877 94.7832357,157.096098" id="Fill-39" fill="#FCF3F3" transform="translate(94.842755, 154.572516) scale(-1, 1) translate(-94.842755, -154.572516) "></path>
                        <path d="M94.7935952,194.113832 C93.4007834,194.096871 92.304758,192.957919 92.3250835,191.548291 C92.345409,190.148355 93.4817408,189.043843 94.8783421,189.066515 C96.2632303,189.089013 97.3854377,190.249772 97.3602892,191.633613 C97.3349685,193.020916 96.1865792,194.130792 94.7935952,194.113832" id="Fill-41" fill="#FCF3F3" transform="translate(94.842755, 191.590098) scale(-1, 1) translate(-94.842755, -191.590098) "></path>
                        <path d="M22.4717305,93.1569834 L131.962489,93.1569834 C136.608961,93.1569834 140.37567,96.9236926 140.37567,101.570164 L140.37567,116.713626 L140.37567,116.713626 L14.0585499,116.713626 L14.0585499,101.570164 C14.0585499,96.9236926 17.8252591,93.1569834 22.4717305,93.1569834 Z" id="Rectangle-Copy-81" fill="#004A23"></path>
                        <rect id="Rectangle-Copy-84" fill="#FFFFFF" x="21.8222267" y="101.57007" width="48.6803519" height="6.73046936" rx="3.36523468"></rect>
                        <rect id="Rectangle-Copy-85" fill="#FFFFFF" x="109.111134" y="101.57007" width="25.1794924" height="6.73046936" rx="3.36523468"></rect>
                    </g>
                </g>
                <g id="Group-9" transform="translate(346.000000, 201.000000)">
                    <path d="M0,97.817533 C6.67326506,83.8378394 14.6740379,70.5534326 22.0458428,56.9398136 C31.1726939,40.0853094 40.492043,23.3323509 49.6894062,6.51470922 C51.5629127,3.08904787 54.2440177,0.8376539 58.1687212,0.107822964 C58.7920481,-0.00832865588 59.4047983,-0.0245574251 60.0285953,0.0301567111 C60.0285953,10.1525038 60.0285953,20.2750826 60.0278902,30.3974297 C58.7405743,30.4210773 57.4518482,30.414354 56.1664126,30.4755596 C54.2367315,30.5673681 52.9106339,31.8635831 52.7571526,33.7709271 C52.7202513,34.2302013 52.7378793,34.6950396 52.7486911,35.1570959 C52.998304,45.9026276 53.2716559,56.6476958 53.4791965,67.3941549 C53.5104569,69.0205094 54.1939541,70.0749157 55.5755212,70.8316401 C56.96696,71.5936967 58.4902563,71.8828006 60.0262449,72.1482569 C60.0271851,74.5737624 60.0278902,76.9994997 60.0285953,79.425237 C55.1352907,80.0472626 52.7677294,82.4361374 52.7414049,86.7777969 C52.7143753,91.2880037 55.1775979,93.8595681 60.0278902,94.3839892 C60.0274201,99.9226363 60.02695,105.461283 60.0264799,110.99993 L9.14471414,110.99993 C9.1042872,110.820255 8.96443821,110.798926 8.80719623,110.759281 C4.4105318,109.655029 1.60462034,106.927205 0.303907147,102.656257 C0.233865129,102.426272 0.367368037,102.086163 0,101.980444 L0,97.817533 Z" id="Fill-1" fill="#FEBB00"></path>
                    <path d="M60.0264329,111 C60.0264329,105.461353 60.0273731,99.922474 60.0278432,94.3838269 C66.2209208,93.6481999 69.2541163,88.0553024 66.2472454,82.8692833 C64.8830713,80.5168072 62.6631154,79.5871306 60.0285483,79.4250748 C60.0278432,76.9995693 60.0271381,74.573832 60.0264329,72.1480946 C61.635519,71.8578315 63.2359086,71.5460073 64.6938638,70.754507 C65.988936,70.0513376 66.7076894,69.0857259 66.7133303,67.5289232 C66.7279028,63.3713444 66.8564699,59.2144611 66.9337982,55.0571141 C67.0621302,48.1666105 67.2033894,41.2763388 67.3021064,34.3856034 C67.3373624,31.9276403 65.8946849,30.5145782 63.4194751,30.4531407 C62.2891662,30.4250881 61.1586222,30.4155827 60.0280782,30.3974992 C60.0280782,20.2751522 60.0280782,10.1525733 60.0280782,0.030226263 C64.2329497,0.0828538432 67.5766335,1.83254701 69.6217194,5.41794581 C73.902979,12.9246789 78.0009072,20.5331896 82.1615911,28.1066925 C94.2720441,50.151389 106.380382,72.1970128 118.480963,94.2470415 C122.13396,100.903851 118.932711,108.605793 111.722613,110.616537 C111.296485,110.735239 110.777751,110.594513 110.439293,111 L60.0264329,111 Z" id="Fill-3" fill="#FCCD48"></path>
                    <path d="M60.0280077,30.3974992 C61.1585517,30.4155827 62.2893307,30.4250881 63.4194046,30.4531407 C65.8946143,30.5145782 67.3372919,31.9276403 67.3020358,34.3856034 C67.2033189,41.2763388 67.0620597,48.1666105 66.9339627,55.0571141 C66.8563994,59.2144611 66.7278323,63.3713444 66.7132598,67.5289232 C66.7076189,69.0857259 65.9891006,70.0513376 64.6937933,70.754507 C63.2358381,71.5460073 61.6354485,71.8578315 60.0263624,72.1480946 C58.4903739,71.8828702 56.9668424,71.5937662 55.5756387,70.8317096 C54.1940717,70.0749853 53.5105744,69.0203471 53.479079,67.3942244 C53.2715384,56.6477653 52.9981865,45.9026972 52.7485736,35.1569336 C52.7379968,34.6951092 52.7203688,34.2302709 52.7572701,33.7707648 C52.9107515,31.8636526 54.236614,30.5674376 56.1662951,30.4756292 C57.4517306,30.4144235 58.7406918,30.4211469 60.0280077,30.3974992" id="Fill-5" fill="#FEFEFE"></path>
                    <path d="M60.0285718,79.4251443 C62.6631389,79.5872002 64.8830948,80.5168768 66.2472689,82.8693528 C69.2541398,88.0553719 66.2209443,93.6482695 60.0278667,94.3838964 C55.1775744,93.8594753 52.7143517,91.2881428 52.7416164,86.7777041 C52.7677059,82.4360447 55.1352672,80.0474017 60.0285718,79.4251443" id="Fill-7" fill="#FEFEFE"></path>
                </g>
            </g>
        </g>
    </g>
</svg>