<?xml version="1.0" encoding="UTF-8"?>
<svg width="200px" height="52px" viewBox="0 0 200 52" version="1.1" xmlns="http://www.w3.org/2000/svg" xmlns:xlink="http://www.w3.org/1999/xlink">
    <title>smart</title>
    <g id="Page-1" stroke="none" stroke-width="1" fill="none" fill-rule="evenodd">
        <g id="smart">
            <path d="M10,0 L190,0 C195.522847,-2.79088747e-15 200,4.4771525 200,10 L200,51.7073171 L200,51.7073171 L0,51.7073171 L0,10 C-6.76353751e-16,4.4771525 4.4771525,-7.61826213e-16 10,0 Z" id="Rectangle" fill="#002612"></path>
            <g id="Combo-Smart" transform="translate(36.226000, 18.318606)" fill="#FFFFFF" fill-rule="nonzero">
                <path d="M6.84,13.878 C9.396,13.878 11.538,12.654 12.708,11.052 L10.872,9.378 C9.936,10.548 8.568,11.322 7.002,11.322 C4.608,11.322 2.772,9.54 2.772,7.074 C2.772,4.536 4.644,2.718 7.02,2.718 C8.586,2.718 9.9,3.51 10.818,4.644 L12.6,2.898 C11.448,1.278 9.342,0.144 6.876,0.144 C3.132,0.144 0,2.97 0,7.074 C0,11.142 3.042,13.878 6.84,13.878 Z" id="Path"></path>
                <path d="M18.936,13.932 C22.068,13.932 24.192,11.628 24.192,8.766 C24.192,5.94 22.068,3.6 18.936,3.6 C15.804,3.6 13.68,5.94 13.68,8.766 C13.68,11.628 15.804,13.932 18.936,13.932 Z M18.936,11.574 C17.406,11.574 16.218,10.332 16.218,8.766 C16.218,7.218 17.406,5.976 18.936,5.976 C20.466,5.976 21.654,7.218 21.654,8.766 C21.654,10.332 20.466,11.574 18.936,11.574 Z" id="Shape"></path>
                <path d="M37.836,3.6 C36.396,3.6 35.046,4.23 34.326,5.328 C33.768,4.14 32.616,3.6 31.446,3.6 C30.186,3.582 29.016,4.23 28.458,5.274 L28.458,3.87 L25.974,3.87 L25.974,13.68 L28.512,13.68 L28.512,8.316 C28.512,6.804 29.448,5.94 30.654,5.94 C31.842,5.94 32.634,6.768 32.634,8.244 L32.634,13.68 L35.172,13.68 L35.172,8.298 C35.172,6.84 36.09,5.94 37.332,5.94 C38.466,5.94 39.294,6.678 39.294,8.226 L39.294,13.68 L41.832,13.68 L41.832,7.758 C41.832,5.058 40.068,3.6 37.836,3.6 Z" id="Path"></path>
                <path d="M49.536,3.618 C48.186,3.618 47.232,4.212 46.548,5.004 L46.548,0 L44.01,0 L44.01,13.68 L46.476,13.68 L46.476,12.456 C47.16,13.284 48.132,13.914 49.536,13.914 C52.326,13.914 54.432,11.718 54.432,8.784 C54.432,5.85 52.326,3.618 49.536,3.618 Z M49.14,11.592 C47.52,11.592 46.44,10.314 46.44,8.766 C46.44,7.236 47.52,5.958 49.14,5.958 C50.76,5.958 51.84,7.218 51.84,8.766 C51.84,10.314 50.76,11.592 49.14,11.592 Z" id="Shape"></path>
                <path d="M60.948,13.932 C64.08,13.932 66.204,11.628 66.204,8.766 C66.204,5.94 64.08,3.6 60.948,3.6 C57.816,3.6 55.692,5.94 55.692,8.766 C55.692,11.628 57.816,13.932 60.948,13.932 Z M60.948,11.574 C59.418,11.574 58.23,10.332 58.23,8.766 C58.23,7.218 59.418,5.976 60.948,5.976 C62.478,5.976 63.666,7.218 63.666,8.766 C63.666,10.332 62.478,11.574 60.948,11.574 Z" id="Shape"></path>
                <path d="M76.662,13.896 C79.578,13.896 81.54,12.204 81.54,9.846 C81.54,8.154 80.568,7.164 79.272,6.534 C78.372,6.084 77.04,5.58 76.338,5.256 C75.798,4.986 75.258,4.608 75.258,3.942 C75.258,3.186 75.906,2.664 76.968,2.664 C77.886,2.664 79.092,3.078 79.884,3.906 L81.306,1.962 C80.064,0.702 78.48,0.162 76.932,0.162 C74.232,0.162 72.396,1.854 72.396,4.05 C72.396,5.706 73.332,6.696 74.502,7.362 C75.438,7.884 76.536,8.208 77.382,8.604 C78.066,8.928 78.588,9.324 78.588,9.99 C78.588,10.818 77.796,11.412 76.68,11.412 C75.33,11.412 74.034,10.764 73.152,9.558 L71.622,11.412 C72.756,13.05 74.628,13.896 76.662,13.896 Z" id="Path"></path>
                <path d="M95.202,3.6 C93.762,3.6 92.412,4.23 91.692,5.328 C91.134,4.14 89.982,3.6 88.812,3.6 C87.552,3.582 86.382,4.23 85.824,5.274 L85.824,3.87 L83.34,3.87 L83.34,13.68 L85.878,13.68 L85.878,8.316 C85.878,6.804 86.814,5.94 88.02,5.94 C89.208,5.94 90,6.768 90,8.244 L90,13.68 L92.538,13.68 L92.538,8.298 C92.538,6.84 93.456,5.94 94.698,5.94 C95.832,5.94 96.66,6.678 96.66,8.226 L96.66,13.68 L99.198,13.68 L99.198,7.758 C99.198,5.058 97.434,3.6 95.202,3.6 Z" id="Path"></path>
                <path d="M108.846,3.87 L108.846,5.04 C108.108,4.23 107.1,3.618 105.714,3.618 C102.924,3.618 100.854,5.778 100.854,8.73 C100.854,11.646 102.87,13.914 105.714,13.914 C107.1,13.914 108.126,13.32 108.846,12.546 L108.846,13.68 L111.258,13.68 L111.258,3.87 L108.846,3.87 Z M106.128,11.61 C104.508,11.61 103.392,10.332 103.392,8.766 C103.392,7.236 104.49,5.94 106.128,5.94 C107.748,5.94 108.882,7.236 108.882,8.766 C108.882,10.314 107.748,11.61 106.128,11.61 Z" id="Shape"></path>
                <path d="M113.544,13.68 L116.082,13.68 L116.082,9.018 C116.082,6.876 117.144,6.048 118.476,6.048 C118.854,6.048 119.25,6.12 119.646,6.246 L119.862,3.816 C119.466,3.672 119.034,3.6 118.674,3.6 C117.522,3.6 116.586,4.104 115.974,5.184 L115.974,3.87 L113.544,3.87 L113.544,13.68 Z" id="Path"></path>
                <path d="M127.458,11.106 C126.972,11.376 126.45,11.61 125.82,11.61 C124.866,11.61 124.434,11.016 124.434,9.882 L124.434,5.994 L127.674,5.994 L127.674,3.87 L124.434,3.87 L124.434,0.396 L121.914,0.396 L121.914,3.87 L120.294,3.87 L120.294,5.994 L121.896,5.994 L121.896,10.044 C121.896,12.582 123.066,13.914 125.316,13.914 C126.324,13.914 127.44,13.626 128.214,13.104 L127.458,11.106 Z" id="Path"></path>
            </g>
        </g>
    </g>
</svg>