<svg width="18" height="17" viewBox="0 0 18 17" fill="none" xmlns="http://www.w3.org/2000/svg">
<path d="M13.1455 4.68066C12.4587 4.23276 11.9629 3.5164 11.8084 2.68126C11.7749 2.50074 11.7566 2.3151 11.7566 2.125H9.56457L9.56095 10.9098C9.52412 11.8936 8.71452 12.6832 7.72185 12.6832C7.41338 12.6832 7.1228 12.6061 6.86712 12.4713C6.28063 12.1627 5.87935 11.5478 5.87935 10.8404C5.87935 9.82435 6.70597 8.99772 7.72185 8.99772C7.91153 8.99772 8.09333 9.02902 8.26555 9.08287V6.84505C8.08737 6.82078 7.90642 6.80566 7.72185 6.80566C5.49743 6.80588 3.6875 8.61581 3.6875 10.8404C3.6875 12.2054 4.36958 13.4133 5.40994 14.1437C6.06519 14.6038 6.86244 14.875 7.72206 14.875C9.94669 14.875 11.7566 13.0651 11.7566 10.8404V6.38586C12.6162 7.00301 13.6696 7.36661 14.8062 7.36661V5.17455C14.1939 5.17455 13.6236 4.99254 13.1455 4.68066Z" fill="white"/>
</svg>
