<?xml version="1.0" encoding="UTF-8"?>
<svg width="29px" height="17px" viewBox="0 0 29 17" version="1.1" xmlns="http://www.w3.org/2000/svg" xmlns:xlink="http://www.w3.org/1999/xlink">
    <title>Group 32</title>
    <defs>
        <polygon id="path-1" points="0 0 3.35983116 0 3.35983116 7.34945406 0 7.34945406"></polygon>
        <polygon id="path-3" points="0 0 3.26679521 0 3.26679521 6.48929024 0 6.48929024"></polygon>
        <polygon id="path-5" points="0 0 1.63222168 0 1.63222168 1.61076172 0 1.61076172"></polygon>
    </defs>
    <g id="Page-1" stroke="none" stroke-width="1" fill="none" fill-rule="evenodd">
        <g id="Group-32">
            <g id="Group-20" transform="translate(3.000000, 3.000000)">
                <g id="Group-3" transform="translate(16.237546, 0.000000)">
                    <mask id="mask-2" fill="white">
                        <use xlink:href="#path-1"></use>
                    </mask>
                    <g id="Clip-2"></g>
                    <path d="M3.07085565,-1.71949e-05 C3.44887885,0.0862152293 3.32143399,0.385578441 3.3461814,0.627252762 C3.38455282,1.00124184 3.37661986,1.25452272 2.84493849,1.20250815 C2.35481899,1.15470632 2.00490609,1.83528047 2.21581958,2.30942984 C2.28273245,2.45988522 2.41026355,2.39265316 2.51028793,2.39600617 C3.36196111,2.42463567 3.35325209,2.42231436 3.335058,3.25351584 C3.33031546,3.47180509 3.27599187,3.53843533 3.04903998,3.54436757 C2.21280161,3.56594717 2.21306029,3.57549034 2.21306029,4.41262405 C2.21306029,5.27718363 2.19978119,6.14200114 2.22056212,7.00595889 C2.22746035,7.29380152 2.1343342,7.35088859 1.86375098,7.34945406 C0.852211242,7.34401063 0.852125014,7.3538977 0.852125014,6.33750715 C0.852125014,5.51550495 0.843243538,4.69341677 0.857557373,3.87158652 C0.861782541,3.62509763 0.815823059,3.48418542 0.536530823,3.53852131 C0.103149293,3.62294827 -0.0592178824,3.44670054 0.0189046139,3.02310417 C0.034080728,2.94082658 0.0322699417,2.85175699 0.0190770698,2.76870563 C-0.0274860075,2.4754466 0.0815060845,2.3466568 0.387011608,2.3982415 C0.731319697,2.45627429 0.871181384,2.36763458 0.865749025,1.96355443 C0.850659139,0.858954042 1.2266991,0.383171155 2.29825348,-1.71949e-05 L3.07085565,-1.71949e-05 Z" id="Fill-1" fill="#FFFFFF" mask="url(#mask-2)"></path>
                </g>
                <g id="Group-6" transform="translate(19.733205, 0.921930)">
                    <mask id="mask-4" fill="white">
                        <use xlink:href="#path-3"></use>
                    </mask>
                    <g id="Clip-5"></g>
                    <path d="M3.2668297,6.40561615 C2.92821265,6.42478846 2.59787349,6.51824275 2.25149593,6.48032799 C1.49475969,6.39753455 0.982565844,5.92269738 0.938848288,5.16509008 C0.89728643,4.44513961 0.8993559,3.72166419 0.911772721,3.00033813 C0.916515256,2.72350023 0.841841877,2.64173848 0.560480171,2.65024996 C0.00431008071,2.66718694 0.00370648526,2.65007801 0.00370648526,2.1042259 C0.00370648526,1.96253993 0.0118981377,1.8203381 0.00163701516,1.6794259 C-0.00983129833,1.52235048 0.0368180069,1.4723993 0.20961876,1.45563427 C0.838737672,1.39459238 1.01653964,1.18825357 1.03387146,0.562703107 C1.04947871,8.59745007e-05 1.04947871,8.59745007e-05 1.62556745,0 C2.23735455,0 2.23735455,0 2.23735455,0.58548635 C2.23735455,1.49234538 2.23735455,1.49251733 3.1392986,1.4760962 C3.1818952,1.47523646 3.22431933,1.4680146 3.2668297,1.46380185 L3.2668297,2.65669805 C3.02418433,2.65687 2.78007308,2.67320515 2.53915227,2.65291517 C2.29667936,2.63245324 2.22286826,2.71258147 2.23174973,2.95494359 C2.25028874,3.46460043 2.23614736,3.97537494 2.23761323,4.48571957 C2.23976893,5.20171522 2.36316109,5.31597533 3.09799543,5.2911287 C3.1541298,5.28923726 3.21052286,5.2955134 3.2668297,5.29800666 L3.2668297,6.40561615 Z" id="Fill-4" fill="#FFFFFF" mask="url(#mask-4)"></path>
                </g>
                <g id="Group-9" transform="translate(14.026940, 0.000000)">
                    <mask id="mask-6" fill="white">
                        <use xlink:href="#path-5"></use>
                    </mask>
                    <g id="Clip-8"></g>
                    <path d="M1.07473771,-1.71949002e-05 C1.60055557,0.357808677 1.76456108,0.786305589 1.52338158,1.19330887 C1.3387676,1.50479449 1.05628494,1.65800105 0.696628278,1.59790488 C0.328866195,1.53634713 0.0675093664,1.32914859 0.0119785853,0.938652404 C-0.0381198367,0.586844747 0.0645776171,0.299517966 0.402504839,0.1257635 C0.462002105,0.0951565774 0.543142578,0.0856134078 0.559612111,-1.71949002e-05 L1.07473771,-1.71949002e-05 Z" id="Fill-7" fill="#FFFFFF" mask="url(#mask-6)"></path>
                </g>
                <path d="M7.03389157,4.85393117 C7.02794185,5.68332717 7.52073441,6.25196252 8.24772202,6.25446477 C8.98617793,6.25703502 9.49319811,5.7044769 9.50233827,4.88694537 C9.51130597,4.08213807 8.99661151,3.48891402 8.2835066,3.48203606 C7.56134776,3.47507212 7.03975507,4.04774827 7.03389157,4.85393117 M6.98698358,2.95733368 C8.26971014,1.75592601 10.2675248,2.30470125 10.6888345,3.90339709 C10.9761459,4.99398363 10.9086294,6.06342044 9.99435478,6.88722811 C9.16510087,7.63451847 7.97688012,7.64191228 7.04699822,6.91181682 C7.04699822,7.60967184 7.03337421,8.26720482 7.05355154,8.92379208 C7.06182942,9.19263434 6.9749979,9.25169883 6.71596923,9.25341832 C5.69882467,9.2598664 5.6989109,9.26949555 5.6989109,8.24915017 C5.6989109,6.46062264 5.71546666,4.67192315 5.68675276,2.88382548 C5.67985453,2.45472675 5.81126588,2.33040762 6.20765563,2.39660799 C6.30500696,2.41277119 6.40873915,2.40916026 6.50738389,2.39720981 C6.86911002,2.35301892 7.14797111,2.39179341 6.98698358,2.95733368" id="Fill-10" fill="#FFFFFF"></path>
                <path d="M3.26327393,6.88583532 C2.63449993,7.5359745 1.90492549,7.61103023 1.15112101,7.32757231 C0.323505424,7.01643059 0.0346418885,6.30688303 0.0125675407,5.48978138 C-0.0131283797,4.53933327 0.00998070311,3.5877675 0.00144413894,2.63680355 C-0.000194191562,2.45367786 0.0494730909,2.36873505 0.240467936,2.39882613 C0.254436859,2.40097549 0.269009378,2.39942795 0.283323212,2.39899808 C1.36617344,2.3604815 1.36600099,2.3604815 1.36625967,3.42003125 C1.3663459,4.0304502 1.35772311,4.64104111 1.36996747,5.25111616 C1.38264298,5.8770965 1.67590414,6.20964587 2.2026705,6.22907611 C2.83532476,6.2523752 3.15410938,5.99453767 3.18506521,5.3261719 C3.22516119,4.46230012 3.21343419,3.59541923 3.2032593,2.72999991 C3.20032755,2.47818059 3.25335772,2.39220609 3.52911461,2.3911744 C4.55729634,2.38687567 4.55445082,2.37501119 4.55807239,3.39114382 C4.56247002,4.63983746 4.56376344,5.88870306 4.58851085,7.13713879 C4.59239111,7.3333326 4.52573692,7.34597085 4.38096024,7.34347759 C4.19505285,7.34038251 4.00733466,7.32688451 3.82349673,7.34631475 C3.49246775,7.38130637 3.23154206,7.34304772 3.26327393,6.88583532" id="Fill-12" fill="#FFFFFF"></path>
                <path d="M11.6726864,3.74952852 C11.6726864,2.67072049 11.6848445,1.5917405 11.6650121,0.513362341 C11.6594073,0.208754685 11.7514125,0.141178728 12.0453635,0.144445759 C13.0305175,0.15536452 13.0306899,0.143242116 13.0306899,1.10039623 C13.0306899,3.04496749 13.02086,4.98962472 13.0397439,6.93402403 C13.043193,7.28058724 12.9366153,7.35117231 12.6121396,7.34489617 C11.6729451,7.32684152 11.6726864,7.34076939 11.6726864,6.38963349 L11.6726864,3.74952852 Z" id="Fill-14" fill="#FFFFFF"></path>
                <path d="M16.5425376,10.9967405 C14.7059691,10.988315 13.2407843,10.4009372 11.9609032,9.32616994 C11.7141189,9.11897139 11.5796896,8.88004825 11.8236284,8.6003732 C12.0661875,8.32224569 12.3312522,8.41690362 12.5770017,8.61997539 C13.7187456,9.56302969 15.0270819,10.0760395 16.5172728,10.0447448 C17.8777769,10.0161153 19.0829846,9.53379836 20.1328095,8.6749131 C20.3785591,8.47381874 20.637674,8.29335826 20.9253304,8.56503768 C21.1865147,8.81169853 21.1209815,9.07735973 20.8615217,9.29702458 C19.8844731,10.1243572 18.7749785,10.6832774 17.5035478,10.9022545 C17.1376827,10.9653598 16.7681098,11.0131616 16.5425376,10.9967405" id="Fill-16" fill="#FFFFFF"></path>
                <path d="M15.5190035,4.86878756 C15.5190035,5.57859304 15.5102945,6.28848449 15.5238323,6.99803204 C15.5284024,7.23764298 15.495722,7.34407941 15.2072034,7.34588487 C14.1612587,7.35241894 14.1613449,7.36557303 14.1613449,6.32528158 C14.1613449,5.13290123 14.1733306,3.94026295 14.1531533,2.74814053 C14.1479796,2.43932012 14.2425716,2.37973979 14.5339358,2.38352267 C15.5188311,2.39659079 15.5190035,2.38446839 15.5190035,3.37824764 L15.5190035,4.86878756 Z" id="Fill-18" fill="#FFFFFF"></path>
            </g>
            <rect id="Rectangle" x="0" y="0" width="29" height="17"></rect>
        </g>
    </g>
</svg>