<?xml version="1.0" encoding="UTF-8"?>
<svg width="39px" height="17px" viewBox="0 0 39 17" version="1.1" xmlns="http://www.w3.org/2000/svg" xmlns:xlink="http://www.w3.org/1999/xlink">
    <title>visa</title>
    <g id="Page-1" stroke="none" stroke-width="1" fill="none" fill-rule="evenodd">
        <g id="Group-36">
            <polygon id="Path" points="0 0 39 0 39 17 0 17"></polygon>
            <path d="M20.0594439,6.50618338 C20.0462664,8.03266721 21.3777907,8.89893286 22.3894616,9.40817331 C23.4286855,9.93040774 23.7748938,10.2602075 23.7748938,10.7273722 C23.7617163,11.4426601 22.9495045,11.758847 22.1768251,11.7730785 C20.8315243,11.800304 20.0594439,11.4018218 19.4335136,11.0986289 L18.9543326,13.4363086 C19.5796638,13.7252701 20.7255055,13.9863873 21.9240571,14 C24.7206774,14 26.5583367,12.5706617 26.5721131,10.3561154 C26.5846916,7.55127101 22.8165317,7.38606178 22.8291102,6.13492667 C22.8428867,5.75005722 23.188496,5.35157502 23.9611754,5.24143553 C24.3475152,5.18636579 25.3999165,5.14490879 26.5846916,5.72283173 L27.0512942,3.46744723 C26.4115875,3.21994276 25.5861981,3.00009287 24.5607507,3.00009287 C21.9372345,2.98666979 20.0726213,4.42962086 20.0594439,6.50618338 M31.5657785,3.17910452 C31.0596435,3.17910452 30.6199949,3.48167874 30.4337133,3.96245617 L26.4385414,13.821178 L29.2351617,13.821178 L29.7946056,12.2266305 L33.2165572,12.2266305 L33.5364105,13.821178 L36,13.821178 L33.8424874,3.17848575 L31.5651795,3.17848575 M31.9515192,6.05263144 L32.7637311,10.0541599 L30.5535085,10.0541599 L31.9515192,6.05263144 M16.6764257,3.17910452 L14.4662032,13.8217968 L17.1292518,13.8217968 L19.3400733,3.17910452 L16.6764257,3.17910452 M12.7213853,3.17910452 L9.9511199,10.424798 L8.83283116,4.26503039 C8.69925945,3.57820548 8.179947,3.17910452 7.60732566,3.17910452 L3.06588739,3.17910452 L3,3.49467272 C3.93200712,3.70133895 4.98380949,4.04537017 5.63609467,4.40239537 C6.02243438,4.62267435 6.14222964,4.81510908 6.27580136,5.33734351 L8.40636004,13.8354095 L11.2299343,13.8354095 L15.5449595,3.19271726 L12.7213853,3.17910452" id="Shape" fill="#FFFFFF" fill-rule="nonzero"></path>
        </g>
    </g>
</svg>