<svg width="23" height="15" viewBox="0 0 23 15" fill="none" xmlns="http://www.w3.org/2000/svg">
<g clip-path="url(#clip0_455_7021)">
<path d="M20.1251 3.0301C19.9177 2.2306 19.3087 1.6023 18.5337 1.38829C17.1291 1 11.5 1 11.5 1C11.5 1 5.87092 1 4.46773 1.38829C3.69279 1.6023 3.0838 2.2306 2.87636 3.0301C2.5 4.47778 2.5 7.5 2.5 7.5C2.5 7.5 2.5 10.5222 2.87636 11.9699C3.0838 12.7694 3.69279 13.3977 4.46773 13.6117C5.87092 14 11.5 14 11.5 14C11.5 14 17.1291 14 18.5323 13.6117C19.3072 13.3977 19.9162 12.7694 20.1236 11.9699C20.5 10.5222 20.5 7.5 20.5 7.5C20.5 7.5 20.5 4.47778 20.1236 3.0301H20.1251ZM9.6997 10.2853V4.71472L14.376 7.5L9.6997 10.2853Z" fill="white"/>
</g>
<defs>
<clipPath id="clip0_455_7021">
<rect width="18" height="13" fill="white" transform="translate(2.5 1)"/>
</clipPath>
</defs>
</svg>
