<?xml version="1.0" encoding="UTF-8"?>
<svg width="200px" height="52px" viewBox="0 0 200 52" version="1.1" xmlns="http://www.w3.org/2000/svg" xmlns:xlink="http://www.w3.org/1999/xlink">
    <title>zero</title>
    <g id="Page-1" stroke="none" stroke-width="1" fill="none" fill-rule="evenodd">
        <g id="zero">
            <path d="M10,0 L190,0 C195.522847,-2.79088747e-15 200,4.4771525 200,10 L200,51.7073171 L200,51.7073171 L0,51.7073171 L0,10 C-6.76353751e-16,4.4771525 4.4771525,-7.61826213e-16 10,0 Z" id="Rectangle-Copy-71" fill="#F6F6F6"></path>
            <g id="Tarifa-Zero" transform="translate(50.170610, 17.886606)" fill="#454545" fill-rule="nonzero">
                <polygon id="Path" points="3.798 3.384 3.798 14.112 6.498 14.112 6.498 3.384 10.296 3.384 10.296 0.81 0 0.81 0 3.384"></polygon>
                <path d="M19.17,4.302 L19.17,5.472 C18.432,4.662 17.424,4.05 16.038,4.05 C13.248,4.05 11.178,6.21 11.178,9.162 C11.178,12.078 13.194,14.346 16.038,14.346 C17.424,14.346 18.45,13.752 19.17,12.978 L19.17,14.112 L21.582,14.112 L21.582,4.302 L19.17,4.302 Z M16.452,12.042 C14.832,12.042 13.716,10.764 13.716,9.198 C13.716,7.668 14.814,6.372 16.452,6.372 C18.072,6.372 19.206,7.668 19.206,9.198 C19.206,10.746 18.072,12.042 16.452,12.042 Z" id="Shape"></path>
                <path d="M23.868,14.112 L26.406,14.112 L26.406,9.45 C26.406,7.308 27.468,6.48 28.8,6.48 C29.178,6.48 29.574,6.552 29.97,6.678 L30.186,4.248 C29.79,4.104 29.358,4.032 28.998,4.032 C27.846,4.032 26.91,4.536 26.298,5.616 L26.298,4.302 L23.868,4.302 L23.868,14.112 Z" id="Path"></path>
                <path d="M32.76,3.204 C33.642,3.204 34.326,2.538 34.326,1.638 C34.326,0.756 33.642,0.09 32.76,0.09 C31.878,0.09 31.194,0.756 31.194,1.638 C31.194,2.538 31.878,3.204 32.76,3.204 Z M34.02,14.112 L34.02,4.302 L31.482,4.302 L31.482,14.112 L34.02,14.112 Z" id="Shape"></path>
                <path d="M41.508,2.25 C42.066,2.25 42.57,2.43 43.092,2.664 L43.92,0.72 C43.074,0.27 42.192,0 41.13,0 C38.88,0 37.152,1.296 37.152,3.906 L37.152,4.302 L35.64,4.302 L35.64,6.426 L37.152,6.426 L37.152,14.112 L39.69,14.112 L39.69,6.426 L42.732,6.426 L42.732,4.302 L39.69,4.302 L39.69,3.96 C39.69,2.844 40.338,2.25 41.508,2.25 Z" id="Path"></path>
                <path d="M51.534,4.302 L51.534,5.472 C50.796,4.662 49.788,4.05 48.402,4.05 C45.612,4.05 43.542,6.21 43.542,9.162 C43.542,12.078 45.558,14.346 48.402,14.346 C49.788,14.346 50.814,13.752 51.534,12.978 L51.534,14.112 L53.946,14.112 L53.946,4.302 L51.534,4.302 Z M48.816,12.042 C47.196,12.042 46.08,10.764 46.08,9.198 C46.08,7.668 47.178,6.372 48.816,6.372 C50.436,6.372 51.57,7.668 51.57,9.198 C51.57,10.746 50.436,12.042 48.816,12.042 Z" id="Shape"></path>
                <polygon id="Path" points="60.156 14.112 70.578 14.112 70.578 11.646 63.918 11.646 70.38 2.79 70.38 0.81 60.408 0.81 60.408 3.276 66.744 3.276 60.156 12.204"></polygon>
                <path d="M81.918,8.982 C81.918,5.868 79.794,4.05 77.004,4.05 C73.944,4.05 71.892,6.264 71.892,9.198 C71.892,11.826 73.548,14.328 77.22,14.328 C79.038,14.328 80.568,13.662 81.504,12.978 L80.496,11.196 C79.668,11.772 78.408,12.186 77.328,12.186 C75.654,12.186 74.772,11.286 74.466,10.098 L81.828,10.098 C81.882,9.738 81.918,9.378 81.918,8.982 Z M77.004,6.156 C78.3,6.156 79.218,6.948 79.452,8.208 L74.466,8.208 C74.772,6.93 75.726,6.156 77.004,6.156 Z" id="Shape"></path>
                <path d="M83.664,14.112 L86.202,14.112 L86.202,9.45 C86.202,7.308 87.264,6.48 88.596,6.48 C88.974,6.48 89.37,6.552 89.766,6.678 L89.982,4.248 C89.586,4.104 89.154,4.032 88.794,4.032 C87.642,4.032 86.706,4.536 86.094,5.616 L86.094,4.302 L83.664,4.302 L83.664,14.112 Z" id="Path"></path>
                <path d="M95.976,14.364 C99.108,14.364 101.232,12.06 101.232,9.198 C101.232,6.372 99.108,4.032 95.976,4.032 C92.844,4.032 90.72,6.372 90.72,9.198 C90.72,12.06 92.844,14.364 95.976,14.364 Z M95.976,12.006 C94.446,12.006 93.258,10.764 93.258,9.198 C93.258,7.65 94.446,6.408 95.976,6.408 C97.506,6.408 98.694,7.65 98.694,9.198 C98.694,10.764 97.506,12.006 95.976,12.006 Z" id="Shape"></path>
            </g>
        </g>
    </g>
</svg>